0
SECTION
2
HEADER
9
$INSUNITS
70
4
9
$ACADVER
1
AC1014
9
$HANDSEED
5
FFFF
0
ENDSEC
0
SECTION
2
TABLES
0
TABLE
2
VPORT
5
8
100
AcDbSymbolTable
0
ENDTAB
0
TABLE
2
LTYPE
5
5
100
AcDbSymbolTable
0
LTYPE
5
14
100
AcDbSymbolTableRecord
100
AcDbLinetypeTableRecord
2
BYBLOCK
70
0
0
LTYPE
5
15
100
AcDbSymbolTableRecord
100
AcDbLinetypeTableRecord
2
BYLAYER
70
0
0
LTYPE
5
16
100
AcDbSymbolTableRecord
100
AcDbLinetypeTableRecord
2
DASHED
70
0
3
Dashed __ __ __ __ __ __ __ __ __ __ __ __ __ _
72
65
73
2
40
0.75
49
0.5
74
0
49
-0.25
74
0
0
ENDTAB
0
TABLE
2
LAYER
5
2
100
AcDbSymbolTable
70
3
0
LAYER
5
50
100
AcDbSymbolTableRecord
100
AcDbLayerTableRecord
2
1
70
0
62
7
6
DASHED
0
LAYER
5
51
100
AcDbSymbolTableRecord
100
AcDbLayerTableRecord
2
0
70
0
62
7
6
CONTINUOUS
0
ENDTAB
0
TABLE
2
STYLE
5
3
100
AcDbSymbolTable
70
1
0
STYLE
5
11
100
AcDbSymbolTableRecord
100
AcDbTextStyleTableRecord
2
STANDARD
70
0
0
ENDTAB
0
TABLE
2
VIEW
5
6
100
AcDbSymbolTable
70
0
0
ENDTAB
0
TABLE
2
UCS
5
7
100
AcDbSymbolTable
70
0
0
ENDTAB
0
TABLE
2
APPID
5
9
100
AcDbSymbolTable
70
2
0
APPID
5
12
100
AcDbSymbolTableRecord
100
AcDbRegAppTableRecord
2
ACAD
70
0
0
ENDTAB
0
TABLE
2
DIMSTYLE
5
A
100
AcDbSymbolTable
70
1
0
ENDTAB
0
TABLE
2
BLOCK_RECORD
5
1
100
AcDbSymbolTable
70
1
0
BLOCK_RECORD
5
1F
100
AcDbSymbolTableRecord
100
AcDbBlockTableRecord
2
*MODEL_SPACE
0
BLOCK_RECORD
5
1B
100
AcDbSymbolTableRecord
100
AcDbBlockTableRecord
2
*PAPER_SPACE
0
ENDTAB
0
ENDSEC
0
SECTION
2
BLOCKS
0
BLOCK
5
20
100
AcDbEntity
100
AcDbBlockBegin
2
*MODEL_SPACE
0
ENDBLK
5
21
100
AcDbEntity
100
AcDbBlockEnd
0
BLOCK
5
1C
100
AcDbEntity
100
AcDbBlockBegin
2
*PAPER_SPACE
0
ENDBLK
5
1D
100
AcDbEntity
100
AcDbBlockEnd
0
ENDSEC
0
SECTION
2
ENTITIES
0
LWPOLYLINE
5
100
100
AcDbEntity
8
0
100
AcDbPolyline
90
160
70
1
43
0.0
10
811.78315790618683
20
342.50065345886986
10
813.17321440889145
20
341.27098809109219
10
814.61673462323961
20
340.09478643495703
10
817.93148474507518
20
338.27702023911166
10
821.62048084840876
20
337.15428229461912
10
825.46986808666907
20
336.67310888983644
10
829.31925532492983
20
336.83350002476396
10
833.00825142826272
20
337.63545569940163
10
836.32300155009852
20
339.07897591374939
10
839.10311455550857
20
341.16406066780718
10
840.22585250000122
20
342.44718974722736
10
840.70702590478413
20
343.0887542869375
10
841.45551786777889
20
344.53227450128531
10
841.9366912725618
20
346.13618585056059
10
842.15054611913172
20
348.06087946969086
10
842.15054611913172
20
349.18361741418369
10
842.15054611913172
20
350.19942793539116
10
841.88322756091918
20
352.07065784287909
10
841.34859044449422
20
353.72803290379687
10
840.4931710582141
20
355.27848054142959
10
839.26350569043643
20
356.72200075577729
10
837.71305805280326
20
358.11205725848259
10
834.55869906589533
20
360.14367830089788
10
831.72512234884243
20
361.53373480360312
10
823.8659567373935
20
365.32965833022132
10
813.33360554381954
20
370.72949320611474
10
808.57533520763582
20
373.77692476973766
10
806.32985931865096
20
375.59469096558297
10
804.61902054609084
20
377.46592087307084
10
803.17550033174257
20
379.55100562712857
10
802.48047208038997
20
380.72720728326385
10
801.41119784753982
20
382.70536461403674
10
800.02114134483452
20
386.92899783379488
10
799.59343165169469
20
391.41994961176567
10
800.07460505647714
20
396.07129252466393
10
800.66270588454472
20
398.47715954857682
10
801.14387928932729
20
399.92067976292469
10
802.32008094546245
20
402.59386534504989
10
803.87052858309528
20
405.05319608060529
10
805.68829477894042
20
407.24520825794821
10
807.82684324464128
20
409.1699018770787
10
810.17924655691161
20
410.88074064963894
10
812.79896842739436
20
412.27079715234419
10
815.63254514444725
20
413.39353509683684
10
818.62651299642778
20
414.2489544831169
10
821.83433569497811
20
414.83705531118454
10
825.14908581681379
20
415.10437386939702
10
828.62422707357678
20
415.10437386939702
10
832.15283204198249
20
414.73012788789953
10
835.78836443367345
20
414.08856334818944
10
839.47736053700635
20
413.12621653862425
10
843.21982035198164
20
411.84308745920407
10
845.09105025946963
20
411.09459549620885
10
845.46529624096729
20
410.93420436128127
10
846.10686078067738
20
410.82727693799632
10
846.48110676217482
20
411.09459549620885
10
846.58803418545995
20
411.78962374756156
10
846.64149789710245
20
412.27079715234419
10
846.64149789710245
20
412.85889798041171
10
846.96228016695738
20
413.60738994340693
10
847.87116326488001
20
414.03509963654676
10
849.63546574908275
20
414.14202705983189
10
850.97205854014555
20
414.14202705983189
10
855.30261918318865
20
414.14202705983189
10
854.9283732016911
20
405.90861546688558
10
854.55412722019423
20
398.26330470200685
10
854.07295381541121
20
392.06151415147588
10
853.59178041062864
20
386.44782442901231
10
850.43742142372037
20
386.71514298722491
10
849.36814719087022
20
386.82207041050987
10
847.97809068816537
20
387.19631639200742
10
847.12267130188502
20
388.21212691321506
10
846.4276430505322
20
390.19028424398789
10
846.05339706903487
20
391.79419559326311
10
845.51875995260968
20
393.71888921239366
10
844.23563087318985
20
397.08710304587169
10
842.63171952391394
20
399.97414347456703
10
840.70702590478413
20
402.32654678683741
10
838.46155001579848
20
404.25124040596779
10
835.89529185695801
20
405.69476062031555
10
832.9547877166201
20
406.60364371823817
10
829.69350130642681
20
407.08481712302074
10
827.92919882222452
20
407.13828083466319
10
825.57679550995363
20
407.08481712302074
10
822.52936394633127
20
406.49671629495316
10
820.71159775048591
20
405.85515175524284
10
819.10768640121034
20
404.9997323689629
10
817.66416618686264
20
403.8769944244703
10
816.43450081908441
20
402.59386534504989
10
815.41869029787733
20
401.04341770741723
10
814.99098060473671
20
400.18799832113723
10
814.40287977666958
20
398.90486924171682
10
813.76131523695904
20
396.60592964108901
10
813.76131523695904
20
394.4139174637462
10
814.40287977666958
20
392.16844157476089
10
814.99098060473671
20
390.9922399186255
10
815.79293627937477
20
389.60218341592031
10
818.25226701493023
20
387.0359252570799
10
822.31550909976067
20
384.25581225166945
10
828.41037222700697
20
381.0479895531189
10
832.52707802348004
20
379.06983222234612
10
836.91110237816542
20
376.98474746828822
10
843.59406633347942
20
373.34921507659766
10
848.4058003813052
20
370.0344649547622
10
851.93440534971103
20
366.55932369799893
10
853.43138927570158
20
364.63463007886872
10
854.12641752705349
20
363.56535584601852
10
855.30261918318865
20
361.3733436686756
10
856.21150228111128
20
359.12786777969018
10
856.7996031091792
20
356.82892817906236
10
857.0669216673914
20
354.47652486679198
10
857.0669216673914
20
352.12412155452148
10
856.85306682082125
20
349.77171824225115
10
856.31842970439698
20
347.47277864162328
10
855.51647402975857
20
345.2273027526378
10
854.50066350855104
20
343.03529057529499
10
853.16407071748824
20
340.8967421095947
10
851.6670867914986
20
338.91858477882187
10
849.90278430729518
20
336.99389115969149
10
847.92462697652263
20
335.28305238713125
10
845.67915108753721
20
333.73260474949853
10
843.27328406362437
20
332.34254824679334
10
841.99015498420385
20
331.7009837070832
10
840.54663476985638
20
331.1128828790155
10
837.44573949459073
20
330.15053606945037
10
834.07752566111299
20
329.40204410645521
10
830.54892069270738
20
328.97433441331515
10
826.91338830101677
20
328.76047956674512
10
823.33131962096888
20
328.86740699003013
10
819.80271465256283
20
329.18818925988518
10
816.54142824236965
20
329.82975379959532
10
814.99098060473671
20
330.25746349273538
10
810.50002882676665
20
331.7009837070832
10
808.09416180285382
20
332.60986680500588
10
807.6664521097133
20
332.7702579399334
10
807.07835128164561
20
332.82372165157591
10
806.70410530014806
20
332.5564030933632
10
806.54371416522054
20
331.91483855365323
10
806.54371416522054
20
331.38020143722821
10
806.49025045357803
20
330.7921006091604
10
806.16946818372298
20
330.04360864616547
10
805.26058508580036
20
329.66936266466769
10
803.38935517831305
20
329.50897152974028
10
802.05276238724991
20
329.50897152974028
10
797.56181060927929
20
329.50897152974028
10
798.09644772570425
20
342.17987118901488
10
798.63108484212944
20
352.28451268944917
10
799.00533082362699
20
356.0804362160672
10
799.11225824691201
20
356.34775477427979
10
799.70035907497959
20
356.72200075577729
10
801.19734300096979
20
357.04278302563239
10
802.69432692696
20
356.98931931398982
10
803.76360115981015
20
356.88239189070481
10
805.20712137415842
20
356.50814590920731
10
806.00907704879592
20
355.59926281128463
10
806.65064158850612
20
353.72803290379687
10
806.97142385836116
20
352.23104897780667
10
807.45259726314373
20
350.19942793539116
10
808.4684077843508
20
347.09853266012567
10
809.80500057541394
20
344.69266563621284
0
LWPOLYLINE
5
101
100
AcDbEntity
8
0
100
AcDbPolyline
90
114
70
1
43
0.0
10
493.08597280519103
20
404.03738555939765
10
492.17708970726835
20
402.54040163340755
10
491.4820614559153
20
400.40185316770715
10
490.94742433949074
20
397.40788531572662
10
490.35932351142264
20
391.04570363026818
10
490.0385412415676
20
384.95084050302216
10
489.61083154842754
20
376.71742891007568
10
489.343512990215
20
364.04652925080114
10
489.61083154842754
20
357.1497104489174
10
490.0385412415676
20
353.51417805722684
10
490.62664206963518
20
350.52021020524626
10
491.37513403263023
20
348.06087946969086
10
491.85630743741336
20
347.04506894848322
10
492.44440826548089
20
345.97579471563301
10
493.67407363325856
20
343.99763738486013
10
495.11759384760626
20
342.3402623239424
10
496.77496890852387
20
340.8967421095947
10
498.59273510436924
20
339.77400416510199
10
500.62435614678458
20
338.8651210671793
10
502.86983203576989
20
338.22355652746916
10
505.38262648296813
20
337.79584683432921
10
506.71921927403042
20
337.68891941104414
10
508.85776773973072
20
337.58199198775912
10
512.86754611291872
20
337.90277425761417
10
516.44961479296717
20
338.8651210671793
10
519.65743749151761
20
340.41556870481213
10
522.49101420857085
20
342.55411717051237
10
524.89688123248334
20
345.28076646428042
10
526.98196598654113
20
348.6489802977585
10
528.63934104745931
20
352.65875867094672
10
529.33436929881145
20
354.90423455993204
10
529.70861528030935
20
357.04278302563239
10
530.831353224802
20
368.8047995869843
10
532.00755488093739
20
384.41620338659703
10
532.86297426721728
20
398.26330470200685
10
532.9699016905023
20
402.32654678683741
10
532.9699016905023
20
403.34235730804517
10
532.75604684393238
20
404.51855896418022
10
532.00755488093739
20
405.10665979224791
10
530.29671610837704
20
405.26705092717543
10
528.96012331731436
20
405.26705092717543
10
524.95034494412585
20
405.26705092717543
10
524.95034494412585
20
409.27682930036354
10
524.95034494412585
20
413.28660767355177
10
538.42320027803817
20
413.28660767355177
10
551.89605561195094
20
413.28660767355177
10
551.36141849552541
20
411.25498663113655
10
550.93370880238535
20
409.38375672364862
10
550.82678137910034
20
407.83330908601584
10
550.77331766745783
20
407.45906310451824
10
550.39907168596017
20
406.87096227645071
10
549.27633374146762
20
406.12247031345555
10
548.15359579697486
20
405.85515175524284
10
547.24471269905223
20
405.64129690867287
10
545.80119248470464
20
405.05319608060529
10
544.67845454021187
20
404.03738555939765
10
543.76957144228891
20
402.32654678683741
10
543.07454319093665
20
399.70682491635455
10
542.53990607451124
20
395.96436510137892
10
541.79141411151681
20
387.94480835500258
10
541.31024070673402
20
380.08564274355371
10
540.77560359030838
20
371.47798516910984
10
539.70632935745834
20
360.51792428239543
10
539.01130110610563
20
355.43887167635711
10
538.7439825478931
20
354.10227888529442
10
538.20934543146814
20
352.07065784287909
10
536.81928892876294
20
348.32819802790334
10
535.21537757948772
20
344.90652048278287
10
533.23722024871495
20
341.75216149587482
10
530.93828064808713
20
338.91858477882187
10
528.37202248924666
20
336.4057903316239
10
525.48498206055092
20
334.2137781542811
10
522.27715936200048
20
332.28908453515066
10
520.56632058944024
20
331.43366514887066
10
519.12280037509254
20
330.7921006091604
10
516.34268736968215
20
329.88321751123783
10
513.29525580605923
20
329.3485803948127
10
509.28547743287118
20
329.02779812495771
10
506.71921927403042
20
328.92087070167264
10
502.5490497659149
20
328.86740699003013
10
497.36306973659168
20
329.18818925988518
10
494.58295673118118
20
329.61589895302529
10
493.46021878668813
20
329.88321751123783
10
491.74938001412784
20
330.4178546276629
10
488.54155731557739
20
331.7544474187257
10
485.65451688688194
20
333.46528619128594
10
483.08825872804164
20
335.44344352205871
10
480.84278283905633
20
337.79584683432921
10
478.91808921992617
20
340.52249612809709
10
477.31417787065033
20
343.51646398007767
10
475.97758507958815
20
346.88467781355564
10
475.44294796316314
20
348.70244400940101
10
474.96177455838
20
350.52021020524626
10
474.37367373031236
20
354.20920630857944
10
474.15981888374239
20
359.07440406804773
10
474.26674630702786
20
366.45239627471392
10
474.48060115359749
20
371.63837630403737
10
475.01523827002273
20
386.76860669886736
10
475.60333909809015
20
396.98017562258661
10
476.19143992615767
20
405.26705092717543
10
472.07473412968466
20
405.26705092717543
10
467.90456462156919
20
405.26705092717543
10
467.90456462156919
20
409.27682930036354
10
467.90456462156919
20
413.28660767355177
10
483.99714182596472
20
413.28660767355177
10
500.08971903035933
20
413.28660767355177
10
499.82240047214691
20
409.97185755171637
10
499.7154730488619
20
408.95604703050873
10
499.39469077900685
20
407.56599052780325
10
498.75312623929636
20
406.71057114152319
10
497.52346087151909
20
406.17593402509812
10
496.66804148523852
20
405.96207917852803
10
495.75915838731635
20
405.69476062031555
10
494.2621744613262
20
405.05319608060529
0
LWPOLYLINE
5
102
100
AcDbEntity
8
0
100
AcDbPolyline
90
65
70
1
43
0.0
10
748.16134105160063
20
350.94791989838643
10
749.65832497759084
20
355.27848054142959
10
750.62067178715654
20
357.47049271877239
10
752.06419200150413
20
361.15948882210569
10
754.57698644870243
20
369.55329154997946
10
756.39475264454734
20
378.48173139427848
10
757.41056316575487
20
387.14285268036491
10
757.51749058903988
20
390.9922399186255
10
757.51749058903988
20
393.61196178910853
10
757.30363574246985
20
397.46134902736918
10
756.76899862604489
20
400.34838945606458
10
755.75318810483759
20
403.18196617311764
10
754.95123243019952
20
404.89280494567794
10
753.82849448570698
20
407.13828083466319
10
751.9038008665766
20
410.45303095649871
10
751.36916375015164
20
410.98766807292395
10
750.99491776865398
20
411.30845034277883
10
750.46028065222902
20
412.64504313384168
10
750.4068169405864
20
413.44699880847918
10
750.4068169405864
20
414.03509963654676
10
750.67413549879893
20
414.73012788789953
10
751.52955488507916
20
414.99744644611206
10
753.18692994599633
20
414.89051902282705
10
754.47005902541696
20
414.73012788789953
10
756.28782522126221
20
414.40934561804454
10
760.24413988280787
20
413.28660767355177
10
761.74112380879808
20
412.69850684548425
10
762.59654319507808
20
412.21733344070151
10
764.52123681420869
20
410.93420436128127
10
767.62213208947389
20
408.31448249079841
10
771.7923015975897
20
403.98392184775525
10
775.26744285435268
20
399.332578934857
10
776.44364451048784
20
397.14056675751414
10
777.24560018512602
20
395.48319169659635
10
778.6356566878311
20
392.00805043983326
10
779.70493092068068
20
388.26559062485762
10
780.56035030696137
20
384.36273967495453
10
781.14845113502884
20
380.29949759012391
10
781.46923340488433
20
376.18279179365061
10
781.52269711652661
20
369.820610108192
10
780.66727773024638
20
361.3733436686756
10
779.38414865082575
20
355.22501682978702
10
778.31487441797606
20
351.26870216824136
10
776.92481791527086
20
347.47277864162328
10
775.37437027763781
20
343.94417367321773
10
773.61006779343506
20
340.62942355138216
10
771.57844675101978
20
337.63545569940163
10
770.50917251816952
20
336.24539919669638
10
768.95872488053681
20
334.48109671249364
10
764.89548279570613
20
331.21981030230052
10
760.35106730609346
20
328.49316100853264
10
756.92938976097275
20
327.04964079418482
10
754.79084129527212
20
326.4615399661173
10
753.77503077406413
20
326.30114883118972
10
752.38497427135928
20
326.08729398461969
10
750.62067178715654
20
326.03383027297718
10
749.49793384266388
20
326.4615399661173
10
748.64251445638376
20
327.69120533389497
10
748.16134105160063
20
328.6535521434601
10
747.51977651189111
20
329.93668122288034
10
746.61089341396848
20
332.7702579399334
10
746.12972000918535
20
335.92461692684134
10
746.02279258590079
20
339.29283076031936
10
746.34357485575583
20
342.98182686365249
10
747.03860310710797
20
346.83121410191325
0
LWPOLYLINE
5
103
100
AcDbEntity
8
0
100
AcDbPolyline
90
58
70
1
43
0.0
10
750.4068169405864
20
400.18799832113723
10
750.46028065222902
20
397.67520387393915
10
750.46028065222902
20
394.84162715688626
10
749.76525240087642
20
388.8536914529252
10
748.32173218652872
20
382.11726378596916
10
745.96932887425783
20
374.20463446287772
10
744.41888123662511
20
369.60675526162208
10
743.45653442705998
20
366.82664225621147
10
742.11994163599729
20
362.33569047824068
10
741.31798596136025
20
358.32591210505262
10
740.8902762682194
20
353.9418877503669
10
740.78334884493506
20
351.32216587988387
10
740.67642142164959
20
348.54205287447337
10
740.67642142164959
20
344.37188336635779
10
741.10413111478965
20
341.11059695616473
10
742.06647792435479
20
337.63545569940163
10
742.81496988735046
20
335.44344352205871
10
743.72385298527297
20
332.60986680500588
10
744.5792723715532
20
329.08126183660016
10
744.73966350648016
20
327.58427791061001
10
744.68619979483765
20
327.21003192911235
10
744.52580865991013
20
326.8357859476148
10
743.77731669691502
20
326.35461254283223
10
742.01301421271228
20
325.92690284969217
10
738.85865522580434
20
326.19422140790471
10
735.33005025739863
20
327.31695935239736
10
733.61921148483862
20
328.17237873867748
10
731.85490900063564
20
329.24165297152786
10
728.64708630208543
20
331.80791113036827
10
725.70658216174752
20
334.80187898234868
10
723.19378771454922
20
338.27702023911166
10
721.00177553720641
20
342.12640747737237
10
719.18400934136105
20
346.24311327384561
10
717.74048912701357
20
350.7340650518164
10
716.6712148941632
20
355.38540796471466
10
716.02965035445322
20
360.25060572418289
10
715.70886808459818
20
365.27619461857876
10
715.8692592195257
20
370.35524722461719
10
716.35043262430827
20
375.54122725394052
10
717.3127794338734
20
380.67374357162134
10
718.64937222493609
20
385.80625988930223
10
720.46713842078123
20
390.83184878369798
10
722.65915059812403
20
395.69704654316638
10
723.94227967754421
20
398.10291356707921
10
725.11848133367937
20
400.08107089785204
10
727.84513062744782
20
403.77006700118523
10
730.83909847942778
20
407.03135341137823
10
734.04692117797822
20
409.81146641678879
10
737.25474387652912
20
411.95001488248909
10
740.35563915179455
20
413.44699880847918
10
743.18921586884744
20
414.14202705983189
10
745.0604457763352
20
414.03509963654676
10
746.18318372082786
20
413.66085365504932
10
746.66435712561088
20
413.39353509683684
10
746.98513939546547
20
413.12621653862425
10
747.68016764681806
20
412.11040601741661
10
748.69597816802627
20
409.70453899350377
10
749.76525240087642
20
405.32051463881794
0
LWPOLYLINE
5
104
100
AcDbEntity
8
0
100
AcDbPolyline
90
17
70
1
43
0.0
10
1037.934658153999
20
85.928301286469548
10
1032.4813595664632
20
85.340200458401867
10
1027.29537953714
20
85.072881900189415
10
1015.0521895710061
20
84.484781072121805
10
1015.0521895710061
20
88.013386040527308
10
1015.0521895710061
20
91.595454720575432
10
1027.9369440768501
20
91.595454720575432
10
1032.3744321431782
20
91.595454720575432
10
1037.7742670190719
20
91.488527297290489
10
1039.7524243498449
20
91.221208739077952
10
1040.447452601197
20
90.953890180865301
10
1040.8751622943371
20
90.258861929512818
10
1040.8751622943371
20
89.563833678160151
10
1040.821698582695
20
88.708414291879961
10
1040.447452601197
20
87.104502942604739
10
1040.1801340429849
20
86.623329537822102
10
1039.912815484772
20
86.409474691252072
0
LWPOLYLINE
5
105
100
AcDbEntity
8
0
100
AcDbPolyline
90
24
70
1
43
0.0
10
983.93630939506568
20
119.87775817946272
10
984.79172878134534
20
119.50351219796522
10
985.21943847448574
20
119.18272992811001
10
985.70061187926831
20
118.75502023496992
10
986.39564013062068
20
117.84613713704742
10
986.60949497719071
20
116.88379032748209
10
986.39564013062068
20
115.7610523829895
10
985.21943847448574
20
113.72943134057422
10
981.63736979443786
20
109.933507813956
10
978.85725678902691
20
107.36724965511553
10
977.94837369110439
20
106.56529398047792
10
976.77217203496912
20
105.65641088255531
10
975.91675264868877
20
105.4960197476278
10
975.16826068569389
20
105.97719315241029
10
974.68708728091133
20
106.51183026883551
10
974.25937758777138
20
107.04646738526051
10
973.88513160627372
20
108.06227790646821
10
974.25937758777138
20
109.45233440917342
10
975.64943409047646
20
111.80473772144381
10
976.77217203496912
20
113.56904020564659
10
978.05530111438929
20
115.600661248062
10
980.46116813830213
20
118.4342379651149
10
982.01161577593484
20
119.50351219796522
10
983.02742629714294
20
119.87775817946272
0
LWPOLYLINE
5
106
100
AcDbEntity
8
0
100
AcDbPolyline
90
83
70
1
43
0.0
10
899.62403613482923
20
76.732542883957947
10
899.08939901840358
20
75.663268651107785
10
898.60822561362113
20
74.861312976470131
10
897.59241509241349
20
73.310865338837431
10
895.34693920342818
20
70.637679756711975
10
892.94107217951478
20
68.499131291011579
10
890.37481402067499
20
66.948683653378893
10
887.64816472690654
20
65.986336843813632
10
884.86805172149639
20
65.612090862316109
10
882.08793871608577
20
65.825945708886138
10
879.25436199903288
20
66.681365095166285
10
877.8643054963278
20
67.376393346518952
10
877.06234982168951
20
67.857566751301462
10
875.61882960734192
20
68.873377272509117
10
874.44262795120699
20
70.156506351929352
10
873.48028114164185
20
71.600026566277094
10
872.67832546700447
20
73.257401627194866
10
872.14368835057928
20
75.182095246325233
10
871.60905123415432
20
78.49684536816082
10
871.55558752251125
20
81.116567238643697
10
871.60905123415432
20
82.667014876276426
10
871.87636979236686
20
85.607519016614461
10
872.51793433207695
20
88.387632022024974
10
873.37335371835707
20
91.007353892507865
10
874.54955537449223
20
93.413220916420769
10
875.93961187719742
20
95.605233093763701
10
877.65045064975766
20
97.529926712893925
10
879.57514426888793
20
99.240765485454233
10
880.64441850173807
20
99.989257448449322
10
881.33944675309112
20
100.3635034299468
10
882.9968218140084
20
100.95160425801453
10
886.04425337763178
20
101.53970508608211
10
890.42827773231716
20
101.4862413744396
10
893.36878187265529
20
100.84467683472951
10
894.91922951028801
20
100.20311229501931
10
895.56079404999809
20
99.828866313521857
10
896.41621343627833
20
99.133838062169147
10
897.69934251569839
20
97.529926712893925
10
898.55476190197862
20
95.765624228691152
10
898.98247159511868
20
93.947858032845886
10
898.92900788347617
20
92.237019260285564
10
898.44783447869349
20
90.740035334295314
10
897.59241509241349
20
89.617297389802673
10
896.2558223013508
20
88.975732850092555
10
895.40040291507069
20
88.922269138449991
10
894.38459239386236
20
88.975732850092555
10
892.78068104458782
20
89.563833678160151
10
891.71140681173711
20
90.846962757580357
10
891.23023340695477
20
92.718192665068216
10
891.1767696953126
20
93.894394321203379
10
891.12330598366952
20
94.856741130768484
10
890.58866886724445
20
96.246797633473676
10
889.62632205767989
20
97.102217019753851
10
888.39665668990222
20
97.422999289608967
10
886.95313647555417
20
97.209144443038937
10
885.45615254956431
20
96.460652480043734
10
883.9591686235741
20
95.230987112266007
10
882.67603954415335
20
93.520148339705798
10
882.08793871608577
20
92.504337818498129
10
881.66022902294571
20
91.435063585647939
10
880.96520077159312
20
89.082660273377513
10
880.32363623188303
20
85.019418188546879
10
880.27017252024052
20
80.956176103716217
10
880.59095479009568
20
78.389917944875734
10
881.0721281948787
20
76.251369479175366
10
881.82062015787324
20
74.540530706615129
10
882.3017935626558
20
73.952429878547548
10
882.9968218140084
20
73.257401627194866
10
884.4403420283561
20
72.348518529272184
10
885.93732595434631
20
71.867345124489688
10
887.54123730362198
20
71.867345124489688
10
889.19861236453983
20
72.348518529272184
10
890.85598742545699
20
73.310865338837431
10
892.56682619801768
20
74.700921841542623
10
894.22420125893541
20
76.572151749030439
10
895.02615693357279
20
77.694889693523066
10
895.40040291507069
20
78.17606309830569
10
896.04196745478043
20
78.710700214730849
10
896.73699570613337
20
78.871091349658343
10
897.59241509241349
20
78.603772791445778
10
898.1270522088389
20
78.336454233233198
10
898.76861674854854
20
77.96220825173566
10
899.51710871154341
20
77.374107423668079
0
LWPOLYLINE
5
107
100
AcDbEntity
8
0
100
AcDbPolyline
90
10
70
1
43
0.0
10
529.06705074059892
20
88.761878003522497
10
528.58587733581669
20
86.516402114537129
10
528.26509506596165
20
85.76791015154194
10
525.37805463726636
20
85.500591593329474
10
515.80805025325719
20
85.126345611831823
10
503.56486028712243
20
84.698635918691764
10
503.56486028712243
20
88.12031346381238
10
503.56486028712243
20
91.595454720575432
10
516.61000592789469
20
91.595454720575432
10
529.60168785702399
20
91.595454720575432
0
LWPOLYLINE
5
108
100
AcDbEntity
8
0
100
AcDbPolyline
90
37
70
1
43
0.0
10
778.74127185358998
20
97.282493014356646
10
778.15448328304819
20
97.209144443038937
10
776.44364451048784
20
96.193333921831282
10
774.8931968728557
20
94.37556772598596
10
773.55660408179244
20
91.916236990430491
10
772.59425727222731
20
88.761878003522497
10
772.27347500237261
20
86.890648096034681
10
772.00615644415973
20
84.752099630334286
10
772.00615644415973
20
80.742321257146173
10
772.59425727222731
20
77.213716288740557
10
773.55660408179244
20
74.21974843676
10
774.94666058449764
20
72.027736259417196
10
775.45799679273523
20
71.598873633153516
10
774.72032236349946
20
65.828370426271363
10
774.57241460300065
20
65.825945708886138
10
772.64772098386993
20
66.093264267098704
10
771.7923015975897
20
66.360582825311184
10
770.93688221130992
20
66.734828806808821
10
769.06565230382171
20
68.124885309514042
10
767.14095868469167
20
70.049578928644394
10
765.48358362377382
20
72.24159110598724
10
764.89548279570613
20
73.310865338837431
10
764.57470052585131
20
73.952429878547548
10
764.0935271210684
20
75.716732362750307
10
763.61235371628641
20
79.031482484585851
10
763.55889000464333
20
84.057071378981746
10
764.0935271210684
20
88.601486868595018
10
764.62816423749337
20
90.258861929512818
10
765.16280135391878
20
91.595454720575432
10
766.49939414498158
20
94.054785456130844
10
768.04984178261429
20
96.193333921831282
10
769.86760797845943
20
97.957636406033998
10
771.84576530923221
20
99.401156620381741
10
774.03777748657512
20
100.5238945648745
10
776.39018079884534
20
101.2723865278695
10
778.95643895768626
20
101.64663250936709
10
779.29916325329464
20
101.64663250936709
0
LWPOLYLINE
5
109
100
AcDbEntity
8
0
100
AcDbPolyline
90
39
70
1
43
0.0
10
785.58593920135706
20
68.285276444441536
10
782.43158021444947
20
66.895219941736329
10
777.83370101319349
20
65.879409420528674
10
777.38454806309392
20
65.872046257412279
10
777.88941550916593
20
70.3044331253694
10
778.04755585976363
20
70.263433775214423
10
779.00990266932877
20
70.37036119849941
10
779.97224947889345
20
70.744607179996933
10
780.98806000010143
20
71.439635431349586
10
781.52269711652661
20
71.920808836132196
10
782.1642616562367
20
72.669300799127299
10
783.28699960072936
20
74.807849264827595
10
784.19588269865199
20
77.48103484695315
10
784.78398352671957
20
80.528466410576129
10
785.10476579657461
20
83.736289109126631
10
785.15822950821712
20
86.997575519319653
10
784.83744723836196
20
90.045007082942732
10
784.19588269865199
20
92.771656376710595
10
783.7147092938693
20
93.840930609560814
10
783.07314475415922
20
95.124059688981063
10
781.57616082816901
20
96.7279710382563
10
780.92910867088619
20
96.990835977152472
10
781.45515339729036
20
101.60914471425286
10
781.9504068096669
20
101.5931687977246
10
784.89091095000504
20
101.05853168129951
10
787.40370539720232
20
100.04272116009182
10
789.5957175745458
20
98.492273522459172
10
791.30655634710592
20
96.460652480043734
10
792.64314913816816
20
94.001321744488337
10
793.55203223609135
20
91.007353892507865
10
794.0332056408738
20
87.639140059029771
10
794.0332056408738
20
85.76791015154194
10
793.9797419292313
20
83.575897974199108
10
793.01739511966616
20
79.031482484585851
10
791.41348377039049
20
74.700921841542623
10
789.86303613275822
20
72.027736259417196
10
788.74029818826511
20
70.584216045069439
10
788.15219736019742
20
69.996115217001858
10
787.35024168555981
20
69.408014388934276
0
LWPOLYLINE
5
110
100
AcDbEntity
8
0
100
AcDbPolyline
90
74
70
1
43
0.0
10
746.18318372082786
20
66.039800555456168
10
743.67038927363046
20
67.162538499948909
10
742.65457875242214
20
68.071421597871506
10
740.30217544015204
20
70.423824910141931
10
740.8902762682194
20
83.201651992701557
10
741.4249133846447
20
96.032942786903646
10
738.69826409087739
20
96.032942786903646
10
737.89630841623932
20
96.032942786903646
10
736.77357047174655
20
96.246797633473676
10
736.29239706696399
20
96.7279710382563
10
736.23893335532148
20
97.743781559463955
10
736.29239706696399
20
98.492273522459172
10
736.39932449024855
20
99.133838062169147
10
736.72010676010404
20
100.14964858337692
10
737.30820758817106
20
100.79121312308692
10
738.16362697445174
20
101.16545910458461
10
738.75172780251876
20
101.2723865278695
10
740.0348568819395
20
101.4862413744396
10
742.28033277092482
20
102.50205189564721
10
744.20502639005565
20
104.10596324492252
10
745.70201031604574
20
106.35143913390792
10
746.29011114411344
20
107.6880319249706
10
746.98513939546547
20
109.29194327424591
10
748.16134105160063
20
110.7354634885936
10
748.9632967262387
20
111.16317318173371
10
749.33754270773579
20
111.21663689337622
10
750.19296209401637
20
111.16317318173371
10
751.20877261522401
20
110.8423909118787
10
751.58301859672167
20
109.7731166790285
10
751.47609117343654
20
107.5811045016856
10
751.26223632686651
20
105.87026572912542
10
750.72759921044155
20
101.3793139511546
10
754.95123243019952
20
101.3793139511546
10
756.55514377947486
20
101.3793139511546
10
758.74715595681755
20
101.11199539294202
10
759.54911163145584
20
100.57735827651692
10
759.81643018966815
20
100.04272116009182
10
759.81643018966815
20
98.973446927241682
10
759.60257534309812
20
98.011100117676548
10
759.44218420817026
20
97.422999289608967
10
758.85408338010268
20
96.621043614971356
10
757.83827285889538
20
96.193333921831282
10
756.07397037469218
20
96.032942786903646
10
754.73737758362961
20
96.032942786903646
10
752.91961138778436
20
96.032942786903646
10
751.15530890358161
20
95.605233093763701
10
750.353353228944
20
94.803277419125948
10
749.81871611251893
20
93.466684628063277
10
749.49793384266388
20
91.435063585647939
10
749.28407899609385
20
86.783720672749638
10
749.17715157280884
20
82.078914048208844
10
749.12368786116576
20
78.817627638015807
10
749.17715157280884
20
74.754385553185159
10
749.44447013102138
20
73.203937915552345
10
749.76525240087642
20
72.669300799127299
10
750.46028065222902
20
72.24159110598724
10
751.15530890358161
20
72.134663682702154
10
751.63648230836407
20
72.081199971059704
10
752.70575654121433
20
72.295054817629762
10
754.36313160213194
20
72.990083068982301
10
755.32547841169719
20
73.792038743619941
10
756.18089779797731
20
74.487066994972594
10
757.83827285889538
20
75.235558957967669
10
759.22832936160012
20
75.128631534682711
10
759.92335761295283
20
74.540530706615129
10
760.19067617116559
20
73.898966166905012
10
760.19067617116559
20
73.52472018540746
10
760.08374874788058
20
72.936619357339879
10
758.80061966846017
20
71.172316873137021
10
756.76899862604489
20
69.194159542364218
10
754.47005902541696
20
67.376393346518952
10
753.3473210809243
20
66.734828806808821
10
752.01072828986116
20
66.146727978741239
10
749.07022414952337
20
65.66555457395863
0
LWPOLYLINE
5
111
100
AcDbEntity
8
0
100
AcDbPolyline
90
99
70
1
43
0.0
10
734.31423973619121
20
77.053325153813063
10
734.68848571768831
20
76.679079172315426
10
734.74194942933127
20
76.41176061410296
10
734.74194942933127
20
75.663268651107785
10
734.26077602454882
20
74.05935730183252
10
733.03111065677103
20
71.493099142992122
10
731.3202718842108
20
68.980304695794189
10
730.41138878628817
20
67.964494174586534
10
729.39557826507996
20
67.109074788306373
10
726.88278381788268
20
65.986336843813632
10
724.15613452411435
20
65.719018285601152
10
722.23144090498408
20
66.146727978741239
10
721.00177553720641
20
66.681365095166285
10
720.46713842078123
20
67.002147365021301
10
720.14635615092618
20
67.322929634876388
10
719.55825532285871
20
68.285276444441536
10
718.97015449479113
20
70.423824910141931
10
718.7562996482211
20
75.289022669610205
10
719.13054562971865
20
82.560087452991468
10
719.61171903450122
20
87.318357789174769
10
719.98596501599866
20
91.755845855502955
10
719.87903759271376
20
94.696349995841004
10
719.34440047628846
20
95.498305670478601
10
718.86322707150623
20
95.65869680540608
10
718.22166253179591
20
95.819087940333731
10
716.61775118252081
20
95.498305670478601
10
715.97618664281083
20
95.070595977338542
10
715.28115839145767
20
94.429031437628396
10
713.83763817710997
20
92.397410395213072
10
712.39411796276227
20
89.617297389802673
10
711.05752517170004
20
86.356010979609508
10
709.29322268749729
20
80.902712392073695
10
708.06355731971905
20
75.395950092895276
10
707.68931133822161
20
71.97427254777466
10
707.63584762657911
20
70.423824910141931
10
707.63584762657911
20
66.627901383523749
10
703.62606925339094
20
66.627901383523749
10
699.61629088020243
20
66.627901383523749
10
699.61629088020243
20
70.477288621784481
10
699.66975459184505
20
72.615837087484763
10
700.41824655484083
20
80.207684140721014
10
700.95288367126557
20
84.484781072121805
10
701.43405707604825
20
88.334168310382424
10
701.70137563426022
20
93.627075762990785
10
701.38059336440517
20
95.498305670478601
10
700.95288367126557
20
95.872551651976167
10
700.31131913155514
20
95.498305670478601
10
699.45589974527547
20
94.37556772598596
10
698.97472634049291
20
93.520148339705798
10
698.27969808914031
20
92.504337818498129
10
696.72925045150714
20
91.114281315792866
10
695.60651250701449
20
90.740035334295314
10
695.01841167894668
20
90.740035334295314
10
694.53723827416422
20
91.060817604150429
10
694.26991971595169
20
91.648918432217982
10
694.26991971595169
20
92.07662812535807
10
694.32338342759431
20
93.145902358208289
10
694.85802054401972
20
95.177523400623571
10
695.87383106522702
20
97.102217019753851
10
697.21042385629016
20
98.813055792314159
10
698.86779891720732
20
100.20311229501931
10
700.63210140141064
20
101.21892281622699
10
702.50333130889828
20
101.75355993265221
10
704.32109750474365
20
101.75355993265221
10
705.17651689102377
20
101.4862413744396
10
706.08539998894639
20
101.11199539294202
10
707.36852906836657
20
100.04272116009182
10
708.11702103136213
20
98.492273522459172
10
708.49126701285923
20
96.300261345116226
10
708.49126701285923
20
94.856741130768484
10
708.49126701285923
20
92.023164413715563
10
710.20210578541935
20
94.696349995841004
10
711.27138001826995
20
96.407188768401312
10
713.51685590725492
20
98.973446927241682
10
715.8692592195257
20
100.63082198815941
10
718.54244480165119
20
101.4862413744396
10
719.98596501599866
20
101.64663250936709
10
721.32255780706134
20
101.64663250936709
10
723.56803369604677
20
101.2723865278695
10
725.33233618024951
20
100.31003971830442
10
726.66892897131265
20
98.813055792314159
10
727.52434835759277
20
96.567579903328806
10
728.00552176237488
20
93.680539474633306
10
728.11244918566035
20
89.938079659657703
10
727.84513062744782
20
85.393664170044417
10
727.57781206923482
20
82.720478587918947
10
727.25702979938023
20
79.245337331155895
10
727.09663866445226
20
74.487066994972594
10
727.4174209343073
20
72.562373375842242
10
727.79166691580531
20
72.027736259417196
10
728.32630403223038
20
72.081199971059704
10
729.07479599522503
20
72.722764510769821
10
729.50250568836555
20
73.257401627194866
10
730.03714280479062
20
74.05935730183252
10
730.73217105614322
20
75.609804939465306
10
730.78563476778584
20
76.197905767532902
10
730.89256219107028
20
76.625615460672989
10
731.8014452889928
20
77.213716288740557
10
733.13803808005605
20
77.374107423668079
0
LWPOLYLINE
5
112
100
AcDbEntity
8
0
100
AcDbPolyline
90
85
70
1
43
0.0
10
643.21207509735586
20
72.24159110598724
10
644.54866788841866
20
72.829691934054807
10
646.58028893083429
20
74.166284725117578
10
648.02380914518199
20
75.556341227822784
10
649.5742567828147
20
77.106788865455485
10
651.445486690302
20
78.389917944875734
10
652.40783349986714
20
78.657236503088313
10
652.78207948136514
20
78.550309079803242
10
653.47710773271729
20
78.282990521590762
10
654.06520856078475
20
77.320643712025543
10
653.79789000257279
20
75.877123497677786
10
652.56822463479477
20
73.685111320334954
10
651.60587782522998
20
72.295054817629762
10
650.85738586223431
20
71.279244296422092
10
649.20001080131715
20
69.56840552386177
10
647.32878089382893
20
68.178349021156578
10
645.35062356305627
20
67.055611076663823
10
643.26553880899826
20
66.307119113668747
10
641.02006292001295
20
65.93287313217121
10
638.66765960774273
20
65.825945708886138
10
636.2617925838299
20
66.093264267098704
10
635.03212721605223
20
66.41404653695372
10
633.96285298320208
20
66.734828806808821
10
632.03815936407125
20
67.590248193088996
10
630.38078430315363
20
68.766449849224159
10
628.99072780044878
20
70.263433775214423
10
627.86798985595578
20
72.081199971059704
10
627.06603418131817
20
74.21974843676
10
626.47793335325082
20
76.679079172315426
10
626.21061479503828
20
79.459192177725924
10
626.21061479503828
20
80.956176103716217
10
626.21061479503828
20
82.34623260642141
10
626.47793335325082
20
85.126345611831823
10
627.06603418131817
20
87.8529949055998
10
627.92145356759829
20
90.419253064440284
10
628.99072780044878
20
92.825120088353174
10
630.32732059151112
20
95.017132265695949
10
631.82430451750122
20
96.941825884826329
10
633.48167957841906
20
98.54573723410158
10
634.39056267634157
20
99.187301773811726
10
635.51330062083423
20
99.882330025164364
10
638.13302249131777
20
100.89814054637201
10
640.85967178508554
20
101.43277766279701
10
643.69324850213889
20
101.4862413744396
10
646.41989779590619
20
101.11199539294202
10
648.93269224310461
20
100.31003971830442
10
651.0177769971624
20
99.080374350526753
10
652.56822463479477
20
97.476463001251417
10
653.10286175122019
20
96.51411619168627
10
653.58403515600276
20
95.391378247193643
10
654.06520856078475
20
93.627075762990785
10
654.01174484914281
20
92.183555548643014
10
653.31671659779022
20
90.953890180865301
10
652.72861576972264
20
90.312325641155198
10
652.19397865329756
20
89.777688524730181
10
650.96431328551944
20
89.082660273377513
10
649.78811162938428
20
88.815341715165047
10
648.66537368489207
20
88.975732850092555
10
647.64956316368387
20
89.456906254875065
10
646.84760748904625
20
90.258861929512818
10
646.25950666097879
20
91.435063585647939
10
645.93872439112374
20
92.825120088353174
10
645.93872439112374
20
93.627075762990785
10
645.99218810276625
20
94.535958860913482
10
645.83179696783873
20
95.819087940333731
10
645.40408727469867
20
96.621043614971356
10
644.65559531170345
20
97.102217019753851
10
644.12095819527849
20
97.262608154681459
10
643.31900252064088
20
97.422999289608967
10
641.82201859465067
20
97.316071866323881
10
640.37849838030297
20
96.674507326613778
10
639.04190558923972
20
95.605233093763701
10
637.86570393310467
20
94.108249167773408
10
636.79642970025441
20
92.237019260285564
10
635.94101031397474
20
89.99154337130021
10
635.29944577426477
20
87.478748924102263
10
635.08559092769474
20
86.088692421397042
10
634.81827236948209
20
83.789752820769152
10
634.92519979276676
20
79.726510735938504
10
635.72715546740483
20
76.465224325745368
10
637.11721197010991
20
74.00589359018997
10
638.50726847281476
20
72.776228222412257
10
639.57654270566525
20
72.24159110598724
10
640.6992806501579
20
71.97427254777466
10
641.92894601793569
20
71.97427254777466
0
LWPOLYLINE
5
113
100
AcDbEntity
8
0
100
AcDbPolyline
90
103
70
1
43
0.0
10
619.6880419746517
20
68.392203867726607
10
618.72569516508656
20
67.53678448144646
10
617.60295722059391
20
66.734828806808821
10
615.03669906175344
20
65.93287313217121
10
612.4169771912708
20
65.825945708886138
10
610.70613841871045
20
66.360582825311184
10
609.79725532078771
20
66.948683653378893
10
609.42300933929027
20
67.322929634876388
10
608.67451737629528
20
68.231812732799
10
607.76563427837266
20
70.477288621784481
10
607.49831572016001
20
73.792038743619941
10
607.81909799001505
20
79.084946196228401
10
608.19334397151215
20
82.827406011204033
10
608.62105366465266
20
86.944111807677217
10
608.99529964615033
20
93.306293493135755
10
608.8883722228652
20
94.482495149270918
10
608.67451737629528
20
95.177523400623571
10
608.0329528365852
20
95.926015363618674
10
607.17753345030485
20
96.032942786903646
10
606.10825921745436
20
95.551769382121122
10
604.93205756131931
20
94.482495149270918
10
603.59546477025708
20
92.878583799995695
10
601.56384372784169
20
89.670761101445109
10
600.17378722513638
20
86.837184384392145
10
599.58568639706891
20
85.393664170044417
10
598.62333958750332
20
82.613551164633975
10
597.92831133615073
20
79.566119601010897
10
597.50060164301112
20
76.14444205589038
10
597.34021050808315
20
74.112821013475042
10
596.85903710330058
20
66.627901383523749
10
592.52847646025748
20
66.627901383523749
10
590.76417397605474
20
66.627901383523749
10
589.16026262677951
20
66.895219941736329
10
588.57216179871193
20
67.590248193088996
10
588.30484324049939
20
68.873377272509117
10
588.3583069521419
20
71.011925738209513
10
588.89294406856698
20
76.037514632605408
10
589.53450860827706
20
81.383885796856305
10
590.55031912948425
20
89.563833678160151
10
590.81763768769679
20
94.803277419125948
10
590.55031912948425
20
95.819087940333731
10
590.17607314798715
20
96.032942786903646
10
589.96221830141667
20
96.032942786903646
10
589.53450860827706
20
95.872551651976167
10
588.25137952885632
20
94.268640302700902
10
587.66327870078874
20
93.038974934923203
10
587.23556900764925
20
92.237019260285564
10
586.5405407562962
20
91.167745027435373
10
585.79204879330121
20
90.52618048772527
10
584.99009311866348
20
90.365789352797762
10
584.56238342552388
20
90.47271677608272
10
583.86735517417071
20
90.686571622652764
10
583.06539949953367
20
91.274672450720459
10
582.9584720762482
20
92.2904829719281
10
583.54657290431567
20
94.108249167773408
10
584.08121002074074
20
95.391378247193643
10
584.77623827209334
20
96.834898461541385
10
586.43361333301129
20
99.187301773811726
10
588.41177066378441
20
100.79121312308692
10
590.71071026441223
20
101.64663250936709
10
591.9403756321899
20
101.70009622100962
10
592.52847646025748
20
101.64663250936709
10
593.70467811639264
20
101.43277766279701
10
595.36205317731037
20
100.63082198815941
10
597.0194282382281
20
98.86651950395671
10
597.92831133615073
20
96.567579903328806
10
598.03523875943574
20
95.284450823908571
10
598.03523875943574
20
92.93204751163826
10
599.63915010871096
20
95.605233093763701
10
600.28071464842105
20
96.567579903328806
10
601.67077115112625
20
98.278418675889142
10
603.16775507711645
20
99.668475178594321
10
604.77166642639213
20
100.684285699802
10
606.48250519895225
20
101.3793139511546
10
608.19334397151215
20
101.75355993265221
10
610.01111016735774
20
101.75355993265221
10
611.82887636320311
20
101.32585023951211
10
612.73775946112573
20
101.00506796965702
10
613.53971513576323
20
100.63082198815941
10
614.92977163846842
20
99.721938890236856
10
615.99904587131914
20
98.492273522459172
10
616.69407412267128
20
96.888362173183822
10
617.17524752745419
20
94.856741130768484
10
617.33563866238126
20
92.2904829719281
10
617.17524752745419
20
87.318357789174769
10
616.69407412267128
20
82.934333434488977
10
616.26636442953168
20
78.871091349658343
10
615.94558215967618
20
73.150474203909909
10
616.1059732946037
20
72.348518529272184
10
616.42675556445874
20
72.081199971059704
10
617.28217495073875
20
72.24159110598724
10
618.19105804866149
20
73.043546780624851
10
619.09994114658411
20
74.380139571687621
10
619.4207234164395
20
75.182095246325233
10
619.79496939793739
20
75.984050920962844
10
620.81077991914424
20
76.999861442170541
10
621.93351786363746
20
77.374107423668079
10
623.00279209648761
20
76.999861442170541
10
623.43050178962721
20
76.465224325745368
10
623.53742921291291
20
76.197905767532902
10
623.48396550127018
20
75.342486381252741
10
623.00279209648761
20
73.578183897049868
10
621.5592718821398
20
70.851534603282019
0
LWPOLYLINE
5
114
100
AcDbEntity
8
0
100
AcDbPolyline
90
106
70
1
43
0.0
10
947.04634836173398
20
53.529292031109108
10
945.49590072410206
20
51.658062123621292
10
943.67813452825612
20
50.161078197631007
10
941.64651348584073
20
49.038340253138379
10
939.50796502014077
20
48.289848290143183
10
937.31595284279729
20
47.969066020288189
10
935.17740437709779
20
48.129457155215682
10
933.25271075796661
20
48.7710216949258
10
932.34382766004398
20
49.305658811350852
10
931.75572683197629
20
49.786832216133476
10
930.84684373405378
20
50.963033872268639
10
930.41913404091372
20
52.192699240046345
10
930.36567032927121
20
53.422364607824029
10
930.73991631076876
20
54.59856626395932
10
931.43494456212147
20
55.614376785166968
10
932.450755083329
20
56.362868748162064
10
933.78734787439168
20
56.790578441302138
10
934.58930354902975
20
56.844042152944674
10
935.12394066545482
20
56.844042152944674
10
935.97936005173437
20
56.523259883089558
10
936.72785201472959
20
55.988622766664513
10
937.31595284279729
20
55.079739668741823
10
937.52980768936766
20
54.545102552316784
10
937.79712624758054
20
53.850074300964117
10
938.27829965236288
20
53.048118626326506
10
938.75947305714533
20
52.727336356471497
10
939.34757388521302
20
52.994654914683963
10
939.7218198667108
20
53.261973472896535
10
940.3099206947777
20
53.90353801260666
10
941.48612235091321
20
56.255941324877092
10
941.91383204405338
20
57.592534115939749
10
942.28807802555082
20
59.463764023427579
10
943.35735225840108
20
69.194159542364218
10
945.17511845424622
20
88.12031346381238
10
945.54936443574411
20
94.749813707483511
10
945.49590072410206
20
95.070595977338542
10
945.17511845424622
20
95.551769382121122
10
944.05238050975356
20
95.97947907526121
10
942.822715141976
20
96.032942786903646
10
941.96729575569577
20
96.032942786903646
10
940.84455781120266
20
96.246797633473676
10
940.36338440642055
20
96.7279710382563
10
940.25645698313565
20
97.743781559463955
10
940.36338440642055
20
98.492273522459172
10
940.47031182970568
20
99.187301773811726
10
940.79109409956072
20
100.20311229501931
10
941.43265863927081
20
100.79121312308692
10
942.55539658376347
20
101.11199539294202
10
943.30388854675846
20
101.21892281622699
10
944.15930793303869
20
101.32585023951211
10
945.38897330081636
20
101.80702364429459
10
946.24439268709637
20
102.9297615887873
10
947.09981207337637
20
105.1752374777727
10
947.58098547815962
20
106.93953996197561
10
948.38294115279723
20
109.29194327424591
10
950.57495333013958
20
113.40864907071911
10
952.55311066091281
20
115.7610523829895
10
953.99663087526039
20
116.99071775076723
10
955.49361480125071
20
117.8996008486898
10
956.93713501559841
20
118.38077425347242
10
957.68562697859363
20
118.48770167675752
10
960.19842142579159
20
118.5411653883999
10
963.03199814284426
20
118.32731054182993
10
964.47551835719196
20
117.95306456033231
10
965.54479259004211
20
117.36496373226473
10
966.29328455303721
20
116.5630080576271
10
966.66753053453533
20
115.5471975364195
10
966.77445795781978
20
114.26406845699923
10
966.72099424617727
20
113.51557649400411
10
966.66753053453533
20
112.660157107724
10
966.29328455303721
20
111.53741916323121
10
965.65172001332712
20
110.89585462352112
10
964.42205464554945
20
110.57507235366612
10
963.51317154762683
20
110.4681449303811
10
962.65775216134671
20
110.41468121873861
10
961.48155050521166
20
110.4681449303811
10
960.67959483057405
20
110.7889272002362
10
960.19842142579159
20
111.4839554515888
10
960.03803029086384
20
112.01859256801382
10
959.82417544429381
20
112.76708453100902
10
958.86182863472868
20
113.78289505221659
10
958.38065522994634
20
113.88982247550172
10
957.73909069023603
20
113.78289505221659
10
956.66981645738599
20
112.82054824265151
10
955.81439707110576
20
110.89585462352112
10
955.11936881975328
20
107.9018867715407
10
954.79858654989812
20
106.0306568640528
10
954.21048572183054
20
101.3793139511546
10
958.86182863472868
20
101.3793139511546
10
960.4122762723614
20
101.3793139511546
10
962.33696989149166
20
101.2723865278695
10
963.13892556612973
20
100.79121312308692
10
963.2993167010568
20
99.775402601879293
10
963.19238927777178
20
98.919983215599117
10
963.08546185448733
20
98.171491252604056
10
962.65775216134671
20
97.155680731396416
10
961.69540535178214
20
96.567579903328806
10
959.82417544429381
20
96.300261345116226
10
958.38065522994634
20
96.246797633473676
10
953.88970345197549
20
95.97947907526121
10
952.82042921912534
20
81.971986624923886
10
952.39271952598483
20
76.518688037387903
10
951.37690900477764
20
67.911030462943998
10
950.14724363699997
20
61.441921354200382
10
948.5967959993668
20
56.576723594732101
10
947.63444918980167
20
54.59856626395932
0
LWPOLYLINE
5
115
100
AcDbEntity
8
0
100
AcDbPolyline
90
107
70
1
43
0.0
10
822.7966825045437
20
48.129457155215682
10
820.49774290391599
20
48.022529731930625
10
818.41265814985775
20
48.664094271640728
10
817.39684762865011
20
49.305658811350852
10
816.648355665655
20
49.94722335106097
10
815.68600885608987
20
51.8184532585488
10
815.41869029787733
20
53.957001724249203
10
815.73947256773238
20
55.453985650239368
10
816.16718226087232
20
56.309405036519529
10
816.48796453072737
20
56.683651018017081
10
817.18299278208008
20
57.218288134442226
10
818.89383155464031
20
57.699461539224828
10
820.71159775048591
20
57.485606692654798
10
822.26204538811874
20
56.630187306374644
10
822.7966825045437
20
55.935159055021977
10
823.38478333261139
20
55.079739668741823
10
824.24020271889151
20
54.384711417389269
10
824.88176725860149
20
54.331247705746726
10
825.95104149145163
20
54.705493687244271
10
827.92919882222452
20
56.416332459804593
10
829.26579161328732
20
57.85985267415235
10
830.33506584613735
20
59.036054330287513
10
831.67165863719993
20
60.800356814490257
10
832.20629575362511
20
62.350804452123057
10
832.20629575362511
20
64.222034359610888
10
832.04590461869759
20
65.505163439031108
10
831.67165863719993
20
67.53678448144646
10
829.85389244135479
20
74.112821013475042
10
827.34109799415648
20
81.8650592016388
10
824.77483983531658
20
88.868805426807484
10
823.75902931410837
20
91.221208739077952
10
822.95707363947088
20
92.771656376710595
10
821.72740827169321
20
94.322104014343452
10
820.9254525970556
20
94.856741130768484
10
820.23042434570289
20
95.017132265695949
10
819.5888598059928
20
94.803277419125948
10
819.00075897792567
20
94.215176591058366
10
818.57304928478516
20
93.199366069850726
10
818.41265814985775
20
92.504337818498129
10
818.25226701493023
20
91.755845855502955
10
817.87802103343211
20
90.686571622652764
10
817.28992020536498
20
90.098470794585154
10
816.48796453072737
20
89.938079659657703
10
816.00679112594491
20
89.99154337130021
10
815.47215400951984
20
90.098470794585154
10
814.72366204652474
20
90.419253064440284
10
814.40287977666958
20
91.060817604150429
10
814.34941606502662
20
92.183555548643014
10
814.40287977666958
20
92.93204751163826
10
814.67019833488212
20
94.215176591058366
10
815.73947256773238
20
96.834898461541385
10
817.45031134029261
20
99.240765485454233
10
819.42846867106527
20
100.95160425801453
10
820.49774290391599
20
101.4862413744396
10
821.67394456005081
20
101.80702364429459
10
823.97288416067897
20
101.91395106757972
10
826.16489633802132
20
101.16545910458461
10
828.249981092079
20
99.668475178594321
10
829.21232790164458
20
98.59920094574413
10
830.12121099956732
20
97.262608154681459
10
832.47361431183754
20
91.916236990430491
10
834.93294504739299
20
84.912490765261794
10
836.85763866652337
20
78.015671963378196
10
837.39227578294845
20
75.289022669610205
10
837.65959434116087
20
73.952429878547548
10
838.14076774594378
20
72.776228222412257
10
838.46155001579848
20
72.508909664199805
10
838.621941150726
20
72.615837087484763
10
839.21004197879381
20
73.52472018540746
10
840.70702590478413
20
77.48103484695315
10
842.04361869584636
20
82.560087452991468
10
842.95250179376922
20
87.318357789174769
10
843.05942921705446
20
88.975732850092555
10
843.05942921705446
20
90.258861929512818
10
842.89903808212648
20
92.023164413715563
10
842.41786467734403
20
93.038974934923203
10
841.56244529106425
20
93.520148339705798
10
840.86741703971143
20
93.734003186275871
10
840.17238878835906
20
93.947858032845886
10
839.10311455550857
20
94.749813707483511
10
838.30115888087096
20
95.819087940333731
10
837.92691289937341
20
97.048753308111415
10
837.87344918773078
20
98.3853460991741
10
838.19423145758606
20
99.615011466951785
10
838.83579599729569
20
100.684285699802
10
839.90507023014652
20
101.4862413744396
10
840.60009848149878
20
101.70009622100962
10
841.18819930956636
20
101.8604873559371
10
842.36440096570186
20
101.8604873559371
10
844.07523973826187
20
101.4862413744396
10
846.10686078067738
20
100.14964858337692
10
847.65730841831009
20
97.957636406033998
10
848.19194553473471
20
96.621043614971356
10
848.51272780459044
20
95.551769382121122
10
848.78004636280275
20
93.092438646565725
10
848.67311893951796
20
90.258861929512818
10
848.24540924637768
20
87.157966654247261
10
847.12267130188502
20
82.078914048208844
10
844.66334056632934
20
74.807849264827595
10
841.40205415613639
20
67.590248193088996
10
837.55266691787642
20
60.8538205261328
10
834.45177164261042
20
56.46979617144703
10
832.31322317690956
20
53.957001724249203
10
830.17467471120983
20
51.871916970191336
10
828.03612624550965
20
50.268005620916085
10
827.02031572430144
20
49.733368504490933
10
825.46986808666907
20
48.984876541495851
0
LWPOLYLINE
5
116
100
AcDbEntity
8
0
100
AcDbPolyline
90
139
70
1
43
0.0
10
701.86176676918819
20
539.67482199644292
10
702.39640388561327
20
539.14018488001773
10
702.23601275068575
20
539.03325745673283
10
701.43405707604825
20
538.97979374509032
10
696.94310529807785
20
539.35403972658787
10
691.00863330575885
20
540.04906797794035
10
685.76918956479312
20
540.90448736422081
10
684.21874192716029
20
541.27873334571814
10
683.7375685223775
20
541.38566076900315
10
683.30985882923778
20
541.27873334571814
10
683.68410481073522
20
540.20945911286799
10
684.86030646687038
20
538.39169291702274
10
685.66226214150799
20
537.10856383760245
10
686.73153637435826
20
534.43537825547719
10
687.1592460674982
20
531.92258380827911
10
686.94539122092829
20
530.4790635939313
10
686.62460895107324
20
529.83749905422133
10
686.30382668121842
20
529.62364420765118
10
686.14343554629033
20
529.51671678436617
10
685.66226214150799
20
529.6771079192938
10
684.75337904358537
20
530.3721361706464
10
684.16527821551745
20
531.22755555692629
10
683.04254027102525
20
532.83146690620174
10
680.26242726561452
20
535.77197104653965
10
676.57343116228139
20
538.55208405195015
10
671.76169711445584
20
541.43912448064566
10
668.71426555083281
20
542.98957211827837
10
665.0787331591423
20
544.70041089083861
10
660.53431766952872
20
546.46471337504136
10
658.50269662711344
20
547.05281420310916
10
657.96805951068836
20
547.05281420310916
10
657.4868861059058
20
547.05281420310916
10
656.47107558469816
20
547.26666904967919
10
654.86716423542293
20
548.06862472431681
10
653.9048174258578
20
549.03097153388194
10
652.83554319300765
20
549.99331834344707
10
649.5742567828147
20
552.07840309750486
10
647.86341801025401
20
552.82689506050008
10
644.81598644663109
20
554.05656042827786
10
640.11117982209032
20
556.62281858711822
10
637.38453052832256
20
558.76136705281863
10
635.83408289068939
20
560.36527840209385
10
633.74899813663149
20
563.19885511914674
10
632.46586905721142
20
565.49779471977467
10
631.18273997779124
20
567.90366174368762
10
629.04419151209095
20
571.2718755771657
10
626.95910675803316
20
573.51735146615101
10
624.33938488754973
20
575.06779910378373
10
622.62854611498949
20
575.81629106677883
10
620.97117105407222
20
576.40439189484653
10
617.33563866238126
20
577.09942014619912
10
613.53971513576323
20
577.09942014619912
10
609.6903278975027
20
576.45785560648903
10
607.81909799001505
20
575.86975477842145
10
606.16172292909721
20
575.33511766199626
10
604.02317446339657
20
574.69355312228618
10
602.90043651890392
20
574.69355312228618
10
602.4727268257642
20
575.33511766199626
10
602.4727268257642
20
575.92321849006385
10
602.52619053740682
20
576.244000759919
10
603.43507363532899
20
577.15288385784174
10
605.94786808252729
20
578.86372263040175
10
608.40719881808263
20
580.14685170982216
10
610.81306584199547
20
581.37651707759971
10
614.39513452204335
20
583.67545667822787
10
614.98323535011116
20
584.37048492958024
10
615.89211844803378
20
586.13478741378299
10
617.28217495073875
20
589.12875526576374
10
617.76334835552188
20
589.98417465204375
10
618.93955001165705
20
591.64154971296148
10
620.32960651436224
20
593.08506992730929
10
621.93351786363746
20
594.31473529508696
10
623.69782034784009
20
595.3305458162946
10
625.56905025532797
20
596.07903777928982
10
627.54720758610074
20
596.56021118407227
10
629.52536491687385
20
596.72060231899991
10
630.54117543808115
20
596.66713860735729
10
634.49749009962716
20
596.34635633750224
10
633.85592555991718
20
601.26501780861327
10
633.53514329006146
20
604.09859452566616
10
633.26782473184903
20
610.78155848097981
10
633.3747521551345
20
617.1972038780807
10
633.85592555991718
20
621.90201050262181
10
634.23017154141462
20
622.97128473547173
10
634.39056267634157
20
623.18513958204176
10
634.76480865783969
20
623.29206700532677
10
635.56676433247674
20
622.70396617725919
10
636.84989341189737
20
620.67234513484379
10
638.34687733788769
20
617.46452243629324
10
640.75274436180052
20
611.15580446247725
10
643.85363963706584
20
600.7838444038307
10
645.02984129320112
20
595.49093695122224
10
645.77833325619622
20
591.90886827117413
10
648.82576481981914
20
597.04138458885495
10
650.21582132252422
20
599.23339676619776
10
652.40783349986714
20
601.74619121339572
10
653.74442629092971
20
602.81546544624587
10
654.27906340735535
20
603.13624771610102
10
655.56219248677496
20
603.77781225581089
10
659.41157972503606
20
607.09256237764646
10
664.11638634957671
20
611.95776013711486
10
668.87465668576033
20
617.51798614793586
10
670.95974143981823
20
620.24463544170374
10
672.56365278909334
20
622.49011133068939
10
675.39722950614635
20
626.9275993970175
10
677.69616910677405
20
631.41855117498824
10
679.67432643754694
20
636.06989408788638
10
680.47628211218478
20
638.52922482344184
10
681.11784665189464
20
640.40045473092971
10
682.08019346145977
20
642.16475721513234
10
682.50790315460017
20
642.64593061991513
10
682.66829428952769
20
642.53900319662989
10
683.09600398266775
20
641.84397494527752
10
684.00488708059038
20
638.04805141865927
10
684.80684275522799
20
632.64821654276591
10
685.28801616001056
20
627.08799053194502
10
685.34147987165329
20
624.68212350803219
10
685.28801616001056
20
623.18513958204176
10
684.86030646687038
20
619.76346203692128
10
683.36332254088029
20
613.40128035146267
10
681.43862892174968
20
607.30641722421649
10
678.17734251155673
20
597.62948541692253
10
676.62689487392424
20
593.61970704373425
10
675.61108435271638
20
591.10691259653652
10
674.11410042672617
20
586.66942453020829
10
673.36560846373095
20
584.37048492958024
10
671.17359628638769
20
579.5052871701123
10
670.10432205353811
20
577.6875209742667
10
667.75191874126779
20
573.94506115929119
10
673.36560846373095
20
565.12354873827712
10
678.07041508827206
20
557.69209281996837
10
680.58320953546945
20
553.6288507351378
10
681.0643829402527
20
552.88035877214259
10
682.40097573131516
20
551.32991113450976
10
685.02069760179802
20
548.92404411059692
10
689.56511309141115
20
545.71622141204625
10
694.64416569744924
20
542.93610840663609
10
697.26388756793244
20
541.86683417378561
10
699.66975459184505
20
540.85102365257796
0
LWPOLYLINE
5
117
100
AcDbEntity
8
0
100
AcDbPolyline
90
63
70
1
43
0.0
10
237.52943115399813
20
603.29663885102855
10
235.33741897665533
20
598.53836851484527
10
233.57311649245233
20
595.06322725808218
10
230.89993091032696
20
589.71685609383121
10
226.0347331508585
20
579.45182345846945
10
221.49031766124546
20
569.1867908231078
10
217.15975701820213
20
558.49404849460586
10
212.88266008680122
20
547.05281420310916
10
208.49863573211562
20
534.43537825547719
10
201.494889506947
20
512.72911132861827
10
196.14851834269601
20
495.03262277494792
10
193.31494162564312
20
485.72993694915135
10
190.00019150380763
20
475.67875916035973
10
188.12896159631981
20
470.70663397760626
10
186.41812282375946
20
466.91071045098823
10
184.70728405119911
20
464.18406115722013
10
182.99644527863893
20
462.20590382644735
10
181.12521537115089
20
460.81584732374222
10
180.10940484994333
20
460.28121020731714
10
178.71934834723831
20
459.63964566760694
10
175.93923534182773
20
458.8911537046119
10
173.10565862477483
20
458.83768999296939
10
170.27208190772168
20
459.42579082103697
10
168.77509798173148
20
460.01389164910461
10
168.1869971536639
20
460.33467391895965
10
167.0107954975287
20
461.19009330523977
10
165.2999567249685
20
463.00785950108497
10
163.48219052912299
20
466.10875477635062
10
162.6267711428429
20
468.62154922354853
10
162.30598887298794
20
470.2789242844662
10
162.30598887298794
20
471.08087995910387
10
162.4129162962729
20
472.73825502002171
10
163.5356542407655
20
477.65691649113251
10
165.78113012975109
20
484.33988044644622
10
169.09588025158652
20
492.62675575103503
10
171.18096500564431
20
497.3315623755758
10
178.02432009588554
20
512.24793792383593
10
206.4135509780576
20
572.28768609837323
10
216.51819247849204
20
593.24546106223681
10
221.11607167974762
20
602.60161059967572
10
191.97834883458012
20
602.86892915788849
10
182.08756218071636
20
602.92239286953088
10
169.6305173680116
20
602.92239286953088
10
163.32179939419549
20
602.60161059967572
10
160.22090411892981
20
601.74619121339572
10
158.8308476162249
20
601.05116296204312
10
157.0665451320221
20
600.1422798641205
10
154.28643212661149
20
598.00373139841997
10
152.4152022191235
20
595.49093695122224
10
151.23900056298845
20
592.4969690992416
10
150.9716820047758
20
590.73266661503897
10
150.49050859999349
20
587.04367051170584
10
144.34218176110491
20
587.04367051170584
10
138.1938549222163
20
587.04367051170584
10
138.72849203864143
20
592.60389652252661
10
139.37005657835152
20
599.82149759426534
10
140.33240338791694
20
611.10234075083474
10
141.3482139091245
20
623.98709525667959
10
190.58829233187521
20
624.25441381489213
10
239.77490704298339
20
624.46826866146216
10
239.24026992655831
20
614.89826427745277
10
239.07987879163085
20
611.63697786725993
10
238.59870538684802
20
607.09256237764646
0
LWPOLYLINE
5
118
100
AcDbEntity
8
0
100
AcDbPolyline
90
109
70
1
43
0.0
10
612.68429574948323
20
355.65272652292714
10
614.18127967547343
20
355.97350879278218
10
615.30401761996598
20
356.0804362160672
10
618.72569516508656
20
356.34775477427979
10
618.13759433701898
20
346.29657698548812
10
617.54949350895129
20
337.79584683432921
10
617.01485639252621
20
333.30489505635842
10
616.53368298774421
20
330.4178546276629
10
585.89897621658611
20
330.4178546276629
10
555.26426944542834
20
330.4178546276629
10
555.26426944542834
20
333.94645959606856
10
555.26426944542834
20
335.01573382891871
10
555.42466058035632
20
336.4057903316239
10
555.79890656185353
20
337.20774600626152
10
556.49393481320612
20
337.52852827611662
10
556.97510821798869
20
337.52852827611662
10
557.83052760426881
20
337.63545569940163
10
560.07600349325446
20
338.81165735553691
10
561.14527772610461
20
339.66707674181703
10
563.60460846166018
20
341.75216149587482
10
565.15505609929278
20
368.3770898938443
10
566.43818517871284
20
390.19028424398789
10
567.02628600678042
20
400.13453460949449
10
567.40053198827798
20
405.26705092717543
10
563.06997134523499
20
405.26705092717543
10
558.68594699054927
20
405.26705092717543
10
559.00672926040431
20
409.00951074215101
10
559.27404781861685
20
412.8054342687692
10
588.46523437542646
20
413.07275282698174
10
617.65642093223641
20
413.28660767355177
10
617.44256608566673
20
402.38001049848003
10
617.17524752745419
20
391.41994961176567
10
613.59317884740574
20
391.2060947651957
10
610.06457387900025
20
390.93877620698311
10
609.85071903243022
20
394.94855458017128
10
609.74379160914532
20
396.39207479451898
10
609.20915449272024
20
398.95833295335939
10
608.24680768315511
20
401.09688141905968
10
606.80328746880741
20
402.86118390326249
10
604.87859384967715
20
404.19777669432534
10
602.4727268257642
20
405.16012350389042
10
599.47875897378344
20
405.80168804360051
10
595.89669029373545
20
406.12247031345555
10
593.86506925132016
20
406.12247031345555
10
590.49685541784174
20
406.06900660181304
10
587.02171416107876
20
405.58783319703053
10
585.31087538851853
20
404.94626865732039
10
584.08121002074074
20
403.93045813611275
10
583.22579063446074
20
402.43347421012237
10
582.31690753653811
20
399.332578934857
10
581.94266155504056
20
396.28514737123396
10
581.62187928518597
20
393.29117951925343
10
581.19416959204534
20
386.39436071736986
10
581.14070588040295
20
383.61424771195937
10
581.08724216876033
20
377.62631200799825
10
584.88316569537892
20
377.51938458471329
10
587.87713354735877
20
377.46592087307084
10
591.19188366919479
20
377.84016685456834
10
592.90272244175503
20
378.37480397099353
10
594.23931523281772
20
379.12329593398863
10
595.25512575402536
20
380.19257016683866
10
596.00361771702046
20
381.58262666954397
10
596.53825483344554
20
383.34692915374683
10
596.75210968001556
20
384.41620338659703
10
596.96596452658559
20
385.43201390780467
10
597.39367421972565
20
386.66167927558234
10
598.30255731764828
20
387.24978010364993
10
599.9064686669235
20
387.41017123857739
10
601.18959774634379
20
387.41017123857739
10
605.09244869624729
20
387.41017123857739
10
604.61127529146415
20
377.41245716142828
10
604.18356559832455
20
368.8047995869843
10
603.70239219354198
20
363.56535584601852
10
603.54200105861401
20
362.28222676659834
10
603.16775507711645
20
360.73177912896551
10
602.41926311412135
20
359.98328716597041
10
600.92227918813114
20
359.82289603104277
10
599.74607753199598
20
359.82289603104277
10
598.56987587586082
20
359.82289603104277
10
597.12635566151312
20
359.98328716597041
10
596.43132741016052
20
360.57138799403788
10
596.21747256359049
20
361.85451707345817
10
596.21747256359049
20
362.87032759466592
10
596.21747256359049
20
363.77921069258855
10
595.95015400537795
20
365.32965833022132
10
595.41551688895288
20
366.6127874096415
10
594.56009750267276
20
367.6820616424917
10
593.3838958465376
20
368.48401731712931
10
591.88691192054739
20
369.07211814519684
10
588.94640778020948
20
369.55329154997946
10
586.38014962136867
20
369.60675526162208
10
580.44567762905024
20
369.60675526162208
10
579.80411308934026
20
357.79127498862749
10
579.26947597291507
20
347.79356091147832
10
578.68137514484761
20
342.12640747737237
10
578.20020174006504
20
338.22355652746916
10
589.64143603156162
20
338.54433879732431
10
593.00964986504005
20
338.65126622060933
10
597.87484762450822
20
338.91858477882187
10
601.02920661141661
20
339.39975818360438
10
603.27468250040181
20
340.14825014659948
10
604.23702930996694
20
340.68288726302461
10
605.57362210102929
20
341.53830664930479
10
607.87256170165711
20
343.78378253829021
10
609.63686418585985
20
346.61735925534316
10
610.81306584199547
20
349.98557308882118
10
611.18731182349302
20
351.91026670795168
10
611.45463038170544
20
353.1933957873718
10
611.88234007484562
20
354.85077084828953
0
LWPOLYLINE
5
119
100
AcDbEntity
8
0
100
AcDbPolyline
90
1147
70
1
43
0.0
10
630.54117543808115
20
148.694698754775
10
630.54117543808115
20
148.694698754775
10
634.71134494619673
20
148.10659792670742
10
635.94101031397474
20
147.83927936849483
10
637.17067568175253
20
147.99967050342232
10
641.23391776658298
20
148.694698754775
10
643.4793936555684
20
149.1758721595576
10
647.9168817218964
20
150.61939237390533
10
652.14051494165506
20
152.54408599303559
10
655.98990217991559
20
154.9499530169486
10
657.64727724083332
20
156.2865458080112
10
658.71655147368347
20
157.24889261757642
10
661.28280963252382
20
160.18939675791441
10
665.61337027556692
20
166.23079617351792
10
671.76169711445584
20
176.44236509723709
10
675.98533033421381
20
184.72924040182602
10
678.49812478141166
20
190.182538989362
10
679.51393530261976
20
192.74879714820233
10
681.97326603817476
20
198.89712398709094
10
686.83846379764327
20
210.44528570187293
10
691.32941557561435
20
220.22914493245202
10
695.01841167894668
20
227.66060085076072
10
696.46193189329483
20
230.06646787467361
10
698.22623437749724
20
233.06043572665408
10
702.02215790411526
20
240.86613762646041
10
703.46567811846296
20
244.39474259486602
10
705.12305317938126
20
248.61837581462436
10
709.50707753406675
20
258.56262618013091
10
714.42573900517789
20
268.61380396892258
10
718.86322707150623
20
276.95414298515391
10
720.57406584406635
20
279.6807922789219
10
721.91065863512893
20
281.65894960969467
10
724.69077164053942
20
284.75984488496033
10
727.31049351102217
20
286.6845385040906
10
729.12825970686754
20
287.32610304380069
10
730.25099765136031
20
287.32610304380069
10
730.73217105614322
20
287.21917562051567
10
731.48066301913832
20
286.89839335066063
10
733.1915017916981
20
285.72219169452546
10
735.11619541082882
20
283.90442549868021
10
737.25474387652912
20
281.39163105148231
10
740.62295771000709
20
276.68682442694148
10
745.54161918111777
20
268.50687654563757
10
748.10787733995869
20
263.69514249781167
10
750.78106292208406
20
258.45569875684589
10
754.89776871855713
20
251.29156139674973
10
757.30363574246985
20
248.19066612148413
10
758.74715595681755
20
246.85407333042144
10
760.13721245952343
20
246.10558136742634
10
761.63419638551329
20
245.78479909757132
10
762.38268834850805
20
245.73133538592884
10
763.29157144643079
20
245.78479909757132
10
764.73509166077815
20
246.21250879071135
10
766.23207558676893
20
247.33524673520404
10
768.1567692058992
20
249.52725891254693
10
769.38643457367721
20
251.07770655017958
10
771.09727334623722
20
253.21625501587999
10
773.82392264000498
20
256.15675915621802
10
774.35855975643005
20
256.4240777144305
10
774.78626944957057
20
256.26368657950297
10
776.28325337556032
20
254.60631151858536
10
777.08520905019805
20
253.32318243916504
10
778.04755585976363
20
251.87966222481734
10
780.39995917203385
20
249.42033148926188
10
783.18007217744434
20
247.44217415848902
10
786.33443116435274
20
246.05211765578383
10
787.9918062252699
20
245.62440796264369
10
789.11454416976255
20
245.35708940443118
10
791.09270150053544
20
244.71552486472115
10
792.80354027309613
20
243.86010547844091
10
794.35398791072828
20
242.68390382230567
10
795.79750812507655
20
241.18691989631549
10
797.2944920510663
20
239.20876256554263
10
799.53996794005207
20
235.25244790399699
10
801.35773413589732
20
231.67037922394888
10
802.74779063860251
20
228.78333879525343
10
805.15365766251534
20
224.45277815221019
10
807.55952468642874
20
221.08456431873211
10
810.60695625005167
20
217.82327790853913
10
812.58511358082387
20
215.89858428940883
10
820.9254525970556
20
207.93249125467494
10
833.5428885446878
20
195.79622871182545
10
840.27931621164385
20
189.32711960308183
10
847.81769955323762
20
182.48376451284057
10
851.93440534971103
20
179.06208696772012
10
855.73032887632917
20
176.38890138559469
10
859.36586126801922
20
174.19688920825169
10
865.30033326033788
20
171.41677620284133
10
870.27245844309141
20
169.49208258371098
10
872.99910773685929
20
168.47627206250334
10
878.50587003603732
20
166.07040503859042
10
884.01263233521649
20
163.397219456465
10
889.25207607618233
20
160.56364273941193
10
891.76487052337961
20
159.06665881342181
10
896.68353199449143
20
156.12615467308368
10
905.66543555043211
20
151.58173918347049
10
911.06527042632581
20
149.3897270061276
10
913.84538343173608
20
148.5877713314899
10
915.87700447415148
20
148.3739164849199
10
916.73242386043171
20
148.64123504313241
10
916.99974241864402
20
149.01548102463005
10
916.99974241864402
20
149.28279958284259
10
916.51856901386122
20
149.76397298762518
10
911.92068981260604
20
152.49062228139317
10
908.55247597912751
20
154.25492476559592
10
904.81001616415244
20
156.23308209636869
10
897.11124168763092
20
160.72403387433963
10
894.33112868222042
20
162.54180007018479
10
891.12330598366952
20
164.51995740095759
10
879.46821684560291
20
170.77521166313119
10
872.83871660193211
20
174.0364980733242
10
857.12038537903379
20
181.68180883820301
10
847.17613501352776
20
191.62605920370967
10
838.51501372744087
20
200.39410791308111
10
833.06171513990523
20
206.11472505882961
10
828.19651738043649
20
211.14031395322556
10
821.40662600183816
20
217.66288677361149
10
819.00075897792567
20
219.96182637423942
10
815.57908143280486
20
223.54389505428753
10
813.11975069724951
20
226.91210888776561
10
810.76734738497919
20
231.34959695409393
10
809.32382717063138
20
234.39702851771693
10
807.07835128164561
20
239.15529885390018
10
804.03091971802314
20
244.50167001815103
10
802.05276238724991
20
247.28178302356153
10
800.07460505647714
20
249.47379520090439
10
797.98952030241935
20
251.1846339734646
10
795.74404441343404
20
252.46776305288492
10
793.23124996623596
20
253.48357357409259
10
791.841193463531
20
253.85781955559011
10
790.18381840261327
20
254.33899296037271
10
787.61756024377246
20
255.62212203979294
10
785.42554806642988
20
257.76067050549318
10
783.07314475415922
20
261.44966660882642
10
781.57616082816901
20
264.1228521909519
10
780.0791769021788
20
266.74257406143482
10
777.67330987826631
20
270.32464274148288
10
777.1921364734834
20
270.69888872298043
10
776.8713542036287
20
270.64542501133786
10
775.48129770092328
20
269.79000562505792
10
770.88341849966707
20
266.20793694500969
10
764.73509166077815
20
261.12888433897143
10
762.27576092522304
20
259.15072700819849
10
756.28782522126221
20
271.66123553254556
10
754.47005902541696
20
275.40369534752119
10
751.52955488507916
20
280.96392135834208
10
748.9098330145963
20
285.08062715481532
10
745.91586516261589
20
288.71615954650588
10
744.04463525512756
20
290.69431687727888
10
741.53184080792971
20
293.36750245940425
10
738.43094553266485
20
296.14761546481469
10
736.55971562517652
20
297.43074454423487
10
734.79541314097378
20
298.3396276421575
10
732.97764694512819
20
298.87426475858263
10
730.09060651643313
20
299.19504702843767
10
727.73820320416235
20
299.03465589351015
10
725.81350958503208
20
298.82080104694012
10
722.3383683282691
20
297.85845423737487
10
719.02361820643353
20
296.14761546481469
10
715.76233179624069
20
293.47442988268932
10
712.50104538604785
20
289.73197006771363
10
709.02590412928419
20
284.75984488496033
10
705.22998060266627
20
278.45112691114417
10
701.00634738290842
20
270.59196129969541
10
698.65394407063786
20
265.99408209843961
10
695.12533910223237
20
258.88340844998595
10
690.31360505440625
20
248.67183952626687
10
689.77896793798141
20
247.22831931191902
10
689.51164937976864
20
246.26597250235386
10
686.78500008600076
20
241.34731103124298
10
684.80684275522799
20
238.08602462104994
10
682.93561284773978
20
235.14552048071204
10
679.51393530261976
20
228.99719364182346
10
673.68639073358611
20
217.07478594554391
10
667.80538245291029
20
203.86924916984435
10
665.55990656392441
20
198.95058769873344
10
660.48085395788678
20
188.68555506337171
10
658.44923291547047
20
184.94309524839599
10
656.68493043126819
20
181.89566368477313
10
653.47710773271729
20
176.8166110787347
10
650.53660359237938
20
172.69990528226151
10
647.64956316368387
20
169.59901000699591
10
644.86945015827405
20
167.30007040636809
10
641.98240972957819
20
165.85655019202039
10
638.93497816595527
20
165.10805822902523
10
635.62022804411924
20
165.00113080574022
10
633.85592555991718
20
165.16152194066785
10
632.3054779222839
20
165.37537678723783
10
629.9530746100138
20
165.91001390366284
10
628.13530841416821
20
166.8188970015855
10
626.31754221832296
20
168.36934463921818
10
625.1948042738303
20
169.49208258371098
10
624.33938488754973
20
170.45442939327611
10
621.82659044035245
20
173.82264322675422
10
616.9613926808837
20
180.93331687520785
10
609.85071903243022
20
192.2676237434197
10
605.52015838938678
20
199.80600708501353
10
603.59546477025708
20
203.60193061163173
10
603.06082765383189
20
204.8315959794094
10
602.36579940247884
20
206.64936217525468
10
600.92227918813114
20
209.9106485854478
10
599.21144041557091
20
212.79768901414317
10
597.12635566151312
20
215.52433830791119
10
594.45317007938775
20
218.25098760167918
10
591.13841995755172
20
221.08456431873211
10
584.56238342552388
20
225.94976207820051
10
578.57444772156271
20
230.0130041630311
10
574.6715967716591
20
232.5792623218716
10
568.63019735605621
20
236.10786729027711
10
564.88773754108024
20
237.65831492790991
10
562.48187051716741
20
238.29987946762003
10
558.7928744138344
20
238.7810528724026
10
556.0127614084239
20
238.8345165840451
10
554.62270490571836
20
238.8345165840451
10
552.05644674687801
20
238.51373431419
10
549.54365229968016
20
237.92563348612242
10
547.0308578524822
20
236.85635925327219
10
544.25074484707181
20
235.3059116156395
10
541.20331328344901
20
233.16736314993909
10
535.75001469591314
20
228.72987508361092
10
531.04520807137214
20
224.61316928713771
10
518.74855439359499
20
213.81349953535093
10
499.92932789543181
20
197.9882408891682
10
490.09200495321016
20
190.02214785443439
10
486.88418225466017
20
187.61628083052153
10
484.15753296089179
20
185.79851463467617
10
477.04685931243785
20
181.94912739641563
10
473.83903661388734
20
180.55907089371033
10
471.43316958997451
20
179.59672408414519
10
467.58378235171443
20
178.42052242801003
10
463.36014913195589
20
177.77895788829991
10
456.99796744649751
20
177.45817561844484
10
452.29316082195646
20
177.29778448351732
10
446.0379065597831
20
177.2443207718747
10
437.21639413876886
20
177.61856675337242
10
431.49577699302063
20
178.15320386979744
10
425.98901469384231
20
178.95515954443499
10
420.48225239466404
20
179.97097006564272
10
412.35576822500207
20
182.00259110805803
10
406.8490059258238
20
183.76689359226089
10
403.80157436220082
20
184.83616782511109
10
397.86710236988267
20
187.13510742573891
10
392.0930215124913
20
189.70136558457935
10
386.58625921331299
20
192.48147858998973
10
381.23988804906242
20
195.52891015361283
10
376.10737173138142
20
198.84366027544843
10
371.13524654862783
20
202.37226524385403
10
366.43043992408684
20
206.22165248211471
10
361.88602443447371
20
210.23143085530282
10
357.55546379143061
20
214.50852778670352
10
353.43875799495771
20
219.0529432763168
10
349.53590704505439
20
223.8646773241426
10
345.84691094172103
20
228.8902662185385
10
342.3183059733156
20
234.12970995950431
10
339.05701956312237
20
239.63647225868269
10
335.95612428785694
20
245.41055311607369
10
333.06908385916154
20
251.39848882003469
10
330.34243456539366
20
257.65374308220817
10
327.88310382983815
20
264.1228521909519
10
325.63762794085284
20
270.85927985790806
10
323.55254318679499
20
277.80956237143408
10
321.73477699094951
20
284.9736997315303
10
319.27544625539417
20
296.20107917645714
10
316.81611551983883
20
312.0263378226399
10
315.21220417056361
20
328.81394327838763
10
314.41024849592583
20
346.51043183205809
10
314.46371220756851
20
365.16926719529363
10
314.83795818906583
20
374.89966271423037
10
315.21220417056361
20
382.06380007432665
10
316.06762355684367
20
393.23771580761093
10
316.44186953834117
20
395.48319169659635
10
316.97650665476647
20
396.92671191094405
10
319.00812769718164
20
400.24146203277962
10
320.23779306495931
20
401.63151853548493
10
321.52092214437971
20
402.91464761490488
10
324.9425996894999
20
405.64129690867287
10
328.47120465790567
20
408.04716393258593
10
331.25131766331629
20
409.54414785857614
10
331.99980962631116
20
409.6510752818611
10
332.48098303109401
20
409.43722043529112
10
333.97796695708416
20
407.35213568123328
10
334.77992263172177
20
405.85515175524284
10
335.31455974814685
20
404.83934123403537
10
336.54422511592475
20
403.07503874983269
10
338.14813646520003
20
401.63151853548493
10
340.39361235418505
20
400.24146203277962
10
341.83713256853304
20
399.43950635814201
10
343.54797134109322
20
398.58408697186178
10
346.32808434650366
20
397.46134902736918
10
349.42897962176937
20
396.92671191094405
10
354.02685882302512
20
396.76632077601653
10
357.3950726565032
20
396.76632077601653
10
361.51177845297639
20
396.81978448765904
10
368.35513354321739
20
397.46134902736918
10
372.52530305133286
20
398.42369583693426
10
375.14502492181578
20
399.332578934857
10
378.78055731350651
20
401.09688141905968
10
381.18642433741934
20
402.70079276833491
10
382.68340826341012
20
403.82353071282773
10
385.5704486921054
20
406.8174985648082
10
387.92285200437567
20
410.23917610992868
10
389.09905366051089
20
412.64504313384168
10
389.47329964200856
20
414.03509963654676
10
389.52676335365089
20
414.56973675297195
10
389.41983593036588
20
415.15783758103959
10
388.35056169751579
20
416.81521264195737
10
385.35659384553537
20
420.29035389872047
10
379.68944041142913
20
425.58326135132887
10
375.30541605674352
20
429.05840260809191
10
372.68569418626066
20
430.76924138065215
10
371.61641995341034
20
431.30387849707716
10
369.85211746920754
20
432.10583417171483
10
366.00273023094701
20
433.38896325113518
10
361.99295185775873
20
434.40477377234276
10
357.87624606128566
20
434.99287460041046
10
353.81300397645487
20
435.26019315862294
10
349.96361673819433
20
435.15326573533798
10
346.38154805814628
20
434.72555604219787
10
343.22718907123823
20
433.87013665591775
10
341.83713256853304
20
433.28203582785017
10
340.76785833568289
20
432.69393499978253
10
338.68277358162482
20
431.35734220871973
10
336.65115253920953
20
429.64650343615943
10
334.83338634336428
20
427.72180981702917
10
333.17601128244632
20
425.58326135132887
10
331.73249106809862
20
423.23085803905838
10
330.55628941196352
20
420.82499101514549
10
329.70087002568334
20
418.36566027959014
10
329.43355146747081
20
417.08253120016991
10
329.21969662090078
20
416.44096666045982
10
328.73852321611844
20
415.26476500432466
10
328.09695867640812
20
414.40934561804454
10
327.29500300177051
20
413.82124478997696
10
326.86729330863051
20
413.66085365504932
10
325.85148278742281
20
413.23314396190926
10
322.91097864708468
20
411.52230518934891
10
321.41399472109458
20
410.50649466814139
10
318.6338817156842
20
408.58180104901089
10
317.67153490611889
20
408.15409135587089
10
317.88538975268881
20
410.50649466814139
10
319.11505512046676
20
418.15180543302012
10
319.8635470834617
20
422.6962209226333
10
321.6278495676645
20
431.67812447857489
10
323.55254318679499
20
440.39270947630371
10
325.7980190757803
20
448.89343962746267
10
328.20388609969308
20
457.1803149320516
10
330.87707168181851
20
465.19987167842794
10
333.71064839887163
20
472.9521098665918
10
336.81154367413734
20
480.49049320818551
10
338.46891873505484
20
484.12602559987602
10
340.39361235418505
20
488.24273139634931
10
344.77763670887123
20
496.90385268243574
10
349.26858848684168
20
504.92340942881208
10
353.17143943674489
20
511.17866369098567
10
354.56149593944997
20
513.04989359847355
10
356.37926213529556
20
515.29536948745886
10
358.62473802428076
20
513.21028473340107
10
359.64054854548834
20
512.08754678890818
10
361.9394881461165
20
508.23815955064765
10
362.84837124403913
20
506.15307479658981
10
363.48993578374888
20
504.6560908705996
10
364.18496403510198
20
502.46407869325662
10
364.39881888167167
20
500.8601673439814
10
364.07803661181646
20
499.36318341799108
10
363.70379063031919
20
498.45430032006851
10
362.31373412761388
20
495.08608648659043
10
360.44250422012601
20
489.63278789905451
10
359.31976627563347
20
484.76759013958622
10
358.73166544756589
20
479.42121897533531
10
358.57127431263837
20
476.10646885349985
10
358.46434688935318
20
471.88283563374159
10
358.67820173592338
20
466.42953704620567
10
359.10591142906333
20
463.11478692437015
10
359.74747596877336
20
459.96042793746221
10
360.65635906669633
20
456.91299637383906
10
362.47412526254129
20
452.42204459586839
10
364.13150032345902
20
449.37461303224541
10
365.52155682616439
20
446.9152822966899
10
369.05016179456987
20
442.26393938379169
10
373.32725872597052
20
437.87991502910592
10
378.29938390872394
20
433.76320923263273
10
383.91307363118767
20
430.02074941765699
10
390.11486418171853
20
426.59907187253646
10
396.90475556031743
20
423.6051040205561
10
404.17582034369843
20
420.98538215007301
10
408.02520758195891
20
419.86264420558035
10
412.14191337843255
20
418.7399062610877
10
414.97549009548493
20
418.36566027959014
10
415.77744577012288
20
418.7399062610877
10
415.93783690505057
20
419.11415224258525
10
416.15169175162055
20
420.61113616857551
10
416.15169175162055
20
430.39499539915471
10
415.99130061669302
20
437.13142306611076
10
415.77744577012288
20
443.97477815635193
10
415.13588123041291
20
452.1012623260134
10
414.49431669070287
20
456.80606895055411
10
413.58543359278019
20
461.08316588195464
10
412.40923193664457
20
465.14640796678543
10
410.00336491273174
20
471.40166222895903
10
407.81135273538939
20
476.10646885349985
10
406.58168736761121
20
478.6192633006977
10
403.9085017854859
20
483.16367879031105
10
401.0214613567905
20
487.06652974021415
10
397.92056608152473
20
490.43474357369212
10
394.44542482476163
20
493.32178400238774
10
390.59603758650121
20
495.72765102630063
10
386.265476943458
20
497.70580835707335
10
381.45374289563188
20
499.30971970634863
10
378.78055731350651
20
500.0047479577014
10
370.65407314384538
20
502.03636900011674
10
368.99669808292742
20
506.63424820137237
10
368.35513354321739
20
508.45201439721762
10
366.69775848229966
20
511.87369194233816
10
364.77306486316962
20
514.97458721760381
10
362.68798010911149
20
517.54084537644417
10
361.61870587626129
20
518.61011960929432
10
360.9771413365512
20
519.25168414900452
10
360.22864937355598
20
520.58827694006709
10
360.22864937355598
20
521.01598663320738
10
360.76328648998123
20
521.81794230784487
10
364.6661374398841
20
526.62967635567077
10
367.44625044529471
20
529.89096276586383
10
370.76100056713022
20
533.68688629248186
10
378.51323875529403
20
541.43912448064566
10
387.06743261809561
20
549.13789895716695
10
395.78201761582483
20
556.14164518233565
10
400.00565083558286
20
559.13561303431618
10
403.9085017854859
20
561.75533490479893
10
413.74582472770771
20
567.52941576219007
10
424.54549447949461
20
573.08964177301084
10
434.38281742171603
20
577.5805935509818
10
438.23220465997673
20
578.970650053687
10
440.37075312567686
20
579.7191420166821
10
443.20432984272975
20
580.52109769131971
10
445.02209603857534
20
580.68148882624723
10
446.62600738785068
20
580.20031542146467
10
447.58835419741587
20
579.7191420166821
10
449.29919296997605
20
578.91718634204437
10
449.83383008640118
20
578.22215809069178
10
449.29919296997605
20
577.84791210919423
10
448.76455585355086
20
577.63405726262408
10
447.8022090439859
20
577.20634756948414
10
445.87751542485501
20
576.13707333663399
10
444.05974922901038
20
574.8539442572137
10
442.40237416809214
20
573.30349661958087
10
440.95885395374438
20
571.64612155866325
10
439.83611600925178
20
569.88181907446051
10
438.98069662297218
20
568.17098030190027
10
438.5529869298316
20
566.46014152933992
10
438.4995232181891
20
565.6581858547022
10
438.4995232181891
20
564.90969389170721
10
438.33913208326169
20
564.26812935199689
10
438.01834981340653
20
564.00081079378435
10
437.16293042712641
20
564.00081079378435
10
434.70359969157101
20
564.69583904513706
10
432.67197864915573
20
565.33740358484715
10
430.42650276017042
20
565.97896812455724
10
427.80678088968773
20
566.35321410605479
10
426.36326067533986
20
566.24628668276989
10
425.0801315959194
20
565.81857698962972
10
423.95739365142668
20
565.01662131499222
10
422.40694601379391
20
563.19885511914674
10
421.39113549258667
20
561.43455263494388
10
420.48225239466404
20
559.40293159252872
10
418.66448619881839
20
553.46845960021017
10
417.16750227282819
20
546.41124966339908
10
416.31208288654807
20
539.51443086151539
10
416.25861917490545
20
536.68085414446239
10
416.31208288654807
20
534.80962423697451
10
416.84672000297314
20
531.70872896170908
10
418.02292165910831
20
529.30286193779614
10
419.94761527823857
20
527.27124089538074
10
421.17728064601624
20
526.36235779745812
10
422.19309116722388
20
525.72079325774803
10
422.88811941857637
20
524.97230129475292
10
422.88811941857637
20
524.70498273654039
10
422.67426457200645
20
524.65151902489788
10
422.35348230215141
20
524.59805531325526
10
421.60499033915642
20
524.11688190847281
10
420.42878868302114
20
522.78028911741012
10
418.98526846867344
20
520.05363982364224
10
418.12984908239338
20
517.00620826001909
10
418.02292165910831
20
515.66961546895641
10
418.02292165910831
20
514.8676597943188
10
418.29024021732084
20
513.4776032916136
10
418.77141362210341
20
512.24793792383593
10
419.46644187345601
20
511.17866369098567
10
419.89415156659618
20
510.75095399784567
10
420.8564983761612
20
509.73514347663786
10
423.74353880485705
20
505.56497396852222
10
425.24052273084686
20
503.10564323296688
10
426.84443408012203
20
500.5393850741263
10
429.78493822046033
20
496.79692525915073
10
431.7096318395906
20
494.76530421673539
10
432.51158751422821
20
494.07027596538273
10
434.2224262867885
20
492.78714688596256
10
438.07181352504898
20
490.11396130383719
10
441.8677370516674
20
487.8684854148517
10
444.7013137687199
20
486.47842891214651
10
445.44980573171551
20
486.31803777721899
10
446.0379065597831
20
486.47842891214651
10
448.71109214190835
20
488.13580397306441
10
450.31500349118369
20
489.31200562919958
10
451.65159628224637
20
490.3278161504071
10
453.41589876644952
20
491.50401780654227
10
454.53863671094183
20
491.77133636475492
10
455.55444723214941
20
491.23669924832967
10
456.24947548350201
20
490.64859842026226
10
457.42567713963723
20
489.7931790339822
10
460.36618127997554
20
488.45658624291929
10
463.57400397852587
20
487.60116685663917
10
466.72836296543386
20
487.38731201006914
10
468.17188317978207
20
487.54770314499672
10
468.86691143113421
20
487.76155799156669
10
471.21931474340448
20
488.77736851277433
10
475.97758507958815
20
491.39709038325742
10
479.45272633635113
20
493.58910256060017
10
482.71401274654409
20
495.78111473794303
10
486.13569029166467
20
498.56122774335353
10
487.79306535258274
20
500.27206651591382
10
488.96926700871779
20
502.03636900011674
10
489.66429526007005
20
503.90759890760444
10
490.0385412415676
20
505.99268366166228
10
490.14546866485318
20
508.34508697393267
10
490.09200495321016
20
509.73514347663786
10
490.0385412415676
20
511.12519997934317
10
490.09200495321016
20
513.04989359847355
10
490.57317835799267
20
514.1726315429662
10
491.64245259084282
20
514.97458721760381
10
492.49787197712345
20
515.34883319910136
10
494.31563817296819
20
516.25771629702388
10
496.56111406195402
20
517.8616276462991
10
497.84424314137368
20
519.14475672571939
10
499.50161820229192
20
521.44369632634732
10
501.31938439813717
20
525.56040212282039
10
502.17480378441724
20
528.23358770494599
10
502.65597718919986
20
530.10481761243375
10
503.3510054405524
20
533.63342258083935
10
503.61832399876494
20
536.89470899103253
10
503.40446915219491
20
539.83521313137044
10
502.76290461248487
20
542.56186242513832
10
501.69363037963467
20
544.96772944905138
10
500.14318274200195
20
547.10627791475167
10
498.16502541122924
20
548.97750782223943
10
496.98882375509356
20
549.77946349687704
10
496.18686808045629
20
550.36756432494474
10
494.90373900103577
20
551.49030226943728
10
494.10178332639816
20
552.71996763721495
10
493.5671462099736
20
554.27041527484789
10
493.35329136340351
20
555.23276208441303
10
493.03250909354836
20
556.89013714533064
10
491.9097711490557
20
560.31181469045123
10
490.14546866485318
20
563.68002852392942
10
487.95345648750987
20
566.83438751083747
10
486.6703274080902
20
568.27790772518529
10
485.81490802180986
20
569.1867908231078
10
484.42485151910432
20
570.36299247924296
10
483.08825872804164
20
570.84416588402553
10
481.32395624383889
20
570.89762959566815
10
480.14775458770373
20
570.73723846074063
10
476.93993188915329
20
570.25606505595783
10
475.01523827002273
20
569.72142793953287
10
474.64099228852547
20
569.61450051624774
10
473.94596403717287
20
569.77489165117549
10
472.87668980432272
20
570.84416588402553
10
472.07473412968466
20
572.34114981001574
10
471.70048814818762
20
573.08964177301084
10
470.68467762697935
20
574.42623456407375
10
469.29462112427473
20
575.65589993185131
10
467.69070977499899
20
576.72517416470157
10
464.85713305794616
20
578.06176695576426
10
461.70277407103822
20
578.86372263040175
10
459.45729818205285
20
579.1310411886144
10
458.3345602375602
20
579.1310411886144
10
456.35640290678737
20
579.23796861189953
10
453.95053588287419
20
579.82606943996711
10
452.61394309181156
20
580.46763397967743
10
452.02584226374381
20
580.84187996117475
10
451.2238865891062
20
581.53690821252724
10
450.63578576103873
20
582.23193646388017
10
450.68924947268124
20
582.60618244537773
10
451.70505999388894
20
583.1408195618028
10
455.18020125065232
20
584.10316637136771
10
458.12070539099022
20
584.79819462272053
10
460.90081839640061
20
585.38629545078811
10
466.83529038871887
20
586.24171483706823
10
472.9836172276074
20
586.7763519534933
10
479.29233520142367
20
586.82981566513581
10
485.60105317523949
20
586.56249710692327
10
491.9097711490557
20
585.86746885557068
10
498.00463427630172
20
584.79819462272053
10
503.88564255697736
20
583.35467440837283
10
506.66575556238791
20
582.4457913104502
10
509.07162258630069
20
581.64383563581259
10
513.88335663412681
20
579.66567830503948
10
518.48123583538245
20
577.36673870441177
10
522.70486905514088
20
574.96087168049871
10
526.44732887011605
20
572.44807723330075
10
529.49476043373932
20
569.98874649774541
10
531.68677261108212
20
567.68980689711748
10
532.64911942064725
20
566.13935925948476
10
532.9699016905023
20
565.17701244991963
10
532.9699016905023
20
564.74930275677946
10
532.9699016905023
20
564.00081079378435
10
532.64911942064725
20
563.03846398421933
10
531.5263814761546
20
562.61075429107916
10
529.12051445224188
20
562.50382686779415
10
527.19582083311161
20
562.50382686779415
10
525.43151834890887
20
562.50382686779415
10
522.91872390171068
20
562.34343573286662
10
521.20788512915033
20
561.80879861644155
10
519.76436491480263
20
560.84645180687642
10
519.01587295180752
20
560.09795984388143
10
518.32084470045493
20
559.40293159252872
10
517.35849789088979
20
557.9594113781809
10
516.7169333511797
20
556.24857260562067
10
516.34268736968215
20
553.89616929335023
10
516.23575994639714
20
552.34572165571751
10
516.12883252311212
20
550.63488288315716
10
516.18229623475463
20
548.06862472431681
10
516.77039706282221
20
545.71622141204625
10
518.10698985388535
20
542.88264469499336
10
519.17626408673505
20
540.95795107586309
10
521.10095770586531
20
537.48280981910011
10
523.50682472977815
20
533.47303144591183
10
524.52263525098613
20
532.56414834798909
10
525.11073607905382
20
532.67107577127422
10
525.96615546533383
20
533.74035000412437
10
526.71464742832859
20
535.18387021847195
10
527.19582083311161
20
535.9323621814674
10
528.5324136241743
20
537.53627353074262
10
530.99174435972964
20
539.99560426629796
10
532.70258313228976
20
541.17180592243312
10
534.68074046306265
20
542.50839871349604
10
537.514317180116
20
544.91426573740864
10
539.27861966431874
20
547.42706018460672
10
540.02711162731384
20
550.20717319001722
10
540.08057533895635
20
551.81108453929232
10
540.08057533895635
20
552.82689506050008
10
539.8132567807437
20
554.5377338330602
10
539.33208337596079
20
555.98125404740813
10
538.47666398968067
20
557.31784683847081
10
537.88856316161321
20
557.9594113781809
10
536.97968006369035
20
559.02868561103116
10
535.80347840755519
20
561.16723407673135
10
535.69655098427074
20
561.91572603972668
10
535.69655098427074
20
562.28997202122423
10
535.96386954248283
20
562.55729057943677
10
536.81928892876294
20
562.02265346301147
10
537.94202687325549
20
560.7395243835914
10
539.01130110610563
20
559.34946788088621
10
541.36370441837619
20
555.55354435426784
10
543.7161077306464
20
551.00912886465483
10
545.96158361963217
20
546.09046739354403
10
547.88627723876232
20
541.22526963407563
10
549.38326116475264
20
536.84124527938991
10
550.18521683939014
20
533.41956773426932
10
550.23868055103276
20
531.76219267335148
10
550.02482570446261
20
531.12062813364139
10
549.75750714625019
20
531.01370071035637
10
549.1694063181825
20
530.69291844050144
10
547.13778527576733
20
529.08900709122611
10
546.01504733127467
20
528.01973285837585
10
545.21309165663661
20
527.21777718373835
10
544.1438174237868
20
525.77425696939054
10
543.7161077306464
20
524.17034562011531
10
543.7161077306464
20
521.71101488455986
10
543.82303515393176
20
519.94671240035711
10
543.92996257721688
20
518.55665589765181
10
544.51806340528435
20
515.50922433402889
10
545.53387392649211
20
512.35486534712084
10
546.81700300591217
20
509.04011522528521
10
548.42091435518751
20
505.72536510344969
10
550.29214426267515
20
502.51754240489925
10
552.37722901673305
20
499.47011084127615
10
554.56924119407631
20
496.68999783586571
10
555.74544285021136
20
495.46033246808804
10
557.72360018098436
20
493.48217513731527
10
559.96907606996945
20
491.61094522982739
10
561.09181401446165
20
490.96938069011742
10
561.89376968909983
20
490.75552584354728
10
562.42840680552479
20
491.12977182504471
10
562.58879794045231
20
491.93172749968244
10
562.48187051716741
20
493.26832029074524
10
562.32147938223989
20
494.12373967702536
10
561.84030597745732
20
496.47614298929568
10
561.46605999595977
20
501.76905044190397
10
561.7333785541723
20
507.16888531779745
10
562.58879794045231
20
512.0340830772659
10
563.28382619180491
20
513.95877669639617
10
563.97885444315762
20
515.93693402716883
10
564.94120125272275
20
519.8397849770721
10
565.04812867600776
20
521.1763777681349
10
564.99466496436526
20
522.13872457769992
10
564.6204189828677
20
524.11688190847281
10
563.92539073151511
20
525.98811181596045
10
562.90958021030747
20
527.69895058852092
10
561.7333785541723
20
529.19593451451124
10
560.34332205146711
20
530.3721361706464
10
558.7928744138344
20
531.28101926856903
10
557.24242677620123
20
531.76219267335148
10
556.44047110156362
20
531.76219267335148
10
555.85237027349604
20
531.8156563849941
10
554.99695088721592
20
532.08297494320664
10
554.4623137707913
20
532.83146690620174
10
554.03460407765067
20
534.16805969726431
10
553.87421294272315
20
535.13040650682967
10
553.12572097972804
20
538.9263300334477
10
550.93370880238535
20
548.97750782223943
10
550.23868055103276
20
551.59722969272229
10
549.97136199282011
20
552.66650392557256
10
550.18521683939014
20
553.25460475364025
10
550.5594628208878
20
553.20114104199763
10
551.36141849552541
20
552.55957650228754
10
552.6980112865881
20
550.58141917151465
10
553.33957582629864
20
549.24482638045197
10
554.14153150093568
20
547.58745131953424
10
555.74544285021136
20
545.55583027711896
10
557.0285719296312
20
544.48655604426881
10
559.16712039533184
20
543.14996325320612
10
562.53533422880992
20
542.18761644364065
10
566.43818517871284
20
542.02722530871313
10
570.82220953339856
20
542.72225356006584
10
575.6339435812248
20
544.16577377441376
10
580.8199236105479
20
546.51817708668386
10
583.54657290431567
20
548.0151610126743
10
586.27322219808411
20
549.61907236194952
10
591.35227480412232
20
552.9872861954276
10
592.90272244175503
20
554.16348785156265
10
595.78976287045043
20
556.62281858711822
10
587.55635127750372
20
556.08818147069314
10
579.32293968455724
20
555.55354435426784
10
574.24388707851938
20
558.92175818774615
10
572.05187490117623
20
560.31181469045123
10
568.63019735605621
20
561.91572603972668
10
566.65204002528299
20
562.61075429107916
10
565.90354806228777
20
562.71768171436418
10
564.19270928972765
20
562.87807284929181
10
560.82449545624911
20
562.50382686779415
10
557.72360018098436
20
561.38108892330149
10
555.90583398513888
20
560.15142355552382
10
554.9434871755733
20
559.18907674595869
10
554.56924119407631
20
558.65443962953361
10
553.39303953794115
20
556.72974601040323
10
552.85840242151562
20
555.92779033576562
10
552.6980112865881
20
555.82086291248061
10
552.00298303523539
20
556.03471775905064
10
550.39907168596017
20
557.15745570354329
10
547.6724223921924
20
559.77717757402615
10
545.2665553682798
20
562.61075429107916
10
544.5715271169272
20
563.84041965885683
10
542.80722463272411
20
567.26209720397753
10
545.53387392649211
20
567.90366174368762
10
546.22890217784459
20
568.01058916697264
10
547.51203125726488
20
568.06405287861514
10
548.58130549011503
20
567.85019803204511
10
549.54365229968016
20
567.26209720397753
10
550.07828941610524
20
566.83438751083747
10
550.50599910924518
20
566.46014152933992
10
551.78912818866547
20
565.81857698962972
10
554.03460407765067
20
565.28393987320464
10
557.34935419948658
20
565.23047616156214
10
559.5413663768295
20
565.7116495663447
10
560.71756803296466
20
566.29975039441229
10
561.14527772610461
20
566.67399637590972
10
561.51952370760216
20
567.15516978069252
10
562.21455195895487
20
568.38483514847019
10
562.85611649866485
20
570.84416588402553
10
563.01650763359248
20
574.64008941064378
10
562.64226165209493
20
577.47366612769679
10
562.10762453566974
20
579.1310411886144
10
561.7333785541723
20
579.87953315160985
10
561.30566886103213
20
580.73495253788974
10
560.18293091653959
20
582.28540017552268
10
558.95326554876192
20
583.67545667822787
10
557.56320904605627
20
584.79819462272053
10
556.0127614084239
20
585.70707772064316
10
554.4623137707913
20
586.34864226035324
10
552.80493870987345
20
586.7228882418508
10
551.14756364895538
20
586.7763519534933
10
550.34560797431777
20
586.7228882418508
10
549.1694063181825
20
586.50903339528077
10
547.08432156412482
20
585.70707772064316
10
545.37348279156458
20
584.47741235286549
10
544.09035371214429
20
582.92696471523277
10
543.18147061422133
20
581.10919851938729
10
542.80722463272411
20
579.07757747697201
10
542.86068834436617
20
576.88556529962909
10
543.50225288407637
20
574.64008941064378
10
544.03689000050144
20
573.51735146615101
10
544.51806340528435
20
572.50154094494326
10
544.89230938678145
20
570.95109330731066
10
544.78538196349689
20
570.63031103745539
10
544.46459969364196
20
570.36299247924296
10
543.76957144228891
20
570.04221020938792
10
542.48644236286907
20
570.20260134431533
10
540.1875027622408
20
571.48573042373573
10
537.24699862190289
20
574.0519885825762
10
535.53615984934265
20
575.86975477842145
10
533.13029282542982
20
578.3825492256193
10
527.83738537282125
20
583.19428327344508
10
525.85922804204847
20
584.79819462272053
10
523.50682472977815
20
586.40210597199575
10
517.57235273745982
20
589.87724722875873
10
510.99631620543136
20
593.08506992730929
10
504.6875982316152
20
595.59786437450725
10
502.01441264948971
20
596.39982004914475
10
497.68385200644667
20
597.68294912856504
10
496.45418663866894
20
598.21758624499023
10
496.93536004345157
20
598.96607820798522
10
498.75312623929636
20
600.83730811547298
10
499.50161820229192
20
601.5858000784682
10
500.41050130021449
20
602.92239286953088
10
500.83821099335455
20
604.52630421880622
10
500.83821099335455
20
606.87870753107654
10
500.73128357006954
20
608.58954630363689
10
500.57089243514201
20
610.24692136455462
10
500.19664645364395
20
612.65278838846746
10
499.50161820229192
20
614.36362716102781
10
498.2719528345142
20
615.80714737537562
10
497.41653344823408
20
616.60910305001323
10
494.47602930789617
20
619.22882492049609
10
484.63870636567486
20
618.58726038078612
10
480.62892799248635
20
618.37340553421632
10
477.90227869871791
20
612.33200611861253
10
477.36764158229289
20
611.20926817411976
10
476.77954075422582
20
610.03306651798448
10
476.13797621451516
20
607.84105434064179
10
475.97758507958815
20
605.8628970098689
10
476.40529477272815
20
603.93820339073864
10
476.88646817751084
20
603.0293202928159
10
477.15378673572332
20
602.44121946474843
10
477.15378673572332
20
601.85311863668073
10
476.77954075422582
20
601.63926379011059
10
474.42713744195487
20
601.31848152025566
10
469.34808483591723
20
601.26501780861327
10
465.92640729079631
20
601.26501780861327
10
460.41964499161799
20
600.94423553875811
10
459.29690704712533
20
600.73038069218808
10
459.18997962384032
20
600.73038069218808
10
459.13651591219741
20
600.8907718271156
10
459.51076189369536
20
601.53233636682569
10
461.80970149432318
20
604.20552194895129
10
464.42942336480621
20
606.82524381943415
10
466.3006532722938
20
608.69647372692179
10
469.29462112427473
20
611.36965930904728
10
475.22909311659305
20
618.58726038078612
10
475.76373023301812
20
629.28000270928783
10
475.60333909809015
20
630.99084148184807
10
475.87065765630263
20
631.79279715648579
10
476.40529477272815
20
631.63240602155827
10
476.77954075422582
20
631.36508746334573
10
477.95574241036093
20
630.50966807706561
10
478.49037952678549
20
630.08195838392544
10
483.08825872804164
20
628.85229301614777
10
483.67635955610922
20
628.90575672779039
10
484.85256121224438
20
628.95922043943278
10
486.93764596630268
20
629.49385755585786
10
488.86233958543244
20
630.50966807706561
10
490.46625093470766
20
631.95318829141331
10
491.85630743741336
20
633.87788191054346
10
492.925581670263
20
636.123357799529
10
493.62060992161605
20
638.74307967001198
10
494.04831961475566
20
641.68358381035
10
494.04831961475566
20
643.28749515962522
10
494.04831961475566
20
644.73101537397281
10
493.78100105654312
20
647.19034610952826
10
493.08597280519103
20
649.48928571015631
10
491.9097711490557
20
652.00208015735416
10
491.05435176277524
20
653.49906408334436
10
490.14546866485318
20
655.15643914426221
10
488.91580329707494
20
657.8830884380302
10
488.22077504572235
20
660.60973773179842
10
487.84652906422514
20
664.13834270020391
10
487.68613792929722
20
666.54420972411674
10
487.52574679437009
20
669.1639315945996
10
487.04457338958719
20
672.74600027464771
10
486.56339998480462
20
674.13605677735279
10
486.18915400330707
20
674.40337533556533
10
485.60105317523949
20
673.92220193078276
10
485.17334348209988
20
672.79946398629033
10
483.83675069103674
20
669.48471386445465
10
480.41507314591627
20
661.89286681121825
10
478.70423437335603
20
658.15040699624274
10
476.03104879123066
20
651.5743704642141
10
474.26674630702786
20
646.17453558832085
10
473.35786320910529
20
641.89743865691992
10
473.25093578581976
20
640.29352730764469
10
473.25093578581976
20
639.49157163300697
10
473.09054465089275
20
638.52922482344184
10
472.60937124610967
20
638.10151513030178
10
471.59356072490198
20
638.20844255358668
10
470.84506876190699
20
638.36883368851443
10
468.81344771949165
20
638.79654338165437
10
467.90456462156919
20
638.90347080493939
10
466.67489925379186
20
638.90347080493939
10
464.64327821137613
20
638.52922482344184
10
462.82551201553088
20
637.78073286044673
10
460.95428210804312
20
636.39067635774143
10
459.83154416355035
20
635.42832954817629
10
458.6553425074153
20
634.30559160368364
10
456.67718517664252
20
632.11357942634072
10
455.18020125065232
20
629.97503096064042
10
454.21785444108673
20
627.88994620658264
10
453.73668103630462
20
625.85832516416735
10
453.73668103630462
20
623.88016783339458
10
454.21785444108673
20
621.95547421426431
10
455.23366496229482
20
620.08424430677633
10
455.98215692528936
20
619.17536120885393
10
456.57025775335745
20
618.48033295750099
10
457.90685054441974
20
617.35759501300834
10
459.35037075876784
20
616.55563933837072
10
461.00774581968551
20
616.02100222194565
10
461.91662891760819
20
615.86061108701813
10
465.49869759765619
20
615.27251025895066
10
456.78411259992714
20
607.09256237764646
10
453.89707217123168
20
604.3124493722363
10
449.88729379804352
20
600.83730811547298
10
446.89332594606321
20
598.91261449634283
10
443.63203953587026
20
597.84334026349268
10
441.33309993524244
20
597.30870314706749
10
438.23220465997673
20
596.56021118407227
10
432.0304141094457
20
594.79590869986953
10
422.78119199529135
20
591.74847713624661
10
410.64492945244183
20
586.82981566513581
10
398.77598546780473
20
580.94880738445977
10
387.22782375302313
20
574.1589160058611
10
376.1608354430237
20
566.56706895262494
10
365.62848424944968
20
558.22672993639355
10
355.73769759558547
20
549.13789895716695
10
351.08635468268699
20
544.32616490934129
10
341.83713256853304
20
534.48884196711947
10
341.89059628017554
20
541.38566076900315
10
341.94405999181805
20
543.57767294634596
10
342.21137855003059
20
546.89242306818164
10
343.0133342246682
20
549.88639092016206
10
344.51031815065841
20
553.52192331185267
10
345.68651980679357
20
555.92779033576562
10
347.66467713756651
20
560.15142355552382
10
349.91015302655182
20
566.08589554784226
10
351.08635468268699
20
569.98874649774541
10
351.94177406896711
20
573.78467002436344
10
352.47641118539212
20
577.6875209742667
10
352.90412087853235
20
583.62199296658537
10
352.79719345524717
20
587.84562618634345
10
352.63680232031965
20
590.67920290339634
10
351.94177406896711
20
596.07903777928982
10
350.87249983611707
20
601.21155409697064
10
349.32205219848419
20
606.07675185643893
10
347.29043115606879
20
610.78155848097981
10
344.77763670887123
20
615.32597397059283
10
341.73020514524802
20
619.76346203692128
10
338.20160017684225
20
624.2009501032494
10
336.16997913442697
20
626.39296228059243
10
333.5502572639441
20
629.0661478627178
10
327.88310382983815
20
634.145200468756
10
321.84170441423453
20
638.74307967001198
10
315.53298644041837
20
642.69939433155764
10
312.32516374186798
20
644.35676939247537
10
309.91929671795515
20
645.47950733696803
10
304.25214328384914
20
647.93883807252337
10
298.79884469631315
20
649.97045911493888
10
295.16331230462271
20
651.09319705943153
10
294.68213889984014
20
650.98626963614652
10
293.88018322520247
20
649.32889457522879
10
291.68817104785967
20
642.85978546648516
10
290.56543310336679
20
638.47576111179944
10
288.96152175409151
20
632.11357942634072
10
287.30414669317383
20
623.07821215875674
10
286.55565473017867
20
617.35759501300834
10
286.12794503703856
20
611.85083271382985
10
285.96755390211086
20
606.55792526122161
10
286.12794503703856
20
601.4788726551833
10
286.60911844182135
20
596.66713860735729
10
287.35761040481634
20
592.01579569445914
10
288.42688463766649
20
587.52484391648841
10
289.81694114037168
20
583.3012106967301
10
291.5277799129322
20
579.23796861189953
10
293.55940095534737
20
575.33511766199626
10
295.85834055597519
20
571.59265784702075
10
298.47806242645811
20
568.01058916697264
10
301.47203027843875
20
564.58891162185205
10
303.07594162771403
20
562.98500027257671
10
306.01644576805188
20
560.15142355552382
10
310.40047012273772
20
556.62281858711822
10
313.34097426307562
20
554.64466125634533
10
316.38840582669877
20
552.9872861954276
10
319.43583739032169
20
551.59722969272229
10
322.59019637722963
20
550.47449174822964
10
325.85148278742281
20
549.67253607359203
10
327.56232155998333
20
549.35175380373698
10
333.60372097558661
20
548.28247957088684
10
332.96215643587652
20
534.91655166025964
10
332.32059189616621
20
521.55062374963234
10
327.93656754148066
20
514.65380494774877
10
325.47723680592532
20
510.69749028620299
10
320.66550275809931
20
502.35715126997161
10
316.17455098012886
20
493.58910256060017
10
311.89745404872787
20
484.39334415808872
10
307.99460309882488
20
474.93026719736463
10
304.35907070713415
20
465.19987167842794
10
301.15124800858348
20
455.30908502456384
10
298.26420757988814
20
445.25790723577217
10
297.03454221211035
20
440.23231834137641
10
296.01873169090283
20
436.22253996818813
10
294.36135662998498
20
430.76924138065215
10
293.93364693684481
20
430.18114055258468
10
293.66632837863239
20
430.23460426422719
10
293.29208239713483
20
430.82270509229477
10
293.29208239713483
20
431.19695107379221
10
293.13169126220737
20
431.8919793251448
10
291.6347073362171
20
434.83248346548282
10
290.51196939172434
20
436.7037133729707
10
289.60308629380188
20
438.1472335873184
10
288.5338120609515
20
440.23231834137641
10
288.21302979109652
20
441.88969340229403
10
288.5338120609515
20
443.76092330978196
10
288.85459433080661
20
445.04405238920214
10
289.4426951588743
20
447.39645570147246
10
289.81694114037168
20
452.52897201915334
10
289.28230402394661
20
458.08919802997423
10
287.94571123288387
20
463.80981517572263
10
285.86062647882619
20
469.69082345639862
10
283.02704976177301
20
475.46490431378965
10
279.55190850500998
20
481.02513032461053
10
275.48866642017947
20
486.26457406557648
10
273.18972681955137
20
488.67044108948937
10
271.42542433534868
20
490.43474357369212
10
267.7364282320155
20
493.53563884895772
10
263.94050470539742
20
496.04843329615562
10
259.93072633220908
20
498.08005433857102
10
255.65362940080848
20
499.57703826456117
10
251.0022864879102
20
500.59284878576881
10
246.03016130515701
20
501.18094961383639
10
240.52339900597855
20
501.34134074876391
10
237.5828948656403
20
501.23441332547895
10
233.57311649245233
20
501.07402219055137
10
227.42478965356369
20
500.48592136248396
10
226.30205170907112
20
500.21860280427131
10
225.92780572757385
20
500.0047479577014
10
225.23277747622089
20
499.25625599470612
10
224.48428551322581
20
497.49195351050332
10
224.11003953172835
20
493.53563884895772
10
224.32389437829829
20
487.70809427992418
10
224.69814035979581
20
483.91217075330616
10
225.01892262965094
20
480.86473918968323
10
225.92780572757385
20
475.25104946721967
10
227.15747109535118
20
470.06506943789617
10
228.65445502134139
20
465.36026281335546
10
230.52568492882921
20
461.02970217031219
10
232.77116081781469
20
457.01992379712408
10
235.39088268829749
20
453.33092769379095
10
238.4383142519207
20
449.85578643702797
10
240.14915302448091
20
448.19841137611013
10
242.18077406689616
20
446.38064518026465
10
246.6717258448671
20
443.1193587700717
10
251.53692360433536
20
440.55310061123129
10
256.61597621037367
20
438.62840699210096
10
261.80195623969712
20
437.34527791268073
10
266.93447255737806
20
436.81064079625583
10
271.9600614517737
20
437.02449564282574
10
276.71833178795691
20
437.98684245239087
10
278.96380767694257
20
438.78879812702849
10
280.19347304472006
20
439.26997153181117
10
282.22509408713563
20
439.53729009002365
10
282.65280378027558
20
439.37689895509612
10
283.13397718505831
20
438.30762472224603
10
285.70023534389861
20
430.66231395736708
10
287.30414669317383
20
425.31594279311616
10
291.31392506636189
20
411.95001488248909
10
290.13772341022667
20
403.02157503819001
10
289.5496225821592
20
398.53062326021933
10
288.58727577259418
20
388.74676402964019
10
287.51800153974386
20
372.92150538345754
10
286.92990071167634
20
351.00138361002882
10
287.19721926988882
20
335.6572983686288
10
287.62492896302888
20
326.4615399661173
10
287.94571123288387
20
322.39829788128668
10
288.37342092602404
20
318.0677372382433
10
289.4426951588743
20
309.2462248172294
10
290.83275166157932
20
300.31778497293033
10
292.43666301085449
20
291.44280884027387
10
294.25442920669997
20
282.78168755418739
10
296.28605024911531
20
274.44134853795606
10
298.47806242645811
20
266.58218292650719
10
300.83046573872838
20
259.31111814312601
10
302.06013110650639
20
255.99636802129041
10
304.03828843727911
20
250.7569242803246
10
308.47577650360722
20
240.70574649153289
10
313.39443797471813
20
231.18920581916629
10
318.7408091389691
20
222.20730226322485
10
324.56835370800263
20
213.70657211206591
10
330.823607970176
20
205.79394278897465
10
337.50657192548971
20
198.41595058230834
10
344.67070928558593
20
191.57259549206719
10
352.26255633882209
20
185.26387751825101
10
360.22864937355598
20
179.54326037250263
10
368.67591581307238
20
174.35728034317916
10
377.49742823408661
20
169.7594011419236
10
386.74665034824073
20
165.74962276873532
10
396.37011844389235
20
162.2744815119722
10
406.36783252104175
20
159.44090479491931
10
416.79325629133069
20
157.1419651942914
10
422.13962745558143
20
156.2865458080112
10
426.47018809862436
20
155.69844497994359
10
438.23220465997673
20
155.00341672859099
10
451.11695916582113
20
154.89648930530601
10
462.23741118746318
20
155.32419899844609
10
466.03333471408132
20
155.80537240322857
10
468.81344771949165
20
156.2865458080112
10
474.26674630702786
20
157.62313859907403
10
479.66658118292116
20
159.44090479491931
10
485.0129523471719
20
161.73984439554718
10
490.30585979978014
20
164.51995740095759
10
495.65223096403133
20
167.7812438111506
10
501.1055295515672
20
171.63063104941142
10
506.61229185074592
20
176.01465540409703
10
509.44586856779864
20
178.4739861396524
10
521.52866739900537
20
189.1667284681543
10
540.77560359030838
20
206.38204361704223
10
546.33582960112972
20
211.51455993472302
10
549.00901518325531
20
214.08081809356347
10
553.07225726808599
20
217.50249563868402
10
555.85237027349604
20
219.26679812288683
10
557.50974533441422
20
219.64104410438443
10
558.4720921439789
20
219.53411668109939
10
559.00672926040431
20
219.42718925781435
10
560.50371318639418
20
218.78562471810432
10
566.49164889035535
20
215.20355603805612
10
573.86964109702183
20
210.33835827858795
10
580.01796793591029
20
205.95433392390208
10
581.67534299682779
20
204.56427742119689
10
582.8515446529633
20
203.33461205341919
10
585.20394796523351
20
199.85947079665604
10
586.00590363987158
20
198.20209573573831
10
586.9147867377942
20
196.01008355839542
10
588.83948035692447
20
192.10723260849221
10
593.3838958465376
20
184.51538555525602
10
599.74607753199598
20
174.94538117124691
10
602.25887197919383
20
171.14945764462871
10
606.64289633387989
20
164.8407396708127
10
610.43881986049792
20
159.92207819970184
10
613.86049740561839
20
156.12615467308368
10
617.17524752745419
20
153.34604166767318
10
620.48999764928919
20
151.3678843369004
10
624.12553004098027
20
150.03129154583769
10
628.18877212581083
20
149.0689447362725
0
LWPOLYLINE
5
120
100
AcDbEntity
8
0
100
AcDbPolyline
90
4
70
1
43
0.0
10
1088.450079190392
20
5.3300000000000004e-14
10
88.450079190392046
20
5.3300000000000004e-14
10
88.450079190391975
20
724.99774634154096
10
1088.450079190392
20
724.99774634154096
0
LWPOLYLINE
5
121
100
AcDbEntity
8
0
100
AcDbPolyline
90
127
70
1
43
0.0
10
693.68181888788467
20
382.33111863253919
10
692.07790753860888
20
378.90944108741854
10
689.93935907290836
20
375.86200952379551
10
687.42656462571074
20
373.08189651838518
10
684.43259677372998
20
370.78295691775725
10
681.0643829402527
20
368.91172701026932
10
679.24661674440722
20
368.16323504727438
10
675.93186662257142
20
366.88010596785398
10
674.70220125479375
20
366.2920051397864
10
674.75566496643626
20
366.02468658157386
10
676.25264889242646
20
364.04652925080114
10
677.48231426020402
20
362.7099364597384
10
678.97929818619457
20
360.99909768717794
10
682.61483057788485
20
355.81311765785472
10
684.27220563880292
20
353.13993207572929
10
686.30382668121842
20
349.61132710732363
10
689.72550422633867
20
344.31841965471517
10
692.55908094339156
20
340.8967421095947
10
695.12533910223237
20
338.8651210671793
10
696.4084681816521
20
338.33048395075423
10
697.42427870285997
20
337.95623796925673
10
698.70740778228026
20
337.26120971790414
10
699.34897232199
20
336.29886290833889
10
699.56282716856037
20
334.85534269399119
10
699.61629088020243
20
333.78606846114104
10
699.61629088020243
20
330.4178546276629
10
690.26014134276397
20
330.4178546276629
10
680.90399180532461
20
330.4178546276629
10
678.17734251155673
20
334.16031444263865
10
676.73382229720903
20
336.29886290833889
10
671.81516082609835
20
344.42534707800019
10
669.14197524397287
20
349.07668999089867
10
666.41532595020453
20
353.78149661543938
10
662.61940242358651
20
359.98328716597041
10
660.58778138117123
20
362.49608161316837
10
659.86173386812106
20
364.14706085628609
10
660.20614113515194
20
371.88056948869524
10
661.38973705580884
20
371.9056948622499
10
665.55990656392441
20
372.54725940196005
10
669.46275751382791
20
373.6699973464527
10
671.06666886310325
20
374.36502559780536
10
672.13594309595328
20
374.89966271423037
10
674.00717300344149
20
376.18279179365061
10
675.61108435271638
20
377.67977571964082
10
676.94767714377895
20
379.44407820384362
10
677.9634876649867
20
381.42223553461639
10
678.71197962798215
20
383.72117513524427
10
679.24661674440722
20
386.28743329408479
10
679.46047159097679
20
389.17447372278019
10
679.51393530261976
20
390.72492136041296
10
679.46047159097679
20
393.45157065418107
10
678.97929818619457
20
396.60592964108901
10
678.39119735812676
20
398.37023212529181
10
677.53577797184687
20
399.86721605128196
10
676.41304002735387
20
401.20380884234464
10
674.06063671508321
20
402.96811132654744
10
671.9755519610253
20
404.14431298268278
10
670.69242288160569
20
404.73241381075036
10
668.07270101112283
20
405.64129690867287
10
665.55990656392441
20
406.06900660181304
10
663.15403954001158
20
406.12247031345555
10
660.96202736266878
20
405.74822433195783
10
659.09079745518102
20
404.9997323689629
10
657.4868861059058
20
403.8769944244703
10
656.36414816141314
20
402.38001049848003
10
655.98990217991559
20
401.47112740055741
10
655.61565619841804
20
399.70682491635455
10
654.76023681213792
20
391.04570363026818
10
654.49291825392538
20
385.6458687543747
10
653.54052824895791
20
364.26038409737112
10
653.47710773271729
20
364.26038409737112
10
652.8890069046497
20
353.78149661543938
10
652.30090607658212
20
345.12037532935278
10
651.81973267180001
20
340.78981468630963
10
651.28509555537494
20
338.27702023911166
10
655.82951104498761
20
338.54433879732431
10
657.64727724083332
20
338.59780250896682
10
660.3739265346012
20
338.43741137403919
10
660.85509993938376
20
338.27702023911166
10
661.01549107431185
20
337.84931054597166
10
660.96202736266878
20
335.60383465698629
10
660.74817251609932
20
334.10685073099609
10
660.16007168803117
20
330.4178546276629
10
644.2278856185635
20
330.4178546276629
10
628.29569954909573
20
330.4178546276629
10
628.29569954909573
20
333.94645959606856
10
628.34916326073824
20
335.6572983686288
10
628.7768729538783
20
337.1008185829765
10
629.25804635866132
20
337.47506456447417
10
629.63229234015841
20
337.52852827611662
10
630.59463914972355
20
337.58199198775912
10
632.62626019213894
20
338.27702023911166
10
634.4440263879842
20
339.50668560688939
10
635.83408289068939
20
341.00366953287966
10
636.2617925838299
20
341.85908891915994
10
636.47564743039982
20
342.71450830544006
10
637.01028454682444
20
347.6331697765508
10
637.91916764474763
20
360.14367830089788
10
638.50726847281476
20
370.94334805268477
10
639.68347012894992
20
392.48922384461582
10
640.37849838030297
20
401.47112740055741
10
640.91313549672793
20
405.26705092717543
10
636.2617925838299
20
405.26705092717543
10
631.66391338257381
20
405.26705092717543
10
632.19855049899923
20
408.04716393258593
10
632.62626019213894
20
410.45303095649871
10
632.78665132706692
20
412.05694230577421
10
632.78665132706692
20
412.21733344070151
10
633.21436102020652
20
412.53811571055672
10
634.76480865783969
20
412.85889798041171
10
642.46358313436076
20
413.23314396190926
10
653.63749886764526
20
413.28660767355177
10
665.34605171735484
20
413.23314396190926
10
674.3814189849387
20
412.7519705571267
10
678.23080622319924
20
412.05694230577421
10
679.94164499575936
20
411.57576890099159
10
681.91980232653248
20
410.93420436128127
10
685.34147987165329
20
409.43722043529112
10
688.28198401199097
20
407.61945423944582
10
690.6878510359038
20
405.53436948538786
10
692.55908094339156
20
403.12850246147497
10
694.00260115773972
20
400.34838945606458
10
694.91148425566178
20
397.24749418079909
10
695.39265766044491
20
393.77235292403606
10
695.44612137208742
20
391.90112301654824
10
695.39265766044491
20
389.86950197413285
10
694.80455683237676
20
386.02011473587226
0
LWPOLYLINE
5
122
100
AcDbEntity
8
0
100
AcDbPolyline
90
92
70
1
43
0.0
10
691.27595186397127
20
70.637679756711975
10
689.45818566812602
20
68.285276444441536
10
687.48002833735325
20
66.681365095166285
10
685.34147987165329
20
65.825945708886138
10
684.27220563880292
20
65.772481997243602
10
683.09600398266775
20
65.825945708886138
10
680.95745551696746
20
66.788292518451271
10
679.24661674440722
20
68.445667579369044
10
678.28426993484175
20
70.584216045069439
10
678.23080622319924
20
71.760417701204602
10
678.17734251155673
20
74.21974843676
10
677.94204638250085
20
87.384943313225151
10
678.39119735812676
20
89.349978831590079
10
678.76544333962431
20
92.023164413715563
10
679.03276189783685
20
94.535958860913482
10
678.81890705126671
20
96.407188768401312
10
678.23080622319924
20
97.048753308111415
10
677.80309653005952
20
97.262608154681459
10
677.32192312527661
20
97.422999289608967
10
676.19918518078384
20
97.422999289608967
10
674.32795527329563
20
96.941825884826329
10
671.76169711445584
20
95.391378247193643
10
669.62314864875498
20
93.092438646565725
10
668.87465668576033
20
91.809309567145476
10
668.50041070426232
20
90.953890180865301
10
667.85884616455223
20
88.815341715165047
10
667.11035420155713
20
84.805563341976836
10
666.68264450841707
20
79.031482484585851
10
666.84303564334471
20
75.395950092895276
10
667.16381791320021
20
73.631647608692418
10
667.43113647141274
20
73.043546780624851
10
667.96577358783782
20
72.18812739434469
10
668.92812039740284
20
71.279244296422092
10
670.05085834189561
20
71.386171719707065
10
671.54784226788581
20
72.45544595255727
10
672.45672536580832
20
73.471256473764925
10
673.41907217537346
20
74.647458129900087
10
674.75531332484297
20
77.394176048254621
10
675.02298352464879
20
69.835724082074307
10
674.22102785001118
20
68.980304695794189
10
672.51018907745083
20
67.590248193088996
10
670.63895916996319
20
66.627901383523749
10
668.6608018391903
20
65.986336843813632
10
666.73610822005969
20
65.772481997243602
10
664.86487831257239
20
66.039800555456168
10
663.10057582836964
20
66.681365095166285
10
662.29862015373146
20
67.216002211591331
10
661.44320076745134
20
67.857566751301462
10
660.10660797638866
20
69.461478100576713
10
659.03733374353851
20
71.439635431349586
10
658.28884178054341
20
73.792038743619941
10
657.86113208740335
20
76.41176061410296
10
657.80766837576084
20
79.298801042798431
10
658.07498693397338
20
82.34623260642141
10
658.71655147368347
20
85.554055304971911
10
659.1442611668233
20
87.211430365889683
10
659.57197085996415
20
88.494559445309932
10
660.69470880445624
20
90.900426469222793
10
662.08476530716143
20
93.199366069850726
10
663.74214036807916
20
95.337914535551079
10
665.66683398720943
20
97.209144443038937
10
667.75191874126779
20
98.813055792314159
10
669.94393091861002
20
100.04272116009182
10
672.24287051923841
20
100.95160425801453
10
673.41907217537346
20
101.2723865278695
10
675.18337465957666
20
101.53970508608211
10
679.46047159097679
20
101.70009622100962
10
683.79103223401989
20
101.3793139511546
10
686.25036296957569
20
100.89814054637201
10
687.37310091406857
20
100.4704308532319
10
687.69388318392316
20
100.25657600666193
10
687.80081060720829
20
99.454620332024305
10
687.3196372024255
20
93.413220916420769
10
686.78500008600076
20
89.136123985020049
10
686.03650812300589
20
83.308579415986543
10
685.50187100658025
20
77.106788865455485
10
685.44840729493808
20
74.27321214840255
10
685.66226214150799
20
72.508909664199805
10
686.03650812300589
20
71.920808836132196
10
686.3572903928607
20
71.813881412847124
10
686.99885493257068
20
72.18812739434469
10
688.06812916542083
20
73.52472018540746
10
688.70969370513103
20
74.647458129900087
10
689.2443308215561
20
75.502877516180263
10
690.26014134276397
20
76.679079172315426
10
691.27595186397127
20
77.267180000383092
10
692.07790753860888
20
77.267180000383092
10
692.71947207831909
20
76.786006595600497
10
693.04025434817413
20
75.930587209320322
10
692.98679063653162
20
74.647458129900087
10
692.50561723174974
20
72.990083068982301
10
692.07790753860888
20
72.081199971059704
0
LWPOLYLINE
5
123
100
AcDbEntity
8
0
100
AcDbPolyline
90
92
70
1
43
0.0
10
926.8907356804973
20
66.788292518451271
10
925.17989690793684
20
68.445667579369044
10
924.21755009837125
20
70.584216045069439
10
924.16408638672897
20
71.760417701204602
10
924.11062267508612
20
74.21974843676
10
923.87532654603046
20
87.384943313225151
10
924.32447752165649
20
89.349978831590079
10
924.6987235031537
20
92.023164413715563
10
924.96604206136658
20
94.535958860913482
10
924.75218721479655
20
96.407188768401312
10
924.16408638672897
20
97.048753308111415
10
923.73637669358936
20
97.262608154681459
10
923.25520328880646
20
97.422999289608967
10
922.1324653443138
20
97.422999289608967
10
920.26123543682525
20
96.941825884826329
10
917.69497727798523
20
95.391378247193643
10
915.55642881228482
20
93.092438646565725
10
914.80793684929017
20
91.809309567145476
10
914.43369086779217
20
90.953890180865301
10
913.79212632808162
20
88.815341715165047
10
913.04363436508697
20
84.805563341976836
10
912.61592467194669
20
79.031482484585851
10
912.77631580687398
20
75.395950092895276
10
913.09709807672971
20
73.631647608692418
10
913.36441663494247
20
73.043546780624851
10
913.89905375136732
20
72.18812739434469
10
914.86140056093234
20
71.279244296422092
10
915.98413850542534
20
71.386171719707065
10
917.4811224314152
20
72.45544595255727
10
918.39000552933817
20
73.471256473764925
10
919.35235233890307
20
74.647458129900087
10
920.68859348837236
20
77.394176048254621
10
920.9562636881783
20
69.835724082074307
10
920.15430801354069
20
68.980304695794189
10
918.44346924098033
20
67.590248193088996
10
916.57223933349269
20
66.627901383523749
10
914.59408200272014
20
65.986336843813632
10
912.66938838358942
20
65.772481997243602
10
910.79815847610178
20
66.039800555456168
10
909.03385599189937
20
66.681365095166285
10
908.23190031726108
20
67.216002211591331
10
907.37648093098073
20
67.857566751301462
10
906.03988813991816
20
69.461478100576713
10
904.97061390706801
20
71.439635431349586
10
904.22212194407302
20
73.792038743619941
10
903.79441225093319
20
76.41176061410296
10
903.74094853929034
20
79.298801042798431
10
904.00826709750322
20
82.34623260642141
10
904.64983163721342
20
85.554055304971911
10
905.07754133035337
20
87.211430365889683
10
905.50525102349366
20
88.494559445309932
10
906.62798896798574
20
90.900426469222793
10
908.01804547069105
20
93.199366069850726
10
909.67542053160878
20
95.337914535551079
10
911.60011415073939
20
97.209144443038937
10
913.68519890479718
20
98.813055792314159
10
915.87721108213964
20
100.04272116009182
10
918.17615068276791
20
100.95160425801453
10
919.35235233890307
20
101.2723865278695
10
921.11665482310627
20
101.53970508608211
10
925.39375175450641
20
101.70009622100962
10
929.7243123975494
20
101.3793139511546
10
932.18364313310531
20
100.89814054637201
10
933.30638107759796
20
100.4704308532319
10
933.62716334745278
20
100.25657600666193
10
933.73409077073802
20
99.454620332024305
10
933.25291736595489
20
93.413220916420769
10
932.71828024953038
20
89.136123985020049
10
931.96978828653528
20
83.308579415986543
10
931.43515117010963
20
77.106788865455485
10
931.3816874584677
20
74.27321214840255
10
931.59554230503772
20
72.508909664199805
10
931.96978828653528
20
71.920808836132196
10
932.29057055639032
20
71.813881412847124
10
932.93213509610041
20
72.18812739434469
10
934.00140932895044
20
73.52472018540746
10
934.64297386866076
20
74.647458129900087
10
935.17761098508572
20
75.502877516180263
10
936.19342150629336
20
76.679079172315426
10
937.20923202750112
20
77.267180000383092
10
938.01118770213873
20
77.267180000383092
10
938.6527522418487
20
76.786006595600497
10
938.97353451170375
20
75.930587209320322
10
938.92007080006124
20
74.647458129900087
10
938.43889739527924
20
72.990083068982301
10
938.01118770213873
20
72.081199971059704
10
937.20923202750112
20
70.637679756711975
10
935.39146583165575
20
68.285276444441536
10
933.41330850088286
20
66.681365095166285
10
931.27476003518268
20
65.825945708886138
10
930.20548580233242
20
65.772481997243602
10
929.02928414619737
20
65.825945708886138
0
LWPOLYLINE
5
124
100
AcDbEntity
8
0
100
AcDbPolyline
90
90
70
1
43
0.0
10
569.80639901219126
20
97.316071866323881
10
569.21829818412323
20
97.476463001251417
10
567.88170539306077
20
97.262608154681459
10
566.49164889035535
20
96.567579903328806
10
565.15505609929278
20
95.391378247193643
10
563.8719270198726
20
93.894394321203379
10
562.80265278702245
20
92.183555548643014
10
562.00069711238439
20
90.365789352797762
10
561.51952370760216
20
88.494559445309932
10
561.46605999595977
20
79.619583312653432
10
561.46605999595977
20
78.603772791445778
10
561.51952370760216
20
77.855280828450688
10
561.7333785541723
20
76.518688037387903
10
562.21455195895487
20
75.289022669610205
10
562.85611649866485
20
74.21974843676
10
563.76499959658747
20
73.364329050479967
10
564.78081011779523
20
72.722764510769821
10
566.01047548557324
20
72.24159110598724
10
567.40053198827798
20
72.027736259417196
10
568.14902395127331
20
71.97427254777466
10
569.0044433375532
20
72.027736259417196
10
570.50142726354352
20
72.348518529272184
10
571.99841118953373
20
73.097010492267373
10
573.54885882716633
20
74.3266758600451
10
574.40427821344701
20
75.182095246325233
10
575.84779842779471
20
76.518688037387903
10
577.66556462363985
20
77.694889693523066
10
578.57444772156271
20
77.96220825173566
10
578.89522999141764
20
77.908744540093124
10
579.53679453112761
20
77.64142598188063
10
580.12489535919531
20
76.839470307243033
10
579.96450422426778
20
75.609804939465306
10
579.00215741470265
20
73.738575031977476
10
578.20020174006504
20
72.45544595255727
10
577.39824606542743
20
71.332708008064543
10
575.47355244629716
20
69.354550677291741
10
573.2280765573114
20
67.804103039658912
10
570.71528211011389
20
66.681365095166285
10
568.09556023963114
20
65.986336843813632
10
565.36891094586269
20
65.772481997243602
10
562.69572536373744
20
65.986336843813632
10
560.07600349325446
20
66.788292518451271
10
558.84633812547679
20
67.376393346518952
10
558.04438245083918
20
67.857566751301462
10
556.65432594813365
20
68.873377272509117
10
555.47812429199837
20
70.156506351929352
10
554.4623137707913
20
71.600026566277094
10
553.71382180779574
20
73.257401627194866
10
553.12572097972804
20
75.128631534682711
10
552.64454757494548
20
78.389917944875734
10
552.59108386330331
20
80.956176103716217
10
552.59108386330331
20
82.506623741348918
10
552.91186613315813
20
85.447127881686939
10
553.55343067286822
20
88.280704598739902
10
554.5157774824338
20
90.953890180865301
10
555.69197913856908
20
93.359757204778191
10
557.13549935291667
20
95.551769382121122
10
558.7928744138344
20
97.476463001251417
10
560.66410432132216
20
99.026910638884203
10
561.6799148425298
20
99.615011466951785
10
563.06997134523499
20
100.3635034299468
10
565.90354806228777
20
101.32585023951211
10
568.73712477934077
20
101.75355993265221
10
571.46377407310865
20
101.70009622100962
10
573.97656852030684
20
101.11199539294202
10
576.16858069764976
20
100.04272116009182
10
577.93288318185239
20
98.492273522459172
10
579.21601226127268
20
96.567579903328806
10
579.64372195441274
20
95.391378247193643
10
579.85757680098277
20
94.322104014343452
10
579.85757680098277
20
92.2904829719281
10
579.21601226127268
20
90.365789352797762
10
577.98634689349501
20
88.494559445309932
10
576.22204440929227
20
86.837184384392145
10
573.92310480866445
20
85.340200458401867
10
571.19645551489612
20
84.110535090624182
10
567.93516910470316
20
83.041260857774063
10
566.17086662050042
20
82.667014876276426
10
564.6204189828677
20
82.292768894778874
10
564.72734640615272
20
86.944111807677217
10
567.13321343006555
20
87.959922328884872
10
568.41634250948573
20
88.761878003522497
10
569.16483447248072
20
89.243051408305035
10
570.34103612861645
20
90.365789352797762
10
571.19645551489612
20
91.595454720575432
10
571.7310926313213
20
92.878583799995695
10
571.89148376624928
20
94.108249167773408
10
571.78455634296358
20
95.284450823908571
10
571.24991922653896
20
96.300261345116226
10
570.39449984025885
20
97.048753308111415
0
LWPOLYLINE
5
125
100
AcDbEntity
8
0
100
AcDbPolyline
90
90
70
1
43
0.0
10
965.1911083447784
20
90.953890180865301
10
966.36731000091368
20
93.359757204778191
10
967.81083021526126
20
95.551769382121122
10
969.46820527617933
20
97.476463001251417
10
971.33943518366664
20
99.026910638884203
10
972.35524570487439
20
99.615011466951785
10
973.7453022075797
20
100.3635034299468
10
976.57887892463236
20
101.32585023951211
10
979.41245564168571
20
101.75355993265221
10
982.13910493545313
20
101.70009622100962
10
984.65189938265166
20
101.11199539294202
10
986.84391155999435
20
100.04272116009182
10
988.60821404419721
20
98.492273522459172
10
989.89134312361739
20
96.567579903328806
10
990.31905281675733
20
95.391378247193643
10
990.53290766332771
20
94.322104014343452
10
990.53290766332771
20
92.2904829719281
10
989.89134312361739
20
90.365789352797762
10
988.66167775583972
20
88.494559445309932
10
986.89737527163686
20
86.837184384392145
10
984.59843567100938
20
85.340200458401867
10
981.87178637724071
20
84.110535090624182
10
978.6104999670481
20
83.041260857774063
10
976.84619748284547
20
82.667014876276426
10
975.29574984521241
20
82.292768894778874
10
975.40267726849777
20
86.944111807677217
10
977.80854429241049
20
87.959922328884872
10
979.09167337183044
20
88.761878003522497
10
979.84016533482554
20
89.243051408305035
10
981.01636699096139
20
90.365789352797762
10
981.87178637724071
20
91.595454720575432
10
982.40642349366578
20
92.878583799995695
10
982.56681462859376
20
94.108249167773408
10
982.45988720530841
20
95.284450823908571
10
981.92525008888379
20
96.300261345116226
10
981.06983070260355
20
97.048753308111415
10
980.48172987453597
20
97.316071866323881
10
979.89362904646805
20
97.476463001251417
10
978.55703625540559
20
97.262608154681459
10
977.16697975270006
20
96.567579903328806
10
975.83038696163771
20
95.391378247193643
10
974.54725788221731
20
93.894394321203379
10
973.47798364936739
20
92.183555548643014
10
972.6760279747291
20
90.365789352797762
10
972.19485456994721
20
88.494559445309932
10
972.14139085830448
20
79.619583312653432
10
972.14139085830448
20
78.603772791445778
10
972.19485456994721
20
77.855280828450688
10
972.40870941651701
20
76.518688037387903
10
972.88988282129958
20
75.289022669610205
10
973.53144736100967
20
74.21974843676
10
974.44033045893218
20
73.364329050479967
10
975.45614098013982
20
72.722764510769821
10
976.68580634791795
20
72.24159110598724
10
978.07586285062268
20
72.027736259417196
10
978.82435481361813
20
71.97427254777466
10
979.67977419989802
20
72.027736259417196
10
981.17675812588823
20
72.348518529272184
10
982.67374205187832
20
73.097010492267373
10
984.22418968951138
20
74.3266758600451
10
985.07960907579161
20
75.182095246325233
10
986.52312929013976
20
76.518688037387903
10
988.3408954859849
20
77.694889693523066
10
989.2497785839073
20
77.96220825173566
10
989.57056085376234
20
77.908744540093124
10
990.21212539347243
20
77.64142598188063
10
990.80022622154002
20
76.839470307243033
10
990.63983508661238
20
75.609804939465306
10
989.67748827704759
20
73.738575031977476
10
988.87553260240998
20
72.45544595255727
10
988.07357692777236
20
71.332708008064543
10
986.14888330864187
20
69.354550677291741
10
983.90340741965611
20
67.804103039658912
10
981.39061297245894
20
66.681365095166285
10
978.77089110197608
20
65.986336843813632
10
976.04424180820752
20
65.772481997243602
10
973.37105622608203
20
65.986336843813632
10
970.75133435559917
20
66.788292518451271
10
969.52166898782161
20
67.376393346518952
10
968.719713313184
20
67.857566751301462
10
967.32965681047847
20
68.873377272509117
10
966.15345515434342
20
70.156506351929352
10
965.13764463313601
20
71.600026566277094
10
964.38915267014045
20
73.257401627194866
10
963.80105184207287
20
75.128631534682711
10
963.3198784372903
20
78.389917944875734
10
963.26641472564756
20
80.956176103716217
10
963.26641472564756
20
82.506623741348918
10
963.58719699550284
20
85.447127881686939
10
964.2287615352127
20
88.280704598739902
0
ENDSEC
0
SECTION
2
OBJECTS
0
DICTIONARY
5
C
100
AcDbDictionary
3
ACAD_GROUP
350
D
3
ACAD_MLINESTYLE
350
17
0
DICTIONARY
5
D
100
AcDbDictionary
0
DICTIONARY
5
1A
330
C
100
AcDbDictionary
0
DICTIONARY
5
17
100
AcDbDictionary
0
ENDSEC
0
EOF
