0
SECTION
2
HEADER
9
$INSUNITS
70
4
9
$ACADVER
1
AC1014
9
$HANDSEED
5
FFFF
0
ENDSEC
0
SECTION
2
TABLES
0
TABLE
2
VPORT
5
8
100
AcDbSymbolTable
0
ENDTAB
0
TABLE
2
LTYPE
5
5
100
AcDbSymbolTable
0
LTYPE
5
14
100
AcDbSymbolTableRecord
100
AcDbLinetypeTableRecord
2
BYBLOCK
70
0
0
LTYPE
5
15
100
AcDbSymbolTableRecord
100
AcDbLinetypeTableRecord
2
BYLAYER
70
0
0
LTYPE
5
16
100
AcDbSymbolTableRecord
100
AcDbLinetypeTableRecord
2
DASHED
70
0
3
Dashed __ __ __ __ __ __ __ __ __ __ __ __ __ _
72
65
73
2
40
0.75
49
0.5
74
0
49
-0.25
74
0
0
ENDTAB
0
TABLE
2
LAYER
5
2
100
AcDbSymbolTable
70
3
0
LAYER
5
50
100
AcDbSymbolTableRecord
100
AcDbLayerTableRecord
2
1
70
0
62
7
6
DASHED
0
LAYER
5
51
100
AcDbSymbolTableRecord
100
AcDbLayerTableRecord
2
0
70
0
62
7
6
CONTINUOUS
0
ENDTAB
0
TABLE
2
STYLE
5
3
100
AcDbSymbolTable
70
1
0
STYLE
5
11
100
AcDbSymbolTableRecord
100
AcDbTextStyleTableRecord
2
STANDARD
70
0
0
ENDTAB
0
TABLE
2
VIEW
5
6
100
AcDbSymbolTable
70
0
0
ENDTAB
0
TABLE
2
UCS
5
7
100
AcDbSymbolTable
70
0
0
ENDTAB
0
TABLE
2
APPID
5
9
100
AcDbSymbolTable
70
2
0
APPID
5
12
100
AcDbSymbolTableRecord
100
AcDbRegAppTableRecord
2
ACAD
70
0
0
ENDTAB
0
TABLE
2
DIMSTYLE
5
A
100
AcDbSymbolTable
70
1
0
ENDTAB
0
TABLE
2
BLOCK_RECORD
5
1
100
AcDbSymbolTable
70
1
0
BLOCK_RECORD
5
1F
100
AcDbSymbolTableRecord
100
AcDbBlockTableRecord
2
*MODEL_SPACE
0
BLOCK_RECORD
5
1B
100
AcDbSymbolTableRecord
100
AcDbBlockTableRecord
2
*PAPER_SPACE
0
ENDTAB
0
ENDSEC
0
SECTION
2
BLOCKS
0
BLOCK
5
20
100
AcDbEntity
100
AcDbBlockBegin
2
*MODEL_SPACE
0
ENDBLK
5
21
100
AcDbEntity
100
AcDbBlockEnd
0
BLOCK
5
1C
100
AcDbEntity
100
AcDbBlockBegin
2
*PAPER_SPACE
0
ENDBLK
5
1D
100
AcDbEntity
100
AcDbBlockEnd
0
ENDSEC
0
SECTION
2
ENTITIES
0
LWPOLYLINE
5
100
100
AcDbEntity
8
OUTER_PROFILES
100
AcDbPolyline
90
8
70
1
43
0.0
10
92.5
20
79.999999999999972
10
1.877792245599534e-14
20
79.999999999999986
42
0.4142135623730952
10
-7.4999999999999876
20
72.499999999999986
10
-7.4999999999999982
20
7.5000000000000009
42
0.41421356237309503
10
1.1102230246251565e-15
20
0
10
97.5
20
0
42
0.41421356237309492
10
112.5
20
14.999999999999993
10
112.5
20
59.999999999999972
42
0.41421356237309515
0
LWPOLYLINE
5
101
100
AcDbEntity
8
INTERIOR_PROFILES
100
AcDbPolyline
90
10
70
1
43
0.0
10
32.500000000000007
20
50.762931538960885
10
66.842787232378043
20
73.616261910185841
42
-0.98551856544648964
10
89.927131194689181
20
39.999999999999979
42
-0.9855185654464933
10
66.842787232378015
20
6.3837380898141411
10
32.5
20
29.237068461039097
10
32.500000000000007
20
33.069063238017193
10
68.610153255766647
20
9.0396431293437054
42
1.1808108841155629
10
82.500000000000014
20
39.999999999999972
42
1.1808108841155625
10
68.610153255766662
20
70.96035687065627
10
32.500000000000007
20
46.930936761982792
0
LWPOLYLINE
5
102
100
AcDbEntity
8
INTERIOR_PROFILES
100
AcDbPolyline
90
4
70
1
43
0.0
10
14.539893935764855
20
34.760397400635171
10
14.539893935764853
20
8.7786573269904622
42
-0.99999999999999989
10
10.46010606423515
20
8.7786573269904604
10
10.460106064235152
20
34.760397400635171
42
-0.99999999999999989
0
LWPOLYLINE
5
103
100
AcDbEntity
8
INTERIOR_PROFILES
100
AcDbPolyline
90
4
70
1
43
0.0
10
10.460106064235152
20
45.239602599364765
42
0.99999999999999989
10
14.539893935764855
20
45.239602599364808
10
14.539893935764859
20
71.221342673009516
42
0.99999999999999989
10
10.460106064235156
20
71.221342673009516
0
LINE
5
104
100
AcDbEntity
8
BEND
100
AcDbLine
10
34.245329251994335
20
48.092362179567552
30
-1.0662289493984002e-14
11
34.245329251994335
21
31.907637820432427
31
-1.0431947973893982e-14
0
LINE
5
105
100
AcDbEntity
8
BEND
100
AcDbLine
10
10.318338435007083
20
-1.1102230246251565e-15
30
-1.1657341758564144e-14
11
10.318338435007091
21
79.999999999999986
31
-8.8817841970012523e-15
0
LINE
5
106
100
AcDbEntity
8
BEND_EXTENT
100
AcDbLine
10
8.1366768700141794
20
-1.1102230246251565e-15
30
-1.7763568394002505e-14
11
8.1366768700141776
21
79.999999999999986
31
-1.7763568394002505e-14
0
LINE
5
107
100
AcDbEntity
8
BEND_EXTENT
100
AcDbLine
10
12.500000000000002
20
-1.1102230246251565e-15
30
-8.8817841970012523e-15
11
12.500000000000002
21
6.7387633912256097
31
-8.8817841970012523e-15
0
LINE
5
108
100
AcDbEntity
8
BEND_EXTENT
100
AcDbLine
10
12.500000000000009
20
73.261236608774368
30
-8.8817841970012523e-15
11
12.500000000000009
21
79.999999999999986
31
-8.8817841970012523e-15
0
LINE
5
109
100
AcDbEntity
8
BEND_EXTENT
100
AcDbLine
10
12.500000000000004
20
36.800291336400022
30
-8.8817841970012523e-15
11
12.500000000000004
21
43.199708663599957
31
-8.8817841970012523e-15
0
LINE
5
110
100
AcDbEntity
8
BEND_EXTENT
100
AcDbLine
10
32.500000000000007
20
46.930936761982792
30
-8.8817841970012523e-15
11
32.500000000000007
21
33.069063238017193
31
-8.8817841970012523e-15
0
LINE
5
111
100
AcDbEntity
8
BEND_EXTENT
100
AcDbLine
10
35.990658503988662
20
49.253787597152311
30
-1.3322676295501878e-14
11
35.990658503988662
21
30.746212402847664
31
-1.3322676295501878e-14
0
ENDSEC
0
SECTION
2
OBJECTS
0
DICTIONARY
5
C
100
AcDbDictionary
3
ACAD_GROUP
350
D
3
ACAD_MLINESTYLE
350
17
0
DICTIONARY
5
D
100
AcDbDictionary
0
DICTIONARY
5
1A
330
C
100
AcDbDictionary
0
DICTIONARY
5
17
100
AcDbDictionary
0
ENDSEC
0
EOF
