  0
SECTION
  2
HEADER
  9
$ACADVER
  1
AC1014
  9
$HANDSEED
  5
FFFF
  9
$INSUNITS
 70
     0
  9
$MEASUREMENT
 70
     1
  0
ENDSEC
  0
SECTION
  2
TABLES
  0
TABLE
  2
VPORT
  5
8
330
0
100
AcDbSymbolTable
 70
     4
  0
VPORT
  5
2E
330
8
100
AcDbSymbolTableRecord
100
AcDbViewportTableRecord
  2
*ACTIVE
 70
     0
 10
0.0
 20
0.0
 11
1.0
 21
1.0
 12
210.0
 22
148.5
 13
0.0
 23
0.0
 14
10.0
 24
10.0
 15
10.0
 25
10.0
 16
0.0
 26
0.0
 36
1.0
 17
0.0
 27
0.0
 37
0.0
 40
341.0
 41
1.24
 42
50.0
 43
0.0
 44
0.0
 50
0.0
 51
0.0
 71
     0
 72
   100
 73
     1
 74
     3
 75
     0
 76
     0
 77
     0
 78
     0
  0
ENDTAB
  0
TABLE
  2
LTYPE
  5
5
330
0
100
AcDbSymbolTable
 70
     1
  0
LTYPE
  5
14
330
5
100
AcDbSymbolTableRecord
100
AcDbLinetypeTableRecord
  2
BYBLOCK
 70
     0
  3

 72
    65
 73
     0
 40
0.0
  0
LTYPE
  5
15
330
5
100
AcDbSymbolTableRecord
100
AcDbLinetypeTableRecord
  2
BYLAYER
 70
     0
  3

 72
    65
 73
     0
 40
0.0
  0
LTYPE
  5
16
330
5
100
AcDbSymbolTableRecord
100
AcDbLinetypeTableRecord
  2
CONTINUOUS
 70
     0
  3
Solid line
 72
    65
 73
     0
 40
0.0
  0
ENDTAB
  0
TABLE
  2
LAYER
  5
2
100
AcDbSymbolTable
 70
2
  0
LAYER
  5
50
100
AcDbSymbolTableRecord
100
AcDbLayerTableRecord
  2
0
 70
0
  6
CONTINUOUS
  0
LAYER
  5
51
100
AcDbSymbolTableRecord
100
AcDbLayerTableRecord
  2
Image
 70
0
  6
CONTINUOUS
  0
ENDTAB
  0
TABLE
  2
STYLE
  5
3
330
0
100
AcDbSymbolTable
 70
     1
  0
STYLE
  5
11
330
3
100
AcDbSymbolTableRecord
100
AcDbTextStyleTableRecord
  2
STANDARD
 70
     0
 40
0.0
 41
1.0
 50
0.0
 71
     0
 42
2.5
  3
txt
  4

  0
ENDTAB
  0
TABLE
  2
VIEW
  5
6
330
0
100
AcDbSymbolTable
 70
     0
  0
ENDTAB
  0
TABLE
  2
UCS
  5
7
330
0
100
AcDbSymbolTable
 70
     0
  0
ENDTAB
  0
TABLE
  2
APPID
  5
9
330
0
100
AcDbSymbolTable
 70
     2
  0
APPID
  5
12
330
9
100
AcDbSymbolTableRecord
100
AcDbRegAppTableRecord
  2
ACAD
 70
     0
  0
ENDTAB
  0
TABLE
  2
DIMSTYLE
  5
A
330
0
100
AcDbSymbolTable
 70
     1
  0
DIMSTYLE
105
27
330
A
100
AcDbSymbolTableRecord
100
AcDbDimStyleTableRecord
  2
ISO-25
 70
     0
  3

  4

  5

  6

  7

 40
1.0
 41
2.5
 42
0.625
 43
3.75
 44
1.25
 45
0.0
 46
0.0
 47
0.0
 48
0.0
140
2.5
141
2.5
142
0.0
143
0.03937007874016
144
1.0
145
0.0
146
1.0
147
0.625
 71
     0
 72
     0
 73
     0
 74
     0
 75
     0
 76
     0
 77
     1
 78
     8
170
     0
171
     3
172
     1
173
     0
174
     0
175
     0
176
     0
177
     0
178
     0
270
     2
271
     2
272
     2
273
     2
274
     3
340
11
275
     0
280
     0
281
     0
282
     0
283
     0
284
     8
285
     0
286
     0
287
     3
288
     0
  0
ENDTAB
  0
TABLE
  2
BLOCK_RECORD
  5
1
330
0
100
AcDbSymbolTable
 70
     1
  0
BLOCK_RECORD
  5
1F
330
1
100
AcDbSymbolTableRecord
100
AcDbBlockTableRecord
  2
*MODEL_SPACE
  0
BLOCK_RECORD
  5
1B
330
1
100
AcDbSymbolTableRecord
100
AcDbBlockTableRecord
  2
*PAPER_SPACE
  0
ENDTAB
  0
ENDSEC
  0
SECTION
  2
BLOCKS
  0
BLOCK
  5
20
330
1F
100
AcDbEntity
  8
0
100
AcDbBlockBegin
  2
*MODEL_SPACE
 70
     0
 10
0.0
 20
0.0
 30
0.0
  3
*MODEL_SPACE
  1

  0
ENDBLK
  5
21
330
1F
100
AcDbEntity
  8
0
100
AcDbBlockEnd
  0
BLOCK
  5
1C
330
1B
100
AcDbEntity
 67
     1
  8
0
100
AcDbBlockBegin
  2
*PAPER_SPACE
  1

  0
ENDBLK
  5
1D
330
1B
100
AcDbEntity
 67
     1
  8
0
100
AcDbBlockEnd
  0
ENDSEC
  0
SECTION
  2
ENTITIES
  0
SPLINE
  5
100
100
AcDbEntity
  8
Image
 62
7
100
AcDbSpline
 70
0
 71
3
 72
13
 73
9
 74
7
 40
0.000000
 40
0.000000
 40
0.000000
 40
0.000000
 40
1.581185
 40
3.654608
 40
5.797417
 40
8.272104
 40
11.257988
 40
14.158149
 40
14.158149
 40
14.158149
 40
14.158149
 10
27.792140
 20
201.771250
 30
0.0
 10
27.512671
 20
202.218883
 30
0.0
 10
26.866731
 20
203.253501
 30
0.0
 10
26.142114
 20
205.057531
 30
0.0
 10
25.572980
 20
207.213593
 30
0.0
 10
24.702123
 20
209.601294
 30
0.0
 10
23.336048
 20
212.047429
 30
0.0
 10
22.141872
 20
213.605842
 30
0.0
 10
21.553480
 20
214.373700
 30
0.0
 11
27.792140
 21
201.771250
 31
0.0
 11
26.989140
 21
203.133357
 31
0.0
 11
26.191500
 21
205.047216
 31
0.0
 11
25.571900
 21
207.098490
 31
0.0
 11
24.705881
 21
209.416698
 31
0.0
 11
23.262226
 21
212.030386
 31
0.0
 11
21.553480
 21
214.373700
 31
0.0
  0
LWPOLYLINE
  5
101
100
AcDbEntity
  8
Image
 62
7
100
AcDbPolyline
 90
11
 70
0
 10
21.553480
 20
214.373700
 30
0.0
 10
18.395090
 20
218.045550
 30
0.0
 10
15.126470
 20
211.613950
 30
0.0
 10
11.857840
 20
205.182370
 30
0.0
 10
9.294370
 20
215.005410
 30
0.0
 10
6.730899
 20
224.828430
 30
0.0
 10
-2.935771
 20
225.220180
 30
0.0
 10
-12.602431
 20
225.611930
 30
0.0
 10
-12.602431
 20
232.886850
 30
0.0
 10
-12.602431
 20
240.161770
 30
0.0
 10
-4.269101
 20
240.294700
 30
0.0
  0
SPLINE
  5
102
100
AcDbEntity
  8
Image
 62
7
100
AcDbSpline
 70
0
 71
3
 72
13
 73
9
 74
7
 40
0.000000
 40
0.000000
 40
0.000000
 40
0.000000
 40
8.666562
 40
14.014361
 40
19.372269
 40
23.336895
 40
28.570990
 40
34.007709
 40
34.007709
 40
34.007709
 40
34.007709
 10
-4.269101
 20
240.294700
 30
0.0
 10
-1.396276
 20
240.312672
 30
0.0
 10
3.249258
 20
240.341734
 30
0.0
 10
9.780032
 20
242.198319
 30
0.0
 10
12.626581
 20
246.412596
 30
0.0
 10
15.865663
 20
249.993819
 30
0.0
 10
19.667537
 20
253.099019
 30
0.0
 10
22.651359
 20
255.033542
 30
0.0
 10
24.171600
 20
256.019170
 30
0.0
 11
-4.269101
 21
240.294700
 31
0.0
 11
4.379580
 21
240.851137
 31
0.0
 11
9.394390
 21
242.708726
 31
0.0
 11
12.984630
 21
246.685830
 31
0.0
 11
15.646847
 21
249.623663
 31
0.0
 11
19.665870
 21
252.976751
 31
0.0
 11
24.171600
 21
256.019170
 31
0.0
  0
LWPOLYLINE
  5
103
100
AcDbEntity
  8
Image
 62
7
100
AcDbPolyline
 90
3
 70
0
 10
24.171600
 20
256.019170
 30
0.0
 10
32.278970
 20
260.828430
 30
0.0
 10
33.752850
 20
276.396140
 30
0.0
  0
SPLINE
  5
104
100
AcDbEntity
  8
Image
 62
7
100
AcDbSpline
 70
0
 71
3
 72
28
 73
24
 74
22
 40
0.000000
 40
0.000000
 40
0.000000
 40
0.000000
 40
8.801458
 40
15.859507
 40
20.329128
 40
28.790123
 40
46.750161
 40
78.691562
 40
89.728724
 40
97.815625
 40
101.222515
 40
104.040394
 40
108.165967
 40
112.912579
 40
126.113795
 40
143.493161
 40
154.324125
 40
156.779713
 40
158.474728
 40
161.716650
 40
165.351964
 40
170.422927
 40
175.855754
 40
175.855754
 40
175.855754
 40
175.855754
 10
33.752850
 20
276.396140
 30
0.0
 10
34.088606
 20
279.307196
 30
0.0
 10
34.693610
 20
284.552680
 30
0.0
 10
35.685184
 20
291.294485
 30
0.0
 10
38.042205
 20
297.545820
 30
0.0
 10
39.895265
 20
307.758898
 30
0.0
 10
38.412800
 20
327.331470
 30
0.0
 10
37.367688
 20
347.263548
 30
0.0
 10
35.609596
 20
364.723775
 30
0.0
 10
36.031992
 20
371.479981
 30
0.0
 10
34.835570
 20
377.437339
 30
0.0
 10
39.252634
 20
377.660756
 30
0.0
 10
42.453943
 20
375.498778
 30
0.0
 10
47.120876
 20
369.681077
 30
0.0
 10
53.129555
 20
359.636928
 30
0.0
 10
61.650521
 20
348.491235
 30
0.0
 10
67.622213
 20
340.676389
 30
0.0
 10
71.311883
 20
336.744245
 30
0.0
 10
73.991384
 20
337.095554
 30
0.0
 10
76.009267
 20
339.246488
 30
0.0
 10
79.478074
 20
341.218914
 30
0.0
 10
83.652313
 20
343.409477
 30
0.0
 10
86.873586
 20
344.785860
 30
0.0
 10
88.539710
 20
345.497760
 30
0.0
 11
33.752850
 21
276.396140
 31
0.0
 11
34.812031
 21
285.133634
 31
0.0
 11
36.110229
 21
292.071266
 31
0.0
 11
37.482050
 21
296.325160
 31
0.0
 11
39.094076
 21
304.631170
 31
0.0
 11
38.821274
 21
322.589136
 31
0.0
 11
36.599020
 21
354.453140
 31
0.0
 11
35.846749
 21
365.464636
 31
0.0
 11
35.537401
 21
373.545618
 31
0.0
 11
35.737950
 21
376.946600
 31
0.0
 11
38.519706
 21
377.396347
 31
0.0
 11
42.164124
 21
375.462810
 31
0.0
 11
45.281440
 21
371.883330
 31
0.0
 11
52.622221
 21
360.911319
 31
0.0
 11
62.879853
 21
346.881944
 31
0.0
 11
69.708300
 21
338.474680
 31
0.0
 11
71.667981
 21
336.994964
 31
0.0
 11
73.356745
 21
337.140409
 31
0.0
 11
76.000600
 21
339.016600
 31
0.0
 11
79.068723
 21
340.966505
 31
0.0
 11
83.573514
 21
343.294921
 31
0.0
 11
88.539710
 21
345.497760
 31
0.0
  0
LWPOLYLINE
  5
105
100
AcDbEntity
  8
Image
 62
7
100
AcDbPolyline
 90
3
 70
0
 10
88.539710
 20
345.497760
 30
0.0
 10
97.397570
 20
349.083240
 30
0.0
 10
101.035350
 20
366.289170
 30
0.0
  0
SPLINE
  5
106
100
AcDbEntity
  8
Image
 62
7
100
AcDbSpline
 70
0
 71
3
 72
145
 73
141
 74
139
 40
0.000000
 40
0.000000
 40
0.000000
 40
0.000000
 40
28.176750
 40
57.855607
 40
94.257343
 40
131.335036
 40
158.212542
 40
181.541646
 40
195.337542
 40
207.197770
 40
221.096293
 40
248.818566
 40
274.239635
 40
298.240256
 40
317.403994
 40
338.838550
 40
363.848495
 40
391.259441
 40
418.490845
 40
443.947406
 40
458.494614
 40
471.901306
 40
483.693308
 40
498.610507
 40
514.715937
 40
528.026169
 40
533.833965
 40
539.395122
 40
546.450280
 40
551.002018
 40
554.040837
 40
558.108854
 40
561.966511
 40
565.151751
 40
568.914178
 40
572.775141
 40
576.145944
 40
580.627142
 40
585.490735
 40
589.130645
 40
595.212825
 40
613.857545
 40
632.176108
 40
654.088802
 40
670.826219
 40
687.816836
 40
704.764314
 40
719.493318
 40
736.052028
 40
752.904696
 40
799.751237
 40
845.218951
 40
900.093826
 40
915.088629
 40
927.859451
 40
942.123975
 40
963.218519
 40
982.812544
 40
1004.782097
 40
1034.067931
 40
1061.932717
 40
1092.775209
 40
1117.626987
 40
1141.758047
 40
1164.863164
 40
1181.183187
 40
1200.156206
 40
1221.078177
 40
1247.752460
 40
1275.540463
 40
1294.173077
 40
1308.226157
 40
1323.233292
 40
1331.865318
 40
1333.446776
 40
1335.555595
 40
1339.106470
 40
1346.479717
 40
1351.241936
 40
1356.119211
 40
1361.737054
 40
1371.635853
 40
1383.672570
 40
1404.861256
 40
1410.235692
 40
1430.459738
 40
1464.428180
 40
1477.998703
 40
1487.586423
 40
1502.012204
 40
1514.554455
 40
1529.425838
 40
1536.346361
 40
1541.314054
 40
1543.316499
 40
1544.692538
 40
1547.196264
 40
1550.300836
 40
1556.716582
 40
1562.595678
 40
1566.133777
 40
1568.838709
 40
1573.082417
 40
1580.506884
 40
1585.813925
 40
1590.379073
 40
1593.226871
 40
1594.702672
 40
1596.696815
 40
1602.501602
 40
1612.907770
 40
1620.494134
 40
1624.597292
 40
1627.701927
 40
1634.451941
 40
1647.475222
 40
1655.696815
 40
1659.678178
 40
1661.284344
 40
1662.483972
 40
1663.985105
 40
1666.246189
 40
1672.085928
 40
1678.668288
 40
1686.036171
 40
1693.900425
 40
1697.563209
 40
1704.365736
 40
1712.113897
 40
1719.385272
 40
1724.835247
 40
1727.490055
 40
1730.734044
 40
1735.975172
 40
1740.229788
 40
1743.496675
 40
1745.110274
 40
1748.088642
 40
1756.115612
 40
1768.154799
 40
1768.154799
 40
1768.154799
 40
1768.154799
 10
101.035350
 20
366.289170
 30
0.0
 10
103.182924
 20
375.440196
 30
0.0
 10
107.592558
 20
394.230090
 30
0.0
 10
118.485773
 20
423.775821
 30
0.0
 10
132.813723
 20
455.038500
 30
0.0
 10
146.789385
 20
485.423234
 30
0.0
 10
155.665906
 20
513.338083
 30
0.0
 10
157.280822
 20
534.731953
 30
0.0
 10
156.629117
 20
551.115707
 30
0.0
 10
153.041283
 20
563.934993
 30
0.0
 10
144.621342
 20
579.712708
 30
0.0
 10
130.397592
 20
597.477700
 30
0.0
 10
107.504001
 20
610.514880
 30
0.0
 10
83.854974
 20
613.045107
 30
0.0
 10
63.259421
 20
604.618335
 30
0.0
 10
47.812730
 20
588.565251
 30
0.0
 10
35.687015
 20
566.833462
 30
0.0
 10
30.607521
 20
540.129883
 30
0.0
 10
35.489930
 20
513.416654
 30
0.0
 10
47.271067
 20
493.292313
 30
0.0
 10
62.653130
 20
483.535575
 30
0.0
 10
76.009787
 20
480.890001
 30
0.0
 10
89.594768
 20
485.121067
 30
0.0
 10
97.471434
 20
498.073764
 30
0.0
 10
101.389987
 20
512.237930
 30
0.0
 10
100.179973
 20
524.725991
 30
0.0
 10
94.571362
 20
531.191907
 30
0.0
 10
88.563284
 20
533.311302
 30
0.0
 10
82.791428
 20
532.919485
 30
0.0
 10
77.941532
 20
531.997581
 30
0.0
 10
74.050189
 20
533.124219
 30
0.0
 10
71.512244
 20
535.866396
 30
0.0
 10
68.914430
 20
538.520374
 30
0.0
 10
67.478417
 20
541.932212
 30
0.0
 10
67.356810
 20
545.555686
 30
0.0
 10
67.467880
 20
549.260476
 30
0.0
 10
69.188658
 20
552.892844
 30
0.0
 10
72.231978
 20
555.835072
 30
0.0
 10
75.154405
 20
559.206643
 30
0.0
 10
80.036861
 20
560.505133
 30
0.0
 10
89.454862
 20
559.424744
 30
0.0
 10
103.964068
 20
555.958079
 30
0.0
 10
117.449171
 20
540.280216
 30
0.0
 10
122.811383
 20
521.716930
 30
0.0
 10
123.391562
 20
502.983336
 30
0.0
 10
119.369496
 20
486.497009
 30
0.0
 10
112.782444
 20
471.287977
 30
0.0
 10
99.886564
 20
460.745450
 30
0.0
 10
83.853932
 20
456.694305
 30
0.0
 10
56.970315
 20
460.059098
 30
0.0
 10
24.282451
 20
482.105626
 30
0.0
 10
6.825528
 20
530.862950
 30
0.0
 10
14.938295
 20
569.872671
 30
0.0
 10
25.007090
 20
595.520082
 30
0.0
 10
32.660030
 20
607.400687
 30
0.0
 10
43.962371
 20
618.835391
 30
0.0
 10
58.625558
 20
630.214326
 30
0.0
 10
79.074194
 20
636.407626
 30
0.0
 10
102.886137
 20
635.596598
 30
0.0
 10
128.895546
 20
628.945341
 30
0.0
 10
152.953722
 20
610.875343
 30
0.0
 10
168.151049
 20
587.021801
 30
0.0
 10
177.490002
 20
561.975854
 30
0.0
 10
181.270862
 20
538.058469
 30
0.0
 10
179.885061
 20
516.718194
 30
0.0
 10
174.884046
 20
497.864434
 30
0.0
 10
168.847776
 20
480.111236
 30
0.0
 10
160.068945
 20
459.718554
 30
0.0
 10
149.901062
 20
436.743594
 30
0.0
 10
140.661272
 20
414.191376
 30
0.0
 10
133.164261
 20
395.488271
 30
0.0
 10
128.503215
 20
380.217995
 30
0.0
 10
126.189412
 20
367.985274
 30
0.0
 10
122.707041
 20
359.940996
 30
0.0
 10
123.816264
 20
355.687027
 30
0.0
 10
126.295792
 20
354.745720
 30
0.0
 10
130.464502
 20
354.036832
 30
0.0
 10
135.689731
 20
353.289376
 30
0.0
 10
141.587506
 20
355.137795
 30
0.0
 10
143.529986
 20
360.258682
 30
0.0
 10
145.030491
 20
366.739156
 30
0.0
 10
147.288105
 20
375.854720
 30
0.0
 10
151.899864
 20
388.557023
 30
0.0
 10
150.093155
 20
406.779719
 30
0.0
 10
168.367570
 20
408.268516
 30
0.0
 10
167.156451
 20
379.806671
 30
0.0
 10
176.025095
 20
362.574528
 30
0.0
 10
180.723789
 20
343.109063
 30
0.0
 10
190.001746
 20
334.374121
 30
0.0
 10
198.008876
 20
325.143806
 30
0.0
 10
203.532115
 20
311.969599
 30
0.0
 10
204.363346
 20
300.679463
 30
0.0
 10
204.787055
 20
291.363077
 30
0.0
 10
205.441337
 20
287.497183
 30
0.0
 10
205.875134
 20
283.685074
 30
0.0
 10
208.086184
 20
284.778935
 30
0.0
 10
210.088378
 20
285.476298
 30
0.0
 10
213.705382
 20
287.418287
 30
0.0
 10
218.665779
 20
289.067871
 30
0.0
 10
223.590619
 20
289.717609
 30
0.0
 10
228.468986
 20
289.052469
 30
0.0
 10
228.429900
 20
284.687122
 30
0.0
 10
223.886312
 20
282.143945
 30
0.0
 10
218.880323
 20
279.858168
 30
0.0
 10
213.530878
 20
277.791383
 30
0.0
 10
209.559979
 20
275.820548
 30
0.0
 10
207.194569
 20
274.831835
 30
0.0
 10
204.978064
 20
272.792945
 30
0.0
 10
209.778663
 20
272.846113
 30
0.0
 10
214.385738
 20
273.325793
 30
0.0
 10
223.236586
 20
273.169455
 30
0.0
 10
229.943571
 20
272.514234
 30
0.0
 10
235.205154
 20
268.647219
 30
0.0
 10
231.229449
 20
264.346473
 30
0.0
 10
223.416145
 20
264.676895
 30
0.0
 10
214.147914
 20
264.230084
 30
0.0
 10
205.815270
 20
263.853762
 30
0.0
 10
201.077927
 20
264.190737
 30
0.0
 10
199.095872
 20
262.350779
 30
0.0
 10
199.807481
 20
260.814080
 30
0.0
 10
201.437360
 20
260.225483
 30
0.0
 10
204.630234
 20
260.165578
 30
0.0
 10
209.516046
 20
259.465928
 30
0.0
 10
215.645819
 20
256.587784
 30
0.0
 10
221.041805
 20
252.224860
 30
0.0
 10
226.999624
 20
247.736985
 30
0.0
 10
224.278813
 20
240.402818
 30
0.0
 10
217.062574
 20
244.858304
 30
0.0
 10
211.369594
 20
247.864441
 30
0.0
 10
204.937585
 20
250.710348
 30
0.0
 10
200.227663
 20
252.659491
 30
0.0
 10
196.321818
 20
252.973636
 30
0.0
 10
192.992079
 20
251.004724
 30
0.0
 10
189.827796
 20
248.308565
 30
0.0
 10
186.584249
 20
245.306514
 30
0.0
 10
184.739980
 20
243.350882
 30
0.0
 10
182.566452
 20
240.690279
 30
0.0
 10
189.172750
 20
240.824237
 30
0.0
 10
195.039155
 20
240.215721
 30
0.0
 10
202.122951
 20
240.370660
 30
0.0
 10
206.373050
 20
240.463620
 30
0.0
 11
101.035350
 21
366.289170
 31
0.0
 11
108.018068
 21
393.586989
 31
0.0
 11
118.019719
 21
421.529814
 31
0.0
 11
132.726450
 21
454.828440
 31
0.0
 11
147.402421
 21
488.877980
 31
0.0
 11
154.926552
 21
514.680844
 31
0.0
 11
156.956430
 21
537.921470
 31
0.0
 11
156.029170
 21
551.686169
 31
0.0
 11
152.861753
 21
563.115625
 31
0.0
 11
146.543740
 21
575.495110
 31
0.0
 11
128.685900
 21
596.699401
 31
0.0
 11
106.454210
 21
609.027529
 31
0.0
 11
82.533990
 21
610.990400
 31
0.0
 11
64.737690
 21
603.881212
 31
0.0
 11
49.359400
 21
588.949755
 31
0.0
 11
37.279340
 21
567.050680
 31
0.0
 11
32.311111
 21
540.093738
 31
0.0
 11
37.206365
 21
513.305945
 31
0.0
 11
51.009510
 21
491.916470
 31
0.0
 11
63.345381
 21
484.206246
 31
0.0
 11
76.570895
 21
482.009617
 31
0.0
 11
87.731200
 21
485.817360
 31
0.0
 11
96.567231
 21
497.835986
 31
0.0
 11
100.554725
 21
513.439984
 31
0.0
 11
98.134610
 21
526.528350
 31
0.0
 11
94.222070
 21
530.820496
 31
0.0
 11
89.025720
 21
532.801514
 31
0.0
 11
81.971440
 21
532.690280
 31
0.0
 11
77.433360
 21
532.337927
 31
0.0
 11
74.526643
 21
533.224163
 31
0.0
 11
71.458670
 21
535.895550
 31
0.0
 11
68.970432
 21
538.843462
 31
0.0
 11
67.732768
 21
541.778414
 31
0.0
 11
67.397570
 21
545.525880
 31
0.0
 11
67.754841
 21
549.370277
 31
0.0
 11
69.159272
 21
552.434570
 31
0.0
 11
72.109790
 21
555.807340
 31
0.0
 11
75.734906
 21
559.049727
 31
0.0
 11
79.215600
 21
560.114487
 31
0.0
 11
85.291570
 21
559.839700
 31
0.0
 11
103.058076
 21
554.184892
 31
0.0
 11
115.500617
 21
540.740455
 31
0.0
 11
122.258690
 21
519.895920
 31
0.0
 11
122.643084
 21
503.162917
 31
0.0
 11
118.889899
 21
486.592019
 31
0.0
 11
111.285260
 21
471.446510
 31
0.0
 11
99.920296
 21
462.077351
 31
0.0
 11
83.936024
 21
457.753699
 31
0.0
 11
67.175660
 21
459.515120
 31
0.0
 11
28.168439
 21
485.458039
 31
0.0
 11
11.833911
 21
527.890294
 31
0.0
 11
19.962950
 21
582.159720
 31
0.0
 11
25.765906
 21
595.986138
 31
0.0
 11
32.706261
 21
606.706462
 31
0.0
 11
42.542630
 21
617.037120
 31
0.0
 11
59.676885
 21
629.341474
 31
0.0
 11
78.388902
 21
635.154066
 31
0.0
 11
100.357890
 21
634.996520
 31
0.0
 11
128.532455
 21
627.005654
 31
0.0
 11
150.928978
 21
610.427293
 31
0.0
 11
168.132410
 21
584.828440
 31
0.0
 11
176.760497
 21
561.522497
 31
0.0
 11
180.409320
 21
537.668899
 31
0.0
 11
178.872780
 21
514.614930
 31
0.0
 11
174.947163
 21
498.774076
 31
0.0
 11
168.836014
 21
480.812191
 31
0.0
 11
160.799890
 21
461.495110
 31
0.0
 11
150.161971
 21
437.033875
 31
0.0
 11
139.544489
 21
411.354269
 31
0.0
 11
132.875250
 21
393.956120
 31
0.0
 11
128.843443
 21
380.493817
 31
0.0
 11
125.067431
 21
365.969499
 31
0.0
 11
123.397570
 21
357.500530
 31
0.0
 11
123.939854
 21
356.014953
 31
0.0
 11
125.784272
 21
354.992583
 31
0.0
 11
129.257170
 21
354.252520
 31
0.0
 11
136.620234
 21
353.865153
 31
0.0
 11
141.031549
 21
355.659320
 31
0.0
 11
143.313900
 21
359.969620
 31
0.0
 11
144.732519
 21
365.405398
 31
0.0
 11
147.224631
 21
374.985356
 31
0.0
 11
150.250710
 21
386.635480
 31
0.0
 11
156.745598
 21
406.804190
 31
0.0
 11
162.103852
 21
407.220937
 31
0.0
 11
168.577140
 21
388.060860
 31
0.0
 11
177.514459
 21
355.289235
 31
0.0
 11
182.360378
 21
342.613425
 31
0.0
 11
188.700930
 21
335.421640
 31
0.0
 11
197.749874
 21
324.186882
 31
0.0
 11
202.606053
 21
312.622904
 31
0.0
 11
204.470830
 21
297.868900
 31
0.0
 11
204.943946
 21
290.964569
 31
0.0
 11
205.598261
 21
286.040155
 31
0.0
 11
206.292130
 21
284.161770
 31
0.0
 11
207.618759
 21
284.527202
 31
0.0
 11
209.931945
 21
285.485228
 31
0.0
 11
212.730900
 21
286.828440
 31
0.0
 11
218.801596
 21
288.904119
 31
0.0
 11
224.654194
 21
289.461671
 31
0.0
 11
227.989870
 21
288.282090
 31
0.0
 11
228.106700
 21
285.579682
 31
0.0
 11
224.924553
 21
282.772014
 31
0.0
 11
218.193650
 21
279.638700
 31
0.0
 11
213.293150
 21
277.601599
 31
0.0
 11
209.153366
 21
275.677341
 31
0.0
 11
206.670540
 21
274.282520
 31
0.0
 11
205.705013
 21
273.166390
 31
0.0
 11
207.671390
 21
272.834780
 31
0.0
 11
213.468350
 21
273.136130
 31
0.0
 11
223.873778
 21
273.011997
 31
0.0
 11
231.257435
 21
271.270009
 31
0.0
 11
234.064230
 21
268.277050
 31
0.0
 11
232.212347
 21
265.785206
 31
0.0
 11
225.582686
 21
264.516234
 31
0.0
 11
212.564230
 21
264.161770
 31
0.0
 11
204.344069
 21
264.008309
 31
0.0
 11
200.407857
 21
263.410404
 31
0.0
 11
199.397570
 21
262.161770
 31
0.0
 11
199.844657
 21
261.048567
 31
0.0
 11
201.190149
 21
260.382946
 31
0.0
 11
203.440390
 21
260.161770
 31
0.0
 11
209.205777
 21
259.232864
 31
0.0
 11
215.208757
 21
256.532549
 31
0.0
 11
221.161210
 21
252.190430
 31
0.0
 11
225.836217
 21
245.866603
 31
0.0
 11
224.427249
 21
242.485657
 31
0.0
 11
217.867590
 21
244.287110
 31
0.0
 11
211.031997
 21
247.935217
 31
0.0
 11
204.398136
 21
250.912593
 31
0.0
 11
199.232750
 21
252.650700
 31
0.0
 11
196.578674
 21
252.713076
 31
0.0
 11
193.651686
 21
251.314434
 31
0.0
 11
189.566090
 21
248.031550
 31
0.0
 11
186.458986
 21
245.125063
 31
0.0
 11
184.242887
 21
242.724760
 31
0.0
 11
183.397570
 21
241.350300
 31
0.0
 11
186.312907
 21
240.740802
 31
0.0
 11
194.333906
 21
240.431251
 31
0.0
 11
206.373050
 21
240.463620
 31
0.0
  0
LWPOLYLINE
  5
107
100
AcDbEntity
  8
Image
 62
7
100
AcDbPolyline
 90
3
 70
0
 10
206.373050
 20
240.463620
 30
0.0
 10
229.348530
 20
240.828430
 30
0.0
 10
232.435660
 20
246.427500
 30
0.0
  0
SPLINE
  5
108
100
AcDbEntity
  8
Image
 62
7
100
AcDbSpline
 70
0
 71
3
 72
10
 73
6
 74
4
 40
0.000000
 40
0.000000
 40
0.000000
 40
0.000000
 40
8.972834
 40
19.224078
 40
29.704020
 40
29.704020
 40
29.704020
 40
29.704020
 10
232.435660
 20
246.427500
 30
0.0
 10
234.206461
 20
248.854829
 30
0.0
 10
238.000358
 20
254.055322
 30
0.0
 10
246.226070
 20
259.907299
 30
0.0
 10
252.658497
 20
262.451956
 30
0.0
 10
255.910190
 20
263.738320
 30
0.0
 11
232.435660
 21
246.427500
 31
0.0
 11
238.081311
 21
253.401621
 31
0.0
 11
246.331819
 21
259.485792
 31
0.0
 11
255.910190
 21
263.738320
 31
0.0
  0
LWPOLYLINE
  5
109
100
AcDbEntity
  8
Image
 62
7
100
AcDbPolyline
 90
3
 70
0
 10
255.910190
 20
263.738320
 30
0.0
 10
263.546150
 20
266.089640
 30
0.0
 10
262.677710
 20
274.198900
 30
0.0
  0
SPLINE
  5
10a
100
AcDbEntity
  8
Image
 62
7
100
AcDbSpline
 70
0
 71
3
 72
55
 73
51
 74
49
 40
0.000000
 40
0.000000
 40
0.000000
 40
0.000000
 40
5.532898
 40
11.055699
 40
16.991233
 40
23.897673
 40
30.468420
 40
42.744106
 40
53.250765
 40
64.427798
 40
73.856467
 40
85.876531
 40
93.344939
 40
96.873375
 40
99.950188
 40
109.563178
 40
129.219616
 40
139.488905
 40
147.005817
 40
150.154583
 40
151.268014
 40
153.353178
 40
155.984584
 40
168.788950
 40
186.006269
 40
201.293976
 40
207.161432
 40
213.119896
 40
225.460166
 40
243.212866
 40
264.667609
 40
293.952359
 40
379.153272
 40
452.378112
 40
525.989446
 40
538.822697
 40
545.109791
 40
551.039694
 40
559.694636
 40
572.718176
 40
593.859463
 40
625.292438
 40
655.545523
 40
688.873543
 40
716.382426
 40
741.939541
 40
766.720946
 40
809.402866
 40
841.385171
 40
869.487744
 40
869.487744
 40
869.487744
 40
869.487744
 10
262.677710
 20
274.198900
 30
0.0
 10
262.539621
 20
276.040214
 30
0.0
 10
262.263696
 20
279.719480
 30
0.0
 10
262.755958
 20
285.390076
 30
0.0
 10
263.988402
 20
291.373779
 30
0.0
 10
265.851357
 20
297.667343
 30
0.0
 10
264.741209
 20
306.322921
 30
0.0
 10
262.163063
 20
315.727309
 30
0.0
 10
259.391116
 20
326.705126
 30
0.0
 10
256.711822
 20
336.750025
 30
0.0
 10
253.708778
 20
347.104616
 30
0.0
 10
251.296843
 20
356.830260
 30
0.0
 10
249.701430
 20
363.482281
 30
0.0
 10
250.668338
 20
369.780832
 30
0.0
 10
256.818866
 20
366.504684
 30
0.0
 10
263.630849
 20
359.686007
 30
0.0
 10
274.023760
 20
350.854379
 30
0.0
 10
283.082123
 20
341.849564
 30
0.0
 10
288.409858
 20
338.382612
 30
0.0
 10
291.363007
 20
334.314607
 30
0.0
 10
293.377959
 20
335.442572
 30
0.0
 10
294.938808
 20
336.495823
 30
0.0
 10
299.442500
 20
340.311455
 30
0.0
 10
309.538567
 20
344.668659
 30
0.0
 10
324.238628
 20
349.023068
 30
0.0
 10
336.265119
 20
350.870291
 30
0.0
 10
346.469163
 20
350.959844
 30
0.0
 10
349.107518
 20
359.875778
 30
0.0
 10
348.640294
 20
371.385678
 30
0.0
 10
348.180667
 20
388.809386
 30
0.0
 10
344.709951
 20
411.336008
 30
0.0
 10
335.541662
 20
455.725584
 30
0.0
 10
325.399946
 20
517.727250
 30
0.0
 10
329.401185
 20
595.624179
 30
0.0
 10
347.410039
 20
647.037126
 30
0.0
 10
358.340185
 20
675.012224
 30
0.0
 10
364.249355
 20
682.337608
 30
0.0
 10
371.948563
 20
680.136216
 30
0.0
 10
377.949549
 20
672.245275
 30
0.0
 10
375.200448
 20
657.164273
 30
0.0
 10
367.764977
 20
637.090149
 30
0.0
 10
358.033275
 20
610.985346
 30
0.0
 10
352.069590
 20
579.798075
 30
0.0
 10
350.123779
 20
549.437595
 30
0.0
 10
350.313529
 20
520.628310
 30
0.0
 10
352.516157
 20
494.723567
 30
0.0
 10
358.547027
 20
464.276131
 30
0.0
 10
366.078084
 20
432.014506
 30
0.0
 10
371.147702
 20
398.021675
 30
0.0
 10
371.096894
 20
377.970205
 30
0.0
 10
371.073130
 20
368.591840
 30
0.0
 11
262.677710
 21
274.198900
 31
0.0
 11
262.412773
 21
279.725451
 31
0.0
 11
262.845520
 21
285.231272
 31
0.0
 11
264.002410
 21
291.052970
 31
0.0
 11
265.391359
 21
297.818304
 31
0.0
 11
264.884678
 21
304.369486
 31
0.0
 11
262.048740
 21
316.313100
 31
0.0
 11
259.422970
 21
326.486360
 31
0.0
 11
256.525316
 21
337.281250
 31
0.0
 11
253.983100
 21
346.360730
 31
0.0
 11
251.021683
 21
358.010276
 31
0.0
 11
250.128374
 21
365.425067
 31
0.0
 11
251.284670
 21
368.758660
 31
0.0
 11
254.214309
 21
367.818453
 31
0.0
 11
261.680731
 21
361.763527
 31
0.0
 11
276.221010
 21
348.536440
 31
0.0
 11
283.822487
 21
341.631670
 31
0.0
 11
289.501486
 21
336.706944
 31
0.0
 11
292.028530
 21
334.828440
 31
0.0
 11
293.050214
 21
335.271034
 31
0.0
 11
294.782719
 21
336.431353
 31
0.0
 11
296.850970
 21
338.058200
 31
0.0
 11
308.257376
 21
343.875905
 31
0.0
 11
324.764140
 21
348.771088
 31
0.0
 11
339.912780
 21
350.828440
 31
0.0
 11
345.657146
 21
352.023976
 31
0.0
 11
348.173814
 21
357.424871
 31
0.0
 11
348.730900
 21
369.752560
 31
0.0
 11
347.878027
 21
387.484761
 31
0.0
 11
344.954583
 21
408.739396
 31
0.0
 11
339.413330
 21
437.495110
 31
0.0
 11
328.018659
 21
521.930630
 31
0.0
 11
332.883425
 21
594.993694
 31
0.0
 11
354.583540
 21
665.333820
 31
0.0
 11
360.128367
 21
676.907378
 31
0.0
 11
364.763883
 21
681.154676
 31
0.0
 11
370.578050
 21
679.988820
 31
0.0
 11
376.027072
 21
673.264522
 31
0.0
 11
375.477625
 21
660.252578
 31
0.0
 11
368.896300
 21
640.161780
 31
0.0
 11
358.771221
 21
610.404181
 31
0.0
 11
352.858616
 21
580.734496
 31
0.0
 11
350.429590
 21
547.495110
 31
0.0
 11
350.689979
 21
519.987459
 31
0.0
 11
353.012224
 21
494.536068
 31
0.0
 11
357.485660
 21
470.161770
 31
0.0
 11
366.244253
 21
428.388174
 31
0.0
 11
370.484897
 21
396.688256
 31
0.0
 11
371.073130
 21
368.591840
 31
0.0
  0
LWPOLYLINE
  5
10b
100
AcDbEntity
  8
Image
 62
7
100
AcDbPolyline
 90
3
 70
0
 10
371.073130
 20
368.591840
 30
0.0
 10
370.397820
 20
348.355240
 30
0.0
 10
380.206540
 20
346.173010
 30
0.0
  0
SPLINE
  5
10c
100
AcDbEntity
  8
Image
 62
7
100
AcDbSpline
 70
0
 71
3
 72
31
 73
27
 74
25
 40
0.000000
 40
0.000000
 40
0.000000
 40
0.000000
 40
11.168810
 40
21.783757
 40
32.283827
 40
36.242561
 40
39.483494
 40
41.369260
 40
44.155941
 40
49.775553
 40
57.048936
 40
73.562220
 40
86.004174
 40
92.486599
 40
93.870451
 40
95.269790
 40
96.566973
 40
104.457494
 40
120.446427
 40
141.570621
 40
155.738245
 40
164.648504
 40
174.002337
 40
181.033497
 40
187.520422
 40
192.060907
 40
192.060907
 40
192.060907
 40
192.060907
 10
380.206540
 20
346.173010
 30
0.0
 10
383.808968
 20
345.211227
 30
0.0
 10
390.835178
 20
343.335357
 30
0.0
 10
400.551243
 20
338.465741
 30
0.0
 10
407.108453
 20
333.289010
 30
0.0
 10
411.595401
 20
329.379283
 30
0.0
 10
414.044411
 20
327.744679
 30
0.0
 10
416.564454
 20
326.370234
 30
0.0
 10
419.696158
 20
328.662916
 30
0.0
 10
424.035611
 20
331.113072
 30
0.0
 10
432.012321
 20
337.023915
 30
0.0
 10
441.814774
 20
344.226795
 30
0.0
 10
451.794708
 20
349.814932
 30
0.0
 10
457.962675
 20
353.897075
 30
0.0
 10
461.071508
 20
353.284737
 30
0.0
 10
462.251838
 20
352.543723
 30
0.0
 10
464.292091
 20
349.511893
 30
0.0
 10
460.239632
 20
340.575583
 30
0.0
 10
456.274364
 20
327.058655
 30
0.0
 10
448.829973
 20
311.222154
 30
0.0
 10
442.427756
 20
298.041781
 30
0.0
 10
438.862964
 20
287.747138
 30
0.0
 10
438.141631
 20
279.304154
 30
0.0
 10
437.403670
 20
271.724601
 30
0.0
 10
436.754390
 20
265.737494
 30
0.0
 10
436.235479
 20
262.098478
 30
0.0
 10
436.021820
 20
260.600130
 30
0.0
 11
380.206540
 21
346.173010
 31
0.0
 11
390.890213
 21
342.917025
 31
0.0
 11
400.375347
 21
338.151591
 31
0.0
 11
408.758020
 21
331.828440
 31
0.0
 11
411.812302
 21
329.309921
 31
0.0
 11
414.509888
 21
327.513625
 31
0.0
 11
416.266770
 21
326.828440
 31
0.0
 11
418.808714
 21
327.970415
 31
0.0
 11
423.564452
 21
330.964241
 31
0.0
 11
429.504390
 21
335.161770
 31
0.0
 11
443.020402
 21
344.648918
 31
0.0
 11
453.653791
 21
351.109046
 31
0.0
 11
459.681110
 21
353.495100
 31
0.0
 11
461.034486
 21
353.206276
 31
0.0
 11
462.211271
 21
352.449091
 31
0.0
 11
462.956700
 21
351.387480
 31
0.0
 11
461.733104
 21
343.592408
 31
0.0
 11
456.333790
 21
328.542712
 31
0.0
 11
447.824260
 21
309.208300
 31
0.0
 11
441.970025
 21
296.306769
 31
0.0
 11
439.265561
 21
287.816858
 31
0.0
 11
438.055380
 21
278.541640
 31
0.0
 11
437.372619
 21
271.543709
 31
0.0
 11
436.642041
 21
265.098055
 31
0.0
 11
436.021820
 21
260.600130
 31
0.0
  0
LWPOLYLINE
  5
10d
100
AcDbEntity
  8
Image
 62
7
100
AcDbPolyline
 90
3
 70
0
 10
436.021820
 20
260.600130
 30
0.0
 10
435.090340
 20
255.038500
 30
0.0
 10
445.983350
 20
254.088290
 30
0.0
  0
SPLINE
  5
10e
100
AcDbEntity
  8
Image
 62
7
100
AcDbSpline
 70
0
 71
3
 72
73
 73
69
 74
67
 40
0.000000
 40
0.000000
 40
0.000000
 40
0.000000
 40
9.891978
 40
15.928293
 40
18.933020
 40
21.464552
 40
26.752238
 40
38.509037
 40
46.763141
 40
50.995463
 40
53.411509
 40
55.715621
 40
61.997008
 40
79.578937
 40
92.348180
 40
98.408820
 40
99.651336
 40
103.044728
 40
106.694186
 40
110.869259
 40
117.825958
 40
125.691968
 40
132.167136
 40
135.651442
 40
137.161575
 40
139.758948
 40
147.386633
 40
156.040063
 40
163.400942
 40
169.382530
 40
172.972745
 40
177.004988
 40
178.625660
 40
179.831441
 40
180.377743
 40
182.565211
 40
187.967213
 40
195.415093
 40
205.100492
 40
208.118183
 40
210.403699
 40
213.716457
 40
218.207990
 40
222.911719
 40
229.821366
 40
234.091376
 40
237.494131
 40
240.925836
 40
246.478844
 40
254.284805
 40
260.410122
 40
263.638539
 40
270.103517
 40
283.280939
 40
296.278441
 40
309.559807
 40
313.895661
 40
317.775127
 40
320.366546
 40
331.676712
 40
353.044864
 40
375.517616
 40
382.367015
 40
387.605377
 40
390.133586
 40
394.866653
 40
408.207597
 40
432.780744
 40
432.780744
 40
432.780744
 40
432.780744
 10
445.983350
 20
254.088290
 30
0.0
 10
449.081132
 20
253.559653
 30
0.0
 10
454.069253
 20
252.708430
 30
0.0
 10
461.418011
 20
251.509968
 30
0.0
 10
461.885533
 20
246.588027
 30
0.0
 10
458.064051
 20
245.093454
 30
0.0
 10
451.682580
 20
245.619486
 30
0.0
 10
443.175236
 20
246.128179
 30
0.0
 10
435.186452
 20
246.690691
 30
0.0
 10
430.117719
 20
246.782098
 30
0.0
 10
427.356472
 20
245.340250
 30
0.0
 10
426.085318
 20
240.921949
 30
0.0
 10
439.155832
 20
242.714302
 30
0.0
 10
448.560098
 20
240.164279
 30
0.0
 10
461.047984
 20
241.533264
 30
0.0
 10
468.140846
 20
239.509143
 30
0.0
 10
471.177733
 20
242.299577
 30
0.0
 10
467.897036
 20
244.797806
 30
0.0
 10
469.312904
 20
248.735566
 30
0.0
 10
472.077613
 20
252.758764
 30
0.0
 10
477.736748
 20
256.048386
 30
0.0
 10
484.218400
 20
258.839611
 30
0.0
 10
489.954128
 20
260.474266
 30
0.0
 10
494.047199
 20
259.847660
 30
0.0
 10
495.964211
 20
262.505091
 30
0.0
 10
490.682259
 20
264.051547
 30
0.0
 10
485.557252
 20
264.747716
 30
0.0
 10
477.255001
 20
265.170799
 30
0.0
 10
470.013667
 20
264.515243
 30
0.0
 10
464.530039
 20
262.946923
 30
0.0
 10
459.690346
 20
264.719777
 30
0.0
 10
459.341815
 20
268.220894
 30
0.0
 10
459.432991
 20
270.478644
 30
0.0
 10
459.495039
 20
271.576188
 30
0.0
 10
459.832566
 20
272.956669
 30
0.0
 10
463.431814
 20
272.068074
 30
0.0
 10
467.674557
 20
273.238139
 30
0.0
 10
476.019898
 20
273.347455
 30
0.0
 10
480.616780
 20
273.705861
 30
0.0
 10
488.611716
 20
274.453567
 30
0.0
 10
484.773247
 20
276.374136
 30
0.0
 10
482.080578
 20
277.282948
 30
0.0
 10
477.945315
 20
278.706718
 30
0.0
 10
472.833342
 20
280.156277
 30
0.0
 10
467.818294
 20
281.722641
 30
0.0
 10
463.498593
 20
284.596286
 30
0.0
 10
463.197484
 20
289.018264
 30
0.0
 10
467.335844
 20
291.322368
 30
0.0
 10
473.006980
 20
290.248521
 30
0.0
 10
479.026490
 20
288.674108
 30
0.0
 10
484.559383
 20
284.961918
 30
0.0
 10
489.498270
 20
288.588115
 30
0.0
 10
488.014319
 20
296.998352
 30
0.0
 10
489.894587
 20
307.459048
 30
0.0
 10
494.202760
 20
320.106029
 30
0.0
 10
500.074481
 20
328.546892
 30
0.0
 10
504.633449
 20
334.076951
 30
0.0
 10
506.758083
 20
336.977086
 30
0.0
 10
510.136972
 20
341.904020
 30
0.0
 10
510.888015
 20
354.151888
 30
0.0
 10
514.435469
 20
371.978898
 30
0.0
 10
516.144797
 20
388.704227
 30
0.0
 10
517.288757
 20
400.413797
 30
0.0
 10
518.169349
 20
404.824590
 30
0.0
 10
518.879800
 20
409.794366
 30
0.0
 10
527.934132
 20
405.607486
 30
0.0
 10
530.264351
 20
391.741416
 30
0.0
 10
535.275518
 20
380.015004
 30
0.0
 10
538.523390
 20
372.414800
 30
0.0
 11
445.983350
 21
254.088290
 31
0.0
 11
455.737341
 21
252.441813
 31
0.0
 11
461.193226
 21
249.859097
 31
0.0
 11
461.263010
 21
246.855180
 31
0.0
 11
459.059323
 21
245.609219
 31
0.0
 11
453.774523
 21
245.434558
 31
0.0
 11
442.043990
 21
246.219990
 31
0.0
 11
433.803329
 21
246.690873
 31
0.0
 11
429.585345
 21
246.342784
 31
0.0
 11
427.560490
 21
245.024740
 31
0.0
 11
426.925181
 21
242.809945
 31
0.0
 11
433.109852
 21
241.711919
 31
0.0
 11
450.673990
 21
240.921170
 31
0.0
 11
463.438852
 21
240.586711
 31
0.0
 11
469.494091
 21
240.842523
 31
0.0
 11
470.340660
 21
241.752010
 31
0.0
 11
468.852193
 21
244.801530
 31
0.0
 11
469.350101
 21
248.416863
 31
0.0
 11
471.730900
 21
251.846590
 31
0.0
 11
477.486936
 21
255.753471
 31
0.0
 11
484.716914
 21
258.852103
 31
0.0
 11
491.064230
 21
260.132490
 31
0.0
 11
494.498051
 21
260.723474
 31
0.0
 11
495.299583
 21
262.003336
 31
0.0
 11
493.064230
 21
263.326040
 31
0.0
 11
485.550930
 21
264.642061
 31
0.0
 11
476.903750
 21
264.970893
 31
0.0
 11
469.581370
 21
264.219040
 31
0.0
 11
463.636334
 21
263.558778
 31
0.0
 11
460.385419
 21
265.082325
 31
0.0
 11
459.397570
 21
268.991690
 31
0.0
 11
459.443249
 21
270.611719
 31
0.0
 11
459.563001
 21
271.811538
 31
0.0
 11
459.730900
 21
272.331400
 31
0.0
 11
461.908676
 21
272.537087
 31
0.0
 11
467.297564
 21
272.913259
 31
0.0
 11
474.730900
 21
273.378480
 31
0.0
 11
484.392186
 21
274.061490
 31
0.0
 11
487.321317
 21
274.787200
 31
0.0
 11
485.397570
 21
276.021210
 31
0.0
 11
482.305529
 21
277.210179
 31
0.0
 11
478.044411
 21
278.630301
 31
0.0
 11
473.536730
 21
279.974130
 31
0.0
 11
467.068190
 21
282.403371
 31
0.0
 11
463.881183
 21
285.245196
 31
0.0
 11
463.810190
 21
288.647210
 31
0.0
 11
466.631989
 21
290.600171
 31
0.0
 11
472.179525
 21
290.353716
 31
0.0
 11
479.604730
 21
287.945530
 31
0.0
 11
485.452463
 21
286.122474
 31
0.0
 11
488.082284
 21
287.995096
 31
0.0
 11
488.710490
 21
294.429480
 31
0.0
 11
490.247147
 21
307.516999
 31
0.0
 11
494.702800
 21
319.726921
 31
0.0
 11
501.993270
 21
330.828440
 31
0.0
 11
504.694827
 21
334.219786
 31
0.0
 11
506.996023
 21
337.343044
 31
0.0
 11
508.398660
 21
339.522050
 31
0.0
 11
510.842273
 21
350.565085
 31
0.0
 11
514.045707
 21
371.691749
 31
0.0
 11
516.660940
 21
394.011810
 31
0.0
 11
517.447449
 21
400.815902
 31
0.0
 11
518.320581
 21
405.980985
 31
0.0
 11
519.091310
 21
408.388850
 31
0.0
 11
523.674117
 21
407.205718
 31
0.0
 11
530.014590
 21
395.467779
 31
0.0
 11
538.523390
 21
372.414800
 31
0.0
  0
SPLINE
  5
10f
100
AcDbEntity
  8
Image
 62
7
100
AcDbSpline
 70
0
 71
3
 72
28
 73
24
 74
22
 40
0.000000
 40
0.000000
 40
0.000000
 40
0.000000
 40
3.584070
 40
7.307173
 40
10.367997
 40
13.408873
 40
15.149424
 40
18.233103
 40
45.284417
 40
84.824303
 40
123.487365
 40
155.987433
 40
179.814746
 40
199.661357
 40
227.134173
 40
250.892923
 40
272.466255
 40
284.311152
 40
294.198089
 40
304.373833
 40
310.342688
 40
316.444340
 40
326.599018
 40
326.599018
 40
326.599018
 40
326.599018
 10
549.916990
 20
356.707930
 30
0.0
 10
551.102076
 20
356.851148
 30
0.0
 10
553.518219
 20
357.143139
 30
0.0
 10
556.986613
 20
357.361927
 30
0.0
 10
560.192719
 20
357.623719
 30
0.0
 10
563.012869
 20
357.173036
 30
0.0
 10
565.036192
 20
359.268384
 30
0.0
 10
563.789387
 20
370.477425
 30
0.0
 10
561.952633
 20
392.825364
 30
0.0
 10
555.058808
 20
427.709816
 30
0.0
 10
546.773639
 20
463.543520
 30
0.0
 10
538.339159
 20
494.095275
 30
0.0
 10
533.320063
 20
519.022465
 30
0.0
 10
531.209841
 20
542.682691
 30
0.0
 10
531.861985
 20
566.450115
 30
0.0
 10
536.816073
 20
590.420341
 30
0.0
 10
545.430248
 20
607.648755
 30
0.0
 10
553.987737
 20
619.308558
 30
0.0
 10
561.674777
 20
626.790152
 30
0.0
 10
569.155555
 20
631.230470
 30
0.0
 10
575.833955
 20
634.602439
 30
0.0
 10
583.272241
 20
635.562256
 30
0.0
 10
588.683828
 20
635.518022
 30
0.0
 10
592.064230
 20
635.490390
 30
0.0
 11
549.916990
 21
356.707930
 31
0.0
 11
553.479060
 21
357.104433
 31
0.0
 11
557.191407
 21
357.387230
 31
0.0
 11
560.250330
 21
357.495100
 31
0.0
 11
563.282528
 21
357.724667
 31
0.0
 11
564.504555
 21
358.964090
 31
0.0
 11
564.730900
 21
362.039450
 31
0.0
 11
561.851797
 21
388.937114
 31
0.0
 11
554.814567
 21
427.845726
 31
0.0
 11
546.019330
 21
465.495110
 31
0.0
 11
537.998559
 21
496.989898
 31
0.0
 11
533.528745
 21
520.394206
 31
0.0
 11
531.759300
 21
540.161780
 31
0.0
 11
532.763364
 21
567.616242
 31
0.0
 11
537.993473
 21
590.792181
 31
0.0
 11
547.549790
 21
610.133470
 31
0.0
 11
554.654238
 21
619.611256
 31
0.0
 11
561.831555
 21
626.411081
 31
0.0
 11
570.446790
 21
631.826200
 31
0.0
 11
575.895845
 21
634.262391
 31
0.0
 11
581.911689
 21
635.282086
 31
0.0
 11
592.064230
 21
635.490390
 31
0.0
  0
LWPOLYLINE
  5
110
100
AcDbEntity
  8
Image
 62
7
100
AcDbPolyline
 90
3
 70
0
 10
538.523390
 20
372.414800
 30
0.0
 10
544.064230
 20
355.920760
 30
0.0
 10
549.916990
 20
356.707930
 30
0.0
  0
SPLINE
  5
111
100
AcDbEntity
  8
Image
 62
7
100
AcDbSpline
 70
0
 71
3
 72
28
 73
24
 74
22
 40
0.000000
 40
0.000000
 40
0.000000
 40
0.000000
 40
10.093180
 40
16.468276
 40
22.791908
 40
33.663395
 40
44.848563
 40
56.109061
 40
62.917100
 40
69.959578
 40
82.656145
 40
92.641846
 40
101.031528
 40
106.360705
 40
124.825136
 40
143.565331
 40
157.926076
 40
164.876177
 40
173.418793
 40
184.855955
 40
189.906878
 40
195.092264
 40
199.289534
 40
199.289534
 40
199.289534
 40
199.289534
 10
592.064230
 20
635.490390
 30
0.0
 10
595.427676
 20
635.514289
 30
0.0
 10
600.915556
 20
635.553283
 30
0.0
 10
608.512940
 20
634.559734
 30
0.0
 10
615.783499
 20
631.432578
 30
0.0
 10
623.873675
 20
626.433582
 30
0.0
 10
631.810401
 20
618.482108
 30
0.0
 10
636.941609
 20
610.160223
 30
0.0
 10
640.568630
 20
602.523738
 30
0.0
 10
641.499490
 20
593.620563
 30
0.0
 10
641.367307
 20
583.738566
 30
0.0
 10
641.209231
 20
573.369787
 30
0.0
 10
640.680660
 20
565.496668
 30
0.0
 10
639.283989
 20
554.792314
 30
0.0
 10
630.087220
 20
542.664475
 30
0.0
 10
616.764422
 20
532.916012
 30
0.0
 10
601.458684
 20
528.803379
 30
0.0
 10
594.279187
 20
537.790972
 30
0.0
 10
597.363417
 20
547.226446
 30
0.0
 10
602.787787
 20
553.512270
 30
0.0
 10
608.287488
 20
558.221305
 30
0.0
 10
611.854597
 20
561.446085
 30
0.0
 10
614.181047
 20
563.536781
 30
0.0
 10
615.221770
 20
564.472040
 30
0.0
 11
592.064230
 21
635.490390
 31
0.0
 11
602.155171
 21
635.277780
 31
0.0
 11
608.450489
 21
634.272387
 31
0.0
 11
614.326230
 21
631.934870
 31
0.0
 11
623.533236
 21
626.153842
 31
0.0
 11
631.442344
 21
618.244734
 31
0.0
 11
637.505290
 21
608.755820
 31
0.0
 11
640.168755
 21
602.490411
 31
0.0
 11
641.201955
 21
595.524136
 31
0.0
 11
641.350700
 21
582.828440
 31
0.0
 11
641.107716
 21
572.845696
 31
0.0
 11
640.504164
 21
564.477751
 31
0.0
 11
639.647740
 21
559.217840
 31
0.0
 11
629.760643
 21
543.623594
 31
0.0
 11
614.319541
 21
533.004399
 31
0.0
 11
599.997590
 21
531.949540
 31
0.0
 11
595.769069
 21
537.465290
 31
0.0
 11
597.405125
 21
545.849776
 31
0.0
 11
604.465630
 21
554.847440
 31
0.0
 11
608.236886
 21
558.207418
 31
0.0
 11
612.101128
 21
561.665142
 31
0.0
 11
615.221770
 21
564.472040
 31
0.0
  0
LWPOLYLINE
  5
112
100
AcDbEntity
  8
Image
 62
7
100
AcDbPolyline
 90
3
 70
0
 10
615.221770
 20
564.472040
 30
0.0
 10
619.712630
 20
568.530160
 30
0.0
 10
619.144090
 20
579.362480
 30
0.0
  0
SPLINE
  5
113
100
AcDbEntity
  8
Image
 62
7
100
AcDbSpline
 70
0
 71
3
 72
46
 73
42
 74
40
 40
0.000000
 40
0.000000
 40
0.000000
 40
0.000000
 40
17.322571
 40
31.515324
 40
45.776246
 40
59.820829
 40
75.166752
 40
95.223707
 40
104.280229
 40
113.216839
 40
127.641395
 40
148.131168
 40
167.567134
 40
189.735694
 40
200.800771
 40
215.900647
 40
231.766277
 40
260.621294
 40
286.999858
 40
309.140405
 40
319.179721
 40
325.210404
 40
335.174937
 40
340.149934
 40
343.973997
 40
345.849767
 40
351.417992
 40
364.695330
 40
386.969310
 40
407.668933
 40
417.100309
 40
420.388517
 40
424.149883
 40
432.398139
 40
443.370419
 40
466.311540
 40
476.283082
 40
487.284375
 40
496.022572
 40
506.039337
 40
515.175212
 40
515.175212
 40
515.175212
 40
515.175212
 10
619.144090
 20
579.362480
 30
0.0
 10
618.443705
 20
585.173663
 30
0.0
 10
617.169479
 20
595.746073
 30
0.0
 10
607.282441
 20
608.569901
 30
0.0
 10
593.095100
 20
613.074011
 30
0.0
 10
578.041505
 20
610.167829
 30
0.0
 10
566.171215
 20
597.602001
 30
0.0
 10
560.683463
 20
583.740486
 30
0.0
 10
556.972779
 20
571.571653
 30
0.0
 10
556.036690
 20
560.752066
 30
0.0
 10
556.174132
 20
546.144311
 30
0.0
 10
556.641600
 20
528.011673
 30
0.0
 10
559.554935
 20
507.473860
 30
0.0
 10
563.694850
 20
490.399430
 30
0.0
 10
567.809643
 20
474.823947
 30
0.0
 10
571.328190
 20
461.262565
 30
0.0
 10
576.424389
 20
441.983510
 30
0.0
 10
582.061261
 20
418.968734
 30
0.0
 10
586.525628
 20
393.490813
 30
0.0
 10
589.772356
 20
374.414793
 30
0.0
 10
589.187822
 20
361.187407
 30
0.0
 10
594.897586
 20
353.829756
 30
0.0
 10
602.189483
 20
352.673048
 30
0.0
 10
607.984777
 20
350.471666
 30
0.0
 10
611.406907
 20
349.361331
 30
0.0
 10
614.501818
 20
347.180001
 30
0.0
 10
621.657866
 20
346.113537
 30
0.0
 10
634.897775
 20
350.138521
 30
0.0
 10
652.903779
 20
355.936741
 30
0.0
 10
669.312812
 20
359.441318
 30
0.0
 10
680.415490
 20
365.363706
 30
0.0
 10
685.784239
 20
360.955041
 30
0.0
 10
681.798808
 20
356.167555
 30
0.0
 10
678.724097
 20
349.806670
 30
0.0
 10
670.672290
 20
337.818776
 30
0.0
 10
662.242861
 20
326.348207
 30
0.0
 10
655.654894
 20
312.475430
 30
0.0
 10
658.772381
 20
302.549172
 30
0.0
 10
659.939604
 20
292.780059
 30
0.0
 10
661.106098
 20
283.532660
 30
0.0
 10
661.596146
 20
277.169168
 30
0.0
 10
661.829900
 20
274.133760
 30
0.0
 11
619.144090
 21
579.362480
 31
0.0
 11
615.371404
 21
596.269233
 31
0.0
 11
606.462880
 21
607.317873
 31
0.0
 11
592.943660
 21
611.857100
 31
0.0
 11
579.193638
 21
608.995767
 31
0.0
 11
568.077925
 21
598.415679
 31
0.0
 11
559.683690
 21
580.199800
 31
0.0
 11
557.274000
 21
571.469738
 31
0.0
 11
556.304590
 21
562.585862
 31
0.0
 11
556.187700
 21
548.161780
 31
0.0
 11
557.053577
 21
527.690310
 31
0.0
 11
559.714406
 21
508.437343
 31
0.0
 11
564.664190
 21
486.828440
 31
0.0
 11
567.459505
 21
476.122267
 31
0.0
 11
571.274965
 21
461.512390
 31
0.0
 11
575.284540
 21
446.161770
 31
0.0
 11
581.932243
 21
418.082951
 31
0.0
 11
586.737827
 21
392.145816
 31
0.0
 11
589.365670
 21
370.161770
 31
0.0
 11
590.597944
 21
360.198369
 31
0.0
 11
594.326809
 21
355.458674
 31
0.0
 11
603.666150
 21
351.984680
 31
0.0
 11
608.373222
 21
350.374069
 31
0.0
 11
611.913685
 21
348.928878
 31
0.0
 11
613.521050
 21
347.961980
 31
0.0
 11
618.957114
 21
346.756019
 31
0.0
 11
631.991640
 21
349.283635
 31
0.0
 11
653.327130
 21
355.681060
 31
0.0
 11
673.112799
 21
361.763961
 31
0.0
 11
682.411157
 21
363.342373
 31
0.0
 11
684.730900
 21
361.011900
 31
0.0
 11
683.117043
 21
357.614350
 31
0.0
 11
678.886121
 21
350.533883
 31
0.0
 11
672.954110
 21
341.303380
 31
0.0
 11
660.424234
 21
322.086273
 31
0.0
 11
657.018073
 21
312.714521
 31
0.0
 11
658.607010
 21
301.828580
 31
0.0
 11
659.900025
 21
293.186577
 31
0.0
 11
661.057878
 21
283.236956
 31
0.0
 11
661.829900
 21
274.133760
 31
0.0
  0
LWPOLYLINE
  5
114
100
AcDbEntity
  8
Image
 62
7
100
AcDbPolyline
 90
3
 70
0
 10
661.829900
 20
274.133760
 30
0.0
 10
662.730900
 20
259.657430
 30
0.0
 10
666.887300
 20
258.583990
 30
0.0
  0
SPLINE
  5
115
100
AcDbEntity
  8
Image
 62
7
100
AcDbSpline
 70
0
 71
3
 72
13
 73
9
 74
7
 40
0.000000
 40
0.000000
 40
0.000000
 40
0.000000
 40
5.973127
 40
14.365893
 40
22.293084
 40
24.778884
 40
29.040819
 40
37.389605
 40
37.389605
 40
37.389605
 40
37.389605
 10
666.887300
 20
258.583990
 30
0.0
 10
668.634128
 20
257.622145
 30
0.0
 10
672.835403
 20
255.308825
 30
0.0
 10
678.287176
 20
250.029132
 30
0.0
 10
681.556429
 20
244.761490
 30
0.0
 10
685.013847
 20
241.064942
 30
0.0
 10
690.359578
 20
240.750751
 30
0.0
 10
694.480320
 20
240.519492
 30
0.0
 10
697.208410
 20
240.366390
 30
0.0
 11
666.887300
 21
258.583990
 31
0.0
 11
672.008829
 21
255.510198
 31
0.0
 11
678.095855
 21
249.732082
 31
0.0
 11
682.875070
 21
243.407570
 31
0.0
 11
684.703908
 21
241.723956
 31
0.0
 11
688.873032
 21
240.839371
 31
0.0
 11
697.208410
 21
240.366390
 31
0.0
  0
LWPOLYLINE
  5
116
100
AcDbEntity
  8
Image
 62
7
100
AcDbPolyline
 90
7
 70
0
 10
697.208410
 20
240.366390
 30
0.0
 10
710.064230
 20
239.904350
 30
0.0
 10
710.064230
 20
232.751630
 30
0.0
 10
710.064230
 20
225.598930
 30
0.0
 10
698.506630
 20
225.213670
 30
0.0
 10
686.949030
 20
224.828430
 30
0.0
 10
684.839970
 20
216.854990
 30
0.0
  0
SPLINE
  5
117
100
AcDbEntity
  8
Image
 62
7
100
AcDbSpline
 70
0
 71
3
 72
37
 73
33
 74
31
 40
0.000000
 40
0.000000
 40
0.000000
 40
0.000000
 40
4.189431
 40
7.270824
 40
8.681816
 40
9.809435
 40
11.745759
 40
14.159953
 40
18.653022
 40
21.155654
 40
27.269498
 40
34.503534
 40
38.107762
 40
40.636743
 40
42.193274
 40
43.903078
 40
45.951064
 40
51.623976
 40
57.794323
 40
61.421187
 40
63.203385
 40
65.984115
 40
69.188331
 40
74.326000
 40
77.462075
 40
80.650986
 40
82.446623
 40
84.745283
 40
87.080345
 40
89.650690
 40
92.572348
 40
95.239658
 40
95.239658
 40
95.239658
 40
95.239658
 10
684.839970
 20
216.854990
 30
0.0
 10
684.435040
 20
215.476604
 30
0.0
 10
683.732277
 20
213.084394
 30
0.0
 10
682.784258
 20
210.713527
 30
0.0
 10
681.522672
 20
208.580925
 30
0.0
 10
680.167269
 20
209.882127
 30
0.0
 10
679.199383
 20
211.281758
 30
0.0
 10
677.806729
 20
213.745459
 30
0.0
 10
676.579576
 20
217.922568
 30
0.0
 10
671.706411
 20
215.612338
 30
0.0
 10
671.055353
 20
209.898037
 30
0.0
 10
669.025975
 20
204.956258
 30
0.0
 10
667.052636
 20
200.454125
 30
0.0
 10
664.163937
 20
200.115444
 30
0.0
 10
662.378668
 20
200.980769
 30
0.0
 10
661.321874
 20
202.509876
 30
0.0
 10
660.875593
 20
205.647181
 30
0.0
 10
658.585954
 20
209.913971
 30
0.0
 10
655.492280
 20
213.534923
 30
0.0
 10
650.938689
 20
215.704412
 30
0.0
 10
649.389627
 20
213.065439
 30
0.0
 10
648.053065
 20
210.971984
 30
0.0
 10
646.451428
 20
207.559081
 30
0.0
 10
644.840663
 20
204.196442
 30
0.0
 10
640.628494
 20
201.980468
 30
0.0
 10
638.914039
 20
204.885962
 30
0.0
 10
638.039016
 20
207.047682
 30
0.0
 10
636.807298
 20
208.853618
 30
0.0
 10
635.252266
 20
210.670132
 30
0.0
 10
633.595690
 20
212.692220
 30
0.0
 10
632.128381
 20
214.992302
 30
0.0
 10
631.317310
 20
216.670532
 30
0.0
 10
630.930230
 20
217.471460
 30
0.0
 11
684.839970
 21
216.854990
 31
0.0
 11
683.594907
 21
212.854846
 31
0.0
 11
682.358193
 21
210.032520
 31
0.0
 11
681.397570
 21
208.999030
 31
0.0
 11
680.464591
 21
209.632334
 31
0.0
 11
679.300366
 21
211.179566
 31
0.0
 11
678.156940
 21
213.305810
 31
0.0
 11
675.623631
 21
217.016607
 31
0.0
 11
673.289139
 21
216.114769
 31
0.0
 11
670.881150
 21
210.495100
 31
0.0
 11
668.456670
 21
203.679444
 31
0.0
 11
666.410920
 21
200.712059
 31
0.0
 11
663.904460
 21
200.375310
 31
0.0
 11
662.506880
 21
201.060555
 31
0.0
 11
661.507013
 21
202.447529
 31
0.0
 11
660.983300
 21
204.427420
 31
0.0
 11
658.572427
 21
209.562556
 31
0.0
 11
654.232563
 21
213.948758
 31
0.0
 11
650.709630
 21
214.810780
 31
0.0
 11
649.590375
 21
213.423877
 31
0.0
 11
648.162218
 21
211.037913
 31
0.0
 11
646.734350
 21
208.169430
 31
0.0
 11
643.835147
 21
203.927937
 31
0.0
 11
640.891017
 21
202.847629
 31
0.0
 11
638.805500
 21
205.260050
 31
0.0
 11
638.043195
 21
206.885843
 31
0.0
 11
636.786588
 21
208.810623
 31
0.0
 11
635.307730
 21
210.617690
 31
0.0
 11
633.708316
 21
212.629791
 31
0.0
 11
632.135657
 21
215.092072
 31
0.0
 11
630.930230
 21
217.471460
 31
0.0
  0
LWPOLYLINE
  5
118
100
AcDbEntity
  8
Image
 62
7
100
AcDbPolyline
 90
3
 70
0
 10
630.930230
 20
217.471460
 30
0.0
 10
629.278740
 20
221.399220
 30
0.0
 10
624.987590
 20
218.789620
 30
0.0
  0
SPLINE
  5
119
100
AcDbEntity
  8
Image
 62
7
100
AcDbSpline
 70
0
 71
3
 72
16
 73
12
 74
10
 40
0.000000
 40
0.000000
 40
0.000000
 40
0.000000
 40
3.147863
 40
6.660504
 40
9.867925
 40
12.540752
 40
14.587667
 40
15.630170
 40
17.639392
 40
22.402871
 40
29.415672
 40
29.415672
 40
29.415672
 40
29.415672
 10
624.987590
 20
218.789620
 30
0.0
 10
624.142602
 20
218.164820
 30
0.0
 10
622.354708
 20
216.842818
 30
0.0
 10
620.156561
 20
214.348104
 30
0.0
 10
618.521215
 20
211.697792
 30
0.0
 10
617.315915
 20
209.267439
 30
0.0
 10
616.372265
 20
207.780493
 30
0.0
 10
614.881599
 20
206.268856
 30
0.0
 10
613.623633
 20
209.941921
 30
0.0
 10
613.051481
 20
213.640829
 30
0.0
 10
612.649883
 20
217.727906
 30
0.0
 10
612.410730
 20
220.161770
 30
0.0
 11
624.987590
 21
218.789620
 31
0.0
 11
622.520579
 21
216.834397
 31
0.0
 11
620.177901
 21
214.217050
 31
0.0
 11
618.466730
 21
211.504220
 31
0.0
 11
617.203011
 21
209.149009
 31
0.0
 11
616.033369
 21
207.469187
 31
0.0
 11
615.211030
 21
206.828430
 31
0.0
 11
614.138175
 21
208.527240
 31
0.0
 11
613.159098
 21
213.189014
 31
0.0
 11
612.410730
 21
220.161770
 31
0.0
  0
LWPOLYLINE
  5
11a
100
AcDbEntity
  8
Image
 62
7
100
AcDbPolyline
 90
5
 70
0
 10
612.410730
 20
220.161770
 30
0.0
 10
612.064230
 20
224.828430
 30
0.0
 10
459.885230
 20
225.167390
 30
0.0
 10
307.706230
 20
225.506370
 30
0.0
 10
306.800950
 20
218.260710
 30
0.0
  0
SPLINE
  5
11b
100
AcDbEntity
  8
Image
 62
7
100
AcDbSpline
 70
0
 71
3
 72
58
 73
54
 74
52
 40
0.000000
 40
0.000000
 40
0.000000
 40
0.000000
 40
3.931397
 40
7.256839
 40
9.344789
 40
12.268224
 40
14.810257
 40
17.885427
 40
19.779558
 40
21.800303
 40
23.573476
 40
27.456779
 40
31.691498
 40
34.522899
 40
36.342024
 40
39.484083
 40
43.283502
 40
47.042351
 40
50.090033
 40
51.814987
 40
52.938037
 40
54.346032
 40
55.816002
 40
58.562044
 40
61.390731
 40
64.729748
 40
69.040385
 40
73.926858
 40
77.260526
 40
79.333215
 40
82.827614
 40
87.039187
 40
91.140177
 40
94.101471
 40
95.602951
 40
97.572351
 40
101.226768
 40
105.826192
 40
110.313263
 40
113.672615
 40
115.239743
 40
116.330419
 40
118.357879
 40
120.974654
 40
126.431511
 40
129.736076
 40
136.757904
 40
140.268402
 40
142.639798
 40
144.690610
 40
153.899870
 40
177.998546
 40
217.055917
 40
217.055917
 40
217.055917
 40
217.055917
 10
306.800950
 20
218.260710
 30
0.0
 10
306.593247
 20
216.963791
 30
0.0
 10
306.209856
 20
214.569850
 30
0.0
 10
305.307750
 20
211.597446
 30
0.0
 10
304.050358
 20
209.035787
 30
0.0
 10
301.353085
 20
207.988991
 30
0.0
 10
298.506993
 20
209.488571
 30
0.0
 10
298.063049
 20
212.162017
 30
0.0
 10
297.910648
 20
214.463976
 30
0.0
 10
297.305157
 20
216.273737
 30
0.0
 10
296.190249
 20
218.641869
 30
0.0
 10
292.990031
 20
220.143653
 30
0.0
 10
289.371407
 20
220.919996
 30
0.0
 10
286.363989
 20
219.568222
 30
0.0
 10
285.374468
 20
217.083883
 30
0.0
 10
283.499254
 20
214.832753
 30
0.0
 10
281.291725
 20
212.034512
 30
0.0
 10
279.099806
 20
209.262772
 30
0.0
 10
277.489056
 20
206.904420
 30
0.0
 10
276.725341
 20
205.077729
 30
0.0
 10
276.514296
 20
203.654386
 30
0.0
 10
275.741004
 20
202.531224
 30
0.0
 10
274.534217
 20
201.090966
 30
0.0
 10
271.962367
 20
200.349966
 30
0.0
 10
269.235569
 20
202.364171
 30
0.0
 10
268.803647
 20
205.949218
 30
0.0
 10
267.316686
 20
209.956364
 30
0.0
 10
264.602629
 20
212.947083
 30
0.0
 10
260.917017
 20
214.927220
 30
0.0
 10
258.682813
 20
212.508273
 30
0.0
 10
256.591885
 20
210.162749
 30
0.0
 10
254.380602
 20
206.863823
 30
0.0
 10
252.143723
 20
203.789847
 30
0.0
 10
250.379808
 20
201.704885
 30
0.0
 10
248.115729
 20
200.527532
 30
0.0
 10
246.673256
 20
203.082191
 30
0.0
 10
244.880854
 20
205.649893
 30
0.0
 10
242.998834
 20
209.537026
 30
0.0
 10
241.107649
 20
213.391853
 30
0.0
 10
239.586327
 20
215.671977
 30
0.0
 10
238.154096
 20
217.929648
 30
0.0
 10
236.783189
 20
216.577787
 30
0.0
 10
235.848495
 20
215.035986
 30
0.0
 10
234.454538
 20
212.144943
 30
0.0
 10
232.486689
 20
207.152729
 30
0.0
 10
226.874611
 20
210.870177
 30
0.0
 10
227.514827
 20
215.950205
 30
0.0
 10
227.340846
 20
220.160742
 30
0.0
 10
226.598467
 20
222.817536
 30
0.0
 10
222.870370
 20
225.790361
 30
0.0
 10
210.182297
 20
223.805334
 30
0.0
 10
186.808338
 20
226.031448
 30
0.0
 10
165.586862
 20
225.501453
 30
0.0
 10
152.462940
 20
225.173690
 30
0.0
 11
306.800950
 21
218.260710
 31
0.0
 11
306.084760
 21
214.395098
 31
0.0
 11
305.077387
 21
211.225909
 31
0.0
 11
303.996930
 21
209.439250
 31
0.0
 11
301.254187
 21
208.427405
 31
0.0
 11
299.000020
 21
209.602422
 31
0.0
 11
298.064230
 21
212.531750
 31
0.0
 11
297.835835
 21
214.412061
 31
0.0
 11
297.237071
 21
216.342059
 31
0.0
 11
296.397570
 21
217.903910
 31
0.0
 11
293.090831
 21
219.939966
 31
0.0
 11
288.887359
 21
220.453451
 31
0.0
 11
286.385940
 21
219.126900
 31
0.0
 11
285.484381
 21
217.546898
 31
0.0
 11
283.650979
 21
214.995199
 31
0.0
 11
281.282660
 21
212.024230
 31
0.0
 11
278.989921
 21
209.045591
 31
0.0
 11
277.354659
 21
206.473766
 31
0.0
 11
276.730900
 21
204.865540
 31
0.0
 11
276.456826
 21
203.776447
 31
0.0
 11
275.738307
 21
202.565587
 31
0.0
 11
274.730900
 21
201.495100
 31
0.0
 11
272.072571
 21
200.806597
 31
0.0
 11
269.735069
 21
202.399567
 31
0.0
 11
268.730900
 21
205.584010
 31
0.0
 11
267.187038
 21
209.608693
 31
0.0
 11
263.855325
 21
213.183230
 31
0.0
 11
260.685570
 21
214.215700
 31
0.0
 11
259.068377
 21
212.919272
 31
0.0
 11
256.787289
 21
210.272111
 31
0.0
 11
254.336150
 21
206.847310
 31
0.0
 11
251.899586
 21
203.548631
 31
0.0
 11
249.792200
 21
201.468202
 31
0.0
 11
248.377570
 21
200.964950
 31
0.0
 11
247.033080
 21
202.404006
 31
0.0
 11
245.091214
 21
205.499797
 31
0.0
 11
242.972370
 21
209.582100
 31
0.0
 11
240.911510
 21
213.567907
 31
0.0
 11
239.121640
 21
216.410726
 31
0.0
 11
237.990260
 21
217.495100
 31
0.0
 11
237.106741
 21
216.855594
 31
0.0
 11
235.966656
 21
215.179050
 31
0.0
 11
234.816830
 21
212.828430
 31
0.0
 11
231.493776
 21
208.500082
 31
0.0
 11
228.621311
 21
210.133818
 31
0.0
 11
227.397570
 21
217.048190
 31
0.0
 11
227.157661
 21
220.550480
 31
0.0
 11
226.339686
 21
222.776337
 31
0.0
 11
224.796270
 21
224.126780
 31
0.0
 11
215.616444
 21
224.862494
 31
0.0
 11
191.520292
 21
225.211249
 31
0.0
 11
152.462940
 21
225.173690
 31
0.0
  0
LWPOLYLINE
  5
11c
100
AcDbEntity
  8
Image
 62
7
100
AcDbPolyline
 90
3
 70
0
 10
152.462940
 20
225.173690
 30
0.0
 10
82.730900
 20
224.828430
 30
0.0
 10
82.334330
 20
217.272550
 30
0.0
  0
SPLINE
  5
11d
100
AcDbEntity
  8
Image
 62
7
100
AcDbSpline
 70
0
 71
3
 72
31
 73
27
 74
25
 40
0.000000
 40
0.000000
 40
0.000000
 40
0.000000
 40
6.463987
 40
10.435084
 40
13.589951
 40
15.049280
 40
17.030679
 40
19.645602
 40
22.453401
 40
24.600425
 40
26.541853
 40
30.345826
 40
33.483325
 40
35.323556
 40
37.261605
 40
41.042070
 40
45.870735
 40
53.418430
 40
57.512202
 40
60.676382
 40
71.066029
 40
75.448133
 40
85.380962
 40
89.272184
 40
91.964479
 40
94.703499
 40
94.703499
 40
94.703499
 40
94.703499
 10
82.334330
 20
217.272550
 30
0.0
 10
82.156544
 20
215.158915
 30
0.0
 10
81.869537
 20
211.746787
 30
0.0
 10
79.927080
 20
207.147077
 30
0.0
 10
76.442665
 20
206.766288
 30
0.0
 10
74.764702
 20
208.348106
 30
0.0
 10
74.174258
 20
210.342022
 30
0.0
 10
74.053019
 20
212.801270
 30
0.0
 10
73.977412
 20
215.330314
 30
0.0
 10
73.144138
 20
217.562397
 30
0.0
 10
71.016314
 20
219.278221
 30
0.0
 10
68.171344
 20
219.966756
 30
0.0
 10
65.008756
 20
220.483398
 30
0.0
 10
63.203546
 20
218.720693
 30
0.0
 10
62.651443
 20
216.223972
 30
0.0
 10
60.698695
 20
213.263567
 30
0.0
 10
57.934372
 20
208.542853
 30
0.0
 10
55.098876
 20
204.443541
 30
0.0
 10
50.227503
 20
200.450951
 30
0.0
 10
45.976939
 20
206.041199
 30
0.0
 10
46.702482
 20
213.569326
 30
0.0
 10
36.458764
 20
214.449723
 30
0.0
 10
35.555653
 20
206.418717
 30
0.0
 10
33.248115
 20
201.620325
 30
0.0
 10
30.052485
 20
199.795977
 30
0.0
 10
28.549897
 20
201.109060
 30
0.0
 10
27.792140
 20
201.771250
 30
0.0
 11
82.334330
 21
217.272550
 31
0.0
 11
81.338782
 21
210.885688
 31
0.0
 11
79.228565
 21
207.521672
 31
0.0
 11
76.081210
 21
207.304090
 31
0.0
 11
74.994636
 21
208.278254
 31
0.0
 11
74.305324
 21
210.135886
 31
0.0
 11
74.064230
 21
212.739670
 31
0.0
 11
73.794449
 21
215.534478
 31
0.0
 11
72.951554
 21
217.509129
 31
0.0
 11
71.485220
 21
218.781530
 31
0.0
 11
67.874800
 21
219.979474
 31
0.0
 11
64.737557
 21
219.939323
 31
0.0
 11
63.397570
 21
218.678020
 31
0.0
 11
62.712385
 21
216.865134
 31
0.0
 11
60.916089
 21
213.538689
 31
0.0
 11
58.397570
 21
209.418850
 31
0.0
 11
53.736646
 21
203.482229
 31
0.0
 11
50.125221
 21
201.554385
 31
0.0
 11
47.925050
 21
203.828430
 31
0.0
 11
43.619846
 21
213.284116
 31
0.0
 11
39.250054
 21
213.612371
 31
0.0
 11
34.612870
 21
204.828430
 31
0.0
 11
32.613557
 21
201.490114
 31
0.0
 11
30.156760
 21
200.388932
 31
0.0
 11
27.792140
 21
201.771250
 31
0.0
  0
LWPOLYLINE
  5
11e
100
AcDbEntity
  8
Image
 62
7
100
AcDbPolyline
 90
1
 70
1
 10
27.792140
 20
201.771250
 30
0.0
  0
SPLINE
  5
11f
100
AcDbEntity
  8
Image
 62
7
100
AcDbSpline
 70
0
 71
3
 72
25
 73
21
 74
19
 40
0.000000
 40
0.000000
 40
0.000000
 40
0.000000
 40
5.001730
 40
9.319418
 40
12.679999
 40
17.160490
 40
23.245411
 40
27.445542
 40
30.426931
 40
33.474005
 40
37.200540
 40
40.289746
 40
42.349456
 40
45.470245
 40
47.526874
 40
50.752565
 40
56.023568
 40
65.704700
 40
73.428897
 40
81.895668
 40
81.895668
 40
81.895668
 40
81.895668
 10
93.674100
 20
241.558890
 30
0.0
 10
95.139225
 20
242.316577
 30
0.0
 10
97.869103
 20
243.728330
 30
0.0
 10
100.785015
 20
247.547359
 30
0.0
 10
99.357802
 20
251.591711
 30
0.0
 10
98.976628
 20
256.312976
 30
0.0
 10
100.888409
 20
260.773259
 30
0.0
 10
104.074260
 20
264.871844
 30
0.0
 10
107.777933
 20
263.507359
 30
0.0
 10
109.761382
 20
260.764029
 30
0.0
 10
110.102197
 20
257.549322
 30
0.0
 10
110.147572
 20
254.163508
 30
0.0
 10
113.265570
 20
253.096939
 30
0.0
 10
115.293739
 20
255.031483
 30
0.0
 10
116.396836
 20
257.615988
 30
0.0
 10
116.106417
 20
261.230840
 30
0.0
 10
115.170602
 20
267.157700
 30
0.0
 10
113.624759
 20
274.615084
 30
0.0
 10
109.752012
 20
282.483567
 30
0.0
 10
105.854121
 20
286.268945
 30
0.0
 10
103.815790
 20
288.248440
 30
0.0
 11
93.674100
 21
241.558890
 31
0.0
 11
97.900458
 21
244.233811
 31
0.0
 11
100.161782
 21
247.911969
 31
0.0
 11
99.618900
 21
251.228410
 31
0.0
 11
99.318561
 21
255.698823
 31
0.0
 11
101.530849
 21
261.367337
 31
0.0
 11
104.666490
 21
264.161770
 31
0.0
 11
107.520060
 21
263.298162
 31
0.0
 11
109.391894
 21
260.893811
 31
0.0
 11
110.064230
 21
257.228430
 31
0.0
 11
110.842177
 21
254.238782
 31
0.0
 11
112.786236
 21
253.558311
 31
0.0
 11
115.311730
 21
255.391670
 31
0.0
 11
116.116221
 21
257.284424
 31
0.0
 11
116.133359
 21
260.510069
 31
0.0
 11
115.366630
 21
265.725010
 31
0.0
 11
113.052394
 21
275.125469
 31
0.0
 11
109.527626
 21
281.998548
 31
0.0
 11
103.815790
 21
288.248440
 31
0.0
  0
LWPOLYLINE
  5
120
100
AcDbEntity
  8
Image
 62
7
100
AcDbPolyline
 90
3
 70
0
 10
103.815790
 20
288.248440
 30
0.0
 10
97.820950
 20
293.774290
 30
0.0
 10
88.270040
 20
293.291980
 30
0.0
  0
SPLINE
  5
121
100
AcDbEntity
  8
Image
 62
7
100
AcDbSpline
 70
0
 71
3
 72
25
 73
21
 74
19
 40
0.000000
 40
0.000000
 40
0.000000
 40
0.000000
 40
9.778414
 40
17.797590
 40
27.521060
 40
32.803954
 40
37.319876
 40
42.112615
 40
47.060226
 40
49.985789
 40
54.258521
 40
57.727587
 40
61.137783
 40
63.823991
 40
66.314615
 40
69.111777
 40
71.609907
 40
75.862955
 40
80.998481
 40
87.687818
 40
87.687818
 40
87.687818
 40
87.687818
 10
88.270040
 20
293.291980
 30
0.0
 10
84.978172
 20
293.056188
 30
0.0
 10
78.986677
 20
292.627026
 30
0.0
 10
70.855824
 20
287.629261
 30
0.0
 10
66.678787
 20
281.027826
 30
0.0
 10
63.637949
 20
275.285357
 30
0.0
 10
62.217629
 20
270.565764
 30
0.0
 10
62.128887
 20
265.817077
 30
0.0
 10
61.764848
 20
261.527587
 30
0.0
 10
63.715533
 20
257.687513
 30
0.0
 10
67.232812
 20
256.406308
 30
0.0
 10
70.343666
 20
254.413924
 30
0.0
 10
72.855179
 20
252.422656
 30
0.0
 10
74.752890
 20
250.250382
 30
0.0
 10
76.030544
 20
247.911192
 30
0.0
 10
77.447273
 20
245.735587
 30
0.0
 10
78.928287
 20
242.915782
 30
0.0
 10
82.129315
 20
240.190559
 30
0.0
 10
87.746939
 20
239.843381
 30
0.0
 10
91.532573
 20
240.939062
 30
0.0
 10
93.674110
 20
241.558890
 30
0.0
 11
88.270040
 21
293.291980
 31
0.0
 11
78.615811
 21
291.738521
 31
0.0
 11
71.772646
 21
287.557819
 31
0.0
 11
66.034810
 21
279.707780
 31
0.0
 11
63.684886
 21
274.976307
 31
0.0
 11
62.444187
 21
270.634163
 31
0.0
 11
62.076750
 21
265.855530
 31
0.0
 11
62.295435
 21
260.912754
 31
0.0
 11
63.700258
 21
258.346552
 31
0.0
 11
67.378070
 21
256.171710
 31
0.0
 11
70.331415
 21
254.351773
 31
0.0
 11
72.965985
 21
252.186483
 31
0.0
 11
74.711410
 21
250.144620
 31
0.0
 11
76.006923
 21
248.017450
 31
0.0
 11
77.462007
 21
245.628550
 31
0.0
 11
78.761640
 21
243.495100
 31
0.0
 11
82.046003
 21
240.792993
 31
0.0
 11
87.138781
 21
240.131757
 31
0.0
 11
93.674110
 21
241.558890
 31
0.0
  0
LWPOLYLINE
  5
122
100
AcDbEntity
  8
Image
 62
7
100
AcDbPolyline
 90
1
 70
1
 10
93.674110
 20
241.558890
 30
0.0
  0
SPLINE
  5
123
100
AcDbEntity
  8
Image
 62
7
100
AcDbSpline
 70
0
 71
3
 72
10
 73
6
 74
4
 40
0.000000
 40
0.000000
 40
0.000000
 40
0.000000
 40
0.984982
 40
3.613034
 40
8.498041
 40
8.498041
 40
8.498041
 40
8.498041
 10
510.064230
 20
241.927090
 30
0.0
 10
510.262885
 20
242.218247
 30
0.0
 10
510.991577
 20
243.286248
 30
0.0
 10
508.353952
 20
245.744694
 30
0.0
 10
506.895487
 20
247.551022
 30
0.0
 10
505.947190
 20
248.725500
 30
0.0
 11
510.064230
 21
241.927090
 31
0.0
 11
510.522694
 21
242.798870
 31
0.0
 11
509.161340
 21
245.046840
 31
0.0
 11
505.947190
 21
248.725500
 31
0.0
  0
LWPOLYLINE
  5
124
100
AcDbEntity
  8
Image
 62
7
100
AcDbPolyline
 90
3
 70
0
 10
505.947190
 20
248.725500
 30
0.0
 10
499.830150
 20
255.226500
 30
0.0
 10
493.305500
 20
253.003330
 30
0.0
  0
SPLINE
  5
125
100
AcDbEntity
  8
Image
 62
7
100
AcDbSpline
 70
0
 71
3
 72
13
 73
9
 74
7
 40
0.000000
 40
0.000000
 40
0.000000
 40
0.000000
 40
9.024228
 40
18.704398
 40
23.682835
 40
32.258937
 40
49.124980
 40
61.039591
 40
61.039591
 40
61.039591
 40
61.039591
 10
493.305500
 20
253.003330
 30
0.0
 10
490.453991
 20
251.781309
 30
0.0
 10
484.543705
 20
249.248442
 30
0.0
 10
478.719255
 20
246.084754
 30
0.0
 10
469.531833
 20
239.940256
 30
0.0
 10
487.057778
 20
241.954938
 30
0.0
 10
495.886883
 20
240.970606
 30
0.0
 10
505.913438
 20
241.647054
 30
0.0
 10
510.064230
 20
241.927090
 30
0.0
 11
493.305500
 21
253.003330
 31
0.0
 11
485.055953
 21
249.345234
 31
0.0
 11
476.607360
 21
244.620093
 31
0.0
 11
472.730900
 21
241.496330
 31
0.0
 11
481.299525
 21
241.138289
 31
0.0
 11
498.164445
 21
241.332878
 31
0.0
 11
510.064230
 21
241.927090
 31
0.0
  0
LWPOLYLINE
  5
126
100
AcDbEntity
  8
Image
 62
7
100
AcDbPolyline
 90
1
 70
1
 10
510.064230
 20
241.927090
 30
0.0
  0
SPLINE
  5
127
100
AcDbEntity
  8
Image
 62
7
100
AcDbSpline
 70
0
 71
3
 72
31
 73
27
 74
25
 40
0.000000
 40
0.000000
 40
0.000000
 40
0.000000
 40
6.645074
 40
12.853983
 40
19.588144
 40
26.961499
 40
31.856516
 40
33.909433
 40
36.013493
 40
40.287952
 40
45.819475
 40
58.805297
 40
72.836000
 40
81.228102
 40
82.446002
 40
84.097243
 40
85.867145
 40
88.062678
 40
89.978108
 40
94.366794
 40
103.086815
 40
112.074052
 40
123.240085
 40
130.587689
 40
134.940109
 40
140.173655
 40
140.173655
 40
140.173655
 40
140.173655
 10
403.319350
 20
247.583060
 30
0.0
 10
404.890035
 20
249.163537
 30
0.0
 10
407.928311
 20
252.220754
 30
0.0
 10
410.724750
 20
258.285833
 30
0.0
 10
411.659415
 20
264.999794
 30
0.0
 10
411.557303
 20
271.515304
 30
0.0
 10
411.617238
 20
275.894840
 30
0.0
 10
410.229521
 20
279.466703
 30
0.0
 10
407.181659
 20
277.653466
 30
0.0
 10
403.731928
 20
276.581905
 30
0.0
 10
396.741386
 20
273.099721
 30
0.0
 10
386.730571
 20
269.216505
 30
0.0
 10
375.577298
 20
265.218684
 30
0.0
 10
367.947884
 20
263.219431
 30
0.0
 10
364.238291
 20
262.598566
 30
0.0
 10
362.811878
 20
261.915472
 30
0.0
 10
361.314157
 20
260.926586
 30
0.0
 10
359.364202
 20
259.714649
 30
0.0
 10
360.242190
 20
256.602174
 30
0.0
 10
363.143179
 20
252.735263
 30
0.0
 10
367.996940
 20
246.862764
 30
0.0
 10
377.264580
 20
243.239469
 30
0.0
 10
386.456612
 20
242.857323
 30
0.0
 10
394.079640
 20
242.625236
 30
0.0
 10
399.700806
 20
244.093286
 30
0.0
 10
402.041452
 20
246.350638
 30
0.0
 10
403.319350
 20
247.583060
 30
0.0
 11
403.319350
 21
247.583060
 31
0.0
 11
407.709842
 21
252.571104
 31
0.0
 11
410.361578
 21
258.185269
 31
0.0
 11
411.464850
 21
264.828440
 31
0.0
 11
411.586344
 21
272.200794
 31
0.0
 11
411.086000
 21
277.070173
 31
0.0
 11
410.026300
 21
278.828440
 31
0.0
 11
408.016093
 21
278.207041
 31
0.0
 11
404.064241
 21
276.577972
 31
0.0
 11
399.026300
 21
274.293920
 31
0.0
 11
387.005650
 21
269.381126
 31
0.0
 11
373.733290
 21
264.830841
 31
0.0
 11
365.583580
 21
262.828440
 31
0.0
 11
364.392377
 21
262.574836
 31
0.0
 11
362.880899
 21
261.909981
 31
0.0
 11
361.376370
 21
260.977810
 31
0.0
 11
359.781243
 21
259.469189
 31
0.0
 11
360.038967
 21
257.571177
 31
0.0
 11
362.345900
 21
253.837730
 31
0.0
 11
368.373283
 21
247.536189
 31
0.0
 11
376.618417
 21
243.960131
 31
0.0
 11
387.727060
 21
242.829490
 31
0.0
 11
395.071599
 21
243.041704
 31
0.0
 11
399.234844
 21
244.310933
 31
0.0
 11
403.319350
 21
247.583060
 31
0.0
  0
LWPOLYLINE
  5
128
100
AcDbEntity
  8
Image
 62
7
100
AcDbPolyline
 90
1
 70
1
 10
403.319350
 20
247.583060
 30
0.0
  0
SPLINE
  5
129
100
AcDbEntity
  8
Image
 62
7
100
AcDbSpline
 70
0
 71
3
 72
16
 73
12
 74
10
 40
0.000000
 40
0.000000
 40
0.000000
 40
0.000000
 40
4.799149
 40
9.310151
 40
13.224928
 40
16.922441
 40
21.399844
 40
25.972676
 40
29.018191
 40
31.684919
 40
35.662419
 40
35.662419
 40
35.662419
 40
35.662419
 10
370.322650
 20
248.926180
 30
0.0
 10
369.252923
 20
250.171714
 30
0.0
 10
367.177697
 20
252.587998
 30
0.0
 10
367.249294
 20
257.454533
 30
0.0
 10
370.804836
 20
260.711350
 30
0.0
 10
375.019570
 20
258.797285
 30
0.0
 10
377.407331
 20
255.186061
 30
0.0
 10
378.254465
 20
251.164459
 30
0.0
 10
376.997464
 20
247.479406
 30
0.0
 10
373.336077
 20
246.913298
 30
0.0
 10
371.451083
 20
248.172420
 30
0.0
 10
370.322650
 20
248.926180
 30
0.0
 11
370.322650
 21
248.926180
 31
0.0
 11
367.678280
 21
252.931069
 31
0.0
 11
367.947754
 21
257.434015
 31
0.0
 11
370.979970
 21
259.910130
 31
0.0
 11
374.477904
 21
258.711776
 31
0.0
 11
377.129686
 21
255.104117
 31
0.0
 11
377.833740
 21
250.585810
 31
0.0
 11
376.536069
 21
247.830596
 31
0.0
 11
373.932147
 21
247.255241
 31
0.0
 11
370.322650
 21
248.926180
 31
0.0
  0
SPLINE
  5
12a
100
AcDbEntity
  8
Image
 62
7
100
AcDbSpline
 70
0
 71
3
 72
22
 73
18
 74
16
 40
0.000000
 40
0.000000
 40
0.000000
 40
0.000000
 40
12.945612
 40
25.626142
 40
39.681530
 40
49.172426
 40
55.707604
 40
65.056325
 40
77.022844
 40
90.846631
 40
98.863877
 40
101.099614
 40
105.300021
 40
110.587785
 40
117.794816
 40
121.884895
 40
126.954116
 40
126.954116
 40
126.954116
 40
126.954116
 10
322.139260
 20
246.969090
 30
0.0
 10
326.279004
 20
248.533771
 30
0.0
 10
334.473725
 20
251.631093
 30
0.0
 10
341.538825
 20
264.105568
 30
0.0
 10
341.137295
 20
276.265767
 30
0.0
 10
339.309229
 20
286.540919
 30
0.0
 10
332.352865
 20
292.426934
 30
0.0
 10
322.674774
 20
292.302373
 30
0.0
 10
310.891634
 20
290.839920
 30
0.0
 10
301.137680
 20
287.311257
 30
0.0
 10
291.244058
 20
285.899867
 30
0.0
 10
290.478142
 20
280.867380
 30
0.0
 10
290.156377
 20
277.048317
 30
0.0
 10
290.117658
 20
271.450050
 30
0.0
 10
289.801572
 20
265.928932
 30
0.0
 10
291.375788
 20
260.491777
 30
0.0
 10
293.750142
 20
258.461287
 30
0.0
 10
295.064230
 20
257.337510
 30
0.0
 11
322.139260
 21
246.969090
 31
0.0
 11
333.631582
 21
252.928570
 31
0.0
 11
340.156575
 21
263.801486
 31
0.0
 11
340.669830
 21
277.847500
 31
0.0
 11
337.930305
 21
286.934420
 31
0.0
 11
332.926938
 21
291.138570
 31
0.0
 11
323.634380
 21
292.161770
 31
0.0
 11
311.774365
 21
290.568773
 31
0.0
 11
298.391428
 21
287.105527
 31
0.0
 11
291.112180
 21
283.745650
 31
0.0
 11
290.602094
 21
281.568879
 31
0.0
 11
290.232942
 21
277.384725
 31
0.0
 11
290.084650
 21
272.099040
 31
0.0
 11
290.272034
 21
264.894446
 31
0.0
 11
291.579392
 21
261.018938
 31
0.0
 11
295.064230
 21
257.337510
 31
0.0
  0
LWPOLYLINE
  5
12b
100
AcDbEntity
  8
Image
 62
7
100
AcDbPolyline
 90
1
 70
1
 10
370.322650
 20
248.926180
 30
0.0
  0
SPLINE
  5
12c
100
AcDbEntity
  8
Image
 62
7
100
AcDbSpline
 70
0
 71
3
 72
10
 73
6
 74
4
 40
0.000000
 40
0.000000
 40
0.000000
 40
0.000000
 40
13.497029
 40
21.321142
 40
30.988634
 40
30.988634
 40
30.988634
 40
30.988634
 10
295.064230
 20
257.337510
 30
0.0
 10
298.212755
 20
254.105737
 30
0.0
 10
303.186453
 20
249.000532
 30
0.0
 10
313.102804
 20
244.629733
 30
0.0
 10
318.922663
 20
246.136378
 30
0.0
 10
322.139260
 20
246.969090
 30
0.0
 11
295.064230
 21
257.337510
 31
0.0
 11
305.250784
 21
248.482912
 31
0.0
 11
312.557452
 21
245.684814
 31
0.0
 11
322.139260
 21
246.969090
 31
0.0
  0
LWPOLYLINE
  5
12d
100
AcDbEntity
  8
Image
 62
7
100
AcDbPolyline
 90
1
 70
1
 10
322.139260
 20
246.969090
 30
0.0
  0
SPLINE
  5
12e
100
AcDbEntity
  8
Image
 62
7
100
AcDbSpline
 70
0
 71
3
 72
16
 73
12
 74
10
 40
0.000000
 40
0.000000
 40
0.000000
 40
0.000000
 40
4.922181
 40
12.290288
 40
18.097221
 40
21.132874
 40
25.310096
 40
29.366884
 40
33.975131
 40
39.055075
 40
44.364659
 40
44.364659
 40
44.364659
 40
44.364659
 10
303.730900
 20
255.711470
 30
0.0
 10
303.031497
 20
257.281272
 30
0.0
 10
301.285143
 20
261.200941
 30
0.0
 10
304.091043
 20
266.739805
 30
0.0
 10
308.492974
 20
271.992487
 30
0.0
 10
312.619912
 20
269.171094
 30
0.0
 10
314.471862
 20
266.014920
 30
0.0
 10
315.994229
 20
261.753928
 30
0.0
 10
313.778762
 20
257.220925
 30
0.0
 10
308.995225
 20
254.743044
 30
0.0
 10
305.511343
 20
255.383939
 30
0.0
 10
303.730900
 20
255.711470
 30
0.0
 11
303.730900
 21
255.711470
 31
0.0
 11
302.218439
 21
260.395520
 31
0.0
 11
304.813141
 21
267.291643
 31
0.0
 11
309.418740
 21
270.828440
 31
0.0
 11
312.063047
 21
269.337524
 31
0.0
 11
314.394623
 21
265.871556
 31
0.0
 11
315.397570
 21
261.940700
 31
0.0
 11
313.508978
 21
257.737230
 31
0.0
 11
309.027792
 21
255.344573
 31
0.0
 11
303.730900
 21
255.711470
 31
0.0
  0
LWPOLYLINE
  5
12f
100
AcDbEntity
  8
Image
 62
7
100
AcDbPolyline
 90
1
 70
1
 10
303.730900
 20
255.711470
 30
0.0
  0
LWPOLYLINE
  5
130
100
AcDbEntity
  8
Image
 62
7
100
AcDbPolyline
 90
1
 70
1
 10
577.346430
 20
249.959500
 30
0.0
  0
SPLINE
  5
131
100
AcDbEntity
  8
Image
 62
7
100
AcDbSpline
 70
0
 71
3
 72
16
 73
12
 74
10
 40
0.000000
 40
0.000000
 40
0.000000
 40
0.000000
 40
2.912382
 40
5.234937
 40
9.531128
 40
13.148439
 40
15.207172
 40
18.307934
 40
20.784432
 40
23.027426
 40
26.121437
 40
26.121437
 40
26.121437
 40
26.121437
 10
577.346430
 20
249.959500
 30
0.0
 10
578.235798
 20
250.731191
 30
0.0
 10
579.834415
 20
252.118287
 30
0.0
 10
576.993223
 20
254.976623
 30
0.0
 10
573.625709
 20
254.731236
 30
0.0
 10
569.987990
 20
254.977316
 30
0.0
 10
568.082789
 20
252.015796
 30
0.0
 10
570.191650
 20
249.813743
 30
0.0
 10
572.200995
 20
248.139436
 30
0.0
 10
575.030284
 20
248.318033
 30
0.0
 10
576.496452
 20
249.357115
 30
0.0
 10
577.346430
 20
249.959500
 30
0.0
 11
577.346430
 21
249.959500
 31
0.0
 11
579.036752
 21
252.331162
 31
0.0
 11
577.556381
 21
254.120788
 31
0.0
 11
573.318870
 21
254.828430
 31
0.0
 11
569.759964
 21
254.181025
 31
0.0
 11
568.714172
 21
252.407695
 31
0.0
 11
570.330900
 21
249.761770
 31
0.0
 11
572.397650
 21
248.397371
 31
0.0
 11
574.639753
 21
248.460566
 31
0.0
 11
577.346430
 21
249.959500
 31
0.0
  0
LWPOLYLINE
  5
132
100
AcDbEntity
  8
Image
 62
7
100
AcDbPolyline
 90
3
 70
0
 10
626.520910
 20
256.302210
 30
0.0
 10
634.730900
 20
264.442660
 30
0.0
 10
634.485810
 20
271.968880
 30
0.0
  0
SPLINE
  5
133
100
AcDbEntity
  8
Image
 62
7
100
AcDbSpline
 70
0
 71
3
 72
43
 73
39
 74
37
 40
0.000000
 40
0.000000
 40
0.000000
 40
0.000000
 40
17.804398
 40
32.405834
 40
47.710608
 40
53.486977
 40
57.522049
 40
63.951317
 40
69.431840
 40
74.406730
 40
78.699416
 40
84.964895
 40
87.086007
 40
89.352983
 40
92.083934
 40
94.712251
 40
100.207255
 40
103.950711
 40
105.848386
 40
108.282352
 40
111.765178
 40
114.673609
 40
117.632527
 40
119.736322
 40
120.998251
 40
123.371292
 40
125.280372
 40
127.893087
 40
131.001116
 40
137.972772
 40
145.785677
 40
154.170860
 40
157.353916
 40
159.716523
 40
160.754131
 40
162.508535
 40
166.779334
 40
172.647148
 40
172.647148
 40
172.647148
 40
172.647148
 10
634.485810
 20
271.968880
 30
0.0
 10
633.859215
 20
277.957573
 30
0.0
 10
632.718749
 20
288.857609
 30
0.0
 10
621.697527
 20
302.121206
 30
0.0
 10
609.454665
 20
304.103844
 30
0.0
 10
600.962596
 20
304.433573
 30
0.0
 10
595.933728
 20
301.971467
 30
0.0
 10
592.570465
 20
297.756808
 30
0.0
 10
588.945111
 20
293.455785
 30
0.0
 10
586.368831
 20
289.280464
 30
0.0
 10
584.625005
 20
284.171355
 30
0.0
 10
583.592760
 20
280.935719
 30
0.0
 10
583.418015
 20
275.828238
 30
0.0
 10
586.050736
 20
278.142657
 30
0.0
 10
587.997338
 20
279.849471
 30
0.0
 10
591.547729
 20
277.487482
 30
0.0
 10
593.342548
 20
274.125579
 30
0.0
 10
595.838846
 20
271.303489
 30
0.0
 10
596.389950
 20
268.409708
 30
0.0
 10
594.344398
 20
266.432254
 30
0.0
 10
592.212195
 20
264.457910
 30
0.0
 10
588.780756
 20
263.998727
 30
0.0
 10
586.674602
 20
265.351162
 30
0.0
 10
584.654117
 20
267.314018
 30
0.0
 10
583.245652
 20
265.285000
 30
0.0
 10
584.542530
 20
263.484466
 30
0.0
 10
586.433728
 20
262.259972
 30
0.0
 10
588.961406
 20
261.610944
 30
0.0
 10
593.175546
 20
261.449618
 30
0.0
 10
599.142553
 20
260.607827
 30
0.0
 10
606.243006
 20
257.300459
 30
0.0
 10
611.439431
 20
253.511975
 30
0.0
 10
614.937740
 20
250.314056
 30
0.0
 10
616.592115
 20
249.114787
 30
0.0
 10
618.074680
 20
247.728776
 30
0.0
 10
619.844775
 20
250.287517
 30
0.0
 10
622.714598
 20
252.345291
 30
0.0
 10
625.125550
 20
254.851639
 30
0.0
 10
626.520910
 20
256.302210
 30
0.0
 11
634.485810
 21
271.968880
 31
0.0
 11
630.690614
 21
289.364083
 31
0.0
 11
621.060813
 21
300.339914
 31
0.0
 11
606.240910
 21
304.161770
 31
0.0
 11
600.470648
 21
303.896228
 31
0.0
 11
596.828675
 21
302.159035
 31
0.0
 11
592.357220
 21
297.539340
 31
0.0
 11
588.951534
 21
293.245457
 31
0.0
 11
586.416356
 21
288.964990
 31
0.0
 11
584.900330
 21
284.948920
 31
0.0
 11
583.559657
 21
278.828559
 31
0.0
 11
583.816396
 21
276.723041
 31
0.0
 11
585.761350
 21
277.887660
 31
0.0
 11
588.123518
 21
279.258154
 31
0.0
 11
590.460506
 21
278.055433
 31
0.0
 11
593.845780
 21
273.727040
 31
0.0
 11
595.865284
 21
270.575045
 31
0.0
 11
596.078990
 21
268.689441
 31
0.0
 11
594.639140
 21
266.727040
 31
0.0
 11
591.835442
 21
264.660797
 31
0.0
 11
588.947448
 21
264.316616
 31
0.0
 11
586.353130
 21
265.739540
 31
0.0
 11
584.482526
 21
266.702240
 31
0.0
 11
583.728354
 21
265.690464
 31
0.0
 11
584.704150
 21
263.527330
 31
0.0
 11
586.286666
 21
262.459516
 31
0.0
 11
588.798187
 21
261.739414
 31
0.0
 11
591.894150
 21
261.465820
 31
0.0
 11
598.773121
 21
260.332799
 31
0.0
 11
605.923162
 21
257.183448
 31
0.0
 11
612.730900
 21
252.287940
 31
0.0
 11
615.144100
 21
250.212293
 31
0.0
 11
616.984710
 21
248.731054
 31
0.0
 11
617.854250
 21
248.164900
 31
0.0
 11
619.209351
 21
249.279186
 31
0.0
 11
622.322929
 21
252.202430
 31
0.0
 11
626.520910
 21
256.302210
 31
0.0
  0
LWPOLYLINE
  5
134
100
AcDbEntity
  8
Image
 62
7
100
AcDbPolyline
 90
1
 70
1
 10
626.520910
 20
256.302210
 30
0.0
  0
SPLINE
  5
135
100
AcDbEntity
  8
Image
 62
7
100
AcDbSpline
 70
0
 71
3
 72
31
 73
27
 74
25
 40
0.000000
 40
0.000000
 40
0.000000
 40
0.000000
 40
5.751479
 40
13.249152
 40
19.891137
 40
28.429560
 40
38.539697
 40
46.842409
 40
55.303543
 40
63.786174
 40
72.769361
 40
81.872442
 40
90.064167
 40
98.991131
 40
111.722303
 40
124.296447
 40
135.618054
 40
138.169964
 40
141.389796
 40
147.128149
 40
152.686231
 40
157.232133
 40
161.320965
 40
166.736069
 40
169.730401
 40
173.044999
 40
173.044999
 40
173.044999
 40
173.044999
 10
172.414050
 20
259.556570
 30
0.0
 10
173.764313
 20
260.929625
 30
0.0
 10
176.874789
 20
264.092605
 30
0.0
 10
180.099621
 20
269.925383
 30
0.0
 10
183.298871
 20
276.897670
 30
0.0
 10
182.929063
 20
285.560480
 30
0.0
 10
181.202528
 20
294.316382
 30
0.0
 10
177.828918
 20
302.839896
 30
0.0
 10
171.267251
 20
308.535385
 30
0.0
 10
163.095273
 20
311.796197
 30
0.0
 10
154.101651
 20
311.978283
 30
0.0
 10
145.435574
 20
309.967584
 30
0.0
 10
138.051364
 20
304.878353
 30
0.0
 10
132.489032
 20
296.412334
 30
0.0
 10
129.492168
 20
285.136242
 30
0.0
 10
130.491149
 20
272.814890
 30
0.0
 10
134.067780
 20
264.373137
 30
0.0
 10
138.531132
 20
260.517334
 30
0.0
 10
142.542582
 20
260.326172
 30
0.0
 10
147.285636
 20
260.821818
 30
0.0
 10
152.578233
 20
261.202995
 30
0.0
 10
157.320373
 20
260.893884
 30
0.0
 10
161.865291
 20
259.630721
 30
0.0
 10
165.633404
 20
257.897878
 30
0.0
 10
169.746425
 20
257.586878
 30
0.0
 10
171.495249
 20
258.878189
 30
0.0
 10
172.414050
 20
259.556620
 30
0.0
 11
172.414050
 21
259.556570
 31
0.0
 11
176.283467
 21
263.811817
 31
0.0
 11
180.154653
 21
270.232800
 31
0.0
 11
182.578870
 21
276.416580
 31
0.0
 11
182.758769
 21
284.953107
 31
0.0
 11
180.745488
 21
294.860759
 31
0.0
 11
177.296260
 21
302.413100
 31
0.0
 11
171.039235
 21
308.108750
 31
0.0
 11
163.157015
 21
311.243337
 31
0.0
 11
154.181130
 21
311.605480
 31
0.0
 11
145.365865
 21
309.334538
 31
0.0
 11
138.631835
 21
304.670076
 31
0.0
 11
133.561450
 21
297.322840
 31
0.0
 11
130.213850
 21
285.039668
 31
0.0
 11
131.239640
 21
272.507436
 31
0.0
 11
136.416780
 21
262.438870
 31
0.0
 11
138.455340
 21
260.903774
 31
0.0
 11
141.639637
 21
260.426736
 31
0.0
 11
147.365930
 21
260.798580
 31
0.0
 11
152.916514
 21
261.087196
 31
0.0
 11
157.447633
 21
260.720884
 31
0.0
 11
161.397570
 21
259.664220
 31
0.0
 11
166.535252
 21
257.953204
 31
0.0
 11
169.529441
 21
257.923956
 31
0.0
 11
172.414050
 21
259.556620
 31
0.0
  0
LWPOLYLINE
  5
136
100
AcDbEntity
  8
Image
 62
7
100
AcDbPolyline
 90
1
 70
1
 10
172.414050
 20
259.556620
 30
0.0
  0
SPLINE
  5
137
100
AcDbEntity
  8
Image
 62
7
100
AcDbSpline
 70
0
 71
3
 72
16
 73
12
 74
10
 40
0.000000
 40
0.000000
 40
0.000000
 40
0.000000
 40
3.782623
 40
8.098846
 40
11.327991
 40
13.888373
 40
16.716847
 40
19.751507
 40
24.907018
 40
29.585808
 40
33.975278
 40
33.975278
 40
33.975278
 40
33.975278
 10
140.043510
 20
265.560380
 30
0.0
 10
140.044152
 20
266.844904
 30
0.0
 10
140.045525
 20
269.595155
 30
0.0
 10
141.945139
 20
272.911725
 30
0.0
 10
144.869752
 20
275.377801
 30
0.0
 10
147.834343
 20
274.071298
 30
0.0
 10
149.570303
 20
271.821766
 30
0.0
 10
150.518443
 20
268.107082
 30
0.0
 10
148.516004
 20
263.841418
 30
0.0
 10
143.150472
 20
261.719370
 30
0.0
 10
141.056899
 20
264.307569
 30
0.0
 10
140.043510
 20
265.560380
 30
0.0
 11
140.043510
 21
265.560380
 31
0.0
 11
140.341397
 21
269.331255
 31
0.0
 11
142.427937
 21
273.109632
 31
0.0
 11
145.161630
 21
274.828440
 31
0.0
 11
147.574346
 21
273.971493
 31
0.0
 11
149.364021
 21
271.781213
 31
0.0
 11
150.064230
 21
268.828440
 31
0.0
 11
147.842848
 21
264.176047
 31
0.0
 11
143.394639
 21
262.725353
 31
0.0
 11
140.043510
 21
265.560380
 31
0.0
  0
LWPOLYLINE
  5
138
100
AcDbEntity
  8
Image
 62
7
100
AcDbPolyline
 90
1
 70
1
 10
140.043510
 20
265.560380
 30
0.0
  0
SPLINE
  5
139
100
AcDbEntity
  8
Image
 62
7
100
AcDbSpline
 70
0
 71
3
 72
25
 73
21
 74
19
 40
0.000000
 40
0.000000
 40
0.000000
 40
0.000000
 40
6.604612
 40
12.952310
 40
18.888085
 40
23.313184
 40
26.674524
 40
31.762462
 40
37.044488
 40
38.956382
 40
41.904741
 40
46.185549
 40
49.413863
 40
53.086318
 40
55.627303
 40
58.280036
 40
63.262102
 40
70.038172
 40
73.689152
 40
79.354662
 40
79.354662
 40
79.354662
 40
79.354662
 10
531.858580
 20
260.828430
 30
0.0
 10
533.958350
 20
261.517752
 30
0.0
 10
538.076210
 20
262.869582
 30
0.0
 10
544.531539
 20
262.829072
 30
0.0
 10
549.801262
 20
261.143967
 30
0.0
 10
554.020469
 20
258.712581
 30
0.0
 10
558.442035
 20
260.406968
 30
0.0
 10
560.656209
 20
264.741160
 30
0.0
 10
563.096071
 20
267.488735
 30
0.0
 10
563.335264
 20
272.187315
 30
0.0
 10
559.737965
 20
268.818017
 30
0.0
 10
557.511227
 20
267.033112
 30
0.0
 10
553.265768
 20
266.848621
 30
0.0
 10
551.042507
 20
269.321464
 30
0.0
 10
549.382122
 20
271.921798
 30
0.0
 10
550.231656
 20
275.456853
 30
0.0
 10
552.551894
 20
279.456134
 30
0.0
 10
554.598544
 20
284.792237
 30
0.0
 10
561.017373
 20
285.657571
 30
0.0
 10
562.157401
 20
282.240075
 30
0.0
 10
562.850670
 20
280.161840
 30
0.0
 11
531.858580
 21
260.828430
 31
0.0
 11
538.238186
 21
262.537675
 31
0.0
 11
544.585797
 21
262.504398
 31
0.0
 11
550.250790
 21
260.732030
 31
0.0
 11
554.437995
 21
259.300663
 31
0.0
 11
557.605425
 21
260.425827
 31
0.0
 11
560.718290
 21
264.450400
 31
0.0
 11
563.086594
 21
269.171727
 31
0.0
 11
562.997112
 21
271.081526
 31
0.0
 11
560.479490
 21
269.547120
 31
0.0
 11
556.880177
 21
267.229739
 31
0.0
 11
553.652200
 21
267.276415
 31
0.0
 11
550.880700
 21
269.685920
 31
0.0
 11
549.739643
 21
271.956293
 31
0.0
 11
550.108640
 21
274.583237
 31
0.0
 11
552.203550
 21
279.103450
 31
0.0
 11
556.185157
 21
284.586327
 31
0.0
 11
559.818230
 21
284.947476
 31
0.0
 11
562.850670
 21
280.161840
 31
0.0
  0
SPLINE
  5
13a
100
AcDbEntity
  8
Image
 62
7
100
AcDbSpline
 70
0
 71
3
 72
16
 73
12
 74
10
 40
0.000000
 40
0.000000
 40
0.000000
 40
0.000000
 40
8.029866
 40
16.056526
 40
25.083383
 40
32.883159
 40
40.675951
 40
49.065043
 40
60.894533
 40
72.337906
 40
86.685328
 40
86.685328
 40
86.685328
 40
86.685328
 10
564.629490
 20
282.548290
 30
0.0
 10
564.470141
 20
285.243614
 30
0.0
 10
564.151507
 20
290.633185
 30
0.0
 10
560.408748
 20
298.313738
 30
0.0
 10
555.069144
 20
304.709936
 30
0.0
 10
548.390991
 20
309.687535
 30
0.0
 10
540.579631
 20
312.020739
 30
0.0
 10
531.196082
 20
312.082382
 30
0.0
 10
520.606787
 20
308.707877
 30
0.0
 10
512.998265
 20
297.691573
 30
0.0
 10
512.464971
 20
288.998049
 30
0.0
 10
512.168300
 20
284.161840
 30
0.0
 11
564.629490
 21
282.548290
 31
0.0
 11
563.631935
 21
290.515952
 31
0.0
 11
560.310035
 21
297.822951
 31
0.0
 11
554.532340
 21
304.758540
 31
0.0
 11
548.176587
 21
309.279703
 31
0.0
 11
540.739076
 21
311.605867
 31
0.0
 11
532.350470
 21
311.696170
 31
0.0
 11
521.272573
 21
307.546829
 31
0.0
 11
514.507490
 21
298.317288
 31
0.0
 11
512.168300
 21
284.161840
 31
0.0
  0
LWPOLYLINE
  5
13b
100
AcDbEntity
  8
Image
 62
7
100
AcDbPolyline
 90
3
 70
0
 10
562.850670
 20
280.161840
 30
0.0
 10
564.528020
 20
275.495170
 30
0.0
 10
564.629490
 20
282.548290
 30
0.0
  0
SPLINE
  5
13c
100
AcDbEntity
  8
Image
 62
7
100
AcDbSpline
 70
0
 71
3
 72
13
 73
9
 74
7
 40
0.000000
 40
0.000000
 40
0.000000
 40
0.000000
 40
6.812242
 40
11.918060
 40
17.471206
 40
25.287265
 40
30.439699
 40
37.717889
 40
37.717889
 40
37.717889
 40
37.717889
 10
512.168300
 20
284.161840
 30
0.0
 10
512.161944
 20
281.890422
 30
0.0
 10
512.150825
 20
277.916562
 30
0.0
 10
513.262569
 20
272.117917
 30
0.0
 10
516.075937
 20
266.670096
 30
0.0
 10
518.769199
 20
260.800196
 30
0.0
 10
525.609322
 20
257.972834
 30
0.0
 10
529.550835
 20
259.773942
 30
0.0
 10
531.858610
 20
260.828500
 30
0.0
 11
512.168300
 21
284.161840
 31
0.0
 11
512.400640
 21
277.353561
 31
0.0
 11
513.450913
 21
272.356932
 31
0.0
 11
515.715500
 21
267.286520
 31
0.0
 11
520.062991
 21
260.791130
 31
0.0
 11
524.846826
 21
258.877364
 31
0.0
 11
531.858610
 21
260.828500
 31
0.0
  0
LWPOLYLINE
  5
13d
100
AcDbEntity
  8
Image
 62
7
100
AcDbPolyline
 90
1
 70
1
 10
531.858610
 20
260.828500
 30
0.0
  0
ENDSEC
  0
SECTION
  2
OBJECTS
  0
DICTIONARY
  5
C
330
0
100
AcDbDictionary
  3
ACAD_GROUP
350
D
  3
ACAD_MLINESTYLE
350
17
  0
DICTIONARY
  5
D
330
C
100
AcDbDictionary
  0
DICTIONARY
  5
1A
330
C
100
AcDbDictionary
  0
DICTIONARY
  5
17
330
C
100
AcDbDictionary
  3
STANDARD
350
18
  0
DICTIONARY
  5
19
330
C
100
AcDbDictionary
  0
ENDSEC
  0
EOF
