  0
SECTION
  2
HEADER
  9
$ACADVER
  1
AC1014
  9
$HANDSEED
  5
FFFF
  9
$INSUNITS
 70
     4
  9
$MEASUREMENT
 70
     1
  0
ENDSEC
  0
SECTION
  2
TABLES
  0
TABLE
  2
VPORT
  5
8
330
0
100
AcDbSymbolTable
 70
     4
  0
VPORT
  5
2E
330
8
100
AcDbSymbolTableRecord
100
AcDbViewportTableRecord
  2
*ACTIVE
 70
     0
 10
0.0
 20
0.0
 11
1.0
 21
1.0
 12
210.0
 22
148.5
 13
0.0
 23
0.0
 14
10.0
 24
10.0
 15
10.0
 25
10.0
 16
0.0
 26
0.0
 36
1.0
 17
0.0
 27
0.0
 37
0.0
 40
341.0
 41
1.24
 42
50.0
 43
0.0
 44
0.0
 50
0.0
 51
0.0
 71
     0
 72
   100
 73
     1
 74
     3
 75
     0
 76
     0
 77
     0
 78
     0
  0
ENDTAB
  0
TABLE
  2
LTYPE
  5
5
330
0
100
AcDbSymbolTable
 70
     1
  0
LTYPE
  5
14
330
5
100
AcDbSymbolTableRecord
100
AcDbLinetypeTableRecord
  2
BYBLOCK
 70
     0
  3

 72
    65
 73
     0
 40
0.0
  0
LTYPE
  5
15
330
5
100
AcDbSymbolTableRecord
100
AcDbLinetypeTableRecord
  2
BYLAYER
 70
     0
  3

 72
    65
 73
     0
 40
0.0
  0
LTYPE
  5
16
330
5
100
AcDbSymbolTableRecord
100
AcDbLinetypeTableRecord
  2
CONTINUOUS
 70
     0
  3
Solid line
 72
    65
 73
     0
 40
0.0
  0
ENDTAB
  0
TABLE
  2
LAYER
  5
2
100
AcDbSymbolTable
 70
3
  0
LAYER
  5
50
100
AcDbSymbolTableRecord
100
AcDbLayerTableRecord
  2
0
 70
0
  6
CONTINUOUS
  0
LAYER
  5
51
100
AcDbSymbolTableRecord
100
AcDbLayerTableRecord
  2
Capa_2
 70
0
  6
CONTINUOUS
  0
LAYER
  5
52
100
AcDbSymbolTableRecord
100
AcDbLayerTableRecord
  2
Capa_1
 70
0
  6
CONTINUOUS
  0
ENDTAB
  0
TABLE
  2
STYLE
  5
3
330
0
100
AcDbSymbolTable
 70
     1
  0
STYLE
  5
11
330
3
100
AcDbSymbolTableRecord
100
AcDbTextStyleTableRecord
  2
STANDARD
 70
     0
 40
0.0
 41
1.0
 50
0.0
 71
     0
 42
2.5
  3
txt
  4

  0
ENDTAB
  0
TABLE
  2
VIEW
  5
6
330
0
100
AcDbSymbolTable
 70
     0
  0
ENDTAB
  0
TABLE
  2
UCS
  5
7
330
0
100
AcDbSymbolTable
 70
     0
  0
ENDTAB
  0
TABLE
  2
APPID
  5
9
330
0
100
AcDbSymbolTable
 70
     2
  0
APPID
  5
12
330
9
100
AcDbSymbolTableRecord
100
AcDbRegAppTableRecord
  2
ACAD
 70
     0
  0
ENDTAB
  0
TABLE
  2
DIMSTYLE
  5
A
330
0
100
AcDbSymbolTable
 70
     1
  0
DIMSTYLE
105
27
330
A
100
AcDbSymbolTableRecord
100
AcDbDimStyleTableRecord
  2
ISO-25
 70
     0
  3

  4

  5

  6

  7

 40
1.0
 41
2.5
 42
0.625
 43
3.75
 44
1.25
 45
0.0
 46
0.0
 47
0.0
 48
0.0
140
2.5
141
2.5
142
0.0
143
0.03937007874016
144
1.0
145
0.0
146
1.0
147
0.625
 71
     0
 72
     0
 73
     0
 74
     0
 75
     0
 76
     0
 77
     1
 78
     8
170
     0
171
     3
172
     1
173
     0
174
     0
175
     0
176
     0
177
     0
178
     0
270
     2
271
     2
272
     2
273
     2
274
     3
340
11
275
     0
280
     0
281
     0
282
     0
283
     0
284
     8
285
     0
286
     0
287
     3
288
     0
  0
ENDTAB
  0
TABLE
  2
BLOCK_RECORD
  5
1
330
0
100
AcDbSymbolTable
 70
     1
  0
BLOCK_RECORD
  5
1F
330
1
100
AcDbSymbolTableRecord
100
AcDbBlockTableRecord
  2
*MODEL_SPACE
  0
BLOCK_RECORD
  5
1B
330
1
100
AcDbSymbolTableRecord
100
AcDbBlockTableRecord
  2
*PAPER_SPACE
  0
ENDTAB
  0
ENDSEC
  0
SECTION
  2
BLOCKS
  0
BLOCK
  5
20
330
1F
100
AcDbEntity
  8
0
100
AcDbBlockBegin
  2
*MODEL_SPACE
 70
     0
 10
0.0
 20
0.0
 30
0.0
  3
*MODEL_SPACE
  1

  0
ENDBLK
  5
21
330
1F
100
AcDbEntity
  8
0
100
AcDbBlockEnd
  0
BLOCK
  5
1C
330
1B
100
AcDbEntity
 67
     1
  8
0
100
AcDbBlockBegin
  2
*PAPER_SPACE
  1

  0
ENDBLK
  5
1D
330
1B
100
AcDbEntity
 67
     1
  8
0
100
AcDbBlockEnd
  0
ENDSEC
  0
SECTION
  2
ENTITIES
  0
LWPOLYLINE
  5
100
100
AcDbEntity
  8
Capa_1
 62
7
100
AcDbPolyline
 90
8
 70
1
 10
11.164580
 20
154.568750
 30
0.0
 10
11.164580
 20
259.476044
 30
0.0
 10
103.901040
 20
259.476044
 30
0.0
 10
196.637500
 20
259.476044
 30
0.0
 10
196.637500
 20
154.568750
 30
0.0
 10
196.637500
 20
49.661450
 30
0.0
 10
103.901040
 20
49.661450
 30
0.0
 10
11.164580
 20
49.661450
 30
0.0
  0
SPLINE
  5
101
100
AcDbEntity
  8
Capa_1
 62
7
100
AcDbSpline
 70
0
 71
3
 72
22
 73
18
 74
16
 40
0.000000
 40
0.000000
 40
0.000000
 40
0.000000
 40
0.671466
 40
1.427761
 40
2.119317
 40
7.745408
 40
17.213792
 40
23.348153
 40
25.281058
 40
27.389488
 40
30.825418
 40
36.072363
 40
38.693533
 40
40.106837
 40
41.393399
 40
44.148123
 40
47.778241
 40
47.778241
 40
47.778241
 40
47.778241
 10
128.379000
 20
84.123430
 30
0.0
 10
128.553744
 20
84.263841
 30
0.0
 10
128.925310
 20
84.562403
 30
0.0
 10
129.389242
 20
85.100561
 30
0.0
 10
130.665706
 20
87.093329
 30
0.0
 10
131.431109
 20
92.465470
 30
0.0
 10
133.295655
 20
99.231105
 30
0.0
 10
134.940714
 20
104.834458
 30
0.0
 10
134.969210
 20
108.346096
 30
0.0
 10
133.402094
 20
110.430487
 30
0.0
 10
130.596706
 20
112.661558
 30
0.0
 10
127.814983
 20
115.119058
 30
0.0
 10
125.347121
 20
117.197215
 30
0.0
 10
125.147810
 20
119.179772
 30
0.0
 10
126.514034
 20
120.518645
 30
0.0
 10
128.060392
 20
122.499489
 30
0.0
 10
129.508675
 20
124.072494
 30
0.0
 10
130.332100
 20
124.966830
 30
0.0
 11
128.379000
 21
84.123430
 31
0.0
 11
128.890180
 21
84.558817
 31
0.0
 11
129.388220
 21
85.127973
 31
0.0
 11
129.765300
 21
85.707680
 31
0.0
 11
131.327317
 21
91.112585
 31
0.0
 11
133.622853
 21
100.298488
 31
0.0
 11
134.910330
 21
106.296220
 31
0.0
 11
134.772374
 21
108.224196
 31
0.0
 11
133.639920
 21
110.002684
 31
0.0
 11
131.086390
 21
112.301620
 31
0.0
 11
127.099510
 21
115.712663
 31
0.0
 11
125.414974
 21
117.720864
 31
0.0
 11
125.356080
 21
119.132940
 31
0.0
 11
126.126273
 21
120.163497
 31
0.0
 11
127.913954
 21
122.259373
 31
0.0
 11
130.332100
 21
124.966830
 31
0.0
  0
LWPOLYLINE
  5
102
100
AcDbEntity
  8
Capa_1
 62
7
100
AcDbPolyline
 90
3
 70
0
 10
130.332100
 20
124.966830
 30
0.0
 10
135.067330
 20
130.170450
 30
0.0
 10
137.860300
 20
129.999560
 30
0.0
  0
SPLINE
  5
103
100
AcDbEntity
  8
Capa_1
 62
7
100
AcDbSpline
 70
0
 71
3
 72
10
 73
6
 74
4
 40
0.000000
 40
0.000000
 40
0.000000
 40
0.000000
 40
2.411924
 40
6.045838
 40
10.115278
 40
10.115278
 40
10.115278
 40
10.115278
 10
137.860300
 20
129.999560
 30
0.0
 10
138.663370
 20
129.961246
 30
0.0
 10
140.676383
 20
129.865208
 30
0.0
 10
144.046576
 20
129.758450
 30
0.0
 10
146.613464
 20
129.691099
 30
0.0
 10
147.969470
 20
129.655520
 30
0.0
 11
137.860300
 21
129.999560
 31
0.0
 11
140.269723
 21
129.889749
 31
0.0
 11
143.901534
 21
129.766151
 31
0.0
 11
147.969470
 21
129.655520
 31
0.0
  0
LWPOLYLINE
  5
104
100
AcDbEntity
  8
Capa_1
 62
7
100
AcDbPolyline
 90
3
 70
0
 10
147.969470
 20
129.655520
 30
0.0
 10
155.285660
 20
129.482380
 30
0.0
 10
157.176160
 20
126.900730
 30
0.0
  0
SPLINE
  5
105
100
AcDbEntity
  8
Capa_1
 62
7
100
AcDbSpline
 70
0
 71
3
 72
43
 73
39
 74
37
 40
0.000000
 40
0.000000
 40
0.000000
 40
0.000000
 40
1.675391
 40
2.995624
 40
3.686730
 40
4.082017
 40
4.630160
 40
5.959837
 40
7.614981
 40
8.571237
 40
9.335078
 40
9.665862
 40
10.080577
 40
10.508381
 40
11.116103
 40
11.985432
 40
13.555960
 40
15.237725
 40
16.115173
 40
16.946939
 40
17.712949
 40
18.378353
 40
19.296445
 40
20.715946
 40
22.310042
 40
24.827785
 40
26.057790
 40
27.015559
 40
27.501662
 40
27.866458
 40
28.488084
 40
29.239704
 40
30.174495
 40
30.967705
 40
31.819740
 40
33.004801
 40
34.466164
 40
37.010477
 40
37.010477
 40
37.010477
 40
37.010477
 10
157.176160
 20
126.900730
 30
0.0
 10
157.503466
 20
126.446786
 30
0.0
 10
158.088695
 20
125.635128
 30
0.0
 10
158.692231
 20
124.570803
 30
0.0
 10
159.120583
 20
123.878700
 30
0.0
 10
159.015318
 20
123.244315
 30
0.0
 10
158.115963
 20
123.218921
 30
0.0
 10
157.023439
 20
123.258250
 30
0.0
 10
155.707666
 20
123.289170
 30
0.0
 10
154.519388
 20
123.005997
 30
0.0
 10
154.246249
 20
122.262455
 30
0.0
 10
154.372566
 20
121.770292
 30
0.0
 10
154.559834
 20
121.423613
 30
0.0
 10
154.855577
 20
121.038422
 30
0.0
 10
155.399803
 20
120.669914
 30
0.0
 10
156.434422
 20
120.575231
 30
0.0
 10
157.802159
 20
120.575539
 30
0.0
 10
159.166350
 20
120.544590
 30
0.0
 10
160.327745
 20
120.724841
 30
0.0
 10
160.926093
 20
121.328917
 30
0.0
 10
161.458084
 20
121.871968
 30
0.0
 10
161.714609
 20
122.636394
 30
0.0
 10
161.722747
 20
123.639014
 30
0.0
 10
161.636488
 20
124.966780
 30
0.0
 10
160.753570
 20
126.629104
 30
0.0
 10
159.687856
 20
128.035768
 30
0.0
 10
158.740917
 20
129.311348
 30
0.0
 10
158.308935
 20
130.051963
 30
0.0
 10
157.938552
 20
130.605251
 30
0.0
 10
158.164287
 20
131.083017
 30
0.0
 10
158.416947
 20
131.587892
 30
0.0
 10
158.841715
 20
132.236805
 30
0.0
 10
159.289887
 20
132.932582
 30
0.0
 10
159.563416
 20
133.760587
 30
0.0
 10
159.621060
 20
134.704841
 30
0.0
 10
159.511314
 20
135.890304
 30
0.0
 10
158.584191
 20
137.394236
 30
0.0
 10
157.758237
 20
138.436242
 30
0.0
 10
157.233610
 20
139.098100
 30
0.0
 11
157.176160
 21
126.900730
 31
0.0
 11
158.128417
 21
125.522273
 31
0.0
 11
158.807600
 21
124.390140
 31
0.0
 11
159.066670
 21
123.749430
 31
0.0
 11
158.970300
 21
123.366070
 31
0.0
 11
158.439003
 21
123.231220
 31
0.0
 11
157.109500
 21
123.252680
 31
0.0
 11
155.455246
 21
123.198410
 31
0.0
 11
154.568004
 21
122.841720
 31
0.0
 11
154.304170
 21
122.124890
 31
0.0
 11
154.376684
 21
121.802153
 31
0.0
 11
154.566792
 21
121.433577
 31
0.0
 11
154.833340
 21
121.098960
 31
0.0
 11
155.338509
 21
120.761128
 31
0.0
 11
156.194004
 21
120.606662
 31
0.0
 11
157.764100
 21
120.569790
 31
0.0
 11
159.445484
 21
120.605590
 31
0.0
 11
160.298003
 21
120.813257
 31
0.0
 11
160.939100
 21
121.343190
 31
0.0
 11
161.430131
 21
121.931118
 31
0.0
 11
161.657249
 21
122.556562
 31
0.0
 11
161.712500
 21
123.472990
 31
0.0
 11
161.548260
 21
124.882958
 31
0.0
 11
160.876356
 21
126.328532
 31
0.0
 11
159.428010
 21
128.387980
 31
0.0
 11
158.713574
 21
129.389226
 31
0.0
 11
158.205272
 21
130.200984
 31
0.0
 11
158.013150
 21
130.647510
 31
0.0
 11
158.123846
 21
130.995105
 31
0.0
 11
158.408931
 21
131.547505
 31
0.0
 11
158.806900
 21
132.185120
 31
0.0
 11
159.277689
 21
132.992704
 31
0.0
 11
159.524424
 21
133.746563
 31
0.0
 11
159.595840
 21
134.595600
 31
0.0
 11
159.441846
 21
135.770613
 31
0.0
 11
158.762911
 21
137.064687
 31
0.0
 11
157.233610
 21
139.098100
 31
0.0
  0
LWPOLYLINE
  5
106
100
AcDbEntity
  8
Capa_1
 62
7
100
AcDbPolyline
 90
3
 70
0
 10
157.233610
 20
139.098100
 30
0.0
 10
156.156250
 20
140.461060
 30
0.0
 10
156.120750
 20
147.911780
 30
0.0
  0
SPLINE
  5
107
100
AcDbEntity
  8
Capa_1
 62
7
100
AcDbSpline
 70
0
 71
3
 72
19
 73
15
 74
13
 40
0.000000
 40
0.000000
 40
0.000000
 40
0.000000
 40
7.163905
 40
10.365192
 40
13.406500
 40
15.385276
 40
17.071677
 40
18.107779
 40
19.709312
 40
21.343091
 40
23.018791
 40
24.249783
 40
26.673047
 40
32.192192
 40
32.192192
 40
32.192192
 40
32.192192
 10
156.120750
 20
147.911780
 30
0.0
 10
156.080777
 20
150.287652
 30
0.0
 10
156.022941
 20
153.725215
 30
0.0
 10
156.272731
 20
158.269666
 30
0.0
 10
157.645617
 20
160.696775
 30
0.0
 10
158.558683
 20
162.733206
 30
0.0
 10
159.136386
 20
164.186037
 30
0.0
 10
159.617104
 20
165.560072
 30
0.0
 10
159.431280
 20
167.035176
 30
0.0
 10
158.615166
 20
168.492733
 30
0.0
 10
157.392761
 20
169.456298
 30
0.0
 10
155.691130
 20
170.040568
 30
0.0
 10
152.599275
 20
170.002648
 30
0.0
 10
149.960732
 20
170.028739
 30
0.0
 10
148.127220
 20
170.046870
 30
0.0
 11
156.120750
 21
147.911780
 31
0.0
 11
156.120711
 21
155.075685
 31
0.0
 11
156.519266
 21
158.252065
 31
0.0
 11
157.766220
 21
161.025990
 31
0.0
 11
158.584318
 21
162.827731
 31
0.0
 11
159.204065
 21
164.396126
 31
0.0
 11
159.491290
 21
165.391620
 31
0.0
 11
159.335427
 21
166.985550
 31
0.0
 11
158.539023
 21
168.412076
 31
0.0
 11
157.224700
 21
169.451560
 31
0.0
 11
156.064396
 21
169.862700
 31
0.0
 11
153.646304
 21
170.020930
 31
0.0
 11
148.127220
 21
170.046870
 31
0.0
  0
LWPOLYLINE
  5
108
100
AcDbEntity
  8
Capa_1
 62
7
100
AcDbPolyline
 90
3
 70
0
 10
148.127220
 20
170.046870
 30
0.0
 10
140.210290
 20
170.046870
 30
0.0
 10
137.798390
 20
172.257280
 30
0.0
  0
SPLINE
  5
109
100
AcDbEntity
  8
Capa_1
 62
7
100
AcDbSpline
 70
0
 71
3
 72
46
 73
42
 74
40
 40
0.000000
 40
0.000000
 40
0.000000
 40
0.000000
 40
1.774097
 40
3.282099
 40
4.201788
 40
5.398965
 40
8.357262
 40
14.520880
 40
21.100113
 40
23.874262
 40
25.055060
 40
25.791810
 40
26.605425
 40
27.332400
 40
28.327378
 40
29.999931
 40
33.692069
 40
37.361989
 40
39.110120
 40
40.239066
 40
41.085444
 40
41.969685
 40
42.818416
 40
43.760323
 40
44.562587
 40
45.654328
 40
46.627051
 40
47.250313
 40
47.686648
 40
48.529953
 40
49.709537
 40
51.941792
 40
54.261761
 40
56.291130
 40
59.638829
 40
61.750482
 40
63.482835
 40
64.463581
 40
65.783334
 40
68.571483
 40
74.332924
 40
74.332924
 40
74.332924
 40
74.332924
 10
137.798390
 20
172.257280
 30
0.0
 10
137.358479
 20
172.653997
 30
0.0
 10
136.544637
 20
173.387928
 30
0.0
 10
135.453726
 20
174.252622
 30
0.0
 10
134.496283
 20
175.026400
 30
0.0
 10
132.776673
 20
175.296135
 30
0.0
 10
129.364628
 20
175.319528
 30
0.0
 10
124.108885
 20
175.320466
 30
0.0
 10
118.961643
 20
175.415593
 30
0.0
 10
115.418089
 20
175.307513
 30
0.0
 10
113.901975
 20
175.800407
 30
0.0
 10
113.162057
 20
176.340207
 30
0.0
 10
112.597202
 20
176.848813
 30
0.0
 10
112.041987
 20
177.488312
 30
0.0
 10
111.499850
 20
178.510583
 30
0.0
 10
111.453452
 20
180.673546
 30
0.0
 10
111.373153
 20
183.662936
 30
0.0
 10
111.317100
 20
186.690284
 30
0.0
 10
111.229483
 20
188.899631
 30
0.0
 10
110.714999
 20
190.050785
 30
0.0
 10
110.165803
 20
190.832326
 30
0.0
 10
109.560299
 20
191.450772
 30
0.0
 10
108.831489
 20
191.966571
 30
0.0
 10
108.065868
 20
192.386227
 30
0.0
 10
107.121901
 20
192.561506
 30
0.0
 10
106.164976
 20
192.461328
 30
0.0
 10
105.276892
 20
192.398882
 30
0.0
 10
104.585759
 20
192.435197
 30
0.0
 10
104.017295
 20
192.752757
 30
0.0
 10
103.631542
 20
193.615707
 30
0.0
 10
104.510589
 20
194.899522
 30
0.0
 10
105.739720
 20
196.264621
 30
0.0
 10
107.338189
 20
197.859639
 30
0.0
 10
108.118322
 20
200.368637
 30
0.0
 10
108.217025
 20
202.862920
 30
0.0
 10
108.423546
 20
205.255779
 30
0.0
 10
108.627892
 20
206.842159
 30
0.0
 10
108.768573
 20
208.200137
 30
0.0
 10
109.780047
 20
209.637315
 30
0.0
 10
112.439578
 20
211.584859
 30
0.0
 10
114.724718
 20
213.285018
 30
0.0
 10
116.264640
 20
214.430730
 30
0.0
 11
137.798390
 21
172.257280
 31
0.0
 11
136.467468
 21
173.430338
 31
0.0
 11
135.296766
 21
174.380879
 31
0.0
 11
134.539730
 21
174.903110
 31
0.0
 11
133.376211
 21
175.184986
 31
0.0
 11
130.420563
 21
175.310144
 31
0.0
 11
124.257010
 21
175.338540
 31
0.0
 11
117.677822
 21
175.363067
 31
0.0
 11
114.907868
 21
175.515559
 31
0.0
 11
113.796460
 21
175.914380
 31
0.0
 11
113.190893
 21
176.334009
 31
0.0
 11
112.588200
 21
176.880571
 31
0.0
 11
112.118860
 21
177.435740
 31
0.0
 11
111.664630
 21
178.320984
 31
0.0
 11
111.467356
 21
179.981862
 31
0.0
 11
111.378020
 21
183.672920
 31
0.0
 11
111.287303
 21
187.341718
 31
0.0
 11
111.088647
 21
189.078525
 31
0.0
 11
110.641190
 21
190.115010
 31
0.0
 11
110.155402
 21
190.808095
 31
0.0
 11
109.534948
 21
191.438109
 31
0.0
 11
108.847700
 21
191.936140
 31
0.0
 11
108.005516
 21
192.357941
 31
0.0
 11
107.217937
 21
192.510736
 31
0.0
 11
106.127200
 21
192.463930
 31
0.0
 11
105.155702
 21
192.415130
 31
0.0
 11
104.537344
 21
192.493166
 31
0.0
 11
104.159980
 21
192.712220
 31
0.0
 11
103.812063
 21
193.480411
 31
0.0
 11
104.296327
 21
194.556006
 31
0.0
 11
105.752030
 21
196.248310
 31
0.0
 11
107.233644
 21
198.033548
 31
0.0
 11
107.917169
 21
199.944342
 31
0.0
 11
108.265210
 21
203.273900
 31
0.0
 11
108.450257
 21
205.377429
 31
0.0
 11
108.651463
 21
207.098058
 31
0.0
 11
108.825270
 21
208.063280
 31
0.0
 11
109.518151
 21
209.186518
 31
0.0
 11
111.636359
 21
210.999519
 31
0.0
 11
116.264640
 21
214.430730
 31
0.0
  0
LWPOLYLINE
  5
10a
100
AcDbEntity
  8
Capa_1
 62
7
100
AcDbPolyline
 90
3
 70
0
 10
116.264640
 20
214.430730
 30
0.0
 10
121.439640
 20
218.201042
 30
0.0
 10
122.989110
 20
218.206842
 30
0.0
  0
SPLINE
  5
10b
100
AcDbEntity
  8
Capa_1
 62
7
100
AcDbSpline
 70
0
 71
3
 72
22
 73
18
 74
16
 40
0.000000
 40
0.000000
 40
0.000000
 40
0.000000
 40
1.793387
 40
3.450229
 40
5.207139
 40
6.860303
 40
8.387065
 40
10.047866
 40
13.271136
 40
16.404188
 40
19.626782
 40
21.774095
 40
23.864002
 40
25.751246
 40
26.606364
 40
28.939984
 40
34.116561
 40
34.116561
 40
34.116561
 40
34.116561
 10
122.989110
 20
218.206842
 30
0.0
 10
123.589782
 20
218.242981
 30
0.0
 10
124.745392
 20
218.312507
 30
0.0
 10
126.365771
 20
219.039293
 30
0.0
 10
127.633581
 20
220.177092
 30
0.0
 10
128.628597
 20
221.511320
 30
0.0
 10
129.143840
 20
223.069600
 30
0.0
 10
129.204140
 20
225.226855
 30
0.0
 10
128.187116
 20
227.867371
 30
0.0
 10
125.427603
 20
229.799749
 30
0.0
 10
122.402799
 20
229.909740
 30
0.0
 10
120.166115
 20
228.780775
 30
0.0
 10
118.527600
 20
227.418153
 30
0.0
 10
118.110103
 20
225.808690
 30
0.0
 10
117.088079
 20
224.421806
 30
0.0
 10
114.411405
 20
223.332105
 30
0.0
 10
112.219501
 20
222.173826
 30
0.0
 10
110.708680
 20
221.375456
 30
0.0
 11
122.989110
 21
218.206842
 31
0.0
 11
124.768984
 21
218.426583
 31
0.0
 11
126.285603
 21
219.093662
 31
0.0
 11
127.615490
 21
220.241760
 31
0.0
 11
128.572332
 21
221.589872
 31
0.0
 11
129.058614
 21
223.037122
 31
0.0
 11
129.112490
 21
224.697048
 31
0.0
 11
127.912147
 21
227.688477
 31
0.0
 11
125.348910
 21
229.490097
 31
0.0
 11
122.128400
 21
229.605950
 31
0.0
 11
120.184047
 21
228.694663
 31
0.0
 11
118.672307
 21
227.251627
 31
0.0
 11
117.871640
 21
225.542644
 31
0.0
 11
117.358565
 21
224.858553
 31
0.0
 11
115.341461
 21
223.685064
 31
0.0
 11
110.708680
 21
221.375456
 31
0.0
  0
LWPOLYLINE
  5
10c
100
AcDbEntity
  8
Capa_1
 62
7
100
AcDbPolyline
 90
3
 70
0
 10
110.708680
 20
221.375456
 30
0.0
 10
103.692040
 20
217.936448
 30
0.0
 10
96.785100
 20
217.934948
 30
0.0
  0
SPLINE
  5
10d
100
AcDbEntity
  8
Capa_1
 62
7
100
AcDbSpline
 70
0
 71
3
 72
19
 73
15
 74
13
 40
0.000000
 40
0.000000
 40
0.000000
 40
0.000000
 40
3.766090
 40
6.540954
 40
7.975312
 40
9.212964
 40
11.817571
 40
16.709323
 40
21.601075
 40
24.205681
 40
25.443335
 40
26.493541
 40
28.206179
 40
30.215325
 40
30.215325
 40
30.215325
 40
30.215325
 10
96.785100
 20
217.934948
 30
0.0
 10
95.526445
 20
217.936827
 30
0.0
 10
93.340411
 20
217.940091
 30
0.0
 10
90.711988
 20
217.787243
 30
0.0
 10
88.845272
 20
217.789218
 30
0.0
 10
87.324467
 20
216.807647
 30
0.0
 10
85.237509
 20
214.799130
 30
0.0
 10
82.285298
 20
211.903520
 30
0.0
 10
79.387138
 20
208.952449
 30
0.0
 10
77.384327
 20
206.861837
 30
0.0
 10
76.465422
 20
205.457484
 30
0.0
 10
76.386514
 20
204.100287
 30
0.0
 10
76.269264
 20
202.523990
 30
0.0
 10
76.259085
 20
201.281239
 30
0.0
 10
76.253590
 20
200.610360
 30
0.0
 11
96.785100
 21
217.934948
 31
0.0
 11
93.019192
 21
217.897946
 31
0.0
 11
90.246155
 21
217.797274
 31
0.0
 11
88.819820
 21
217.645777
 31
0.0
 11
87.738087
 21
217.044413
 31
0.0
 11
85.784590
 21
215.321677
 31
0.0
 11
82.295970
 21
211.892570
 31
0.0
 11
78.866864
 21
208.403950
 31
0.0
 11
77.144126
 21
206.450453
 31
0.0
 11
76.542760
 21
205.368720
 31
0.0
 11
76.397646
 21
204.328589
 31
0.0
 11
76.293758
 21
202.619104
 31
0.0
 11
76.253590
 21
200.610360
 31
0.0
  0
LWPOLYLINE
  5
10e
100
AcDbEntity
  8
Capa_1
 62
7
100
AcDbPolyline
 90
5
 70
0
 10
76.253590
 20
200.610360
 30
0.0
 10
76.251590
 20
196.910330
 30
0.0
 10
73.279340
 20
193.929630
 30
0.0
 10
70.307100
 20
190.948930
 30
0.0
 10
66.916200
 20
190.948930
 30
0.0
  0
SPLINE
  5
10f
100
AcDbEntity
  8
Capa_1
 62
7
100
AcDbSpline
 70
0
 71
3
 72
19
 73
15
 74
13
 40
0.000000
 40
0.000000
 40
0.000000
 40
0.000000
 40
2.030405
 40
3.359225
 40
4.142334
 40
6.413265
 40
9.827400
 40
12.080878
 40
13.218812
 40
14.721972
 40
15.961832
 40
16.639739
 40
17.804444
 40
19.209122
 40
19.209122
 40
19.209122
 40
19.209122
 10
66.916200
 20
190.948930
 30
0.0
 10
66.239346
 20
190.942577
 30
0.0
 10
65.119517
 20
190.932067
 30
0.0
 10
63.740354
 20
190.855751
 30
0.0
 10
62.303436
 20
190.479321
 30
0.0
 10
60.815242
 20
188.761103
 30
0.0
 10
59.020252
 20
186.948906
 30
0.0
 10
57.214654
 20
185.365987
 30
0.0
 10
56.936269
 20
183.706271
 30
0.0
 10
56.946839
 20
182.434459
 30
0.0
 10
57.018982
 20
181.249239
 30
0.0
 10
57.621418
 20
180.396151
 30
0.0
 10
58.280951
 20
179.544697
 30
0.0
 10
58.846038
 20
178.899467
 30
0.0
 10
59.154970
 20
178.546720
 30
0.0
 11
66.916200
 21
190.948930
 31
0.0
 11
64.886148
 21
190.911102
 31
0.0
 11
63.562922
 21
190.789291
 31
0.0
 11
62.810850
 21
190.571010
 31
0.0
 11
61.081870
 21
189.098680
 31
0.0
 11
58.677190
 21
186.675080
 31
0.0
 11
57.230790
 21
184.947050
 31
0.0
 11
56.986263
 21
183.835699
 31
0.0
 11
56.962684
 21
182.332724
 31
0.0
 11
57.170590
 21
181.110420
 31
0.0
 11
57.528190
 21
180.534504
 31
0.0
 11
58.241097
 21
179.613470
 31
0.0
 11
59.154970
 21
178.546720
 31
0.0
  0
LWPOLYLINE
  5
110
100
AcDbEntity
  8
Capa_1
 62
7
100
AcDbPolyline
 90
5
 70
0
 10
59.154970
 20
178.546720
 30
0.0
 10
60.905710
 20
176.595560
 30
0.0
 10
60.905710
 20
160.571820
 30
0.0
 10
60.905710
 20
144.548080
 30
0.0
 10
54.322670
 20
137.916730
 30
0.0
  0
SPLINE
  5
111
100
AcDbEntity
  8
Capa_1
 62
7
100
AcDbSpline
 70
0
 71
3
 72
25
 73
21
 74
19
 40
0.000000
 40
0.000000
 40
0.000000
 40
0.000000
 40
4.842739
 40
8.557716
 40
10.344844
 40
12.533313
 40
14.810137
 40
16.937141
 40
18.007699
 40
19.956958
 40
22.363455
 40
25.026751
 40
27.649140
 40
29.663018
 40
31.215705
 40
32.632962
 40
33.615565
 40
35.007686
 40
37.497059
 40
40.548235
 40
40.548235
 40
40.548235
 40
40.548235
 10
54.322670
 20
137.916730
 30
0.0
 10
53.180995
 20
136.770228
 30
0.0
 10
51.163515
 20
134.744219
 30
0.0
 10
48.890941
 20
132.190817
 30
0.0
 10
47.013229
 20
130.352553
 30
0.0
 10
46.681092
 20
128.164248
 30
0.0
 10
47.160566
 20
125.987254
 30
0.0
 10
48.321985
 20
124.461853
 30
0.0
 10
49.838149
 20
123.641975
 30
0.0
 10
51.391208
 20
122.719988
 30
0.0
 10
53.441481
 20
121.590058
 30
0.0
 10
55.679083
 20
120.339056
 30
0.0
 10
57.799749
 20
119.145174
 30
0.0
 10
59.577923
 20
118.100486
 30
0.0
 10
61.030270
 20
117.289825
 30
0.0
 10
62.220824
 20
116.731672
 30
0.0
 10
63.404570
 20
116.256433
 30
0.0
 10
65.045379
 20
116.212266
 30
0.0
 10
67.343444
 20
116.090782
 30
0.0
 10
69.192401
 20
116.082739
 30
0.0
 10
70.210620
 20
116.078310
 30
0.0
 11
54.322670
 21
137.916730
 31
0.0
 11
50.941679
 21
134.449596
 31
0.0
 11
48.406034
 21
131.734534
 31
0.0
 11
47.264690
 21
130.359340
 31
0.0
 11
46.820774
 21
128.216366
 31
0.0
 11
47.335583
 21
125.998507
 31
0.0
 11
48.662740
 21
124.336340
 31
0.0
 11
49.576121
 21
123.777923
 31
0.0
 11
51.265482
 21
122.805467
 31
0.0
 11
53.365090
 21
121.629510
 31
0.0
 11
55.690482
 21
120.331165
 31
0.0
 11
57.971778
 21
119.037871
 31
0.0
 11
59.715090
 21
118.029620
 31
0.0
 11
61.077690
 21
117.285204
 31
0.0
 11
62.360920
 21
116.683589
 31
0.0
 11
63.286960
 21
116.355020
 31
0.0
 11
64.672323
 21
116.218014
 31
0.0
 11
67.159710
 21
116.118603
 31
0.0
 11
70.210620
 21
116.078310
 31
0.0
  0
SPLINE
  5
112
100
AcDbEntity
  8
Capa_1
 62
7
100
AcDbSpline
 70
0
 71
3
 72
22
 73
18
 74
16
 40
0.000000
 40
0.000000
 40
0.000000
 40
0.000000
 40
1.425615
 40
3.172980
 40
4.863802
 40
11.841426
 40
17.847856
 40
20.904770
 40
22.115228
 40
24.305070
 40
27.000944
 40
29.834217
 40
31.901500
 40
33.038689
 40
34.073770
 40
36.013871
 40
39.619375
 40
39.619375
 40
39.619375
 40
39.619375
 10
77.760680
 20
115.080120
 30
0.0
 10
78.178061
 20
114.852947
 30
0.0
 10
79.107024
 20
114.347330
 30
0.0
 10
80.533062
 20
113.575797
 30
0.0
 10
83.589014
 20
111.929600
 30
0.0
 10
87.906558
 20
109.603698
 30
0.0
 10
92.433904
 20
106.822186
 30
0.0
 10
95.540248
 20
105.235131
 30
0.0
 10
96.962895
 20
103.602845
 30
0.0
 10
98.320348
 20
102.095850
 30
0.0
 10
99.990580
 20
100.139298
 30
0.0
 10
101.654348
 20
98.219676
 30
0.0
 10
103.051771
 20
96.796089
 30
0.0
 10
104.107946
 20
95.801954
 30
0.0
 10
105.486233
 20
95.512254
 30
0.0
 10
107.667657
 20
95.440510
 30
0.0
 10
109.518903
 20
95.433535
 30
0.0
 10
110.722500
 20
95.429000
 30
0.0
 11
77.760680
 21
115.080120
 31
0.0
 11
79.013094
 21
114.399064
 31
0.0
 11
80.549819
 21
113.567342
 31
0.0
 11
82.038160
 21
112.765020
 31
0.0
 11
88.147386
 21
109.393878
 31
0.0
 11
93.346451
 21
106.386069
 31
0.0
 11
95.918890
 21
104.734620
 31
0.0
 11
96.748132
 21
103.852824
 31
0.0
 11
98.201491
 21
102.214790
 31
0.0
 11
99.964320
 21
100.175140
 31
0.0
 11
101.842473
 21
98.053825
 31
0.0
 11
103.290613
 21
96.578512
 31
0.0
 11
104.184600
 21
95.875670
 31
0.0
 11
105.181589
 21
95.597451
 31
0.0
 11
107.117178
 21
95.465212
 31
0.0
 11
110.722500
 21
95.429000
 31
0.0
  0
LWPOLYLINE
  5
113
100
AcDbEntity
  8
Capa_1
 62
7
100
AcDbPolyline
 90
3
 70
0
 10
70.210620
 20
116.078310
 30
0.0
 10
75.943650
 20
116.072310
 30
0.0
 10
77.760680
 20
115.080120
 30
0.0
  0
SPLINE
  5
114
100
AcDbEntity
  8
Capa_1
 62
7
100
AcDbSpline
 70
0
 71
3
 72
22
 73
18
 74
16
 40
0.000000
 40
0.000000
 40
0.000000
 40
0.000000
 40
4.774163
 40
7.235518
 40
8.960711
 40
10.150610
 40
11.402174
 40
13.095148
 40
14.607051
 40
15.540597
 40
16.544017
 40
17.604300
 40
18.846819
 40
21.086072
 40
23.627542
 40
25.296343
 40
26.618125
 40
26.618125
 40
26.618125
 40
26.618125
 10
110.722500
 20
95.429000
 30
0.0
 10
112.292412
 20
95.419620
 30
0.0
 10
114.671704
 20
95.405403
 30
0.0
 10
117.796826
 20
95.109025
 30
0.0
 10
119.085365
 20
93.724232
 30
0.0
 10
119.651110
 20
92.429085
 30
0.0
 10
119.601084
 20
91.015213
 30
0.0
 10
119.148934
 20
89.595673
 30
0.0
 10
118.650510
 20
88.311100
 30
0.0
 10
118.584352
 20
87.117522
 30
0.0
 10
119.100145
 20
86.233366
 30
0.0
 10
119.737080
 20
85.307470
 30
0.0
 10
121.178004
 20
84.696313
 30
0.0
 10
123.101763
 20
84.174047
 30
0.0
 10
125.170411
 20
83.645122
 30
0.0
 10
127.074501
 20
83.459665
 30
0.0
 10
127.978444
 20
83.920292
 30
0.0
 10
128.377970
 20
84.123880
 30
0.0
 11
110.722500
 21
95.429000
 31
0.0
 11
115.494997
 21
95.302857
 31
0.0
 11
117.895700
 21
94.759819
 31
0.0
 11
119.107590
 21
93.531970
 31
0.0
 11
119.556979
 21
92.430194
 31
0.0
 11
119.558888
 21
91.178632
 31
0.0
 11
119.113590
 21
89.545270
 31
0.0
 11
118.675501
 21
88.098229
 31
0.0
 11
118.671752
 21
87.164691
 31
0.0
 11
119.100390
 21
86.257430
 31
0.0
 11
119.762798
 21
85.429532
 31
0.0
 11
120.862752
 21
84.851645
 31
0.0
 11
123.006660
 21
84.205180
 31
0.0
 11
125.486286
 21
83.647938
 31
0.0
 11
127.154897
 21
83.622682
 31
0.0
 11
128.377970
 21
84.123880
 31
0.0
  0
LWPOLYLINE
  5
115
100
AcDbEntity
  8
Capa_1
 62
7
100
AcDbPolyline
 90
2
 70
0
 10
128.377970
 20
84.123880
 30
0.0
 10
128.379000
 20
84.123430
 30
0.0
  0
SPLINE
  5
116
100
AcDbEntity
  8
Capa_1
 62
7
100
AcDbSpline
 70
0
 71
3
 72
28
 73
24
 74
22
 40
0.000000
 40
0.000000
 40
0.000000
 40
0.000000
 40
1.045720
 40
1.833510
 40
2.194266
 40
2.469495
 40
3.087552
 40
3.922293
 40
6.437736
 40
8.586084
 40
10.882848
 40
13.078554
 40
15.701068
 40
20.763880
 40
24.128877
 40
26.233424
 40
27.114126
 40
28.072281
 40
30.124157
 40
32.826065
 40
36.048650
 40
38.414469
 40
40.161206
 40
40.161206
 40
40.161206
 40
40.161206
 10
123.394760
 20
86.832130
 30
0.0
 10
123.053385
 20
86.934476
 30
0.0
 10
122.454836
 20
87.113925
 30
0.0
 10
121.852181
 20
87.402647
 30
0.0
 10
121.264122
 20
87.502421
 30
0.0
 10
121.372853
 20
87.988910
 30
0.0
 10
121.496121
 20
88.507743
 30
0.0
 10
121.940297
 20
89.782100
 30
0.0
 10
122.425134
 20
91.557646
 30
0.0
 10
122.070102
 20
93.945601
 30
0.0
 10
120.782024
 20
95.777518
 30
0.0
 10
119.043611
 20
97.508191
 30
0.0
 10
115.647671
 20
97.995003
 30
0.0
 10
112.027214
 20
98.010807
 30
0.0
 10
108.475053
 20
98.073747
 30
0.0
 10
106.418920
 20
98.217858
 30
0.0
 10
105.022429
 20
98.321257
 30
0.0
 10
104.255612
 20
99.478447
 30
0.0
 10
102.935551
 20
100.793310
 30
0.0
 10
101.227986
 20
102.858630
 30
0.0
 10
99.394333
 20
104.915076
 30
0.0
 10
97.700898
 20
106.690464
 30
0.0
 10
96.610169
 20
107.523502
 30
0.0
 10
96.146900
 20
107.877320
 30
0.0
 11
123.394760
 21
86.832130
 31
0.0
 11
122.401529
 21
87.159273
 31
0.0
 11
121.660124
 21
87.425603
 31
0.0
 11
121.331060
 21
87.573460
 31
0.0
 11
121.341825
 21
87.848478
 31
0.0
 11
121.491339
 21
88.448179
 31
0.0
 11
121.747230
 21
89.242730
 31
0.0
 11
122.268672
 21
91.703533
 31
0.0
 11
121.929238
 21
93.824897
 31
0.0
 11
120.703280
 21
95.767100
 31
0.0
 11
119.048482
 21
97.210280
 31
0.0
 11
116.500721
 21
97.831967
 31
0.0
 11
111.441670
 21
98.027060
 31
0.0
 11
108.077845
 21
98.115889
 31
0.0
 11
105.977631
 21
98.250864
 31
0.0
 11
105.116100
 21
98.433620
 31
0.0
 11
104.460796
 21
99.132646
 31
0.0
 11
103.100858
 21
100.669124
 31
0.0
 11
101.330700
 21
102.710410
 31
0.0
 11
99.186834
 21
105.116421
 31
0.0
 11
97.511219
 21
106.786575
 31
0.0
 11
96.146900
 21
107.877320
 31
0.0
  0
LWPOLYLINE
  5
117
100
AcDbEntity
  8
Capa_1
 62
7
100
AcDbPolyline
 90
3
 70
0
 10
96.146900
 20
107.877320
 30
0.0
 10
94.376040
 20
109.075470
 30
0.0
 10
94.305840
 20
116.640850
 30
0.0
  0
SPLINE
  5
118
100
AcDbEntity
  8
Capa_1
 62
7
100
AcDbSpline
 70
0
 71
3
 72
13
 73
9
 74
7
 40
0.000000
 40
0.000000
 40
0.000000
 40
0.000000
 40
3.893525
 40
6.829095
 40
8.174199
 40
10.587263
 40
16.341740
 40
24.194282
 40
24.194282
 40
24.194282
 40
24.194282
 10
94.305840
 20
116.640850
 30
0.0
 10
94.288804
 20
117.944991
 30
0.0
 10
94.258925
 20
120.232403
 30
0.0
 10
94.394060
 20
122.900767
 30
0.0
 10
94.291659
 20
125.250342
 30
0.0
 10
97.134957
 20
127.307099
 30
0.0
 10
100.411758
 20
131.302280
 30
0.0
 10
103.706241
 20
134.478798
 30
0.0
 10
105.607470
 20
136.311950
 30
0.0
 11
94.305840
 21
116.640850
 31
0.0
 11
94.301144
 21
120.534373
 31
0.0
 11
94.356276
 21
123.469424
 31
0.0
 11
94.459260
 21
124.810580
 31
0.0
 11
96.068952
 21
126.608292
 31
0.0
 11
100.074051
 21
130.740264
 31
0.0
 11
105.607470
 21
136.311950
 31
0.0
  0
LWPOLYLINE
  5
119
100
AcDbEntity
  8
Capa_1
 62
7
100
AcDbPolyline
 90
3
 70
0
 10
105.607470
 20
136.311950
 30
0.0
 10
116.532110
 20
147.208970
 30
0.0
 10
117.583720
 20
146.846660
 30
0.0
  0
SPLINE
  5
11a
100
AcDbEntity
  8
Capa_1
 62
7
100
AcDbSpline
 70
0
 71
3
 72
22
 73
18
 74
16
 40
0.000000
 40
0.000000
 40
0.000000
 40
0.000000
 40
2.683815
 40
5.397203
 40
8.149247
 40
11.253435
 40
14.345545
 40
17.421650
 40
19.446461
 40
21.499143
 40
23.214147
 40
24.441336
 40
28.983924
 40
38.762172
 40
48.227705
 40
53.381549
 40
55.580814
 40
55.580814
 40
55.580814
 40
55.580814
 10
117.583720
 20
146.846660
 30
0.0
 10
118.504163
 20
146.747837
 30
0.0
 10
120.355191
 20
146.549101
 30
0.0
 10
122.673687
 20
148.375494
 30
0.0
 10
123.745482
 20
151.224787
 30
0.0
 10
122.418258
 20
154.240456
 30
0.0
 10
119.537119
 20
155.806492
 30
0.0
 10
116.513781
 20
155.290496
 30
0.0
 10
115.031978
 20
153.369689
 30
0.0
 10
114.087361
 20
151.534740
 30
0.0
 10
114.910113
 20
149.797077
 30
0.0
 10
113.276707
 20
147.667580
 30
0.0
 10
109.651804
 20
144.184539
 30
0.0
 10
103.965711
 20
138.514916
 30
0.0
 10
98.244046
 20
132.790545
 30
0.0
 10
94.181909
 20
128.892154
 30
0.0
 10
92.718481
 20
126.923147
 30
0.0
 10
92.280780
 20
126.334230
 30
0.0
 11
117.583720
 21
146.846660
 31
0.0
 11
120.267036
 21
146.898429
 31
0.0
 11
122.447914
 21
148.512815
 31
0.0
 11
123.347870
 21
151.113550
 31
0.0
 11
122.163913
 21
153.983085
 31
0.0
 11
119.441790
 21
155.449778
 31
0.0
 11
116.426120
 21
154.843020
 31
0.0
 11
115.082058
 21
153.328637
 31
0.0
 11
114.398876
 21
151.392980
 31
0.0
 11
114.607640
 21
149.690730
 31
0.0
 11
113.996335
 21
148.626634
 31
0.0
 11
110.863948
 21
145.336763
 31
0.0
 11
103.913470
 21
138.458900
 31
0.0
 11
97.189927
 21
131.796296
 31
0.0
 11
93.621843
 21
128.077307
 31
0.0
 11
92.280780
 21
126.334230
 31
0.0
  0
LWPOLYLINE
  5
11b
100
AcDbEntity
  8
Capa_1
 62
7
100
AcDbPolyline
 90
3
 70
0
 10
92.280780
 20
126.334230
 30
0.0
 10
91.597860
 20
124.963810
 30
0.0
 10
91.597860
 20
117.872010
 30
0.0
  0
SPLINE
  5
11c
100
AcDbEntity
  8
Capa_1
 62
7
100
AcDbSpline
 70
0
 71
3
 72
16
 73
12
 74
10
 40
0.000000
 40
0.000000
 40
0.000000
 40
0.000000
 40
3.571935
 40
6.119850
 40
7.095593
 40
7.908549
 40
9.868314
 40
12.551394
 40
15.602339
 40
18.526375
 40
20.690464
 40
20.690464
 40
20.690464
 40
20.690464
 10
91.597860
 20
117.872010
 30
0.0
 10
91.618180
 20
116.625026
 30
0.0
 10
91.652993
 20
114.488550
 30
0.0
 10
91.393333
 20
112.587032
 30
0.0
 10
91.619668
 20
110.454041
 30
0.0
 10
90.204474
 20
111.488393
 30
0.0
 10
88.774750
 20
112.060433
 30
0.0
 10
86.441683
 20
113.409931
 30
0.0
 10
83.937210
 20
114.756243
 30
0.0
 10
81.549330
 20
116.066411
 30
0.0
 10
80.060333
 20
116.876171
 30
0.0
 10
79.427030
 20
117.220580
 30
0.0
 11
91.597860
 21
117.872010
 31
0.0
 11
91.570666
 21
114.300179
 31
0.0
 11
91.499377
 21
111.753261
 31
0.0
 11
91.399430
 21
110.782650
 31
0.0
 11
90.664967
 21
111.131161
 31
0.0
 11
88.930230
 21
112.042955
 31
0.0
 11
86.570780
 21
113.320420
 31
0.0
 11
83.894081
 21
114.784506
 31
0.0
 11
81.327622
 21
116.185674
 31
0.0
 11
79.427030
 21
117.220580
 31
0.0
  0
LWPOLYLINE
  5
11d
100
AcDbEntity
  8
Capa_1
 62
7
100
AcDbPolyline
 90
5
 70
0
 10
79.427030
 20
117.220580
 30
0.0
 10
76.913490
 20
118.585410
 30
0.0
 10
70.298910
 20
118.717710
 30
0.0
 10
63.684320
 20
118.850000
 30
0.0
 10
60.641610
 20
120.595530
 30
0.0
  0
SPLINE
  5
11e
100
AcDbEntity
  8
Capa_1
 62
7
100
AcDbSpline
 70
0
 71
3
 72
37
 73
33
 74
31
 40
0.000000
 40
0.000000
 40
0.000000
 40
0.000000
 40
2.335130
 40
5.085009
 40
7.654316
 40
9.821037
 40
11.516486
 40
12.376768
 40
12.966980
 40
13.630863
 40
14.450162
 40
15.884453
 40
19.294368
 40
23.946994
 40
28.696056
 40
32.359003
 40
34.147816
 40
35.644676
 40
40.343856
 40
51.568624
 40
60.396981
 40
66.281848
 40
68.655476
 40
69.355924
 40
70.508334
 40
71.870201
 40
73.529784
 40
74.489297
 40
75.245265
 40
76.028332
 40
77.126608
 40
79.189685
 40
79.189685
 40
79.189685
 40
79.189685
 10
60.641610
 20
120.595530
 30
0.0
 10
59.965992
 20
120.982007
 30
0.0
 10
58.494758
 20
121.823604
 30
0.0
 10
56.276504
 20
123.085336
 30
0.0
 10
54.106660
 20
124.313707
 30
0.0
 10
52.236233
 20
125.372526
 30
0.0
 10
50.925418
 20
126.224275
 30
0.0
 10
49.998898
 20
126.758367
 30
0.0
 10
49.620478
 20
127.382928
 30
0.0
 10
49.492960
 20
128.056135
 30
0.0
 10
49.375915
 20
129.087652
 30
0.0
 10
51.013267
 20
130.391821
 30
0.0
 10
52.951644
 20
132.744554
 30
0.0
 10
56.076601
 20
135.732067
 30
0.0
 10
59.179137
 20
138.796010
 30
0.0
 10
61.406394
 20
141.304625
 30
0.0
 10
63.175123
 20
142.943235
 30
0.0
 10
63.570045
 20
145.669865
 30
0.0
 10
63.490390
 20
151.416193
 30
0.0
 10
63.513978
 20
159.682013
 30
0.0
 10
63.686355
 20
168.392644
 30
0.0
 10
63.200904
 20
173.941393
 30
0.0
 10
63.650129
 20
177.117685
 30
0.0
 10
62.842167
 20
178.305439
 30
0.0
 10
62.176953
 20
179.137405
 30
0.0
 10
61.243686
 20
180.176341
 30
0.0
 10
60.334974
 20
181.129743
 30
0.0
 10
59.660776
 20
182.065534
 30
0.0
 10
59.545898
 20
182.909909
 30
0.0
 10
59.681292
 20
183.803090
 30
0.0
 10
60.542736
 20
184.846080
 30
0.0
 10
61.271375
 20
185.596664
 30
0.0
 10
61.746880
 20
186.086490
 30
0.0
 11
60.641610
 21
120.595530
 31
0.0
 11
58.614245
 21
121.754246
 31
0.0
 11
56.224098
 21
123.114037
 31
0.0
 11
53.988620
 21
124.380520
 31
0.0
 11
52.115286
 21
125.469234
 31
0.0
 11
50.674544
 21
126.362996
 31
0.0
 11
49.978310
 21
126.868310
 31
0.0
 11
49.666294
 21
127.369306
 31
0.0
 11
49.508873
 21
128.014254
 31
0.0
 11
49.498650
 21
128.833490
 31
0.0
 11
50.406006
 21
129.944298
 31
0.0
 11
52.755407
 21
132.415702
 31
0.0
 11
56.038250
 21
135.712650
 31
0.0
 11
59.385760
 21
139.081295
 31
0.0
 11
61.904693
 21
141.740649
 31
0.0
 11
63.049710
 21
143.114980
 31
0.0
 11
63.392123
 21
144.572149
 31
0.0
 11
63.527890
 21
149.269367
 31
0.0
 11
63.552030
 21
160.494110
 31
0.0
 11
63.520213
 21
169.322410
 31
0.0
 11
63.430557
 21
175.206594
 31
0.0
 11
63.291760
 21
177.576160
 31
0.0
 11
62.924394
 21
178.172540
 31
0.0
 11
62.211490
 21
179.077977
 31
0.0
 11
61.307390
 21
180.096450
 31
0.0
 11
60.205150
 21
181.337127
 31
0.0
 11
59.702647
 21
182.154536
 31
0.0
 11
59.583280
 21
182.901020
 31
0.0
 11
59.719560
 21
183.672138
 31
0.0
 11
60.336640
 21
184.580665
 31
0.0
 11
61.746880
 21
186.086490
 31
0.0
  0
LWPOLYLINE
  5
11f
100
AcDbEntity
  8
Capa_1
 62
7
100
AcDbPolyline
 90
3
 70
0
 10
61.746880
 20
186.086490
 30
0.0
 10
63.910480
 20
188.303120
 30
0.0
 10
67.320520
 20
188.303120
 30
0.0
  0
SPLINE
  5
120
100
AcDbEntity
  8
Capa_1
 62
7
100
AcDbSpline
 70
0
 71
3
 72
16
 73
12
 74
10
 40
0.000000
 40
0.000000
 40
0.000000
 40
0.000000
 40
1.875373
 40
3.262220
 40
4.010057
 40
6.546969
 40
10.582766
 40
13.431613
 40
14.391059
 40
15.866584
 40
18.958398
 40
18.958398
 40
18.958398
 40
18.958398
 10
67.320520
 20
188.303120
 30
0.0
 10
67.946306
 20
188.310605
 30
0.0
 10
69.034865
 20
188.323626
 30
0.0
 10
70.364143
 20
188.397592
 30
0.0
 10
71.924831
 20
188.679246
 30
0.0
 10
73.568733
 20
190.720860
 30
0.0
 10
75.876770
 20
192.734088
 30
0.0
 10
77.794320
 20
194.553651
 30
0.0
 10
78.708908
 20
196.094995
 30
0.0
 10
78.807411
 20
197.978277
 30
0.0
 10
78.861348
 20
199.489311
 30
0.0
 10
78.897860
 20
200.512190
 30
0.0
 11
67.320520
 21
188.303120
 31
0.0
 11
69.195507
 21
188.341159
 31
0.0
 11
70.578303
 21
188.447081
 31
0.0
 11
71.308490
 21
188.608600
 31
0.0
 11
73.252133
 21
190.238991
 31
0.0
 11
76.166320
 21
193.030973
 31
0.0
 11
78.104110
 21
195.119250
 31
0.0
 11
78.560879
 21
195.962991
 31
0.0
 11
78.775737
 21
197.422789
 31
0.0
 11
78.897860
 21
200.512190
 31
0.0
  0
LWPOLYLINE
  5
121
100
AcDbEntity
  8
Capa_1
 62
7
100
AcDbPolyline
 90
5
 70
0
 10
78.897860
 20
200.512190
 30
0.0
 10
79.030160
 20
204.984210
 30
0.0
 10
84.203170
 20
210.137420
 30
0.0
 10
89.376190
 20
215.290626
 30
0.0
 10
95.117230
 20
215.290626
 30
0.0
  0
SPLINE
  5
122
100
AcDbEntity
  8
Capa_1
 62
7
100
AcDbSpline
 70
0
 71
3
 72
13
 73
9
 74
7
 40
0.000000
 40
0.000000
 40
0.000000
 40
0.000000
 40
2.891891
 40
4.955395
 40
5.747164
 40
6.616960
 40
8.740863
 40
11.659580
 40
11.659580
 40
11.659580
 40
11.659580
 10
95.117230
 20
215.290626
 30
0.0
 10
96.119460
 20
215.303147
 30
0.0
 10
97.836831
 20
215.324603
 30
0.0
 10
99.437314
 20
215.138989
 30
0.0
 10
101.174271
 20
215.280683
 30
0.0
 10
100.134031
 20
213.778847
 30
0.0
 10
99.664994
 20
212.196051
 30
0.0
 10
98.894493
 20
210.624708
 30
0.0
 10
98.448520
 20
209.715200
 30
0.0
 11
95.117230
 21
215.290626
 31
0.0
 11
98.009019
 21
215.266377
 31
0.0
 11
100.071544
 21
215.202806
 31
0.0
 11
100.858280
 21
215.113677
 31
0.0
 11
100.528054
 21
214.309005
 31
0.0
 11
99.662326
 21
212.369552
 31
0.0
 11
98.448520
 21
209.715200
 31
0.0
  0
LWPOLYLINE
  5
123
100
AcDbEntity
  8
Capa_1
 62
7
100
AcDbPolyline
 90
3
 70
0
 10
98.448520
 20
209.715200
 30
0.0
 10
96.038760
 20
204.493670
 30
0.0
 10
89.915710
 20
198.451390
 30
0.0
  0
SPLINE
  5
124
100
AcDbEntity
  8
Capa_1
 62
7
100
AcDbSpline
 70
0
 71
3
 72
28
 73
24
 74
22
 40
0.000000
 40
0.000000
 40
0.000000
 40
0.000000
 40
18.738942
 40
25.720895
 40
27.630956
 40
30.286758
 40
36.493655
 40
46.818936
 40
58.707932
 40
63.769304
 40
65.182773
 40
66.435510
 40
68.974608
 40
72.251754
 40
77.717092
 40
80.488604
 40
82.156513
 40
82.860991
 40
83.515580
 40
84.166613
 40
85.167129
 40
87.389030
 40
92.396170
 40
92.396170
 40
92.396170
 40
92.396170
 10
89.915710
 20
198.451390
 30
0.0
 10
85.596864
 20
193.958450
 30
0.0
 10
79.668858
 20
187.791483
 30
0.0
 10
72.569191
 20
181.766105
 30
0.0
 10
70.713377
 20
178.284018
 30
0.0
 10
70.888978
 20
174.604398
 30
0.0
 10
70.638311
 20
168.267751
 30
0.0
 10
70.787753
 20
158.785243
 30
0.0
 10
70.759360
 20
149.614713
 30
0.0
 10
70.796230
 20
143.630964
 30
0.0
 10
70.559301
 20
140.923553
 30
0.0
 10
69.152576
 20
139.771642
 30
0.0
 10
67.575982
 20
138.072714
 30
0.0
 10
64.786461
 20
135.499753
 30
0.0
 10
62.129082
 20
132.848681
 30
0.0
 10
59.729492
 20
130.351291
 30
0.0
 10
59.666593
 20
128.510169
 30
0.0
 10
60.062856
 20
127.574334
 30
0.0
 10
60.458384
 20
127.025755
 30
0.0
 10
61.062722
 20
126.533269
 30
0.0
 10
62.313570
 20
126.114005
 30
0.0
 10
65.081118
 20
126.195397
 30
0.0
 10
67.484338
 20
126.188995
 30
0.0
 10
69.148910
 20
126.184560
 30
0.0
 11
89.915710
 21
198.451390
 31
0.0
 11
76.597774
 21
185.268805
 31
0.0
 11
71.793589
 21
180.202498
 31
0.0
 11
70.974660
 21
178.476900
 31
0.0
 11
70.807724
 21
175.826349
 31
0.0
 11
70.734809
 21
169.619881
 31
0.0
 11
70.749300
 21
159.294610
 31
0.0
 11
70.777676
 21
147.405648
 31
0.0
 11
70.674304
 21
142.345332
 31
0.0
 11
70.374840
 21
140.963950
 31
0.0
 11
69.519756
 21
140.048428
 31
0.0
 11
67.713727
 21
138.263692
 31
0.0
 11
65.347750
 21
135.996130
 31
0.0
 11
61.465761
 21
132.149043
 31
0.0
 11
59.860149
 21
129.889997
 31
0.0
 11
59.822660
 21
128.222510
 31
0.0
 11
60.093437
 21
127.572149
 31
0.0
 11
60.480510
 21
127.044265
 31
0.0
 11
60.986760
 21
126.634930
 31
0.0
 11
61.923302
 21
126.282905
 31
0.0
 11
64.141828
 21
126.160491
 31
0.0
 11
69.148910
 21
126.184560
 31
0.0
  0
LWPOLYLINE
  5
125
100
AcDbEntity
  8
Capa_1
 62
7
100
AcDbPolyline
 90
3
 70
0
 10
69.148910
 20
126.184560
 30
0.0
 10
76.465570
 20
126.258360
 30
0.0
 10
77.800180
 20
127.189030
 30
0.0
  0
SPLINE
  5
126
100
AcDbEntity
  8
Capa_1
 62
7
100
AcDbSpline
 70
0
 71
3
 72
10
 73
6
 74
4
 40
0.000000
 40
0.000000
 40
0.000000
 40
0.000000
 40
4.159901
 40
13.519547
 40
26.054141
 40
26.054141
 40
26.054141
 40
26.054141
 10
77.800180
 20
127.189030
 30
0.0
 10
78.818710
 20
128.130051
 30
0.0
 10
82.128902
 20
131.188339
 30
0.0
 10
88.297325
 20
137.303897
 30
0.0
 10
93.482579
 20
142.439159
 30
0.0
 10
96.451170
 20
145.379130
 30
0.0
 11
77.800180
 21
127.189030
 31
0.0
 11
80.845415
 21
130.022989
 31
0.0
 11
87.545955
 21
136.557951
 31
0.0
 11
96.451170
 21
145.379130
 31
0.0
  0
LWPOLYLINE
  5
127
100
AcDbEntity
  8
Capa_1
 62
7
100
AcDbPolyline
 90
7
 70
0
 10
96.451170
 20
145.379130
 30
0.0
 10
113.767530
 20
162.638570
 30
0.0
 10
120.479130
 20
162.638570
 30
0.0
 10
127.190730
 20
162.638570
 30
0.0
 10
131.215660
 20
158.603670
 30
0.0
 10
135.240590
 20
154.568780
 30
0.0
 10
135.208990
 20
152.821020
 30
0.0
  0
SPLINE
  5
128
100
AcDbEntity
  8
Capa_1
 62
7
100
AcDbSpline
 70
0
 71
3
 72
22
 73
18
 74
16
 40
0.000000
 40
0.000000
 40
0.000000
 40
0.000000
 40
1.144614
 40
2.023027
 40
2.874139
 40
5.070332
 40
7.228567
 40
9.401499
 40
10.876576
 40
12.575343
 40
14.145533
 40
15.578863
 40
17.036302
 40
18.620738
 40
20.527223
 40
22.308493
 40
24.309623
 40
24.309623
 40
24.309623
 40
24.309623
 10
135.208990
 20
152.821020
 30
0.0
 10
135.206076
 20
152.439089
 30
0.0
 10
135.200927
 20
151.764052
 30
0.0
 10
135.373454
 20
150.812211
 30
0.0
 10
135.926094
 20
149.617178
 30
0.0
 10
137.146762
 20
148.289074
 30
0.0
 10
139.227674
 20
147.481443
 30
0.0
 10
141.261934
 20
147.574151
 30
0.0
 10
142.790638
 20
148.570394
 30
0.0
 10
143.842722
 20
149.762684
 30
0.0
 10
144.598088
 20
151.171536
 30
0.0
 10
144.719329
 20
152.692580
 30
0.0
 10
144.309771
 20
154.156169
 30
0.0
 10
143.372073
 20
155.537064
 30
0.0
 10
142.006296
 20
156.702007
 30
0.0
 10
140.100599
 20
157.223102
 30
0.0
 10
138.854510
 20
156.947023
 30
0.0
 10
138.195250
 20
156.800960
 30
0.0
 11
135.208990
 21
152.821020
 31
0.0
 11
135.240773
 21
151.676847
 31
0.0
 11
135.411117
 21
150.815110
 31
0.0
 11
135.759020
 21
150.038350
 31
0.0
 11
137.249044
 21
148.424940
 31
0.0
 11
139.256929
 21
147.633500
 31
0.0
 11
141.423020
 21
147.805790
 31
0.0
 11
142.682710
 21
148.573274
 31
0.0
 11
143.817270
 21
149.837626
 31
0.0
 11
144.510520
 21
151.246490
 31
0.0
 11
144.634319
 21
152.674464
 31
0.0
 11
144.252975
 21
154.081129
 31
0.0
 11
143.383080
 21
155.405410
 31
0.0
 11
141.899018
 21
156.602175
 31
0.0
 11
140.178899
 21
157.064895
 31
0.0
 11
138.195250
 21
156.800960
 31
0.0
  0
SPLINE
  5
129
100
AcDbEntity
  8
Capa_1
 62
7
100
AcDbSpline
 70
0
 71
3
 72
13
 73
9
 74
7
 40
0.000000
 40
0.000000
 40
0.000000
 40
0.000000
 40
2.969275
 40
5.326940
 40
6.566152
 40
7.614080
 40
9.915635
 40
14.592949
 40
14.592949
 40
14.592949
 40
14.592949
 10
133.173730
 20
160.438980
 30
0.0
 10
132.459332
 20
161.127274
 30
0.0
 10
131.177688
 20
162.362088
 30
0.0
 10
129.526502
 20
163.770123
 30
0.0
 10
128.384914
 20
164.873116
 30
0.0
 10
126.854165
 20
165.222975
 30
0.0
 10
124.186437
 20
165.241732
 30
0.0
 10
121.858272
 20
165.260639
 30
0.0
 10
120.297910
 20
165.273310
 30
0.0
 11
133.173730
 21
160.438980
 31
0.0
 11
131.012541
 21
162.475118
 31
0.0
 11
129.254042
 21
164.045552
 31
0.0
 11
128.278940
 21
164.810290
 31
0.0
 11
127.272771
 21
165.103163
 31
0.0
 11
124.975079
 21
165.236463
 31
0.0
 11
120.297910
 21
165.273310
 31
0.0
  0
LWPOLYLINE
  5
12a
100
AcDbEntity
  8
Capa_1
 62
7
100
AcDbPolyline
 90
3
 70
0
 10
138.195250
 20
156.800960
 30
0.0
 10
137.238510
 20
156.519600
 30
0.0
 10
133.173730
 20
160.438980
 30
0.0
  0
SPLINE
  5
12b
100
AcDbEntity
  8
Capa_1
 62
7
100
AcDbSpline
 70
0
 71
3
 72
13
 73
9
 74
7
 40
0.000000
 40
0.000000
 40
0.000000
 40
0.000000
 40
4.648237
 40
6.908581
 40
7.850491
 40
9.940541
 40
14.677316
 40
21.036233
 40
21.036233
 40
21.036233
 40
21.036233
 10
120.297910
 20
165.273310
 30
0.0
 10
118.749138
 20
165.257669
 30
0.0
 10
116.447229
 20
165.234422
 30
0.0
 10
113.826785
 20
165.271484
 30
0.0
 10
112.080059
 20
164.805512
 30
0.0
 10
110.410636
 20
162.665727
 30
0.0
 10
107.128426
 20
159.830437
 30
0.0
 10
104.530173
 20
157.178690
 30
0.0
 10
103.041120
 20
155.658980
 30
0.0
 11
120.297910
 21
165.273310
 31
0.0
 11
115.649724
 21
165.251675
 31
0.0
 11
113.392673
 21
165.129698
 31
0.0
 11
112.492700
 21
164.851770
 31
0.0
 11
110.957615
 21
163.433383
 31
0.0
 11
107.562045
 21
160.130787
 31
0.0
 11
103.041120
 21
155.658980
 31
0.0
  0
LWPOLYLINE
  5
12c
100
AcDbEntity
  8
Capa_1
 62
7
100
AcDbPolyline
 90
7
 70
0
 10
103.041120
 20
155.658980
 30
0.0
 10
94.243720
 20
146.898820
 30
0.0
 10
94.243720
 20
153.635040
 30
0.0
 10
94.243720
 20
160.371250
 30
0.0
 10
102.044600
 20
168.185030
 30
0.0
 10
109.845480
 20
175.998810
 30
0.0
 10
110.669150
 20
174.999550
 30
0.0
  0
SPLINE
  5
12d
100
AcDbEntity
  8
Capa_1
 62
7
100
AcDbSpline
 70
0
 71
3
 72
13
 73
9
 74
7
 40
0.000000
 40
0.000000
 40
0.000000
 40
0.000000
 40
0.812803
 40
1.708394
 40
2.503064
 40
3.766369
 40
6.710275
 40
13.618497
 40
13.618497
 40
13.618497
 40
13.618497
 10
110.669150
 20
174.999550
 30
0.0
 10
110.853307
 20
174.800320
 30
0.0
 10
111.240379
 20
174.381567
 30
0.0
 10
111.891665
 20
173.857578
 30
0.0
 10
112.706217
 20
173.296155
 30
0.0
 10
114.325867
 20
172.792424
 30
0.0
 10
118.057568
 20
172.836619
 30
0.0
 10
121.333815
 20
172.752044
 30
0.0
 10
123.631090
 20
172.692740
 30
0.0
 11
110.669150
 21
174.999550
 31
0.0
 11
111.234625
 21
174.415694
 31
0.0
 11
111.925322
 21
173.845589
 31
0.0
 11
112.591710
 21
173.412660
 31
0.0
 11
113.786194
 21
173.001385
 31
0.0
 11
116.723860
 21
172.809808
 31
0.0
 11
123.631090
 21
172.692740
 31
0.0
  0
LWPOLYLINE
  5
12e
100
AcDbEntity
  8
Capa_1
 62
7
100
AcDbPolyline
 90
3
 70
0
 10
123.631090
 20
172.692740
 30
0.0
 10
133.571590
 20
172.560450
 30
0.0
 10
135.919450
 20
170.383400
 30
0.0
  0
SPLINE
  5
12f
100
AcDbEntity
  8
Capa_1
 62
7
100
AcDbSpline
 70
0
 71
3
 72
28
 73
24
 74
22
 40
0.000000
 40
0.000000
 40
0.000000
 40
0.000000
 40
1.735998
 40
3.211653
 40
4.112966
 40
5.260792
 40
7.805611
 40
12.626084
 40
16.558957
 40
19.532665
 40
20.905176
 40
21.318585
 40
21.766905
 40
22.231541
 40
22.933679
 40
24.163013
 40
26.545219
 40
28.538198
 40
30.258693
 40
31.338211
 40
32.957988
 40
36.100179
 40
40.087527
 40
40.087527
 40
40.087527
 40
40.087527
 10
135.919450
 20
170.383400
 30
0.0
 10
136.348483
 20
169.993541
 30
0.0
 10
137.142208
 20
169.272288
 30
0.0
 10
138.210406
 20
168.426725
 30
0.0
 10
139.153162
 20
167.687514
 30
0.0
 10
140.713082
 20
167.471482
 30
0.0
 10
143.525560
 20
167.397839
 30
0.0
 10
147.300011
 20
167.361582
 30
0.0
 10
151.220891
 20
167.394482
 30
0.0
 10
153.945922
 20
167.194663
 30
0.0
 10
155.582199
 20
167.329871
 30
0.0
 10
156.265774
 20
166.994792
 30
0.0
 10
156.569875
 20
166.664116
 30
0.0
 10
156.827421
 20
166.181632
 30
0.0
 10
156.859102
 20
165.350940
 30
0.0
 10
156.258923
 20
164.019358
 30
0.0
 10
155.454941
 20
162.346519
 30
0.0
 10
154.569854
 20
160.511557
 30
0.0
 10
153.952492
 20
159.043718
 30
0.0
 10
153.399314
 20
157.663264
 30
0.0
 10
153.395026
 20
155.687963
 30
0.0
 10
153.256727
 20
152.789236
 30
0.0
 10
153.253869
 20
150.409557
 30
0.0
 10
153.252270
 20
149.078670
 30
0.0
 11
135.919450
 21
170.383400
 31
0.0
 11
137.218349
 21
169.231640
 31
0.0
 11
138.366671
 21
168.304863
 31
0.0
 11
139.115810
 21
167.803710
 31
0.0
 11
140.235442
 21
167.550867
 31
0.0
 11
142.777011
 21
167.422309
 31
0.0
 11
147.597250
 21
167.374700
 31
0.0
 11
151.529941
 21
167.336838
 31
0.0
 11
154.502729
 21
167.262922
 31
0.0
 11
155.872020
 21
167.168960
 31
0.0
 11
156.239885
 21
166.980327
 31
0.0
 11
156.550765
 21
166.657303
 31
0.0
 11
156.762490
 21
166.243710
 31
0.0
 11
156.813244
 21
165.543409
 31
0.0
 11
156.417520
 21
164.379508
 31
0.0
 11
155.396840
 21
162.227040
 31
0.0
 11
154.547825
 21
160.423948
 31
0.0
 11
153.873785
 21
158.840985
 31
0.0
 11
153.520650
 21
157.820860
 31
0.0
 11
153.387839
 21
156.206537
 31
0.0
 11
153.291421
 21
153.065826
 31
0.0
 11
153.252270
 21
149.078670
 31
0.0
  0
LWPOLYLINE
  5
130
100
AcDbEntity
  8
Capa_1
 62
7
100
AcDbPolyline
 90
3
 70
0
 10
153.252270
 20
149.078670
 30
0.0
 10
153.246270
 20
141.471900
 30
0.0
 10
140.266600
 20
141.471900
 30
0.0
  0
SPLINE
  5
131
100
AcDbEntity
  8
Capa_1
 62
7
100
AcDbSpline
 70
0
 71
3
 72
13
 73
9
 74
7
 40
0.000000
 40
0.000000
 40
0.000000
 40
0.000000
 40
7.417793
 40
12.119712
 40
14.229284
 40
15.696608
 40
19.406761
 40
27.709261
 40
27.709261
 40
27.709261
 40
27.709261
 10
140.266600
 20
141.471900
 30
0.0
 10
137.786953
 20
141.488406
 30
0.0
 10
133.735531
 20
141.515375
 30
0.0
 10
129.045423
 20
141.289396
 30
0.0
 10
126.207113
 20
141.390686
 30
0.0
 10
124.050427
 20
140.142394
 30
0.0
 10
120.930469
 20
136.900278
 30
0.0
 10
118.057797
 20
134.112330
 30
0.0
 10
116.072360
 20
132.185450
 30
0.0
 11
140.266600
 21
141.471900
 31
0.0
 11
132.848879
 21
141.439214
 31
0.0
 11
128.148018
 21
141.339482
 31
0.0
 11
126.045250
 21
141.170190
 31
0.0
 11
124.741044
 21
140.497815
 31
0.0
 11
121.984566
 21
138.014458
 31
0.0
 11
116.072360
 21
132.185450
 31
0.0
  0
LWPOLYLINE
  5
132
100
AcDbEntity
  8
Capa_1
 62
7
100
AcDbPolyline
 90
3
 70
0
 10
116.072360
 20
132.185450
 30
0.0
 10
107.341110
 20
123.502420
 30
0.0
 10
105.885900
 20
123.646210
 30
0.0
  0
SPLINE
  5
133
100
AcDbEntity
  8
Capa_1
 62
7
100
AcDbSpline
 70
0
 71
3
 72
25
 73
21
 74
19
 40
0.000000
 40
0.000000
 40
0.000000
 40
0.000000
 40
1.003855
 40
1.803668
 40
2.744752
 40
4.441414
 40
5.920236
 40
7.580724
 40
9.263001
 40
10.756414
 40
12.433373
 40
14.634875
 40
16.715269
 40
19.125338
 40
20.258704
 40
21.360661
 40
23.058676
 40
24.796820
 40
29.228054
 40
35.608977
 40
35.608977
 40
35.608977
 40
35.608977
 10
105.885900
 20
123.646210
 30
0.0
 10
105.551531
 20
123.677616
 30
0.0
 10
104.950756
 20
123.734043
 30
0.0
 10
104.037272
 20
123.565941
 30
0.0
 10
103.009392
 20
123.050476
 30
0.0
 10
101.836582
 20
122.293597
 30
0.0
 10
100.964687
 20
120.865330
 30
0.0
 10
100.801746
 20
119.239679
 30
0.0
 10
100.968572
 20
117.608374
 30
0.0
 10
101.843812
 20
116.178865
 30
0.0
 10
103.349399
 20
115.159842
 30
0.0
 10
105.346714
 20
114.587774
 30
0.0
 10
107.575369
 20
115.397397
 30
0.0
 10
108.787114
 20
116.898041
 30
0.0
 10
109.499828
 20
118.291677
 30
0.0
 10
109.633437
 20
119.613886
 30
0.0
 10
108.870769
 20
121.209143
 30
0.0
 10
111.236923
 20
123.074182
 30
0.0
 10
113.755043
 20
126.132018
 30
0.0
 10
116.390056
 20
128.665692
 30
0.0
 10
117.945140
 20
130.160970
 30
0.0
 11
105.885900
 21
123.646210
 31
0.0
 11
104.882946
 21
123.688729
 31
0.0
 11
104.096707
 21
123.541997
 31
0.0
 11
103.240060
 21
123.152390
 31
0.0
 11
101.869348
 21
122.152484
 31
0.0
 11
101.099496
 21
120.889852
 31
0.0
 11
100.858810
 21
119.246900
 31
0.0
 11
101.105079
 21
117.582747
 31
0.0
 11
101.880991
 21
116.306720
 31
0.0
 11
103.242200
 21
115.327280
 31
0.0
 11
105.384873
 21
114.821752
 31
0.0
 11
107.352260
 21
115.498088
 31
0.0
 11
108.960500
 21
117.293080
 31
0.0
 11
109.436003
 21
118.321873
 31
0.0
 11
109.525574
 21
119.420184
 31
0.0
 11
109.270890
 21
121.098990
 31
0.0
 11
110.377939
 21
122.438986
 31
0.0
 11
113.442065
 21
125.640074
 31
0.0
 11
117.945140
 21
130.160970
 31
0.0
  0
LWPOLYLINE
  5
134
100
AcDbEntity
  8
Capa_1
 62
7
100
AcDbPolyline
 90
5
 70
0
 10
117.945140
 20
130.160970
 30
0.0
 10
126.695980
 20
138.826070
 30
0.0
 10
140.361730
 20
138.826070
 30
0.0
 10
154.027480
 20
138.826070
 30
0.0
 10
155.488980
 20
136.884290
 30
0.0
  0
SPLINE
  5
135
100
AcDbEntity
  8
Capa_1
 62
7
100
AcDbSpline
 70
0
 71
3
 72
13
 73
9
 74
7
 40
0.000000
 40
0.000000
 40
0.000000
 40
0.000000
 40
1.275759
 40
2.287637
 40
2.826986
 40
3.205584
 40
3.793042
 40
4.480487
 40
4.480487
 40
4.480487
 40
4.480487
 10
155.488980
 20
136.884290
 30
0.0
 10
155.744202
 20
136.539107
 30
0.0
 10
156.201855
 20
135.920141
 30
0.0
 10
156.650187
 20
135.129875
 30
0.0
 10
157.029555
 20
134.530711
 30
0.0
 10
156.799736
 20
134.043265
 30
0.0
 10
156.498085
 20
133.593912
 30
0.0
 10
156.207557
 20
133.280218
 30
0.0
 10
156.050900
 20
133.111070
 30
0.0
 11
155.488980
 21
136.884290
 31
0.0
 11
156.225145
 21
135.842358
 31
0.0
 11
156.750201
 21
134.977366
 31
0.0
 11
156.950480
 21
134.476580
 31
0.0
 11
156.827204
 21
134.118614
 31
0.0
 11
156.504022
 21
133.628042
 31
0.0
 11
156.050900
 21
133.111070
 31
0.0
  0
LWPOLYLINE
  5
136
100
AcDbEntity
  8
Capa_1
 62
7
100
AcDbPolyline
 90
3
 70
0
 10
156.050900
 20
133.111070
 30
0.0
 10
155.151320
 20
132.211490
 30
0.0
 10
150.665730
 20
132.211490
 30
0.0
  0
SPLINE
  5
137
100
AcDbEntity
  8
Capa_1
 62
7
100
AcDbSpline
 70
0
 71
3
 72
37
 73
33
 74
31
 40
0.000000
 40
0.000000
 40
0.000000
 40
0.000000
 40
2.999186
 40
6.550883
 40
9.886851
 40
12.726094
 40
14.975823
 40
16.151523
 40
17.238694
 40
19.753158
 40
24.553827
 40
28.522715
 40
31.583089
 40
33.077268
 40
33.671656
 40
34.349227
 40
34.971698
 40
37.105577
 40
40.180568
 40
45.570492
 40
48.453718
 40
49.811818
 40
50.579401
 40
54.740347
 40
62.730735
 40
69.291451
 40
70.956977
 40
71.866454
 40
72.665243
 40
73.365688
 40
74.393132
 40
75.529535
 40
75.529535
 40
75.529535
 40
75.529535
 10
150.665730
 20
132.211490
 30
0.0
 10
149.666094
 20
132.221147
 30
0.0
 10
147.482669
 20
132.242240
 30
0.0
 10
144.187122
 20
132.341995
 30
0.0
 10
140.951824
 20
132.474149
 30
0.0
 10
138.135241
 20
132.639300
 30
0.0
 10
136.075037
 20
132.603989
 30
0.0
 10
134.516645
 20
132.749143
 30
0.0
 10
133.152117
 20
131.801716
 30
0.0
 10
131.239778
 20
129.794167
 30
0.0
 10
128.652994
 20
127.048689
 30
0.0
 10
125.968504
 20
124.145760
 30
0.0
 10
124.195449
 20
121.962115
 30
0.0
 10
122.975460
 20
120.684516
 30
0.0
 10
122.719560
 20
119.787590
 30
0.0
 10
122.597839
 20
119.168771
 30
0.0
 10
122.502063
 20
118.025156
 30
0.0
 10
123.013195
 20
116.053777
 30
0.0
 10
125.514349
 20
113.457249
 30
0.0
 10
128.425066
 20
111.038156
 30
0.0
 10
130.810179
 20
108.971365
 30
0.0
 10
132.160931
 20
107.856073
 30
0.0
 10
132.595036
 20
105.732772
 30
0.0
 10
130.796555
 20
101.594605
 30
0.0
 10
129.851844
 20
95.506651
 30
0.0
 10
128.413871
 20
90.222677
 30
0.0
 10
127.670110
 20
87.329166
 30
0.0
 10
127.074478
 20
86.262625
 30
0.0
 10
126.202815
 20
86.155594
 30
0.0
 10
125.384243
 20
86.306179
 30
0.0
 10
124.448447
 20
86.516523
 30
0.0
 10
123.757900
 20
86.723474
 30
0.0
 10
123.395240
 20
86.832160
 30
0.0
 11
150.665730
 21
132.211490
 31
0.0
 11
147.666790
 21
132.249894
 31
0.0
 11
144.116520
 21
132.350576
 31
0.0
 11
140.783540
 21
132.491740
 31
0.0
 11
137.946798
 21
132.610876
 31
0.0
 11
135.697479
 21
132.653791
 31
0.0
 11
134.522550
 21
132.611200
 31
0.0
 11
133.578831
 21
132.071445
 31
0.0
 11
131.758689
 21
130.336621
 31
0.0
 11
128.468410
 21
126.840840
 31
0.0
 11
125.804700
 21
123.898610
 31
0.0
 11
123.810180
 21
121.577450
 31
0.0
 11
122.916650
 21
120.379880
 31
0.0
 11
122.735104
 21
119.813896
 31
0.0
 11
122.607139
 21
119.148518
 31
0.0
 11
122.560460
 21
118.527800
 31
0.0
 11
123.060372
 21
116.453306
 31
0.0
 11
124.990968
 21
114.059904
 31
0.0
 11
129.036940
 21
110.498810
 31
0.0
 11
131.231039
 21
108.628269
 31
0.0
 11
132.146101
 21
107.624728
 31
0.0
 11
132.335820
 21
106.880960
 31
0.0
 11
131.456082
 21
102.814077
 31
0.0
 11
129.612115
 21
95.039370
 31
0.0
 11
128.017790
 21
88.675320
 31
0.0
 11
127.506073
 21
87.090353
 31
0.0
 11
126.965197
 21
86.359187
 31
0.0
 11
126.183360
 21
86.195500
 31
0.0
 11
125.489403
 21
86.290620
 31
0.0
 11
124.487744
 21
86.519353
 31
0.0
 11
123.395240
 21
86.832160
 31
0.0
  0
LWPOLYLINE
  5
138
100
AcDbEntity
  8
Capa_1
 62
7
100
AcDbPolyline
 90
2
 70
0
 10
123.395240
 20
86.832160
 30
0.0
 10
123.394760
 20
86.832130
 30
0.0
  0
SPLINE
  5
139
100
AcDbEntity
  8
Capa_1
 62
7
100
AcDbSpline
 70
0
 71
3
 72
19
 73
15
 74
13
 40
0.000000
 40
0.000000
 40
0.000000
 40
0.000000
 40
0.978289
 40
1.853024
 40
2.802951
 40
3.750539
 40
4.519004
 40
5.431590
 40
6.405860
 40
7.137428
 40
8.133904
 40
9.125319
 40
9.727354
 40
10.545345
 40
10.545345
 40
10.545345
 40
10.545345
 10
104.079450
 20
118.007150
 30
0.0
 10
103.878540
 20
118.273713
 30
0.0
 10
103.497987
 20
118.778622
 30
0.0
 10
103.518364
 20
119.788493
 30
0.0
 10
104.078090
 20
120.558749
 30
0.0
 10
104.829325
 20
121.099179
 30
0.0
 10
105.785190
 20
121.061052
 30
0.0
 10
106.427344
 20
120.400132
 30
0.0
 10
106.959567
 20
119.667325
 30
0.0
 10
106.850255
 20
118.684751
 30
0.0
 10
106.118192
 20
118.090248
 30
0.0
 10
105.487833
 20
117.475470
 30
0.0
 10
104.600722
 20
117.411176
 30
0.0
 10
104.269987
 20
117.789335
 30
0.0
 10
104.079470
 20
118.007170
 30
0.0
 11
104.079450
 21
118.007150
 31
0.0
 11
103.586544
 21
118.852190
 31
0.0
 11
103.599436
 21
119.726830
 31
0.0
 11
104.116550
 21
120.523670
 31
0.0
 11
104.922627
 21
121.021830
 31
0.0
 11
105.689996
 21
120.980800
 31
0.0
 11
106.395400
 21
120.401820
 31
0.0
 11
106.873287
 21
119.552805
 31
0.0
 11
106.790127
 21
118.825979
 31
0.0
 11
106.129720
 21
118.079770
 31
0.0
 11
105.316274
 21
117.513017
 31
0.0
 11
104.714616
 21
117.491710
 31
0.0
 11
104.079470
 21
118.007170
 31
0.0
  0
LWPOLYLINE
  5
13a
100
AcDbEntity
  8
Capa_1
 62
7
100
AcDbPolyline
 90
1
 70
1
 10
104.079470
 20
118.007170
 30
0.0
  0
SPLINE
  5
13b
100
AcDbEntity
  8
Capa_1
 62
7
100
AcDbSpline
 70
0
 71
3
 72
16
 73
12
 74
10
 40
0.000000
 40
0.000000
 40
0.000000
 40
0.000000
 40
1.068430
 40
3.698689
 40
7.323683
 40
11.062781
 40
13.993212
 40
15.485508
 40
17.092392
 40
22.485541
 40
35.334330
 40
35.334330
 40
35.334330
 40
35.334330
 10
62.229170
 20
129.013850
 30
0.0
 10
62.461149
 20
129.284189
 30
0.0
 10
63.264214
 20
130.220049
 30
0.0
 10
65.015279
 20
131.925948
 30
0.0
 10
67.375203
 20
134.269613
 30
0.0
 10
69.857179
 20
136.663562
 30
0.0
 10
71.652557
 20
138.658462
 30
0.0
 10
73.161673
 20
140.099934
 30
0.0
 10
73.473454
 20
143.033326
 30
0.0
 10
73.497045
 20
149.544018
 30
0.0
 10
73.561119
 20
155.654121
 30
0.0
 10
73.606250
 20
159.957800
 30
0.0
 11
62.229170
 21
129.013850
 31
0.0
 11
62.931890
 21
129.818666
 31
0.0
 11
64.774157
 21
131.695981
 31
0.0
 11
67.357130
 21
134.239370
 31
0.0
 11
70.007865
 21
136.876501
 31
0.0
 11
72.027762
 21
138.999575
 31
0.0
 11
72.979530
 21
140.148960
 31
0.0
 11
73.321344
 21
141.719067
 31
0.0
 11
73.491889
 21
147.109519
 31
0.0
 11
73.606250
 21
159.957800
 31
0.0
  0
LWPOLYLINE
  5
13c
100
AcDbEntity
  8
Capa_1
 62
7
100
AcDbPolyline
 90
3
 70
0
 10
73.606250
 20
159.957800
 30
0.0
 10
73.738540
 20
178.840610
 30
0.0
 10
86.093820
 20
191.046340
 30
0.0
  0
SPLINE
  5
13d
100
AcDbEntity
  8
Capa_1
 62
7
100
AcDbSpline
 70
0
 71
3
 72
13
 73
9
 74
7
 40
0.000000
 40
0.000000
 40
0.000000
 40
0.000000
 40
11.471115
 40
16.807763
 40
18.861533
 40
20.329427
 40
22.664289
 40
25.360916
 40
25.360916
 40
25.360916
 40
25.360916
 10
86.093820
 20
191.046340
 30
0.0
 10
88.792664
 20
193.753866
 30
0.0
 10
92.747077
 20
197.721001
 30
0.0
 10
97.275407
 20
202.090433
 30
0.0
 10
99.027693
 20
204.500252
 30
0.0
 10
99.738208
 20
206.326488
 30
0.0
 10
100.682205
 20
208.275371
 30
0.0
 10
101.395597
 20
209.793454
 30
0.0
 10
101.777940
 20
210.607070
 30
0.0
 11
86.093820
 21
191.046340
 31
0.0
 11
94.228007
 21
199.134694
 31
0.0
 11
97.900676
 21
203.006556
 31
0.0
 11
99.051970
 21
204.707290
 31
0.0
 11
99.646583
 21
206.049358
 31
0.0
 11
100.625914
 21
208.168909
 31
0.0
 11
101.777940
 21
210.607070
 31
0.0
  0
LWPOLYLINE
  5
13e
100
AcDbEntity
  8
Capa_1
 62
7
100
AcDbPolyline
 90
5
 70
0
 10
101.777940
 20
210.607070
 30
0.0
 10
103.901040
 20
215.051640
 30
0.0
 10
111.942130
 20
219.073737
 30
0.0
 10
119.983230
 20
223.095834
 30
0.0
 10
120.316290
 20
224.409852
 30
0.0
  0
SPLINE
  5
13f
100
AcDbEntity
  8
Capa_1
 62
7
100
AcDbSpline
 70
0
 71
3
 72
19
 73
15
 74
13
 40
0.000000
 40
0.000000
 40
0.000000
 40
0.000000
 40
1.673860
 40
3.098589
 40
4.582029
 40
5.419234
 40
6.092879
 40
6.964461
 40
7.840862
 40
8.519793
 40
9.382155
 40
10.265710
 40
10.990408
 40
12.028117
 40
12.028117
 40
12.028117
 40
12.028117
 10
120.316290
 20
224.409852
 30
0.0
 10
120.492833
 20
224.946440
 30
0.0
 10
120.819644
 20
225.939753
 30
0.0
 10
122.023630
 20
227.020157
 30
0.0
 10
123.294998
 20
227.223269
 30
0.0
 10
124.300289
 20
227.191650
 30
0.0
 10
125.050815
 20
226.873412
 30
0.0
 10
125.623396
 20
226.294899
 30
0.0
 10
126.203223
 20
225.722062
 30
0.0
 10
126.525527
 20
224.957375
 30
0.0
 10
126.520130
 20
224.143469
 30
0.0
 10
126.530541
 20
223.307913
 30
0.0
 10
126.133510
 20
222.490832
 30
0.0
 10
125.709518
 20
222.080085
 30
0.0
 10
125.459870
 20
221.838236
 30
0.0
 11
120.316290
 21
224.409852
 31
0.0
 11
120.988147
 21
225.942959
 31
0.0
 11
122.061730
 21
226.879587
 31
0.0
 11
123.510840
 21
227.196876
 31
0.0
 11
124.345594
 21
227.132853
 31
0.0
 11
124.965383
 21
226.868922
 31
0.0
 11
125.623330
 21
226.297293
 31
0.0
 11
126.198250
 21
225.635821
 31
0.0
 11
126.460540
 21
225.009601
 31
0.0
 11
126.522920
 21
224.149498
 31
0.0
 11
126.456328
 21
223.268456
 31
0.0
 11
126.153502
 21
222.610061
 31
0.0
 11
125.459870
 21
221.838236
 31
0.0
  0
SPLINE
  5
140
100
AcDbEntity
  8
Capa_1
 62
7
100
AcDbSpline
 70
0
 71
3
 72
22
 73
18
 74
16
 40
0.000000
 40
0.000000
 40
0.000000
 40
0.000000
 40
2.122880
 40
4.791324
 40
7.427624
 40
13.212077
 40
16.993260
 40
23.707023
 40
24.941231
 40
26.060971
 40
28.020939
 40
30.468527
 40
32.179997
 40
33.628053
 40
35.433767
 40
37.055357
 40
39.298795
 40
39.298795
 40
39.298795
 40
39.298795
 10
118.509340
 20
219.279792
 30
0.0
 10
117.937449
 20
218.863294
 30
0.0
 10
116.646696
 20
217.923263
 30
0.0
 10
114.633386
 20
216.477117
 30
0.0
 10
111.697945
 20
214.256180
 30
0.0
 10
108.005244
 20
212.220720
 30
0.0
 10
105.513609
 20
207.139504
 30
0.0
 10
105.593734
 20
203.197691
 30
0.0
 10
105.379074
 20
200.136272
 30
0.0
 10
104.627215
 20
198.870847
 30
0.0
 10
103.349731
 20
197.544551
 30
0.0
 10
102.046614
 20
195.981997
 30
0.0
 10
101.151622
 20
194.273991
 30
0.0
 10
101.206413
 20
192.585101
 30
0.0
 10
101.773769
 20
190.972208
 30
0.0
 10
103.491823
 20
189.918451
 30
0.0
 10
104.797067
 20
189.901468
 30
0.0
 10
105.554690
 20
189.891610
 30
0.0
 11
118.509340
 21
219.279792
 31
0.0
 11
116.792103
 21
218.031707
 31
0.0
 11
114.633190
 21
216.463367
 31
0.0
 11
112.500000
 21
214.914310
 31
0.0
 11
107.922203
 21
211.378259
 31
0.0
 11
106.180267
 21
208.022218
 31
0.0
 11
105.458170
 21
201.347400
 31
0.0
 11
105.278900
 21
200.126281
 31
0.0
 11
104.750517
 21
199.139049
 31
0.0
 11
103.478260
 21
197.648130
 31
0.0
 11
101.966686
 21
195.723076
 31
0.0
 11
101.267784
 21
194.160814
 31
0.0
 11
101.270350
 21
192.712760
 31
0.0
 11
101.972716
 21
191.049244
 31
0.0
 11
103.327057
 21
190.157439
 31
0.0
 11
105.554690
 21
189.891610
 31
0.0
  0
LWPOLYLINE
  5
141
100
AcDbEntity
  8
Capa_1
 62
7
100
AcDbPolyline
 90
5
 70
0
 10
125.459870
 20
221.838236
 30
0.0
 10
124.396820
 20
220.775185
 30
0.0
 10
122.671810
 20
220.913651
 30
0.0
 10
120.946810
 20
221.052118
 30
0.0
 10
118.509340
 20
219.279792
 30
0.0
  0
SPLINE
  5
142
100
AcDbEntity
  8
Capa_1
 62
7
100
AcDbSpline
 70
0
 71
3
 72
10
 73
6
 74
4
 40
0.000000
 40
0.000000
 40
0.000000
 40
0.000000
 40
2.121753
 40
3.906276
 40
8.363883
 40
8.363883
 40
8.363883
 40
8.363883
 10
105.554690
 20
189.891610
 30
0.0
 10
106.359271
 20
189.975624
 30
0.0
 10
107.840555
 20
190.130299
 30
0.0
 10
108.812202
 20
187.056088
 30
0.0
 10
108.648297
 20
185.042836
 30
0.0
 10
108.531250
 20
183.605140
 30
0.0
 11
105.554690
 21
189.891610
 31
0.0
 11
107.665297
 21
189.674422
 31
0.0
 11
108.429003
 21
188.061574
 31
0.0
 11
108.531250
 21
183.605140
 31
0.0
  0
LWPOLYLINE
  5
143
100
AcDbEntity
  8
Capa_1
 62
7
100
AcDbPolyline
 90
3
 70
0
 10
108.531250
 20
183.605140
 30
0.0
 10
108.531250
 20
178.378000
 30
0.0
 10
100.434940
 20
170.309830
 30
0.0
  0
SPLINE
  5
144
100
AcDbEntity
  8
Capa_1
 62
7
100
AcDbSpline
 70
0
 71
3
 72
13
 73
9
 74
7
 40
0.000000
 40
0.000000
 40
0.000000
 40
0.000000
 40
5.875844
 40
10.294046
 40
12.302623
 40
13.531289
 40
16.295092
 40
21.323938
 40
21.323938
 40
21.323938
 40
21.323938
 10
100.434940
 20
170.309830
 30
0.0
 10
99.028622
 20
168.931353
 30
0.0
 10
96.564857
 20
166.516362
 30
0.0
 10
93.950685
 20
163.464342
 30
0.0
 10
91.884538
 20
161.711864
 30
0.0
 10
91.681683
 20
159.649241
 30
0.0
 10
91.600095
 20
156.681153
 30
0.0
 10
91.598773
 20
154.074431
 30
0.0
 10
91.597920
 20
152.392230
 30
0.0
 11
100.434940
 21
170.309830
 31
0.0
 11
96.306040
 21
166.129194
 31
0.0
 11
93.264310
 21
162.924760
 31
0.0
 11
91.968270
 21
161.390270
 31
0.0
 11
91.742938
 21
160.182443
 31
0.0
 11
91.629279
 21
157.420977
 31
0.0
 11
91.597920
 21
152.392230
 31
0.0
  0
LWPOLYLINE
  5
145
100
AcDbEntity
  8
Capa_1
 62
7
100
AcDbPolyline
 90
3
 70
0
 10
91.597920
 20
152.392230
 30
0.0
 10
91.597920
 20
144.245590
 30
0.0
 10
85.710940
 20
138.417110
 30
0.0
  0
SPLINE
  5
146
100
AcDbEntity
  8
Capa_1
 62
7
100
AcDbSpline
 70
0
 71
3
 72
10
 73
6
 74
4
 40
0.000000
 40
0.000000
 40
0.000000
 40
0.000000
 40
4.553721
 40
8.528629
 40
11.064281
 40
11.064281
 40
11.064281
 40
11.064281
 10
85.710940
 20
138.417110
 30
0.0
 10
84.630690
 20
137.350765
 30
0.0
 10
82.607498
 20
135.353617
 30
0.0
 10
79.975153
 20
132.770365
 30
0.0
 10
78.410875
 20
131.266109
 30
0.0
 10
77.801640
 20
130.680250
 30
0.0
 11
85.710940
 21
138.417110
 31
0.0
 11
82.468512
 21
135.219762
 31
0.0
 11
79.627021
 21
132.440225
 31
0.0
 11
77.801640
 21
130.680250
 31
0.0
  0
LWPOLYLINE
  5
147
100
AcDbEntity
  8
Capa_1
 62
7
100
AcDbPolyline
 90
3
 70
0
 10
77.801640
 20
130.680250
 30
0.0
 10
75.779320
 20
128.771870
 30
0.0
 10
69.004240
 20
128.771870
 30
0.0
  0
SPLINE
  5
148
100
AcDbEntity
  8
Capa_1
 62
7
100
AcDbSpline
 70
0
 71
3
 72
10
 73
6
 74
4
 40
0.000000
 40
0.000000
 40
0.000000
 40
0.000000
 40
3.498140
 40
5.890987
 40
6.785506
 40
6.785506
 40
6.785506
 40
6.785506
 10
69.004240
 20
128.771870
 30
0.0
 10
67.839265
 20
128.786599
 30
0.0
 10
65.877407
 20
128.811403
 30
0.0
 10
63.607616
 20
128.798974
 30
0.0
 10
62.524024
 20
128.967887
 30
0.0
 10
62.229170
 20
129.013850
 30
0.0
 11
69.004240
 21
128.771870
 31
0.0
 11
65.506243
 21
128.803506
 31
0.0
 11
63.114921
 21
128.888914
 31
0.0
 11
62.229170
 21
129.013850
 31
0.0
  0
LWPOLYLINE
  5
149
100
AcDbEntity
  8
Capa_1
 62
7
100
AcDbPolyline
 90
1
 70
1
 10
62.229170
 20
129.013850
 30
0.0
  0
SPLINE
  5
14a
100
AcDbEntity
  8
Capa_1
 62
7
100
AcDbSpline
 70
0
 71
3
 72
13
 73
9
 74
7
 40
0.000000
 40
0.000000
 40
0.000000
 40
0.000000
 40
0.667147
 40
1.448201
 40
2.187507
 40
4.381426
 40
6.583778
 40
8.787748
 40
8.787748
 40
8.787748
 40
8.787748
 10
84.956240
 20
145.685910
 30
0.0
 10
85.126024
 20
145.830253
 30
0.0
 10
85.494581
 20
146.143585
 30
0.0
 10
85.950444
 20
146.716845
 30
0.0
 10
86.631091
 20
147.756909
 30
0.0
 10
86.934692
 20
149.525920
 30
0.0
 10
86.259101
 20
151.755460
 30
0.0
 10
85.059454
 20
152.658949
 30
0.0
 10
84.459410
 20
153.110860
 30
0.0
 11
84.956240
 21
145.685910
 31
0.0
 11
85.451424
 21
146.132986
 31
0.0
 11
85.949056
 21
146.734991
 31
0.0
 11
86.341400
 21
147.361600
 31
0.0
 11
86.757401
 21
149.515718
 31
0.0
 11
86.072249
 21
151.608782
 31
0.0
 11
84.459410
 21
153.110860
 31
0.0
  0
LWPOLYLINE
  5
14b
100
AcDbEntity
  8
Capa_1
 62
7
100
AcDbPolyline
 90
7
 70
0
 10
84.459410
 20
153.110860
 30
0.0
 10
83.459650
 20
153.620910
 30
0.0
 10
83.493850
 20
161.832660
 30
0.0
 10
83.528050
 20
170.044410
 30
0.0
 10
87.772070
 20
174.288650
 30
0.0
 10
92.016090
 20
178.532880
 30
0.0
 10
92.989090
 20
178.126340
 30
0.0
  0
SPLINE
  5
14c
100
AcDbEntity
  8
Capa_1
 62
7
100
AcDbSpline
 70
0
 71
3
 72
19
 73
15
 74
13
 40
0.000000
 40
0.000000
 40
0.000000
 40
0.000000
 40
1.853265
 40
3.598269
 40
5.403934
 40
6.736604
 40
7.920134
 40
9.191821
 40
12.556755
 40
15.762690
 40
19.089974
 40
20.611528
 40
21.894313
 40
23.472785
 40
23.472785
 40
23.472785
 40
23.472785
 10
92.989090
 20
178.126340
 30
0.0
 10
93.585848
 20
177.940391
 30
0.0
 10
94.744503
 20
177.579355
 30
0.0
 10
96.589803
 20
177.912296
 30
0.0
 10
97.965125
 20
178.838871
 30
0.0
 10
98.929688
 20
179.928362
 30
0.0
 10
99.456655
 20
181.099778
 30
0.0
 10
99.669692
 20
183.048701
 30
0.0
 10
98.658631
 20
185.725177
 30
0.0
 10
95.432832
 20
187.380047
 30
0.0
 10
92.634277
 20
186.514229
 30
0.0
 10
91.101081
 20
185.127513
 30
0.0
 10
90.427790
 20
183.781436
 30
0.0
 10
90.398009
 20
182.817909
 30
0.0
 10
90.381580
 20
182.286360
 30
0.0
 11
92.989090
 21
178.126340
 31
0.0
 11
94.797948
 21
177.723073
 31
0.0
 11
96.517772
 21
178.018444
 31
0.0
 11
98.037610
 21
178.993390
 31
0.0
 11
98.903639
 21
180.006307
 31
0.0
 11
99.385904
 21
181.087123
 31
0.0
 11
99.535340
 21
182.350000
 31
0.0
 11
98.298702
 21
185.479458
 31
0.0
 11
95.438491
 21
186.927632
 31
0.0
 11
92.229260
 21
186.049190
 31
0.0
 11
91.120983
 21
185.006670
 31
0.0
 11
90.555577
 21
183.855213
 31
0.0
 11
90.381580
 21
182.286360
 31
0.0
  0
LWPOLYLINE
  5
14d
100
AcDbEntity
  8
Capa_1
 62
7
100
AcDbPolyline
 90
3
 70
0
 10
90.381580
 20
182.286360
 30
0.0
 10
90.355980
 20
180.611290
 30
0.0
 10
85.848230
 20
176.056680
 30
0.0
  0
SPLINE
  5
14e
100
AcDbEntity
  8
Capa_1
 62
7
100
AcDbSpline
 70
0
 71
3
 72
13
 73
9
 74
7
 40
0.000000
 40
0.000000
 40
0.000000
 40
0.000000
 40
4.013378
 40
6.259664
 40
7.420718
 40
8.948458
 40
12.028757
 40
16.448422
 40
16.448422
 40
16.448422
 40
16.448422
 10
85.848230
 20
176.056680
 30
0.0
 10
84.911740
 20
175.099633
 30
0.0
 10
83.451096
 20
173.606927
 30
0.0
 10
81.770392
 20
171.802565
 30
0.0
 10
80.891294
 20
170.362131
 30
0.0
 10
80.900262
 20
168.385900
 30
0.0
 10
80.739669
 20
165.409862
 30
0.0
 10
80.747075
 20
162.903235
 30
0.0
 10
80.751440
 20
161.426100
 30
0.0
 11
85.848230
 21
176.056680
 31
0.0
 11
83.056396
 21
173.173476
 31
0.0
 11
81.596208
 21
171.466534
 31
0.0
 11
81.046700
 21
170.443750
 31
0.0
 11
80.888051
 21
168.924270
 31
0.0
 11
80.787249
 21
165.845620
 31
0.0
 11
80.751440
 21
161.426100
 31
0.0
  0
LWPOLYLINE
  5
14f
100
AcDbEntity
  8
Capa_1
 62
7
100
AcDbPolyline
 90
3
 70
0
 10
80.751440
 20
161.426100
 30
0.0
 10
80.750440
 20
153.466780
 30
0.0
 10
79.782040
 20
152.827140
 30
0.0
  0
SPLINE
  5
150
100
AcDbEntity
  8
Capa_1
 62
7
100
AcDbSpline
 70
0
 71
3
 72
13
 73
9
 74
7
 40
0.000000
 40
0.000000
 40
0.000000
 40
0.000000
 40
2.167090
 40
4.294869
 40
6.470238
 40
8.924752
 40
11.376079
 40
13.896360
 40
13.896360
 40
13.896360
 40
13.896360
 10
79.782040
 20
152.827140
 30
0.0
 10
79.235333
 20
152.331341
 30
0.0
 10
78.151836
 20
151.348738
 30
0.0
 10
77.668459
 20
149.118393
 30
0.0
 10
78.241460
 20
146.847349
 30
0.0
 10
80.063516
 20
145.154550
 30
0.0
 10
82.649317
 20
144.579221
 30
0.0
 10
84.180474
 20
145.313618
 30
0.0
 10
84.956670
 20
145.685910
 30
0.0
 11
79.782040
 21
152.827140
 31
0.0
 11
78.336084
 21
151.212987
 31
0.0
 11
77.839829
 21
149.143887
 31
0.0
 11
78.394120
 21
147.040320
 31
0.0
 11
80.175960
 21
145.352219
 31
0.0
 11
82.576690
 21
144.856744
 31
0.0
 11
84.956670
 21
145.685910
 31
0.0
  0
LWPOLYLINE
  5
151
100
AcDbEntity
  8
Capa_1
 62
7
100
AcDbPolyline
 90
2
 70
0
 10
84.956670
 20
145.685910
 30
0.0
 10
84.956240
 20
145.685910
 30
0.0
  0
SPLINE
  5
152
100
AcDbEntity
  8
Capa_1
 62
7
100
AcDbSpline
 70
0
 71
3
 72
16
 73
12
 74
10
 40
0.000000
 40
0.000000
 40
0.000000
 40
0.000000
 40
1.465440
 40
2.831667
 40
4.293510
 40
5.215521
 40
6.201820
 40
7.075580
 40
8.394214
 40
9.697218
 40
11.039972
 40
11.039972
 40
11.039972
 40
11.039972
 10
81.201570
 20
147.826120
 30
0.0
 10
80.883042
 20
148.235649
 30
0.0
 10
80.267550
 20
149.026981
 30
0.0
 10
80.821476
 20
150.581775
 30
0.0
 10
82.121291
 20
151.157350
 30
0.0
 10
83.225425
 20
150.759799
 30
0.0
 10
83.922864
 20
150.120971
 30
0.0
 10
84.353053
 20
149.081885
 30
0.0
 10
83.789556
 20
147.897911
 30
0.0
 10
82.470182
 20
147.255855
 30
0.0
 10
81.628655
 20
147.634137
 30
0.0
 10
81.201570
 20
147.826120
 30
0.0
 11
81.201570
 21
147.826120
 31
0.0
 11
80.508673
 21
149.117402
 31
0.0
 11
80.952757
 21
150.409441
 31
0.0
 11
82.291380
 21
150.996870
 31
0.0
 11
83.170093
 21
150.717640
 31
0.0
 11
83.890747
 21
150.044260
 31
0.0
 11
84.189580
 21
149.223190
 31
0.0
 11
83.673226
 21
148.009858
 31
0.0
 11
82.492870
 21
147.457972
 31
0.0
 11
81.201570
 21
147.826120
 31
0.0
  0
LWPOLYLINE
  5
153
100
AcDbEntity
  8
Capa_1
 62
7
100
AcDbPolyline
 90
1
 70
1
 10
81.201570
 20
147.826120
 30
0.0
  0
SPLINE
  5
154
100
AcDbEntity
  8
Capa_1
 62
7
100
AcDbSpline
 70
0
 71
3
 72
16
 73
12
 74
10
 40
0.000000
 40
0.000000
 40
0.000000
 40
0.000000
 40
1.540498
 40
2.990374
 40
4.528185
 40
5.529848
 40
6.553753
 40
7.587568
 40
9.104462
 40
10.579745
 40
12.100693
 40
12.100693
 40
12.100693
 40
12.100693
 10
93.496120
 20
180.977990
 30
0.0
 10
93.225423
 20
181.446677
 30
0.0
 10
92.699954
 20
182.356479
 30
0.0
 10
93.402761
 20
183.923087
 30
0.0
 10
94.766167
 20
184.486995
 30
0.0
 10
95.956780
 20
184.116678
 30
0.0
 10
96.684061
 20
183.348975
 30
0.0
 10
97.044440
 20
182.152381
 30
0.0
 10
96.430326
 20
180.793440
 30
0.0
 10
94.842965
 20
180.142036
 30
0.0
 10
93.949607
 20
180.696522
 30
0.0
 10
93.496120
 20
180.977990
 30
0.0
 11
93.496120
 21
180.977990
 31
0.0
 11
92.946651
 21
182.417163
 31
0.0
 11
93.520373
 21
183.748697
 31
0.0
 11
94.942290
 21
184.334370
 31
0.0
 11
95.901596
 21
184.046170
 31
0.0
 11
96.611954
 21
183.308760
 31
0.0
 11
96.889580
 21
182.312920
 31
0.0
 11
96.270807
 21
180.927969
 31
0.0
 11
94.897933
 21
180.387901
 31
0.0
 11
93.496120
 21
180.977990
 31
0.0
  0
LWPOLYLINE
  5
155
100
AcDbEntity
  8
Capa_1
 62
7
100
AcDbPolyline
 90
1
 70
1
 10
93.496120
 20
180.977990
 30
0.0
  0
SPLINE
  5
156
100
AcDbEntity
  8
Capa_1
 62
7
100
AcDbSpline
 70
0
 71
3
 72
16
 73
12
 74
10
 40
0.000000
 40
0.000000
 40
0.000000
 40
0.000000
 40
0.869125
 40
1.632745
 40
2.477737
 40
3.888034
 40
5.254928
 40
6.618705
 40
8.044015
 40
9.513711
 40
10.899467
 40
10.899467
 40
10.899467
 40
10.899467
 10
117.409800
 20
149.997410
 30
0.0
 10
117.259617
 20
150.252181
 30
0.0
 10
116.977482
 20
150.730795
 30
0.0
 10
117.037034
 20
151.601619
 30
0.0
 10
117.592992
 20
152.480299
 30
0.0
 10
118.814987
 20
153.009859
 30
0.0
 10
120.234568
 20
152.513951
 30
0.0
 10
120.953509
 20
151.096911
 30
0.0
 10
120.152470
 20
149.716849
 30
0.0
 10
118.633632
 20
149.145468
 30
0.0
 10
117.809670
 20
149.719050
 30
0.0
 10
117.409800
 20
149.997410
 30
0.0
 11
117.409800
 21
149.997410
 31
0.0
 11
117.050314
 21
150.788705
 31
0.0
 11
117.093122
 21
151.551125
 31
0.0
 11
117.537390
 21
152.269900
 31
0.0
 11
118.833532
 21
152.825735
 31
0.0
 11
120.119438
 21
152.362221
 31
0.0
 11
120.702080
 21
151.129170
 31
0.0
 11
120.043830
 21
149.864964
 31
0.0
 11
118.653963
 21
149.387183
 31
0.0
 11
117.409800
 21
149.997410
 31
0.0
  0
LWPOLYLINE
  5
157
100
AcDbEntity
  8
Capa_1
 62
7
100
AcDbPolyline
 90
1
 70
1
 10
117.409800
 20
149.997410
 30
0.0
  0
LWPOLYLINE
  5
158
100
AcDbEntity
  8
Capa_1
 62
7
100
AcDbPolyline
 90
1
 70
1
 10
138.302230
 20
151.038770
 30
0.0
  0
SPLINE
  5
159
100
AcDbEntity
  8
Capa_1
 62
7
100
AcDbSpline
 70
0
 71
3
 72
16
 73
12
 74
10
 40
0.000000
 40
0.000000
 40
0.000000
 40
0.000000
 40
1.059459
 40
1.977082
 40
3.132713
 40
4.660087
 40
6.148359
 40
7.763137
 40
9.461854
 40
10.977974
 40
12.686137
 40
12.686137
 40
12.686137
 40
12.686137
 10
138.302230
 20
151.038770
 30
0.0
 10
138.085381
 20
151.332900
 30
0.0
 10
137.680713
 20
151.881785
 30
0.0
 10
137.796347
 20
152.996325
 30
0.0
 10
138.498595
 20
154.005566
 30
0.0
 10
139.888761
 20
154.670036
 30
0.0
 10
141.451507
 20
153.921186
 30
0.0
 10
142.082971
 20
152.300412
 30
0.0
 10
141.471117
 20
150.615285
 30
0.0
 10
139.676215
 20
149.952655
 30
0.0
 10
138.778057
 20
150.662636
 30
0.0
 10
138.302230
 20
151.038770
 30
0.0
 11
138.302230
 21
151.038770
 31
0.0
 11
137.788841
 21
151.965530
 31
0.0
 11
137.851782
 21
152.880993
 31
0.0
 11
138.494900
 21
153.841140
 31
0.0
 11
139.905060
 21
154.427927
 31
0.0
 11
141.261777
 21
153.816150
 31
0.0
 11
141.868750
 21
152.319790
 31
0.0
 11
141.234439
 21
150.743945
 31
0.0
 11
139.807568
 21
150.231442
 31
0.0
 11
138.302230
 21
151.038770
 31
0.0
  0
LWPOLYLINE
  5
15a
100
AcDbEntity
  8
Capa_1
 62
7
100
AcDbPolyline
 90
4
 70
1
 10
152.967650
 20
129.496980
 30
0.0
 10
163.880150
 20
129.496980
 30
0.0
 10
163.880150
 20
119.896980
 30
0.0
 10
152.967650
 20
119.896980
 30
0.0
  0
ENDSEC
  0
SECTION
  2
OBJECTS
  0
DICTIONARY
  5
C
330
0
100
AcDbDictionary
  3
ACAD_GROUP
350
D
  3
ACAD_MLINESTYLE
350
17
  0
DICTIONARY
  5
D
330
C
100
AcDbDictionary
  0
DICTIONARY
  5
1A
330
C
100
AcDbDictionary
  0
DICTIONARY
  5
17
330
C
100
AcDbDictionary
  3
STANDARD
350
18
  0
DICTIONARY
  5
19
330
C
100
AcDbDictionary
  0
ENDSEC
  0
EOF
